<svg width="20" height="20" viewBox="0 0 20 20" fill="none" xmlns="http://www.w3.org/2000/svg">
<path fill-rule="evenodd" clip-rule="evenodd" d="M9.99999 18.3333C5.39749 18.3333 1.66666 14.6025 1.66666 10C1.66666 5.39751 5.39749 1.66667 9.99999 1.66667C14.6025 1.66667 18.3333 5.39751 18.3333 10C18.3333 14.6025 14.6025 18.3333 9.99999 18.3333ZM9.99999 16.6667C13.6819 16.6667 16.6667 13.6819 16.6667 10C16.6667 6.31811 13.6819 3.33334 9.99999 3.33334C6.31809 3.33334 3.33332 6.31811 3.33332 10C3.33332 13.6819 6.31809 16.6667 9.99999 16.6667ZM5.63313 9.79762L9.16896 13.3335L15.0615 7.44095L13.8823 6.26262L9.16896 10.9768L6.81146 8.61929L5.63313 9.79762Z" fill="#19DE80"/>
</svg>
