<svg width="500" height="370" viewBox="0 0 500 370" fill="none" xmlns="http://www.w3.org/2000/svg">
<g clip-path="url(#clip0_3706_26542)">
<path opacity="0.7" d="M378.809 336.156C378.391 336.411 377.964 336.659 377.538 336.906C377.142 337.131 376.747 337.355 376.351 337.572C375.94 337.804 375.529 338.028 375.111 338.252C374.692 338.477 374.273 338.693 373.855 338.91C373.436 339.126 373.017 339.343 372.598 339.552C372.172 339.761 371.753 339.97 371.327 340.178L370.047 340.782C369.621 340.975 369.194 341.169 368.76 341.362C368.249 341.594 367.729 341.818 367.209 342.035C366.69 342.259 366.17 342.476 365.651 342.685C364.604 343.11 363.55 343.52 362.495 343.907C362.084 344.062 361.673 344.209 361.262 344.356C361.099 344.41 360.936 344.472 360.774 344.526C359.215 345.075 357.649 345.586 356.059 346.058C354.981 346.383 353.888 346.692 352.795 346.986C352.244 347.133 351.701 347.272 351.151 347.411C350.507 347.574 349.864 347.736 349.22 347.883C348.755 347.992 348.297 348.1 347.84 348.2C345.591 348.703 343.319 349.144 341.04 349.531C340.512 349.624 339.985 349.709 339.45 349.786C338.892 349.879 338.326 349.964 337.76 350.042C336.628 350.204 335.496 350.351 334.364 350.49C333.797 350.552 333.231 350.622 332.665 350.676C332.262 350.722 331.859 350.761 331.456 350.8C331.192 350.831 330.929 350.854 330.673 350.877C329.641 350.978 328.618 351.063 327.587 351.132C325.175 351.31 322.764 351.434 320.36 351.496C320.026 351.511 319.693 351.519 319.36 351.527C318.786 351.535 318.212 351.55 317.638 351.55C316.956 351.558 316.273 351.566 315.591 351.566C313.924 351.566 312.257 351.542 310.598 351.496C309.396 351.465 308.202 351.419 307.007 351.364C306.775 351.357 306.55 351.341 306.317 351.326C304.348 351.233 302.386 351.101 300.432 350.947C299.098 350.838 297.772 350.715 296.439 350.591L296.276 350.568C295.656 350.506 295.028 350.436 294.407 350.374C293.609 350.281 292.818 350.189 292.027 350.096C291.461 350.026 290.902 349.957 290.336 349.879C289.693 349.794 289.049 349.709 288.398 349.616C286.033 349.284 283.676 348.912 281.326 348.502C280.745 348.402 280.163 348.293 279.582 348.185C278.496 347.992 277.418 347.783 276.348 347.566C275.836 347.466 275.332 347.365 274.821 347.257C272.541 346.785 270.277 346.282 268.02 345.733C267.377 345.586 266.741 345.423 266.105 345.269C265.469 345.106 264.833 344.951 264.19 344.781C259.553 343.59 254.955 342.244 250.396 340.766C249.907 340.612 249.419 340.449 248.93 340.287C247.72 339.892 246.519 339.482 245.317 339.065C244.278 338.701 243.246 338.337 242.215 337.966C240.618 337.386 239.028 336.79 237.446 336.187C236.361 335.769 235.275 335.344 234.197 334.91C232.972 334.423 231.755 333.928 230.53 333.417C229.468 332.977 228.405 332.528 227.351 332.071C226.955 331.894 226.552 331.723 226.149 331.545C225.187 331.128 224.218 330.694 223.257 330.261C222.14 329.758 221.016 329.248 219.899 328.722C219.736 328.645 219.566 328.567 219.395 328.49C218.286 327.971 217.177 327.438 216.069 326.904C215.115 326.448 214.161 325.976 213.215 325.504C211.796 324.8 210.385 324.08 208.974 323.353C207.795 322.75 206.624 322.131 205.453 321.504C204.422 320.955 203.391 320.398 202.36 319.833C202.22 319.756 202.073 319.679 201.933 319.601C200.879 319.021 199.832 318.441 198.793 317.853C198.002 317.404 197.211 316.956 196.428 316.499C195.66 316.058 194.892 315.618 194.133 315.169C193.404 314.743 192.667 314.31 191.946 313.877C190.705 313.134 189.472 312.392 188.24 311.634C180.757 307.039 173.46 302.157 166.381 297.059C154.463 288.48 142.902 279.012 132.31 268.662C131.581 267.95 130.86 267.238 130.139 266.519C126.51 262.883 122.997 259.147 119.648 255.302C110.8 245.184 103 234.338 96.7192 222.789C92.0357 214.179 88.2053 205.174 85.4138 195.783C84.7935 193.702 84.2275 191.613 83.7235 189.502C83.297 187.769 82.9171 186.036 82.5681 184.28C81.1491 177.093 80.4048 169.83 80.2885 162.566C80.2497 160.284 80.2729 158.002 80.366 155.72C80.9165 141.3 83.8941 126.966 88.9264 113.281C96.7967 91.8687 109.684 72.0575 126.169 56.029C160.147 22.9819 187.945 7.46396 235.694 4.17627C235.694 4.17627 274.363 -3.66778 297.99 44.9205C306.434 62.2717 311.644 81.2553 322.601 97.1986C337.558 118.952 361.316 133.085 380.554 151.326C406.638 176.049 424.736 209.878 425.915 245.423C427.101 280.969 409.779 317.629 378.809 336.156Z" fill="#02A5E2"/>
<g opacity="0.7">
<path opacity="0.7" d="M378.809 336.156C378.391 336.411 377.964 336.659 377.538 336.906C377.142 337.131 376.747 337.355 376.351 337.572C375.94 337.804 375.529 338.028 375.111 338.252C374.692 338.477 374.273 338.693 373.855 338.91C373.436 339.126 373.017 339.343 372.598 339.552C372.172 339.761 371.753 339.97 371.327 340.178L370.047 340.782C369.621 340.975 369.194 341.169 368.76 341.362C368.249 341.594 367.729 341.818 367.209 342.035C366.69 342.259 366.17 342.476 365.651 342.685C364.604 343.11 363.55 343.52 362.495 343.907C362.084 344.062 361.673 344.209 361.262 344.356C361.099 344.41 360.936 344.472 360.774 344.526C359.215 345.075 357.649 345.578 356.059 346.058C354.981 346.383 353.888 346.692 352.795 346.986C352.244 347.133 351.701 347.272 351.151 347.411C350.507 347.574 349.864 347.736 349.22 347.883C348.755 347.992 348.297 348.1 347.84 348.2C345.591 348.703 343.319 349.144 341.04 349.531C340.512 349.624 339.985 349.709 339.45 349.786C338.892 349.879 338.326 349.964 337.76 350.042C336.628 350.204 335.496 350.351 334.364 350.49C333.797 350.552 333.231 350.622 332.665 350.676C332.262 350.722 331.859 350.761 331.456 350.8C331.192 350.831 330.929 350.854 330.673 350.877C329.641 350.978 328.618 351.063 327.587 351.132C325.175 351.31 322.764 351.434 320.36 351.496C320.026 351.511 319.693 351.519 319.36 351.527C318.786 351.535 318.212 351.55 317.638 351.55C316.956 351.558 316.273 351.566 315.591 351.566C313.924 351.566 312.257 351.542 310.598 351.496C309.396 351.465 308.202 351.419 307.007 351.364C306.775 351.357 306.55 351.341 306.317 351.326C304.348 351.233 302.386 351.101 300.432 350.947C299.098 350.838 297.772 350.715 296.439 350.591L296.276 350.568C295.656 350.506 295.028 350.436 294.407 350.374C293.609 350.281 292.818 350.189 292.027 350.096C291.461 350.026 290.902 349.957 290.336 349.879C289.693 349.794 289.049 349.709 288.398 349.616C286.033 349.284 283.676 348.912 281.326 348.502C280.745 348.402 280.163 348.293 279.582 348.185C278.496 347.992 277.418 347.783 276.348 347.566C275.836 347.466 275.332 347.365 274.821 347.257C272.541 346.785 270.277 346.282 268.02 345.733C267.377 345.586 266.741 345.423 266.105 345.269C265.469 345.106 264.833 344.951 264.19 344.781C259.553 343.59 254.955 342.244 250.396 340.766C249.907 340.612 249.419 340.449 248.93 340.287C247.72 339.892 246.519 339.482 245.317 339.065C244.278 338.701 243.246 338.337 242.215 337.966C240.618 337.386 239.028 336.79 237.446 336.187C236.361 335.769 235.275 335.344 234.197 334.91C232.972 334.423 231.755 333.928 230.53 333.417C229.468 332.977 228.405 332.528 227.351 332.071C226.955 331.894 226.552 331.723 226.149 331.545C225.187 331.128 224.218 330.694 223.257 330.261C222.14 329.758 221.016 329.248 219.899 328.722C219.736 328.645 219.566 328.567 219.395 328.49C218.286 327.971 217.177 327.438 216.069 326.904C215.115 326.448 214.161 325.976 213.215 325.504C211.796 324.8 210.385 324.08 208.974 323.353C207.795 322.75 206.624 322.131 205.453 321.504C204.422 320.955 203.391 320.398 202.36 319.833C202.22 319.756 202.073 319.679 201.933 319.601C200.879 319.021 199.832 318.441 198.793 317.853C198.002 317.404 197.211 316.956 196.428 316.499C195.66 316.058 194.892 315.618 194.133 315.169C193.404 314.743 192.667 314.31 191.946 313.877C190.705 313.134 189.472 312.392 188.24 311.634C180.757 307.039 173.46 302.157 166.381 297.059C154.463 288.48 142.902 279.012 132.31 268.662C131.581 267.95 130.86 267.238 130.139 266.519C126.51 262.883 122.997 259.147 119.648 255.302C110.8 245.184 103 234.338 96.7192 222.789C92.0357 214.179 88.2053 205.174 85.4138 195.783C84.7935 193.702 84.2275 191.613 83.7235 189.502C83.297 187.769 82.9171 186.036 82.5681 184.28C81.1491 177.093 80.4048 169.83 80.2885 162.566C80.2497 160.284 80.2729 158.002 80.366 155.72C80.9165 141.3 83.8941 126.966 88.9264 113.281C96.7967 91.8687 109.684 72.0575 126.169 56.029C160.147 22.9819 187.945 7.46396 235.694 4.17627C235.694 4.17627 274.363 -3.66778 297.99 44.9205C306.434 62.2717 311.644 81.2553 322.601 97.1986C337.558 118.952 361.316 133.085 380.554 151.326C406.638 176.049 424.736 209.878 425.915 245.423C427.101 280.969 409.779 317.629 378.809 336.156Z" fill="white"/>
</g>
<path d="M336.372 85.9277H356.431C363.829 85.9277 369.83 91.9152 369.83 99.2951C369.83 106.675 363.829 112.662 356.431 112.662H325.702C318.305 112.662 312.303 106.675 312.303 99.2951C312.303 91.9152 318.305 85.9277 325.702 85.9277" stroke="#263238" stroke-miterlimit="10"/>
<path d="M330.292 85.9277H333.79" stroke="#263238" stroke-miterlimit="10"/>
<path d="M331.409 96.8502V97.6702H330.44V96.796C330.44 95.9683 330.114 95.4732 329.362 95.4732C328.61 95.4732 328.284 95.9683 328.284 96.796V101.639C328.284 102.459 328.625 102.961 329.362 102.961C330.098 102.961 330.44 102.466 330.44 101.639V100.447H331.409V101.584C331.409 102.969 330.75 103.89 329.339 103.89C327.927 103.89 327.284 102.977 327.284 101.584V96.8502C327.284 95.4655 327.935 94.5449 329.339 94.5449C330.742 94.5449 331.409 95.4577 331.409 96.8502Z" fill="#263238"/>
<path d="M333.378 101.949L333.022 103.79H332.076L333.836 94.6387H335.317L337.077 103.79H336.053L335.697 101.949H333.378ZM333.51 101.075H335.557L334.518 95.7913L333.51 101.075Z" fill="#263238"/>
<path d="M338.783 103.796H337.868V94.6445H339.163L341.287 101.259V94.6445H342.194V103.796H341.132L338.783 96.3928V103.796Z" fill="#263238"/>
<path d="M347.297 96.8502V97.6702H346.328V96.796C346.328 95.9683 346.002 95.4732 345.25 95.4732C344.498 95.4732 344.172 95.9683 344.172 96.796V101.639C344.172 102.459 344.513 102.961 345.25 102.961C345.987 102.961 346.328 102.466 346.328 101.639V100.447H347.297V101.584C347.297 102.969 346.638 103.89 345.227 103.89C343.815 103.89 343.172 102.977 343.172 101.584V96.8502C343.172 95.4655 343.823 94.5449 345.227 94.5449C346.63 94.5449 347.297 95.4577 347.297 96.8502Z" fill="#263238"/>
<path d="M351.491 98.6922V99.605H349.251V102.862H352.003V103.79H348.227V94.6387H352.003V95.567H349.251V98.6922H351.491Z" fill="#263238"/>
<path d="M352.949 103.796V94.6445H353.973V102.868H356.594V103.796H352.949Z" fill="#263238"/>
<path d="M259.483 4.10607C258.506 3.84305 257.498 3.64966 256.466 3.52589L259.483 4.10607ZM253.977 3.37891C242.269 3.37891 232.739 12.8784 232.739 24.5671C232.739 36.2558 242.269 45.7476 253.977 45.7476C265.686 45.7476 275.216 36.2481 275.216 24.5671C275.216 15.671 269.695 8.04356 261.894 4.90285L253.977 3.37891ZM247.968 22.5558L261.181 37.9422C259.025 39.0949 256.583 39.7524 253.97 39.7524C245.572 39.7524 238.733 32.9372 238.733 24.5594C238.733 21.1247 239.881 17.9453 241.827 15.4003L246.317 20.6296L247.968 22.5481V22.5558ZM260.181 27.5763L246.317 11.4241C248.565 10.1013 251.186 9.35864 253.97 9.35864C262.367 9.35864 269.206 16.1738 269.206 24.5594C269.206 28.1797 267.919 31.5061 265.795 34.1208L263.957 31.978L260.173 27.5686L260.181 27.5763Z" stroke="#263238" stroke-miterlimit="10"/>
<path d="M164.217 80.326L165.411 79.127" stroke="#263238" stroke-miterlimit="10"/>
<path d="M161.728 82.809L150.322 71.4375L140.87 80.8674L152.276 92.2389L140.862 103.618L150.314 113.048L161.728 101.669L173.134 113.048L182.587 103.618L171.18 92.2389L182.579 80.8674L173.127 71.4375L166.892 77.657" stroke="#263238" stroke-miterlimit="10"/>
<path d="M291.46 113.272V197.661L254.055 240.703C248.201 247 241.09 252.005 233.158 255.339C229.552 256.855 225.257 257.273 224.97 257.543C222.837 259.57 199.242 293.631 186.688 311.841C179.206 307.246 171.909 302.364 164.83 297.266C152.912 288.688 141.351 279.219 130.759 268.869L170.831 214.695C177.709 197.661 176.825 187.976 178.632 170.973C180.214 156.043 184.277 143.696 184.688 138.537C184.835 136.719 186.316 114.85 186.347 113.024C186.401 110.618 189.48 104.925 190.023 102.581C194.644 82.8084 198.335 79.8456 203.538 82.8393C204.305 83.2802 211.284 87.1713 205.081 109.644C203.662 114.796 205.655 147.804 205.655 147.804L291.46 113.272Z" fill="white"/>
<path opacity="0.5" d="M238.803 232.556C225.404 237.739 210.291 239.766 196.637 235.31C202.313 240.308 207.981 245.305 213.657 250.302C216.378 252.7 219.201 255.16 222.636 256.328C228.475 258.317 234.926 256.205 240.315 253.211C254.823 245.15 264.911 231.187 274.51 217.665C276.472 214.903 278.372 210.44 273.432 212.923C269.462 214.919 265.802 218.075 262.034 220.45C254.637 225.115 246.968 229.4 238.795 232.564L238.803 232.556Z" fill="#02A5E2"/>
<path opacity="0.5" d="M199.568 113.959C207.733 125.408 203.305 147.494 200.545 151.826C200.545 151.826 206.004 194.04 216.774 210.122C222.287 182.56 223.946 154.239 221.69 126.228C220.612 112.83 216.185 94.3647 206.655 84.8652C206.655 84.8652 206.12 106.092 199.568 113.959Z" fill="#02A5E2"/>
<path opacity="0.5" d="M206.585 219.173C208.128 224.108 209.671 229.051 211.214 233.987C221.635 232.726 232.142 232.231 242.641 232.509C248.038 232.656 253.504 232.997 258.785 231.859C264.065 230.73 269.253 227.868 271.804 223.118C273.494 219.977 273.587 215.483 270.687 213.402C269.02 212.203 266.802 212.118 264.755 212.234C258.102 212.597 251.636 214.547 245.021 215.336C238.407 216.133 231.212 215.607 225.885 211.607C222.38 208.977 220.038 205.109 216.921 202.03C214.215 199.362 207.104 195.068 204.158 199.307C201.002 203.856 205.166 214.585 206.593 219.173H206.585Z" fill="#02A5E2"/>
<path opacity="0.5" d="M189.224 238.396C188.007 242.272 185.851 245.776 183.719 249.242C176.507 260.946 169.296 272.65 162.085 284.362C181.183 264.458 189.294 250.789 201.274 238.443C200.684 239.719 192.705 231.125 192.45 231.04C188.844 229.848 190.092 235.658 189.224 238.396Z" fill="#02A5E2"/>
<path opacity="0.5" d="M188.231 272.705L199.382 258.169C202.886 253.605 207.012 248.67 212.734 247.989C210.02 248.314 207.423 241.36 204.073 241.932C201.204 242.427 199.909 248.329 198.878 250.619C195.528 258.069 191.977 265.433 188.231 272.697V272.705Z" fill="#02A5E2"/>
<path opacity="0.5" d="M171.537 316.651C174.437 319.019 177.337 321.393 180.237 323.761C198.513 303.671 214.137 281.191 226.583 257.063C224.598 256.158 222.744 256.653 216.937 251.996C215.347 250.72 194.28 288.872 171.529 316.644L171.537 316.651Z" fill="#02A5E2"/>
<path d="M130.759 268.869L170.831 214.695C177.709 197.661 176.825 187.976 178.632 170.973C180.214 156.043 184.277 143.696 184.688 138.537C184.835 136.719 186.316 114.85 186.347 113.024C186.401 110.618 189.48 104.925 190.023 102.581C194.644 82.8084 198.335 79.8456 203.538 82.8393C204.305 83.2802 212.61 87.1713 206.407 109.644C204.988 114.796 206.663 147.402 206.663 147.402L291.46 113.272V197.661L254.055 240.703C248.201 247 241.09 252.005 233.158 255.339C229.552 256.855 225.257 257.273 224.97 257.543C222.837 259.57 199.242 293.631 186.688 311.841" stroke="#263238" stroke-miterlimit="10"/>
<path d="M298.858 111.586C299.788 111.153 300.649 110.82 301.416 110.557C304.533 109.513 308.883 109.041 311.597 110.897C314.621 112.97 316.366 120.265 309.38 125.332C309.38 125.332 304.091 129.517 295.717 132.82C293.554 133.671 291.08 133.594 289.041 132.465C287.816 131.784 286.777 130.778 286.715 129.316C286.381 120.814 291.119 115.175 298.858 111.586Z" fill="white"/>
<path opacity="0.5" d="M296.399 116.544C295.438 119.817 295.911 123.321 296.399 126.702C296.655 128.473 297.144 130.554 298.811 131.219C300.3 131.807 301.928 130.925 303.246 130.02C305.735 128.311 308.139 126.353 309.721 123.777C311.302 121.209 311.954 117.921 310.814 115.129C307.883 107.919 298.369 109.869 296.399 116.552V116.544Z" fill="#02A5E2"/>
<path d="M298.858 111.586C299.788 111.153 300.649 110.82 301.416 110.557C304.533 109.513 308.883 109.041 311.597 110.897C314.621 112.97 316.366 120.265 309.38 125.332C309.38 125.332 304.091 129.517 295.717 132.82C293.554 133.671 291.08 133.594 289.041 132.465C287.816 131.784 286.777 130.778 286.715 129.316C286.381 120.814 291.119 115.175 298.858 111.586Z" stroke="#263238" stroke-miterlimit="10"/>
<path d="M297.756 151L285.412 157.15V138.314L300.47 131.328C300.47 131.328 292.802 141.71 297.756 151Z" stroke="#263238" stroke-miterlimit="10"/>
<path d="M293.546 158.172L285.412 162.674V183.769L298.757 178.857L300.47 159.479C300.47 159.479 298.392 158.59 293.546 158.18V158.172Z" stroke="#263238" stroke-miterlimit="10"/>
<path d="M299.354 62.7737V214.193C299.354 220.482 294.236 225.588 287.932 225.588H218.177C211.873 225.588 206.755 220.482 206.755 214.193V62.7737C206.755 56.4768 211.873 51.3789 218.177 51.3789H287.932C288.777 51.3789 289.599 51.4717 290.398 51.6497C295.515 52.7713 299.354 57.32 299.354 62.7737Z" fill="#263238"/>
<path d="M283.241 55.9512H222.907C216.599 55.9512 211.485 61.0528 211.485 67.3459V209.506C211.485 215.799 216.599 220.901 222.907 220.901H283.241C289.549 220.901 294.662 215.799 294.662 209.506V67.3459C294.662 61.0528 289.549 55.9512 283.241 55.9512Z" fill="#02A5E2"/>
<path d="M231.863 55.9512H276.192V57.243C276.192 61.8303 272.455 65.559 267.857 65.559H240.198C235.6 65.559 231.863 61.8303 231.863 57.243V55.9512Z" fill="#263238"/>
<path d="M239.493 62.5337C240.679 62.5337 241.64 61.5743 241.64 60.3909C241.64 59.2074 240.679 58.248 239.493 58.248C238.306 58.248 237.345 59.2074 237.345 60.3909C237.345 61.5743 238.306 62.5337 239.493 62.5337Z" fill="white" stroke="#263238" stroke-miterlimit="10"/>
<path d="M260.049 58.6738H248.022C246.999 58.6738 246.169 59.5016 246.169 60.5227V61.1029C246.169 62.1239 246.999 62.9517 248.022 62.9517H260.049C261.072 62.9517 261.902 62.1239 261.902 61.1029V60.5227C261.902 59.5016 261.072 58.6738 260.049 58.6738Z" fill="white" stroke="#263238" stroke-miterlimit="10"/>
<path d="M294.034 141.725C293.577 144.285 294.329 146.993 296.081 149.113C297.841 151.24 300.586 152.764 303.595 153.282C305.89 153.677 308.573 153.39 310.062 151.866C311.356 150.536 311.395 148.656 311.38 146.931C311.333 142.723 310.255 136.967 304.455 135.652C299.679 134.569 294.732 137.818 294.034 141.717V141.725Z" fill="white"/>
<path opacity="0.5" d="M294.027 140.44C293.166 143.326 294.182 146.575 296.221 148.795C298.26 151.015 301.176 152.292 304.153 152.787C304.805 151.541 303.789 150.126 303.037 148.934C301.695 146.838 301.036 144.324 301.168 141.841C301.23 140.719 301.664 139.365 302.773 139.156C303.758 138.963 304.665 139.86 304.96 140.819C305.254 141.779 305.146 142.807 305.262 143.798C305.378 144.796 305.844 145.871 306.782 146.211C306.859 143.945 306.836 141.601 305.968 139.504C303.61 133.772 295.74 134.685 294.019 140.44H294.027Z" fill="#02A5E2"/>
<path d="M294.034 141.725C293.577 144.285 294.329 146.993 296.081 149.113C297.841 151.24 300.586 152.764 303.595 153.282C305.89 153.677 308.573 153.39 310.062 151.866C311.356 150.536 311.395 148.656 311.38 146.931C311.333 142.723 310.255 136.967 304.455 135.652C299.679 134.569 294.732 137.818 294.034 141.717V141.725Z" stroke="#263238" stroke-miterlimit="10"/>
<path d="M298.966 190.166L290.398 196.641C290.398 196.641 285.079 205.305 295.391 207.541L304.277 204.995C308.534 203.773 311.69 199.99 311.752 195.573C311.814 191.419 309.31 187.025 299.051 186.035L298.966 190.166Z" fill="white"/>
<path d="M297.012 193.81C297.02 194.522 297.4 195.179 297.741 195.806C299.486 199.016 300.602 202.567 301.006 206.195C300.719 203.573 302.176 200.184 302.099 197.369C302.021 194.537 301.758 190.863 300.277 188.457C299.424 189.88 296.997 192.046 297.02 193.81H297.012Z" fill="#02A5E2"/>
<path d="M298.966 190.166L290.398 196.641C290.398 196.641 285.079 205.305 295.391 207.541L304.277 204.995C308.534 203.773 311.69 199.99 311.752 195.573C311.814 191.419 309.31 187.025 299.051 186.035L298.966 190.166V190.166Z" stroke="#263238" stroke-miterlimit="10"/>
<path d="M295.888 164.817L287.932 173.38C287.932 173.38 283.869 183.677 295.353 184.125L304.324 179.755C308.806 177.573 312.148 173.45 313.001 168.545C313.854 163.595 311.977 158.574 300.168 159.502L295.888 164.817Z" fill="white"/>
<path d="M296.454 183.143C297.237 183.816 298.563 183.328 299.082 182.439C299.602 181.541 299.54 180.435 299.408 179.414C299.214 177.844 297.229 167.292 294.818 168.584C293.376 169.358 296.175 181.247 296.454 183.15V183.143Z" fill="#02A5E2"/>
<path d="M295.888 164.817L287.932 173.38C287.932 173.38 283.869 183.677 295.353 184.125L304.324 179.755C308.806 177.573 312.148 173.45 313.001 168.545C313.854 163.595 311.977 158.574 300.168 159.502L295.888 164.817V164.817Z" stroke="#263238" stroke-miterlimit="10"/>
<path d="M295.329 171.129C292.871 171.554 291.189 174.455 292.042 176.791C292.887 179.128 296.043 180.28 298.206 179.035" stroke="#263238" stroke-miterlimit="10"/>
<path d="M297.981 196.929C295.531 196.534 293.166 199.28 293.926 201.64C294.686 203.999 298.206 204.858 299.974 203.11" fill="white"/>
<path d="M297.981 196.929C295.531 196.534 293.166 199.28 293.926 201.64C294.686 203.999 298.206 204.858 299.974 203.11" stroke="#263238" stroke-miterlimit="10"/>
<path d="M195.876 113.961C199.614 114.262 203.452 113.102 206.399 110.789" stroke="#263238" stroke-miterlimit="10"/>
<path d="M204.988 149.553C201.995 152.005 198.149 153.397 194.279 153.444" stroke="#263238" stroke-miterlimit="10"/>
<path d="M215.812 224.93C214.122 229.795 210.749 234.066 206.407 236.843" stroke="#263238" stroke-miterlimit="10"/>
<path d="M263.71 126.076C268.545 120.218 267.705 111.56 261.833 106.737C255.962 101.914 247.283 102.752 242.449 108.609C237.614 114.467 238.454 123.125 244.326 127.948C250.197 132.771 258.875 131.933 263.71 126.076Z" stroke="white" stroke-miterlimit="10"/>
<path d="M251.145 122.113L261.61 112.062L262.528 113.013L250.726 124.35L244.474 117.611L245.444 116.718L250.432 122.092L250.778 122.465L251.145 122.113Z" fill="white" stroke="white"/>
<mask id="path-49-inside-1_3706_26542" fill="white">
<path d="M248.767 98.6832L247.394 94.5137H248.146L249.162 97.7085L250.185 94.5137H250.876L249.488 98.6832V101.012H248.774V98.6832H248.767Z"/>
</mask>
<path d="M248.767 98.6832L247.394 94.5137H248.146L249.162 97.7085L250.185 94.5137H250.876L249.488 98.6832V101.012H248.774V98.6832H248.767Z" fill="white"/>
<path d="M248.767 98.6832L247.817 98.9959L248.043 99.6832H248.767V98.6832ZM247.394 94.5137V93.5137H246.012L246.444 94.8263L247.394 94.5137ZM248.146 94.5137L249.099 94.2107L248.878 93.5137H248.146V94.5137ZM249.162 97.7085L248.209 98.0115L249.158 100.998L250.114 98.0136L249.162 97.7085ZM250.185 94.5137V93.5137H249.456L249.233 94.2086L250.185 94.5137ZM250.876 94.5137L251.824 94.8295L252.262 93.5137H250.876V94.5137ZM249.488 98.6832L248.539 98.3674L248.488 98.5212V98.6832H249.488ZM249.488 101.012V102.012H250.488V101.012H249.488ZM248.774 101.012H247.774V102.012H248.774V101.012ZM248.774 98.6832H249.774V97.6832H248.774V98.6832ZM249.716 98.3706L248.344 94.201L246.444 94.8263L247.817 98.9959L249.716 98.3706ZM247.394 95.5137H248.146V93.5137H247.394V95.5137ZM247.193 94.8167L248.209 98.0115L250.115 97.4055L249.099 94.2107L247.193 94.8167ZM250.114 98.0136L251.138 94.8188L249.233 94.2086L248.21 97.4034L250.114 98.0136ZM250.185 95.5137H250.876V93.5137H250.185V95.5137ZM249.927 94.1978L248.539 98.3674L250.436 98.9991L251.824 94.8295L249.927 94.1978ZM248.488 98.6832V101.012H250.488V98.6832H248.488ZM249.488 100.012H248.774V102.012H249.488V100.012ZM249.774 101.012V98.6832H247.774V101.012H249.774ZM248.774 97.6832H248.767V99.6832H248.774V97.6832Z" fill="white" mask="url(#path-49-inside-1_3706_26542)"/>
<mask id="path-51-inside-2_3706_26542" fill="white">
<path d="M253.706 97.3914V98.0412H252.116V100.354H254.07V101.012H251.395V94.5137H254.07V95.1712H252.116V97.3914H253.706Z"/>
</mask>
<path d="M253.706 97.3914V98.0412H252.116V100.354H254.07V101.012H251.395V94.5137H254.07V95.1712H252.116V97.3914H253.706Z" fill="white"/>
<path d="M253.706 98.0412V99.0412H254.706V98.0412H253.706ZM252.116 98.0412V97.0412H251.116V98.0412H252.116ZM252.116 100.354H251.116V101.354H252.116V100.354ZM254.07 100.354H255.07V99.3542H254.07V100.354ZM254.07 101.012V102.012H255.07V101.012H254.07ZM251.395 101.012H250.395V102.012H251.395V101.012ZM251.395 94.5137V93.5137H250.395V94.5137H251.395ZM254.07 94.5137H255.07V93.5137H254.07V94.5137ZM254.07 95.1712V96.1712H255.07V95.1712H254.07ZM252.116 95.1712V94.1712H251.116V95.1712H252.116ZM252.116 97.3914H251.116V98.3914H252.116V97.3914ZM252.706 97.3914V98.0412H254.706V97.3914H252.706ZM253.706 97.0412H252.116V99.0412H253.706V97.0412ZM251.116 98.0412V100.354H253.116V98.0412H251.116ZM252.116 101.354H254.07V99.3542H252.116V101.354ZM253.07 100.354V101.012H255.07V100.354H253.07ZM254.07 100.012H251.395V102.012H254.07V100.012ZM252.395 101.012V94.5137H250.395V101.012H252.395ZM251.395 95.5137H254.07V93.5137H251.395V95.5137ZM253.07 94.5137V95.1712H255.07V94.5137H253.07ZM254.07 94.1712H252.116V96.1712H254.07V94.1712ZM251.116 95.1712V97.3914H253.116V95.1712H251.116ZM252.116 98.3914H253.706V96.3914H252.116V98.3914Z" fill="white" mask="url(#path-51-inside-2_3706_26542)"/>
<mask id="path-53-inside-3_3706_26542" fill="white">
<path d="M257.56 96.0758V96.2537H256.869V96.0371C256.869 95.4492 256.645 95.1088 256.125 95.1088C255.606 95.1088 255.381 95.4492 255.381 96.0293C255.381 97.4837 257.567 97.6229 257.567 99.4563C257.567 100.439 257.094 101.081 256.102 101.081C255.109 101.081 254.644 100.439 254.644 99.4563V99.085H255.326V99.495C255.326 100.083 255.567 100.423 256.086 100.423C256.606 100.423 256.846 100.083 256.846 99.495C256.846 98.0484 254.667 97.9091 254.667 96.0835C254.667 95.0778 255.133 94.459 256.11 94.459C257.087 94.459 257.56 95.1011 257.56 96.0835V96.0758Z"/>
</mask>
<path d="M257.56 96.0758V96.2537H256.869V96.0371C256.869 95.4492 256.645 95.1088 256.125 95.1088C255.606 95.1088 255.381 95.4492 255.381 96.0293C255.381 97.4837 257.567 97.6229 257.567 99.4563C257.567 100.439 257.094 101.081 256.102 101.081C255.109 101.081 254.644 100.439 254.644 99.4563V99.085H255.326V99.495C255.326 100.083 255.567 100.423 256.086 100.423C256.606 100.423 256.846 100.083 256.846 99.495C256.846 98.0484 254.667 97.9091 254.667 96.0835C254.667 95.0778 255.133 94.459 256.11 94.459C257.087 94.459 257.56 95.1011 257.56 96.0835V96.0758Z" fill="white"/>
<path d="M257.56 96.2537V97.2537H258.56V96.2537H257.56ZM256.869 96.2537H255.869V97.2537H256.869V96.2537ZM254.644 99.085V98.085H253.644V99.085H254.644ZM255.326 99.085H256.326V98.085H255.326V99.085ZM256.56 96.0758V96.2537H258.56V96.0758H256.56ZM257.56 95.2537H256.869V97.2537H257.56V95.2537ZM257.869 96.2537V96.0371H255.869V96.2537H257.869ZM257.869 96.0371C257.869 95.6438 257.799 95.1543 257.487 94.7454C257.135 94.2856 256.622 94.1088 256.125 94.1088V96.1088C256.147 96.1088 256.117 96.1124 256.06 96.0876C255.998 96.0603 255.939 96.0143 255.897 95.9596C255.86 95.9102 255.854 95.8778 255.857 95.8909C255.861 95.9054 255.869 95.9506 255.869 96.0371H257.869ZM256.125 94.1088C255.628 94.1088 255.116 94.2853 254.765 94.7421C254.452 95.1496 254.381 95.6375 254.381 96.0293H256.381C256.381 95.9457 256.389 95.9026 256.392 95.8899C256.395 95.8785 256.389 95.9115 256.351 95.9609C256.309 96.0155 256.251 96.061 256.189 96.0879C256.133 96.1124 256.103 96.1088 256.125 96.1088V94.1088ZM254.381 96.0293C254.381 97.3262 255.422 98.0331 255.842 98.3757C256.378 98.8129 256.567 99.0414 256.567 99.4563H258.567C258.567 98.0377 257.663 97.28 257.106 96.8257C256.433 96.2766 256.381 96.1868 256.381 96.0293H254.381ZM256.567 99.4563C256.567 99.8025 256.483 99.9449 256.447 99.987C256.433 100.004 256.37 100.081 256.102 100.081V102.081C256.826 102.081 257.496 101.837 257.967 101.287C258.415 100.762 258.567 100.093 258.567 99.4563H256.567ZM256.102 100.081C255.834 100.081 255.775 100.004 255.763 99.99C255.728 99.9489 255.644 99.8061 255.644 99.4563H253.644C253.644 100.089 253.792 100.758 254.238 101.284C254.707 101.837 255.377 102.081 256.102 102.081V100.081ZM255.644 99.4563V99.085H253.644V99.4563H255.644ZM254.644 100.085H255.326V98.085H254.644V100.085ZM254.326 99.085V99.495H256.326V99.085H254.326ZM254.326 99.495C254.326 99.9007 254.405 100.392 254.726 100.799C255.081 101.248 255.591 101.423 256.086 101.423V99.4232C256.065 99.4232 256.091 99.4197 256.143 99.4422C256.201 99.4669 256.256 99.5089 256.297 99.5604C256.334 99.6075 256.341 99.6394 256.338 99.6296C256.335 99.6183 256.326 99.5767 256.326 99.495H254.326ZM256.086 101.423C256.582 101.423 257.092 101.248 257.446 100.799C257.767 100.392 257.846 99.9007 257.846 99.495H255.846C255.846 99.5767 255.838 99.6182 255.834 99.6296C255.832 99.6394 255.839 99.6075 255.876 99.5604C255.916 99.5089 255.972 99.4669 256.029 99.4422C256.081 99.4197 256.108 99.4232 256.086 99.4232V101.423ZM257.846 99.495C257.846 98.2015 256.806 97.4962 256.388 97.1561C255.854 96.7208 255.667 96.4942 255.667 96.0835H253.667C253.667 97.4984 254.57 98.2542 255.125 98.7066C255.797 99.2542 255.846 99.3419 255.846 99.495H257.846ZM255.667 96.0835C255.667 95.7172 255.754 95.5772 255.784 95.5419C255.791 95.5341 255.843 95.459 256.11 95.459V93.459C255.399 93.459 254.73 93.6933 254.26 94.2463C253.813 94.7719 253.667 95.4442 253.667 96.0835H255.667ZM256.11 95.459C256.365 95.459 256.424 95.5329 256.438 95.5498C256.475 95.5929 256.56 95.7374 256.56 96.0835H258.56C258.56 95.4472 258.408 94.7794 257.963 94.2559C257.497 93.7061 256.831 93.459 256.11 93.459V95.459ZM258.56 96.0835V96.0758H256.56V96.0835H258.56Z" fill="white" mask="url(#path-53-inside-3_3706_26542)"/>
<path d="M275.103 172.708C275.103 184.44 265.57 193.953 253.807 193.953C242.044 193.953 232.51 184.44 232.51 172.708C232.51 160.976 242.044 151.463 253.807 151.463C265.57 151.463 275.103 160.976 275.103 172.708Z" fill="white" stroke="white"/>
<path d="M261.84 158.661L267.738 164.538L260.13 172.129L259.775 172.483L260.13 172.837L267.738 180.427L261.848 186.304L254.237 178.712L253.884 178.36L253.531 178.712L245.913 186.304L240.022 180.427L247.631 172.837L247.986 172.483L247.631 172.129L240.023 164.538L245.921 158.661L253.531 166.254L253.884 166.606L254.238 166.253L261.84 158.661Z" fill="#02A5E2" stroke="white"/>
<path d="M240.24 139.669C240.18 139.723 240.125 139.784 240.074 139.85C239.804 140.203 239.714 140.664 239.714 141.13V145.988C239.714 146.459 239.809 146.918 240.081 147.27C240.133 147.336 240.189 147.397 240.249 147.451C240.187 147.402 240.132 147.348 240.084 147.29C239.846 147.008 239.698 146.561 239.698 145.934V141.176C239.698 140.551 239.847 140.103 240.086 139.82C240.132 139.766 240.183 139.716 240.24 139.669Z" fill="white" stroke="white"/>
<path d="M246.086 140.023L246.195 139.457H246.857L247.563 143.129L246.955 140.021L246.086 140.023ZM248.086 145.924H248.1L248.433 147.655H248.42L248.141 146.211L248.086 145.924Z" fill="white" stroke="white"/>
<path d="M250.759 139.463L251.121 140.59L250.321 140.713V139.463H250.759ZM252.853 145.749L253.664 145.622V147.661H253.459L252.853 145.749Z" fill="white" stroke="white"/>
<path d="M256.19 139.669C256.13 139.723 256.075 139.784 256.024 139.85C255.754 140.203 255.664 140.664 255.664 141.13V145.988C255.664 146.459 255.759 146.918 256.031 147.27C256.083 147.336 256.139 147.397 256.199 147.451C256.137 147.402 256.082 147.348 256.034 147.29C255.796 147.008 255.648 146.561 255.648 145.934V141.176C255.648 140.551 255.797 140.103 256.036 139.82C256.082 139.766 256.133 139.716 256.19 139.669Z" fill="white" stroke="white"/>
<path d="M260.735 139.463H260.758V139.899V143.04V143.452V143.54V143.952V147.225V147.661H260.735V139.463Z" fill="white" stroke="white"/>
<path d="M265.496 147.225V147.661H265.473V139.463H265.496V147.225Z" fill="white" stroke="white"/>
<mask id="path-63-inside-4_3706_26542" fill="white">
<path d="M241.292 76.916C242.315 76.916 242.75 77.5194 242.75 78.5018V79.2832C242.75 80.312 242.269 80.8535 241.23 80.8535H240.586V83.414H239.857V76.916H241.284H241.292ZM241.238 80.2037C241.78 80.2037 242.036 79.9562 242.036 79.3296V78.4632C242.036 77.8675 241.819 77.5736 241.292 77.5736H240.594V80.196H241.238V80.2037Z"/>
</mask>
<path d="M241.292 76.916C242.315 76.916 242.75 77.5194 242.75 78.5018V79.2832C242.75 80.312 242.269 80.8535 241.23 80.8535H240.586V83.414H239.857V76.916H241.284H241.292ZM241.238 80.2037C241.78 80.2037 242.036 79.9562 242.036 79.3296V78.4632C242.036 77.8675 241.819 77.5736 241.292 77.5736H240.594V80.196H241.238V80.2037Z" fill="white"/>
<path d="M240.586 80.8535V79.8535H239.586V80.8535H240.586ZM240.586 83.414V84.414H241.586V83.414H240.586ZM239.857 83.414H238.857V84.414H239.857V83.414ZM239.857 76.916V75.916H238.857V76.916H239.857ZM241.238 80.2037H240.238V81.2037H241.238V80.2037ZM240.594 77.5736V76.5736H239.594V77.5736H240.594ZM240.594 80.196H239.594V81.196H240.594V80.196ZM241.238 80.196H242.238V79.196H241.238V80.196ZM241.292 77.916C241.452 77.916 241.543 77.9397 241.589 77.9575C241.628 77.973 241.641 77.9866 241.648 77.9944C241.666 78.0156 241.75 78.1368 241.75 78.5018H243.75C243.75 77.8844 243.616 77.2128 243.161 76.6866C242.683 76.1333 242.004 75.916 241.292 75.916V77.916ZM241.75 78.5018V79.2832H243.75V78.5018H241.75ZM241.75 79.2832C241.75 79.6598 241.66 79.7591 241.653 79.7664C241.648 79.7717 241.631 79.7894 241.576 79.8089C241.514 79.8302 241.406 79.8535 241.23 79.8535V81.8535C241.914 81.8535 242.602 81.6728 243.105 81.1419C243.599 80.6212 243.75 79.9354 243.75 79.2832H241.75ZM241.23 79.8535H240.586V81.8535H241.23V79.8535ZM239.586 80.8535V83.414H241.586V80.8535H239.586ZM240.586 82.414H239.857V84.414H240.586V82.414ZM240.857 83.414V76.916H238.857V83.414H240.857ZM239.857 77.916H241.284V75.916H239.857V77.916ZM241.284 77.916H241.292V75.916H241.284V77.916ZM241.238 81.2037C241.64 81.2037 242.168 81.1133 242.569 80.6866C242.956 80.2749 243.036 79.7477 243.036 79.3296H241.036C241.036 79.423 241.026 79.4561 241.028 79.4505C241.031 79.4393 241.051 79.3814 241.112 79.3166C241.175 79.2499 241.242 79.2176 241.279 79.2053C241.308 79.1957 241.302 79.2037 241.238 79.2037V81.2037ZM243.036 79.3296V78.4632H241.036V79.3296H243.036ZM243.036 78.4632C243.036 78.0785 242.973 77.5766 242.638 77.1645C242.266 76.7062 241.742 76.5736 241.292 76.5736V78.5736C241.334 78.5736 241.317 78.5799 241.267 78.5604C241.209 78.5375 241.14 78.4926 241.086 78.4255C241.036 78.364 241.024 78.3172 241.026 78.3216C241.027 78.3288 241.036 78.3707 241.036 78.4632H243.036ZM241.292 76.5736H240.594V78.5736H241.292V76.5736ZM239.594 77.5736V80.196H241.594V77.5736H239.594ZM240.594 81.196H241.238V79.196H240.594V81.196ZM240.238 80.196V80.2037H242.238V80.196H240.238Z" fill="white" mask="url(#path-63-inside-4_3706_26542)"/>
<mask id="path-65-inside-5_3706_26542" fill="white">
<path d="M244.797 76.916C245.82 76.916 246.247 77.4343 246.247 78.4013V78.9273C246.247 79.639 245.999 80.0877 245.44 80.2656C246.037 80.4435 246.262 80.9231 246.262 81.6193V82.6327C246.262 82.919 246.27 83.1897 246.394 83.414H245.657C245.572 83.2284 245.533 83.0582 245.533 82.625V81.6039C245.533 80.869 245.192 80.6369 244.587 80.6369H244.076V83.414H243.347V76.916H244.797ZM244.611 79.9794C245.184 79.9794 245.533 79.7937 245.533 79.0898V78.4709C245.533 77.883 245.316 77.5813 244.781 77.5813H244.076V79.9871H244.618L244.611 79.9794Z"/>
</mask>
<path d="M244.797 76.916C245.82 76.916 246.247 77.4343 246.247 78.4013V78.9273C246.247 79.639 245.999 80.0877 245.44 80.2656C246.037 80.4435 246.262 80.9231 246.262 81.6193V82.6327C246.262 82.919 246.27 83.1897 246.394 83.414H245.657C245.572 83.2284 245.533 83.0582 245.533 82.625V81.6039C245.533 80.869 245.192 80.6369 244.587 80.6369H244.076V83.414H243.347V76.916H244.797ZM244.611 79.9794C245.184 79.9794 245.533 79.7937 245.533 79.0898V78.4709C245.533 77.883 245.316 77.5813 244.781 77.5813H244.076V79.9871H244.618L244.611 79.9794Z" fill="white"/>
<path d="M245.44 80.2656L245.137 79.3128L242.046 80.2977L245.155 81.2239L245.44 80.2656ZM246.394 83.414V84.414H248.09L247.269 82.9301L246.394 83.414ZM245.657 83.414L244.749 83.8315L245.016 84.414H245.657V83.414ZM244.076 80.6369V79.6369H243.076V80.6369H244.076ZM244.076 83.414V84.414H245.076V83.414H244.076ZM243.347 83.414H242.347V84.414H243.347V83.414ZM243.347 76.916V75.916H242.347V76.916H243.347ZM244.611 79.9794V78.9794H242.192L243.904 80.6873L244.611 79.9794ZM244.076 77.5813V76.5813H243.076V77.5813H244.076ZM244.076 79.9871H243.076V80.9871H244.076V79.9871ZM244.618 79.9871V80.9871H247.037L245.325 79.2792L244.618 79.9871ZM244.797 77.916C244.972 77.916 245.075 77.9386 245.128 77.957C245.153 77.9658 245.166 77.9733 245.171 77.9764C245.174 77.978 245.175 77.979 245.175 77.9793C245.176 77.9796 245.176 77.9796 245.176 77.9796C245.176 77.9796 245.176 77.9802 245.177 77.9817C245.178 77.9832 245.18 77.9861 245.183 77.991C245.188 78.0007 245.197 78.0196 245.207 78.0515C245.227 78.118 245.247 78.2292 245.247 78.4013H247.247C247.247 77.7933 247.115 77.1249 246.635 76.6125C246.143 76.087 245.466 75.916 244.797 75.916V77.916ZM245.247 78.4013V78.9273H247.247V78.4013H245.247ZM245.247 78.9273C245.247 79.1787 245.201 79.2724 245.192 79.2884C245.19 79.2919 245.189 79.2922 245.19 79.2909C245.191 79.2903 245.191 79.2898 245.192 79.2892C245.192 79.2887 245.193 79.2885 245.192 79.2886C245.192 79.2886 245.189 79.2911 245.181 79.2952C245.173 79.2994 245.159 79.3058 245.137 79.3128L245.744 81.2184C246.232 81.0627 246.645 80.7614 246.914 80.3049C247.168 79.8741 247.247 79.3876 247.247 78.9273H245.247ZM245.155 81.2239C245.201 81.2378 245.214 81.2494 245.211 81.2467C245.206 81.243 245.204 81.2389 245.207 81.2439C245.218 81.2644 245.262 81.3638 245.262 81.6193H247.262C247.262 81.1786 247.194 80.6901 246.944 80.2523C246.675 79.7816 246.25 79.4635 245.726 79.3072L245.155 81.2239ZM245.262 81.6193V82.6327H247.262V81.6193H245.262ZM245.262 82.6327C245.262 82.8836 245.251 83.4144 245.519 83.898L247.269 82.9301C247.286 82.9607 247.28 82.9676 247.273 82.9151C247.265 82.8559 247.262 82.7761 247.262 82.6327H245.262ZM246.394 82.414H245.657V84.414H246.394V82.414ZM246.566 82.9966C246.557 82.9776 246.555 82.9704 246.554 82.9685C246.554 82.9672 246.552 82.961 246.549 82.945C246.543 82.9055 246.533 82.8186 246.533 82.625H244.533C244.533 83.131 244.579 83.4627 244.749 83.8315L246.566 82.9966ZM246.533 82.625V81.6039H244.533V82.625H246.533ZM246.533 81.6039C246.533 81.1041 246.419 80.5325 245.969 80.1131C245.533 79.7069 244.985 79.6369 244.587 79.6369V81.6369C244.632 81.6369 244.664 81.6391 244.687 81.6417C244.709 81.6443 244.718 81.647 244.717 81.6466C244.715 81.6462 244.702 81.6421 244.68 81.6307C244.658 81.6189 244.632 81.6012 244.605 81.5765C244.579 81.5517 244.558 81.5253 244.543 81.5012C244.529 81.4777 244.523 81.4612 244.521 81.4572C244.52 81.4536 244.523 81.4623 244.527 81.4871C244.53 81.5121 244.533 81.5501 244.533 81.6039H246.533ZM244.587 79.6369H244.076V81.6369H244.587V79.6369ZM243.076 80.6369V83.414H245.076V80.6369H243.076ZM244.076 82.414H243.347V84.414H244.076V82.414ZM244.347 83.414V76.916H242.347V83.414H244.347ZM243.347 77.916H244.797V75.916H243.347V77.916ZM244.611 80.9794C244.963 80.9794 245.496 80.9318 245.933 80.5621C246.408 80.1603 246.533 79.59 246.533 79.0898H244.533C244.533 79.1884 244.52 79.2108 244.528 79.1886C244.533 79.1756 244.543 79.1512 244.564 79.1213C244.584 79.0908 244.611 79.061 244.641 79.0349C244.705 78.9815 244.756 78.9688 244.754 78.9693C244.752 78.9697 244.741 78.9725 244.715 78.975C244.69 78.9775 244.656 78.9794 244.611 78.9794V80.9794ZM246.533 79.0898V78.4709H244.533V79.0898H246.533ZM246.533 78.4709C246.533 78.0873 246.469 77.5865 246.134 77.1745C245.762 76.7177 245.238 76.5813 244.781 76.5813V78.5813C244.824 78.5813 244.808 78.5878 244.759 78.5686C244.702 78.5462 244.635 78.5023 244.582 78.4367C244.533 78.3766 244.522 78.3306 244.523 78.3344C244.525 78.3409 244.533 78.3813 244.533 78.4709H246.533ZM244.781 76.5813H244.076V78.5813H244.781V76.5813ZM243.076 77.5813V79.9871H245.076V77.5813H243.076ZM244.076 80.9871H244.618V78.9871H244.076V80.9871ZM245.325 79.2792L245.317 79.2714L243.904 80.6873L243.912 80.695L245.325 79.2792Z" fill="white" mask="url(#path-65-inside-5_3706_26542)"/>
<mask id="path-67-inside-6_3706_26542" fill="white">
<path d="M246.952 78.4858C246.952 77.4956 247.448 76.8535 248.441 76.8535C249.433 76.8535 249.937 77.4956 249.937 78.4858V81.8431C249.937 82.8255 249.441 83.4753 248.441 83.4753C247.441 83.4753 246.952 82.8255 246.952 81.8431V78.4858ZM247.666 81.8818C247.666 82.4774 247.914 82.8178 248.441 82.8178C248.968 82.8178 249.216 82.4774 249.216 81.8818V78.4471C249.216 77.8592 248.976 77.5111 248.441 77.5111C247.906 77.5111 247.666 77.8669 247.666 78.4471V81.8818Z"/>
</mask>
<path d="M246.952 78.4858C246.952 77.4956 247.448 76.8535 248.441 76.8535C249.433 76.8535 249.937 77.4956 249.937 78.4858V81.8431C249.937 82.8255 249.441 83.4753 248.441 83.4753C247.441 83.4753 246.952 82.8255 246.952 81.8431V78.4858ZM247.666 81.8818C247.666 82.4774 247.914 82.8178 248.441 82.8178C248.968 82.8178 249.216 82.4774 249.216 81.8818V78.4471C249.216 77.8592 248.976 77.5111 248.441 77.5111C247.906 77.5111 247.666 77.8669 247.666 78.4471V81.8818Z" fill="white"/>
<path d="M247.952 78.4858C247.952 78.1448 248.038 78.0013 248.078 77.9559C248.099 77.9318 248.172 77.8535 248.441 77.8535V75.8535C247.718 75.8535 247.046 76.0963 246.571 76.6408C246.114 77.1639 245.952 77.8366 245.952 78.4858H247.952ZM248.441 77.8535C248.711 77.8535 248.787 77.9322 248.811 77.9588C248.851 78.0052 248.937 78.1484 248.937 78.4858H250.937C250.937 77.833 250.772 77.16 250.312 76.6379C249.835 76.0959 249.164 75.8535 248.441 75.8535V77.8535ZM248.937 78.4858V81.8431H250.937V78.4858H248.937ZM248.937 81.8431C248.937 82.1785 248.852 82.3226 248.811 82.3699C248.788 82.3959 248.713 82.4753 248.441 82.4753V84.4753C249.169 84.4753 249.842 84.2298 250.318 83.6854C250.774 83.1621 250.937 82.49 250.937 81.8431H248.937ZM248.441 82.4753C248.169 82.4753 248.098 82.3963 248.077 82.3728C248.037 82.3265 247.952 82.1821 247.952 81.8431H245.952C245.952 82.4864 246.111 83.1582 246.566 83.6824C247.04 84.2294 247.712 84.4753 248.441 84.4753V82.4753ZM247.952 81.8431V78.4858H245.952V81.8431H247.952ZM246.666 81.8818C246.666 82.2948 246.748 82.7905 247.075 83.1987C247.435 83.6467 247.947 83.8178 248.441 83.8178V81.8178C248.416 81.8178 248.438 81.8137 248.487 81.8343C248.541 81.8572 248.595 81.8971 248.636 81.9475C248.673 81.9939 248.68 82.0258 248.677 82.0165C248.674 82.0056 248.666 81.9642 248.666 81.8818H246.666ZM248.441 83.8178C248.935 83.8178 249.447 83.6467 249.806 83.1987C250.134 82.7905 250.216 82.2948 250.216 81.8818H248.216C248.216 81.9642 248.207 82.0056 248.204 82.0165C248.202 82.0258 248.209 81.9939 248.246 81.9475C248.287 81.8971 248.341 81.8572 248.395 81.8343C248.444 81.8137 248.466 81.8178 248.441 81.8178V83.8178ZM250.216 81.8818V78.4471H248.216V81.8818H250.216ZM250.216 78.4471C250.216 78.0414 250.137 77.5475 249.814 77.1382C249.456 76.6864 248.942 76.5111 248.441 76.5111V78.5111C248.467 78.5111 248.444 78.5154 248.395 78.4941C248.339 78.4705 248.285 78.4297 248.245 78.379C248.208 78.3327 248.202 78.3013 248.204 78.3116C248.208 78.3234 248.216 78.3653 248.216 78.4471H250.216ZM248.441 76.5111C247.933 76.5111 247.421 76.6931 247.066 77.1434C246.746 77.5514 246.666 78.0425 246.666 78.4471H248.666C248.666 78.3683 248.674 78.3275 248.677 78.3156C248.68 78.3052 248.674 78.3349 248.639 78.3796C248.6 78.4286 248.547 78.4691 248.492 78.4931C248.442 78.5149 248.417 78.5111 248.441 78.5111V76.5111ZM246.666 78.4471V81.8818H248.666V78.4471H246.666Z" fill="white" mask="url(#path-67-inside-6_3706_26542)"/>
<mask id="path-69-inside-7_3706_26542" fill="white">
<path d="M253.504 78.4858V79.0737H252.814V78.4549C252.814 77.867 252.582 77.5189 252.054 77.5189C251.527 77.5189 251.294 77.8747 251.294 78.4549V81.8896C251.294 82.4775 251.535 82.8256 252.054 82.8256C252.574 82.8256 252.814 82.4697 252.814 81.8896V81.0464H253.504V81.8509C253.504 82.8333 253.039 83.4831 252.039 83.4831C251.039 83.4831 250.581 82.8333 250.581 81.8509V78.4936C250.581 77.5111 251.046 76.8613 252.039 76.8613C253.031 76.8613 253.504 77.5111 253.504 78.4936V78.4858Z"/>
</mask>
<path d="M253.504 78.4858V79.0737H252.814V78.4549C252.814 77.867 252.582 77.5189 252.054 77.5189C251.527 77.5189 251.294 77.8747 251.294 78.4549V81.8896C251.294 82.4775 251.535 82.8256 252.054 82.8256C252.574 82.8256 252.814 82.4697 252.814 81.8896V81.0464H253.504V81.8509C253.504 82.8333 253.039 83.4831 252.039 83.4831C251.039 83.4831 250.581 82.8333 250.581 81.8509V78.4936C250.581 77.5111 251.046 76.8613 252.039 76.8613C253.031 76.8613 253.504 77.5111 253.504 78.4936V78.4858Z" fill="white"/>
<path d="M253.504 79.0737V80.0737H254.504V79.0737H253.504ZM252.814 79.0737H251.814V80.0737H252.814V79.0737ZM252.814 81.0464V80.0464H251.814V81.0464H252.814ZM253.504 81.0464H254.504V80.0464H253.504V81.0464ZM252.504 78.4858V79.0737H254.504V78.4858H252.504ZM253.504 78.0737H252.814V80.0737H253.504V78.0737ZM253.814 79.0737V78.4549H251.814V79.0737H253.814ZM253.814 78.4549C253.814 78.0552 253.739 77.5641 253.423 77.1549C253.07 76.6985 252.557 76.5189 252.054 76.5189V78.5189C252.077 78.5189 252.05 78.5226 251.996 78.4992C251.937 78.4734 251.881 78.4298 251.841 78.378C251.804 78.331 251.799 78.3002 251.802 78.3128C251.806 78.3267 251.814 78.3708 251.814 78.4549H253.814ZM252.054 76.5189C251.544 76.5189 251.033 76.7053 250.684 77.1601C250.37 77.568 250.294 78.0563 250.294 78.4549H252.294C252.294 78.3738 252.303 78.3307 252.306 78.3168C252.31 78.304 252.304 78.3332 252.27 78.3785C252.231 78.4286 252.177 78.4719 252.118 78.4981C252.063 78.5221 252.034 78.5189 252.054 78.5189V76.5189ZM250.294 78.4549V81.8896H252.294V78.4549H250.294ZM250.294 81.8896C250.294 82.2957 250.374 82.7856 250.691 83.1926C251.042 83.6435 251.551 83.8256 252.054 83.8256V81.8256C252.035 81.8256 252.064 81.8225 252.117 81.8459C252.175 81.8713 252.23 81.9137 252.268 81.9635C252.304 82.0089 252.31 82.0387 252.307 82.0269C252.303 82.0139 252.294 81.9713 252.294 81.8896H250.294ZM252.054 83.8256C252.564 83.8256 253.072 83.6366 253.42 83.1874C253.734 82.7817 253.814 82.2946 253.814 81.8896H251.814C251.814 81.9683 251.806 82.0099 251.802 82.0229C251.799 82.0348 251.805 82.0066 251.838 81.9629C251.876 81.9149 251.928 81.8727 251.987 81.8469C252.04 81.823 252.07 81.8256 252.054 81.8256V83.8256ZM253.814 81.8896V81.0464H251.814V81.8896H253.814ZM252.814 82.0464H253.504V80.0464H252.814V82.0464ZM252.504 81.0464V81.8509H254.504V81.0464H252.504ZM252.504 81.8509C252.504 82.2008 252.42 82.3462 252.383 82.3895C252.37 82.4053 252.309 82.4831 252.039 82.4831V84.4831C252.769 84.4831 253.441 84.236 253.91 83.6813C254.356 83.1542 254.504 82.4834 254.504 81.8509H252.504ZM252.039 82.4831C251.769 82.4831 251.712 82.4058 251.701 82.3926C251.665 82.3501 251.581 82.2044 251.581 81.8509H249.581C249.581 82.4798 249.726 83.1502 250.169 83.6783C250.637 84.2356 251.308 84.4831 252.039 84.4831V82.4831ZM251.581 81.8509V78.4936H249.581V81.8509H251.581ZM251.581 78.4936C251.581 78.1437 251.665 77.9973 251.702 77.9534C251.716 77.9375 251.775 77.8613 252.039 77.8613V75.8613C251.31 75.8613 250.64 76.1101 250.173 76.6646C249.729 77.1912 249.581 77.861 249.581 78.4936H251.581ZM252.039 77.8613C252.303 77.8613 252.366 77.9379 252.382 77.9564C252.42 78.0013 252.504 78.1473 252.504 78.4936H254.504C254.504 77.8574 254.352 77.1873 253.906 76.6616C253.437 76.1097 252.767 75.8613 252.039 75.8613V77.8613ZM254.504 78.4936V78.4858H252.504V78.4936H254.504Z" fill="white" mask="url(#path-69-inside-7_3706_26542)"/>
<mask id="path-71-inside-8_3706_26542" fill="white">
<path d="M256.482 79.7937V80.4435H254.893V82.7565H256.847V83.414H254.171V76.916H256.847V77.5736H254.893V79.7937H256.482Z"/>
</mask>
<path d="M256.482 79.7937V80.4435H254.893V82.7565H256.847V83.414H254.171V76.916H256.847V77.5736H254.893V79.7937H256.482Z" fill="white"/>
<path d="M256.482 80.4435V81.4435H257.482V80.4435H256.482ZM254.893 80.4435V79.4435H253.893V80.4435H254.893ZM254.893 82.7565H253.893V83.7565H254.893V82.7565ZM256.847 82.7565H257.847V81.7565H256.847V82.7565ZM256.847 83.414V84.414H257.847V83.414H256.847ZM254.171 83.414H253.171V84.414H254.171V83.414ZM254.171 76.916V75.916H253.171V76.916H254.171ZM256.847 76.916H257.847V75.916H256.847V76.916ZM256.847 77.5736V78.5736H257.847V77.5736H256.847ZM254.893 77.5736V76.5736H253.893V77.5736H254.893ZM254.893 79.7937H253.893V80.7937H254.893V79.7937ZM255.482 79.7937V80.4435H257.482V79.7937H255.482ZM256.482 79.4435H254.893V81.4435H256.482V79.4435ZM253.893 80.4435V82.7565H255.893V80.4435H253.893ZM254.893 83.7565H256.847V81.7565H254.893V83.7565ZM255.847 82.7565V83.414H257.847V82.7565H255.847ZM256.847 82.414H254.171V84.414H256.847V82.414ZM255.171 83.414V76.916H253.171V83.414H255.171ZM254.171 77.916H256.847V75.916H254.171V77.916ZM255.847 76.916V77.5736H257.847V76.916H255.847ZM256.847 76.5736H254.893V78.5736H256.847V76.5736ZM253.893 77.5736V79.7937H255.893V77.5736H253.893ZM254.893 80.7937H256.482V78.7937H254.893V80.7937Z" fill="white" mask="url(#path-71-inside-8_3706_26542)"/>
<mask id="path-73-inside-9_3706_26542" fill="white">
<path d="M259.832 79.7937V80.4435H258.242V82.7565H260.196V83.414H257.521V76.916H260.196V77.5736H258.242V79.7937H259.832Z"/>
</mask>
<path d="M259.832 79.7937V80.4435H258.242V82.7565H260.196V83.414H257.521V76.916H260.196V77.5736H258.242V79.7937H259.832Z" fill="white"/>
<path d="M259.832 80.4435V81.4435H260.832V80.4435H259.832ZM258.242 80.4435V79.4435H257.242V80.4435H258.242ZM258.242 82.7565H257.242V83.7565H258.242V82.7565ZM260.196 82.7565H261.196V81.7565H260.196V82.7565ZM260.196 83.414V84.414H261.196V83.414H260.196ZM257.521 83.414H256.521V84.414H257.521V83.414ZM257.521 76.916V75.916H256.521V76.916H257.521ZM260.196 76.916H261.196V75.916H260.196V76.916ZM260.196 77.5736V78.5736H261.196V77.5736H260.196ZM258.242 77.5736V76.5736H257.242V77.5736H258.242ZM258.242 79.7937H257.242V80.7937H258.242V79.7937ZM258.832 79.7937V80.4435H260.832V79.7937H258.832ZM259.832 79.4435H258.242V81.4435H259.832V79.4435ZM257.242 80.4435V82.7565H259.242V80.4435H257.242ZM258.242 83.7565H260.196V81.7565H258.242V83.7565ZM259.196 82.7565V83.414H261.196V82.7565H259.196ZM260.196 82.414H257.521V84.414H260.196V82.414ZM258.521 83.414V76.916H256.521V83.414H258.521ZM257.521 77.916H260.196V75.916H257.521V77.916ZM259.196 76.916V77.5736H261.196V76.916H259.196ZM260.196 76.5736H258.242V78.5736H260.196V76.5736ZM257.242 77.5736V79.7937H259.242V77.5736H257.242ZM258.242 80.7937H259.832V78.7937H258.242V80.7937Z" fill="white" mask="url(#path-73-inside-9_3706_26542)"/>
<mask id="path-75-inside-10_3706_26542" fill="white">
<path d="M262.39 76.9159C263.406 76.9159 263.871 77.5271 263.871 78.5327V81.8049C263.871 82.7951 263.406 83.4062 262.39 83.4062H260.863V76.9082H262.39V76.9159ZM262.383 82.7487C262.902 82.7487 263.158 82.4238 263.158 81.8281V78.4863C263.158 77.8906 262.91 77.5657 262.375 77.5657H261.592V82.741H262.383V82.7487Z"/>
</mask>
<path d="M262.39 76.9159C263.406 76.9159 263.871 77.5271 263.871 78.5327V81.8049C263.871 82.7951 263.406 83.4062 262.39 83.4062H260.863V76.9082H262.39V76.9159ZM262.383 82.7487C262.902 82.7487 263.158 82.4238 263.158 81.8281V78.4863C263.158 77.8906 262.91 77.5657 262.375 77.5657H261.592V82.741H262.383V82.7487Z" fill="white"/>
<path d="M262.39 76.9159H261.39V77.9159H262.39V76.9159ZM260.863 83.4062H259.863V84.4062H260.863V83.4062ZM260.863 76.9082V75.9082H259.863V76.9082H260.863ZM262.39 76.9082H263.39V75.9082H262.39V76.9082ZM262.383 82.7487H261.383V83.7487H262.383V82.7487ZM261.592 77.5657V76.5657H260.592V77.5657H261.592ZM261.592 82.741H260.592V83.741H261.592V82.741ZM262.383 82.741H263.383V81.741H262.383V82.741ZM262.39 77.9159C262.692 77.9159 262.753 77.9992 262.759 78.0051C262.785 78.035 262.871 78.1661 262.871 78.5327H264.871C264.871 77.8937 264.725 77.2164 264.265 76.6893C263.783 76.1382 263.104 75.9159 262.39 75.9159V77.9159ZM262.871 78.5327V81.8049H264.871V78.5327H262.871ZM262.871 81.8049C262.871 82.1605 262.786 82.2875 262.761 82.3164C262.755 82.3227 262.692 82.4062 262.39 82.4062V84.4062C263.104 84.4062 263.782 84.1842 264.263 83.6374C264.724 83.1132 264.871 82.4396 264.871 81.8049H262.871ZM262.39 82.4062H260.863V84.4062H262.39V82.4062ZM261.863 83.4062V76.9082H259.863V83.4062H261.863ZM260.863 77.9082H262.39V75.9082H260.863V77.9082ZM261.39 76.9082V76.9159H263.39V76.9082H261.39ZM262.383 83.7487C262.862 83.7487 263.371 83.5891 263.735 83.1496C264.071 82.744 264.158 82.247 264.158 81.8281H262.158C262.158 81.9084 262.149 81.9461 262.147 81.9527C262.146 81.9571 262.155 81.922 262.195 81.874C262.238 81.8224 262.292 81.7844 262.344 81.7633C262.39 81.7444 262.41 81.7487 262.383 81.7487V83.7487ZM264.158 81.8281V78.4863H262.158V81.8281H264.158ZM264.158 78.4863C264.158 78.0741 264.076 77.5738 263.737 77.1649C263.369 76.7201 262.853 76.5657 262.375 76.5657V78.5657C262.409 78.5657 262.393 78.5711 262.349 78.5531C262.298 78.5326 262.241 78.4943 262.197 78.4404C262.155 78.3904 262.146 78.3534 262.147 78.358C262.149 78.3649 262.158 78.4036 262.158 78.4863H264.158ZM262.375 76.5657H261.592V78.5657H262.375V76.5657ZM260.592 77.5657V82.741H262.592V77.5657H260.592ZM261.592 83.741H262.383V81.741H261.592V83.741ZM261.383 82.741V82.7487H263.383V82.741H261.383Z" fill="white" mask="url(#path-75-inside-10_3706_26542)"/>
<mask id="path-77-inside-11_3706_26542" fill="white">
<path d="M268.764 78.4936C268.764 80.0639 267.469 80.3656 267.469 81.6111C267.469 81.7348 267.485 81.8509 267.516 81.9669H266.865C266.834 81.8586 266.818 81.7426 266.818 81.5956C266.818 80.1722 268.035 79.9634 268.035 78.4626C268.035 77.8747 267.818 77.5034 267.291 77.5034C266.764 77.5034 266.547 77.8824 266.547 78.4626V79.0351H265.872V78.509C265.872 77.5266 266.322 76.8613 267.314 76.8613C268.307 76.8613 268.764 77.5111 268.764 78.5013V78.4936ZM267.531 82.5084V83.4058H266.841V82.5084H267.531Z"/>
</mask>
<path d="M268.764 78.4936C268.764 80.0639 267.469 80.3656 267.469 81.6111C267.469 81.7348 267.485 81.8509 267.516 81.9669H266.865C266.834 81.8586 266.818 81.7426 266.818 81.5956C266.818 80.1722 268.035 79.9634 268.035 78.4626C268.035 77.8747 267.818 77.5034 267.291 77.5034C266.764 77.5034 266.547 77.8824 266.547 78.4626V79.0351H265.872V78.509C265.872 77.5266 266.322 76.8613 267.314 76.8613C268.307 76.8613 268.764 77.5111 268.764 78.5013V78.4936ZM267.531 82.5084V83.4058H266.841V82.5084H267.531Z" fill="white"/>
<path d="M267.516 81.9669V82.9669H268.818L268.482 81.7087L267.516 81.9669ZM266.865 81.9669L265.903 82.2422L266.111 82.9669H266.865V81.9669ZM266.547 79.0351V80.0351H267.547V79.0351H266.547ZM265.872 79.0351H264.872V80.0351H265.872V79.0351ZM267.531 82.5084H268.531V81.5084H267.531V82.5084ZM267.531 83.4058V84.4058H268.531V83.4058H267.531ZM266.841 83.4058H265.841V84.4058H266.841V83.4058ZM266.841 82.5084V81.5084H265.841V82.5084H266.841ZM267.764 78.4936C267.764 78.9409 267.61 79.1876 267.32 79.5704C267.038 79.9417 266.469 80.596 266.469 81.6111H268.469C268.469 81.3807 268.548 81.2614 268.914 80.7779C269.271 80.306 269.764 79.6166 269.764 78.4936H267.764ZM266.469 81.6111C266.469 81.8222 266.496 82.025 266.55 82.2252L268.482 81.7087C268.473 81.6767 268.469 81.6475 268.469 81.6111H266.469ZM267.516 80.9669H266.865V82.9669H267.516V80.9669ZM267.826 81.6916C267.825 81.6873 267.823 81.6811 267.822 81.6695C267.82 81.6569 267.818 81.6339 267.818 81.5956H265.818C265.818 81.8176 265.842 82.0285 265.903 82.2422L267.826 81.6916ZM267.818 81.5956C267.818 81.2359 267.934 81.0605 268.235 80.647C268.559 80.2024 269.035 79.5518 269.035 78.4626H267.035C267.035 78.8742 266.903 79.0784 266.619 79.4693C266.311 79.8912 265.818 80.5319 265.818 81.5956H267.818ZM269.035 78.4626C269.035 78.0741 268.969 77.5881 268.671 77.1768C268.332 76.7073 267.819 76.5034 267.291 76.5034V78.5034C267.306 78.5034 267.269 78.5058 267.208 78.4772C267.141 78.4463 267.086 78.3979 267.05 78.3482C267.019 78.3043 267.016 78.2798 267.022 78.3012C267.027 78.3231 267.035 78.3741 267.035 78.4626H269.035ZM267.291 76.5034C266.756 76.5034 266.245 76.7144 265.909 77.182C265.614 77.592 265.547 78.0753 265.547 78.4626H267.547C267.547 78.377 267.555 78.327 267.56 78.3051C267.566 78.2837 267.564 78.3067 267.533 78.3489C267.499 78.3967 267.445 78.4448 267.379 78.476C267.317 78.5052 267.279 78.5034 267.291 78.5034V76.5034ZM265.547 78.4626V79.0351H267.547V78.4626H265.547ZM266.547 78.0351H265.872V80.0351H266.547V78.0351ZM266.872 79.0351V78.509H264.872V79.0351H266.872ZM266.872 78.509C266.872 78.152 266.956 77.9977 266.995 77.9499C267.011 77.93 267.03 77.9144 267.063 77.9001C267.101 77.8841 267.178 77.8613 267.314 77.8613V75.8613C266.577 75.8613 265.908 76.1202 265.447 76.6836C265.013 77.2141 264.872 77.8836 264.872 78.509H266.872ZM267.314 77.8613C267.578 77.8613 267.632 77.9369 267.643 77.9501C267.679 77.9936 267.764 78.1424 267.764 78.5013H269.764C269.764 77.8701 269.62 77.1989 269.18 76.6699C268.714 76.1107 268.043 75.8613 267.314 75.8613V77.8613ZM269.764 78.5013V78.4936H267.764V78.5013H269.764ZM266.531 82.5084V83.4058H268.531V82.5084H266.531ZM267.531 82.4058H266.841V84.4058H267.531V82.4058ZM267.841 83.4058V82.5084H265.841V83.4058H267.841ZM266.841 83.5084H267.531V81.5084H266.841V83.5084Z" fill="white" mask="url(#path-77-inside-11_3706_26542)"/>
<path d="M368.69 341.571C350.724 349.585 330.37 352.254 310.527 351.704C309.325 351.674 308.131 351.627 306.937 351.573L304.782 343.195C288.948 326.935 259.871 312.051 257.35 289.525C254.094 260.601 249.635 261.776 249.635 254.582C249.635 254.327 251.659 250.977 254.094 243.628C254.892 241.253 255.288 237.765 255.722 234.902C256.172 231.885 258.87 229.658 261.925 229.882C263.988 230.021 266.043 230.802 267.562 232.079C270.501 234.562 271.99 238.422 272.354 242.251C272.734 246.081 272.13 249.925 271.501 253.723C274.619 259.587 276.379 266.843 277.697 273.349C279.062 267.934 281.186 251.341 275.603 240.201C266.213 221.434 255.931 203.426 247.836 179.615C247.2 177.766 247.03 174.68 247.526 172.784C249.41 165.691 256.676 166.812 260.064 170.642C260.979 171.647 261.669 172.8 262.235 174.022C266.112 182.439 274.045 195.288 279.651 202.668L298.974 228.195L301.3 226.385C301.3 226.385 302.347 194.669 301.827 194.166C301.308 193.648 298.198 173.365 298.198 173.365C298.198 173.365 296.493 169.589 294.415 164.77C292.36 159.958 294.415 156.183 294.415 156.183C298.043 148.788 305.611 152.23 307.162 156.183C308.713 160.129 313.365 167.872 313.365 167.872L321.995 191.42C321.67 196.742 324.733 223.043 324.733 223.043L327.842 221.628L332.843 206.187L329.044 190.375C329.044 190.375 320.778 181.278 322.158 175.941C323.531 170.618 330.595 172.165 330.595 172.165L344.715 188.998H348.863L358.68 201.383C361.332 209.39 362.673 217.721 362.673 226.084C362.673 231.561 362.099 237.076 360.928 242.483L358.68 252.942V320.491C358.68 320.491 365.395 331.313 365.395 332.342C365.395 332.551 366.798 336.419 368.69 341.571Z" fill="white"/>
<path opacity="0.5" d="M251.465 251.131C251.38 251.471 251.31 251.896 251.582 252.121C252 252.469 252.559 251.935 252.869 251.486C254.924 248.578 258.979 247.263 262.36 248.415C263.647 248.392 264.089 246.435 263.244 245.46C262.398 244.486 260.964 244.323 259.677 244.315C258.39 244.315 257.009 244.377 255.916 243.697C254.575 242.861 254.047 241.152 254.389 239.689C253.52 243.519 252.45 247.325 251.465 251.131Z" fill="#02A5E2"/>
<path d="M268.811 278.446C269.005 278.098 269.168 277.742 269.33 277.379C268.997 277.634 268.772 277.99 268.811 278.446Z" fill="#92E3A9"/>
<path opacity="0.5" d="M273.549 253.832C273.239 249.918 273.797 245.981 273.634 242.051C273.471 238.129 272.44 233.99 269.579 231.298C265.469 227.43 254.218 229.411 257.986 236.744C259.033 238.779 261.732 239.831 263.825 238.918C265.927 238.005 266.958 235.151 265.81 233.178C270.362 240.063 269.951 249.841 264.849 256.323C270.688 261.367 272.541 270.402 269.346 277.38C270.028 276.862 271.215 276.792 271.967 277.357C273.084 278.2 273.456 279.662 273.998 280.946C274.541 282.23 275.596 283.569 276.992 283.476C278.907 278.796 278.271 273.474 277.03 268.577C275.79 263.68 273.96 258.876 273.564 253.84L273.549 253.832Z" fill="#02A5E2"/>
<path d="M306.248 187.582C306.279 187.845 306.31 188.108 306.341 188.371C306.395 188.116 306.379 187.845 306.248 187.582Z" fill="#92E3A9"/>
<path opacity="0.5" d="M298.424 222.03C292.841 211.084 287.25 200.138 281.109 189.486C277.519 183.259 273.719 177.109 268.927 171.748C266.803 169.373 260.708 163.873 257.351 167.493C255.11 169.907 258.056 174.308 255.304 176.923C255.932 176.962 259.049 176.621 259.375 177.031C266.369 185.649 270.222 196.758 270.067 207.851C272.316 206.095 275.394 208.531 277.147 210.782C287.94 224.614 298.028 238.995 307.356 253.847C305.55 247.28 305.503 240.318 303.549 233.796C302.324 229.696 300.362 225.852 298.416 222.038L298.424 222.03Z" fill="#02A5E2"/>
<g opacity="0.5">
<path opacity="0.5" d="M268.811 278.446C269.005 278.098 269.168 277.742 269.33 277.379C268.997 277.634 268.772 277.99 268.811 278.446Z" fill="white"/>
<path opacity="0.5" d="M306.247 187.582C306.278 187.845 306.309 188.108 306.34 188.371C306.394 188.116 306.379 187.845 306.247 187.582Z" fill="white"/>
</g>
<path opacity="0.5" d="M303.991 160.375C310 168.119 313.435 177.804 313.66 187.59C310.218 188.046 307.457 191.489 307.767 194.946C308.101 192.633 311.505 191.984 313.381 193.384C315.25 194.784 315.893 197.267 316.312 199.565C318.786 213.172 316.917 227.166 317.909 240.959C318.282 246.157 322.709 257.529 325.695 281.308C324.95 264.011 325.663 245.647 324.919 228.349C324.353 215.222 324.151 204.376 322.011 191.411C320.476 182.128 316.266 171.615 311.714 163.369C310.621 161.397 307.884 155.347 305.666 154.543C301.991 153.22 304.472 157.977 303.991 160.368V160.375Z" fill="#02A5E2"/>
<path opacity="0.5" d="M323.67 177.704C323.546 175.816 324.996 173.959 326.857 173.604C328.718 173.248 330.75 174.455 331.324 176.257C329.61 176.164 327.997 177.765 328.083 179.483C329.424 178.957 330.765 178.431 332.107 177.905C332.665 181.873 335.309 185.192 337.93 188.232C340.551 191.264 340.753 193.307 341.722 197.198C342.691 201.089 343.668 207.037 339.838 208.237C341.543 207.896 343.172 209.374 343.645 211.045C344.118 212.708 343.753 214.487 343.404 216.181C340.784 228.86 339.272 241.763 338.884 254.705C342.35 248.246 346.731 238.011 348.468 230.895C352.694 213.636 351.003 210.944 348.313 199.689C346.568 192.401 343.211 185.725 338.349 180.001C336.31 177.595 333.223 173.851 330.238 172.637C327.16 171.383 322.949 174.068 323.67 177.711V177.704Z" fill="#02A5E2"/>
<path opacity="0.5" d="M350.096 205.104C351.236 203.619 352.43 202.08 354.113 201.244C355.795 200.409 358.098 200.517 359.254 201.995C356.517 198.978 354.113 195.667 352.089 192.139C351.376 190.894 350.662 189.571 349.46 188.782C348.46 188.132 346.452 187.892 345.7 189.084C345.025 190.159 346.018 192.085 346.336 193.099C347.592 197.098 348.848 201.105 350.104 205.104H350.096Z" fill="#02A5E2"/>
<path opacity="0.5" d="M348.84 224.653C348.065 228.281 346.793 231.847 346.716 235.56C346.623 240.155 348.468 244.758 351.717 248.015C351.267 242.955 351.531 237.834 352.508 232.845C352.834 231.182 352.903 225.388 354.198 224.297C355.493 223.206 357.866 223.276 358.564 224.823C358.494 222.533 355.664 220.831 353.601 221.829C355.268 221.025 352.942 212.562 352.547 210.899C352.004 208.632 349.6 197.709 347.072 197.113C344.529 196.518 346.832 200.633 347.119 201.407C348.034 203.867 348.708 206.419 349.15 209.003C350.027 214.178 349.949 219.516 348.848 224.653H348.84Z" fill="#02A5E2"/>
<path opacity="0.5" d="M336.333 257.104L336.868 284.063C339.272 281.657 341.086 278.687 342.195 275.476C343.048 273.016 346.692 273.674 346.576 276.273C346.56 276.66 346.537 277.047 346.514 277.426C345.762 290.128 345.002 302.822 344.25 315.524L352.864 283.096C354.392 292.642 350.275 319.539 347.359 328.753C354.493 329.928 357.083 338.801 357.292 346.011C357.501 353.221 357.424 361.699 363.232 365.992C368.845 363.525 368.117 365.165 370.993 365.188C374.514 365.219 377.569 363.238 380.221 360.051C381.244 358.821 382.144 356.508 382.19 354.907C382.299 350.606 379.996 347.017 378.065 343.373C363.891 316.576 368.83 282.794 354.865 255.936C354.764 255.743 354.47 255.797 354.446 256.013C353.803 261.452 351.678 260.121 348.344 255.766C348.321 255.735 343.412 259.084 343.389 259.053C341.016 255.851 340.574 251.666 340.218 247.705C337 253.167 336.325 257.096 336.325 257.096L336.333 257.104Z" fill="#02A5E2"/>
<path d="M306.937 351.573L304.782 343.195C288.948 326.935 259.871 312.051 257.35 289.525C254.094 260.601 249.635 261.776 249.635 254.582C249.635 254.327 251.659 250.977 254.094 243.628C254.892 241.253 255.288 237.765 255.722 234.902C256.172 231.885 258.87 229.658 261.925 229.882C263.988 230.021 266.043 230.802 267.562 232.079C270.501 234.562 271.99 238.422 272.354 242.251C272.734 246.081 272.13 249.925 271.501 253.723C274.619 259.587 276.379 266.843 277.697 273.349C279.062 267.934 281.186 251.341 275.603 240.201C266.213 221.434 255.931 203.426 247.836 179.615C247.2 177.766 247.03 174.68 247.526 172.784C249.41 165.691 256.676 166.812 260.064 170.642C260.979 171.647 261.669 172.8 262.235 174.022C266.112 182.439 274.045 195.288 279.651 202.668L298.974 228.195L301.3 226.385C301.3 226.385 302.347 194.669 301.827 194.166C301.308 193.648 298.198 173.365 298.198 173.365C298.198 173.365 296.493 169.589 294.415 164.77C292.36 159.958 294.415 156.183 294.415 156.183C298.043 148.788 305.611 152.23 307.162 156.183C308.713 160.129 313.365 167.872 313.365 167.872L321.996 191.42C321.67 196.742 324.733 223.043 324.733 223.043L327.842 221.628L332.843 206.187L329.044 190.375C329.044 190.375 320.778 181.278 322.158 175.941C323.531 170.618 330.595 172.165 330.595 172.165L344.715 188.998H348.863L358.68 201.383C361.332 209.39 362.673 217.721 362.673 226.084C362.673 231.561 362.099 237.076 360.928 242.483L358.68 252.942V320.491C358.68 320.491 365.395 331.313 365.395 332.342C365.395 332.551 366.798 336.419 368.69 341.571" stroke="#263238" stroke-miterlimit="10"/>
<path d="M268.679 208.943C271.16 206.189 275.021 204.742 278.705 205.175" stroke="#263238" stroke-miterlimit="10"/>
<path d="M262.235 176.645C259.413 176.158 256.412 176.862 254.101 178.548C254.101 178.548 250.038 174.494 250.899 171.184" stroke="#263238" stroke-miterlimit="10"/>
<path d="M351.298 248.309C349.057 244.852 346.878 240.102 347.483 236.025C348.661 228.05 352.306 218.859 350.662 210.969C349.615 205.925 348.568 200.882 347.521 195.838" stroke="#263238" stroke-miterlimit="10"/>
<path d="M307.728 162.76C306.169 163.874 303.967 164.028 302.269 163.131C300.571 162.234 299.454 160.338 299.501 158.42" stroke="#263238" stroke-miterlimit="10"/>
<path d="M301.726 211.951C301.548 214.674 301.905 227.485 301.726 230.208" stroke="#263238" stroke-miterlimit="10"/>
<path d="M317.824 235.336C321.375 239.219 320.856 248.541 318.343 253.67" stroke="#263238" stroke-miterlimit="10"/>
<path d="M290.39 246.166C292.305 249.902 295.26 253.097 298.749 255.232" stroke="#263238" stroke-miterlimit="10"/>
<path d="M340.59 241.061C341.179 244.959 340.295 249.067 338.163 252.386" stroke="#263238" stroke-miterlimit="10"/>
<path d="M355.702 253.199C355.872 256.263 354.973 259.38 353.189 261.879" stroke="#263238" stroke-miterlimit="10"/>
<path d="M334.991 178.254C333.146 177.365 330.765 177.744 329.292 179.167C328.617 178.285 327.95 177.403 327.276 176.514" stroke="#263238" stroke-miterlimit="10"/>
<path d="M318.273 190.19C315.583 188.48 311.636 189.145 309.659 191.652" stroke="#263238" stroke-miterlimit="10"/>
<path d="M350.259 211.952C348.568 209.043 345.064 207.31 341.722 207.728" stroke="#263238" stroke-miterlimit="10"/>
<path d="M361.184 227.508C361.138 225.404 359.409 223.47 357.323 223.184" stroke="#263238" stroke-miterlimit="10"/>
<path d="M277.611 274.643C276.448 275.153 275.285 275.664 274.122 276.174" stroke="#263238" stroke-miterlimit="10"/>
<path d="M278.503 277.434C277.937 280.11 277.922 282.903 278.465 285.587" stroke="#263238" stroke-miterlimit="10"/>
<path d="M255.637 250.461C253.768 251.938 252.155 253.749 250.899 255.775" stroke="#263238" stroke-miterlimit="10"/>
<path d="M256.49 239.854C259.041 238.036 263.112 242.105 265.461 240.024C266.399 239.197 266.469 237.766 266.252 236.536C266.035 235.306 265.601 234.076 265.787 232.846" stroke="#263238" stroke-miterlimit="10"/>
<path d="M310.791 278.121C310.861 279.421 310.907 280.72 310.915 282.02" stroke="#263238" stroke-miterlimit="10"/>
<path d="M307.139 255.889C308.775 261.451 309.674 267.214 310.357 273.047" stroke="#263238" stroke-miterlimit="10"/>
<path d="M302.642 244.773C303.952 247.698 305.123 250.668 306.162 253.67" stroke="#263238" stroke-miterlimit="10"/>
</g>
<defs>
<clipPath id="clip0_3706_26542">
<rect width="351" height="363" fill="white" transform="translate(75 3)"/>
</clipPath>
</defs>
</svg>
