<svg width="258" height="191" viewBox="0 0 258 191" fill="none" xmlns="http://www.w3.org/2000/svg">
<path d="M129.469 187.133L100.561 122.402H170.613L257 179.386" fill="white"/>
<path d="M129.469 187.133L100.561 122.402H170.613L257 179.386" stroke="#263238" stroke-width="0.75" stroke-linecap="round" stroke-linejoin="round"/>
<path d="M122.298 184.584L100.561 126.72V122.402L131.313 190.149L122.298 184.584Z" fill="#263238" stroke="#263238" stroke-width="0.75" stroke-linecap="round" stroke-linejoin="round"/>
<path d="M140.615 125.08L170.412 160.007L134.244 168.433L113.692 129.39L140.615 125.08Z" fill="white" stroke="#263238" stroke-width="0.75" stroke-linecap="round" stroke-linejoin="round"/>
<path d="M134.242 168.431V169.461L169.794 162.27L170.41 160.006L134.242 168.431Z" fill="#263238" stroke="#263238" stroke-width="0.75" stroke-linecap="round" stroke-linejoin="round"/>
<path d="M139.488 137.646L141.013 139.896L144.89 138.846L143.277 136.649L139.488 137.646Z" fill="#263238"/>
<path d="M154.165 151.413L152.322 148.919L147.916 150.105L149.638 152.654L154.165 151.413Z" fill="#263238"/>
<path d="M136.326 132.956L137.458 134.637L141.105 133.708L139.959 132.149L136.326 132.956Z" fill="#263238"/>
<path d="M143.347 143.346L145.434 146.437L149.698 145.36L147.393 142.235L143.347 143.346Z" fill="#263238"/>
<path d="M154.386 144.797L150.732 145.725L152.563 148.206L156.284 147.203L154.386 144.797Z" fill="#263238"/>
<path d="M145.805 146.979L147.547 149.568L151.925 148.382L150.088 145.888L145.805 146.979Z" fill="#263238"/>
<path d="M132.196 133.869L133.321 135.686L136.819 134.791L135.673 133.097L132.196 133.869Z" fill="#263238"/>
<path d="M141.371 140.431L142.984 142.811L146.997 141.699L145.282 139.374L141.371 140.431Z" fill="#263238"/>
<path d="M137.82 135.173L139.122 137.104L142.877 136.115L141.494 134.237L137.82 135.173Z" fill="#263238"/>
<path d="M129.932 139.53L128.794 137.477L124.639 138.534L125.798 140.622L129.932 139.53Z" fill="#263238"/>
<path d="M123.96 144.498L126.813 143.732L125.492 141.346L122.686 142.085L123.96 144.498Z" fill="#263238"/>
<path d="M130.958 131.878L131.846 133.315L135.296 132.549L134.367 131.18L130.958 131.878Z" fill="#263238"/>
<path d="M128.477 136.914L127.379 134.935L123.156 135.864L124.322 137.972L128.477 136.914Z" fill="#263238"/>
<path d="M126.861 132.713L127.702 134.231L131.213 133.458L130.311 132.008L126.861 132.713Z" fill="#263238"/>
<path d="M120.957 138.832L123.709 138.127L122.529 136.005L119.784 136.609L120.957 138.832Z" fill="#263238"/>
<path d="M121.966 133.714L122.847 135.3L127.07 134.372L126.222 132.84L121.966 133.714Z" fill="#263238"/>
<path d="M135.232 138.771L136.656 141.069L140.384 140.066L138.859 137.815L135.232 138.771Z" fill="#263238"/>
<path d="M144.799 146.6L142.718 143.522L138.834 144.593L140.718 147.637L144.799 146.6Z" fill="#263238"/>
<path d="M128.01 134.792L129.094 136.757L132.687 135.842L131.555 134.012L128.01 134.792Z" fill="#263238"/>
<path d="M128.828 147.352L125.899 148.158L127.418 151.025L130.434 150.259L128.828 147.352Z" fill="#263238"/>
<path d="M136.993 141.617L138.498 144.043L142.355 142.986L140.748 140.6L136.993 141.617Z" fill="#263238"/>
<path d="M134.267 138.391L133.027 136.391L129.407 137.313L130.546 139.373L134.267 138.391Z" fill="#263238"/>
<path d="M141.07 159.642L136.929 160.699L138.406 163.363L142.561 162.339L141.07 159.642Z" fill="#263238"/>
<path d="M134.653 130.495L138.198 129.77L136.293 127.181L132.803 127.757L134.653 130.495Z" fill="#263238"/>
<path d="M125.909 132.278L124.194 129.18L119.85 129.899L121.653 133.152L125.909 132.278Z" fill="#263238"/>
<path d="M131.547 142.451L130.239 140.085L126.104 141.177L127.426 143.563L131.547 142.451Z" fill="#263238"/>
<path d="M142.103 151.04L140.436 148.349L136.125 149.447L137.67 152.239L142.103 151.04Z" fill="#263238"/>
<path d="M140.098 147.799L138.213 144.763L134.153 145.881L135.814 148.884L140.098 147.799Z" fill="#263238"/>
<path d="M146.914 149.738L145.165 147.142L141.058 148.185L142.725 150.87L146.914 149.738Z" fill="#263238"/>
<path d="M136.029 141.237L134.606 138.933L130.851 139.929L132.159 142.281L136.029 141.237Z" fill="#263238"/>
<path d="M133.658 136.236L134.892 138.222L138.491 137.273L137.183 135.334L133.658 136.236Z" fill="#263238"/>
<path d="M137.877 144.22L136.372 141.787L132.468 142.838L133.851 145.332L137.877 144.22Z" fill="#263238"/>
<path d="M149.011 152.829L147.282 150.28L143.066 151.419L144.673 154.015L149.011 152.829Z" fill="#263238"/>
<path d="M146.228 157.689L144.391 154.727L139.755 156.001L141.382 158.922L146.228 157.689Z" fill="#263238"/>
<path d="M132.333 153.684L130.747 150.816L127.717 151.589L129.262 154.517L132.333 153.684Z" fill="#263238"/>
<path d="M127.122 144.289L124.255 145.062L125.604 147.604L128.512 146.804L127.122 144.289Z" fill="#263238"/>
<path d="M140.753 159.085L139.14 156.164L135.032 157.289L136.612 160.136L140.753 159.085Z" fill="#263238"/>
<path d="M133.232 145.495L131.856 143.008L127.735 144.119L129.132 146.634L133.232 145.495Z" fill="#263238"/>
<path d="M135.027 131.044L135.949 132.406L139.555 131.607L138.599 130.312L135.027 131.044Z" fill="#263238"/>
<path d="M119.486 136.047L122.217 135.443L121.336 133.844L118.611 134.4L119.486 136.047Z" fill="#263238"/>
<path d="M130.605 131.315L133.994 130.624L132.13 127.865L128.809 128.414L130.605 131.315Z" fill="#263238"/>
<path d="M126.547 132.149L129.97 131.451L128.153 128.523L124.839 129.072L126.547 132.149Z" fill="#263238"/>
<path d="M125.186 140.792L124.02 138.69L121.255 139.395L122.387 141.524L125.186 140.792Z" fill="#263238"/>
<path d="M138.861 129.635L141.925 129.005L140 126.571L136.97 127.066L138.861 129.635Z" fill="#263238"/>
<path d="M121.019 133.281L119.203 130L116.519 130.447L118.315 133.83L121.019 133.281Z" fill="#263238"/>
<path d="M136.309 160.854L133.056 161.68L134.466 164.337L137.787 163.517L136.309 160.854Z" fill="#263238"/>
<path d="M151.77 156.909L147.188 158.075L148.862 160.779L153.593 159.607L151.77 156.909Z" fill="#263238"/>
<path d="M146.565 158.237L141.685 159.478L143.183 162.182L148.232 160.935L146.565 158.237Z" fill="#263238"/>
<path d="M157.191 155.526L152.405 156.746L154.229 159.451L159.183 158.224L157.191 155.526Z" fill="#263238"/>
<path d="M161.905 154.327L157.838 155.364L159.837 158.069L164.04 157.025L161.905 154.327Z" fill="#263238"/>
<path d="M134.427 157.459L131.275 158.32L132.76 161.126L136 160.299L134.427 157.459Z" fill="#263238"/>
<path d="M144.045 154.184L142.439 151.588L137.979 152.794L139.443 155.445L144.045 154.184Z" fill="#263238"/>
<path d="M151.402 156.367L149.368 153.364L145.01 154.557L146.847 157.526L151.402 156.367Z" fill="#263238"/>
<path d="M138.837 155.607L137.366 152.957L133.252 154.075L134.73 156.732L138.837 155.607Z" fill="#263238"/>
<path d="M130.98 157.764L134.118 156.903L132.641 154.239L129.557 155.073L130.98 157.764Z" fill="#263238"/>
<path d="M135.197 149.048L133.543 146.052L129.436 147.184L131.049 150.098L135.197 149.048Z" fill="#263238"/>
<path d="M156.797 154.992L154.554 151.948L149.999 153.195L152.039 156.205L156.797 154.992Z" fill="#263238"/>
<path d="M137.061 152.403L135.509 149.604L131.36 150.661L132.946 153.521L137.061 152.403Z" fill="#263238"/>
<path d="M148.027 142.059L150.339 145.191L153.965 144.269L151.471 141.11L148.027 142.059Z" fill="#263238"/>
<path d="M143.518 135.944L146.73 135.097L145.287 133.273L142.142 134.073L143.518 135.944Z" fill="#263238"/>
<path d="M140.619 132.006L141.744 133.538L144.876 132.745L143.744 131.315L140.619 132.006Z" fill="#263238"/>
<path d="M161.48 153.798L159.053 150.714L155.189 151.771L157.44 154.828L161.48 153.798Z" fill="#263238"/>
<path d="M143.917 136.48L145.537 138.669L148.845 137.774L147.15 135.625L143.917 136.48Z" fill="#263238"/>
<path d="M152.957 148.741L154.801 151.243L158.644 150.192L156.699 147.731L152.957 148.741Z" fill="#263238"/>
<path d="M140.216 131.463L143.327 130.779L142.358 129.545L139.273 130.175L140.216 131.463Z" fill="#263238"/>
<path d="M147.634 141.53L151.057 140.581L149.261 138.304L145.926 139.205L147.634 141.53Z" fill="#263238"/>
<path d="M175.13 128.983V134.528C174.567 135.072 173.947 135.554 173.28 135.965C172.256 136.582 163.831 137.998 163.831 137.998L174.513 149.718C174.513 149.718 184.308 148.647 187.053 147.867C189.927 147.04 189.31 136.561 189.31 136.561L175.13 128.983Z" fill="white" stroke="#263238" stroke-width="0.75" stroke-linecap="round" stroke-linejoin="round"/>
<path d="M175.133 128.983V134.528C175.133 134.528 174.984 134.677 174.74 134.894L187.232 147.813C189.903 146.613 189.313 136.582 189.313 136.582L175.133 128.983Z" fill="#263238" stroke="#263238" stroke-width="0.75" stroke-linecap="round" stroke-linejoin="round"/>
<path d="M156.23 58.084V116.857L201.027 152.198V61.3714L156.23 58.084Z" fill="white" stroke="#263238" stroke-width="0.75" stroke-linecap="round" stroke-linejoin="round"/>
<path d="M159.313 61.1685V110.69L196.919 133.911V64.4559L159.313 61.1685Z" fill="#335D82" stroke="#263238" stroke-width="0.75" stroke-linecap="round" stroke-linejoin="round"/>
<path d="M205.547 61.3711H201.026V152.218H205.547V61.3711Z" fill="#263238" stroke="#263238" stroke-width="0.75" stroke-linecap="round" stroke-linejoin="round"/>
<path d="M161.781 64.252L161.985 108.432L193.422 126.306V71.5995L171.847 68.3324L170.41 65.2754L161.781 64.252Z" fill="white" stroke="#263238" stroke-width="0.75" stroke-linecap="round" stroke-linejoin="round"/>
<path d="M163.831 69.5938V107.199L191.574 121.996V74.5282L163.831 69.5938Z" fill="#335D82" stroke="#263238" stroke-width="0.75" stroke-linecap="round" stroke-linejoin="round"/>
<path d="M180.056 106.298C183.971 104.984 185.676 99.5457 183.864 94.1516C182.053 88.7575 177.412 85.4501 173.498 86.7644C169.583 88.0786 167.878 93.5168 169.69 98.911C171.501 104.305 176.142 107.612 180.056 106.298Z" fill="#263238"/>
<path d="M177.604 97.1464L180.241 94.225C180.418 93.9647 180.51 93.6548 180.501 93.3396C180.493 93.0244 180.385 92.7199 180.193 92.4695C179.8 91.9069 179.183 91.7917 178.838 92.1916L176.303 95.0045L173.761 90.9376C173.395 90.3479 172.778 90.1649 172.405 90.5309C172.209 90.7736 172.097 91.0739 172.087 91.386C172.077 91.6981 172.17 92.0049 172.351 92.2594L174.988 96.4957L172.303 99.4035C172.126 99.6642 172.035 99.9746 172.045 100.29C172.054 100.606 172.164 100.91 172.358 101.159C172.512 101.404 172.755 101.581 173.035 101.654C173.157 101.684 173.285 101.68 173.405 101.642C173.525 101.603 173.632 101.532 173.713 101.437L176.255 98.624L178.79 102.691C178.946 102.967 179.204 103.172 179.509 103.26C179.626 103.297 179.751 103.301 179.87 103.273C179.989 103.244 180.099 103.184 180.186 103.098C180.381 102.854 180.491 102.553 180.499 102.241C180.508 101.93 180.415 101.623 180.234 101.369L177.604 97.1464Z" fill="white"/>
<path d="M168.76 82.3359L184.295 86.8976" stroke="#263238" stroke-width="0.75" stroke-linecap="round" stroke-linejoin="round"/>
<path d="M168.148 78.019L188.286 83.6381" stroke="#263238" stroke-width="0.75" stroke-linecap="round" stroke-linejoin="round"/>
<path d="M182.027 174.85C182.027 174.85 172.205 175.759 168.572 178.667C164.939 181.574 167.664 183.032 171.114 183.94C174.564 184.848 190.025 183.391 192.024 181.391C194.024 179.392 192.024 174.484 182.027 174.85Z" fill="white" stroke="#263238" stroke-width="0.75" stroke-linecap="round" stroke-linejoin="round"/>
<path d="M192.025 181.419C192.411 181.034 192.651 180.525 192.703 179.982C188.304 179.765 182.535 181.04 177.296 182.693C175.527 183.256 173.731 183.729 171.914 184.11C176.483 184.659 190.154 183.263 192.025 181.419Z" fill="#263238" stroke="#263238" stroke-width="0.75" stroke-linecap="round" stroke-linejoin="round"/>
<path d="M147.205 66.9761L154.383 70.7108" stroke="#263238" stroke-linecap="round" stroke-linejoin="round"/>
<path d="M143.085 64.8345L145.22 65.9461" stroke="#263238" stroke-linecap="round" stroke-linejoin="round"/>
<path d="M148.789 85.793L151.222 86.0709" stroke="#263238" stroke-linecap="round" stroke-linejoin="round"/>
<path d="M139.475 84.7153L146.036 85.4745" stroke="#263238" stroke-linecap="round" stroke-linejoin="round"/>
<path d="M150.318 103.247L142.185 105.504" stroke="#263238" stroke-linecap="round" stroke-linejoin="round"/>
<path d="M139.823 3.83105C135.976 3.83105 132.215 4.97197 129.016 7.10952C125.817 9.24707 123.323 12.2852 121.851 15.8399C120.379 19.3945 119.993 23.3059 120.744 27.0794C121.495 30.853 123.347 34.3192 126.068 37.0398C128.788 39.7604 132.255 41.6132 136.028 42.3638C139.802 43.1144 143.713 42.7291 147.268 41.2568C150.822 39.7844 153.861 37.291 155.998 34.092C158.136 30.8929 159.277 27.1318 159.277 23.2843C159.277 18.125 157.227 13.177 153.579 9.52878C149.931 5.88059 144.983 3.83105 139.823 3.83105ZM139.823 38.9147C136.732 38.9134 133.711 37.9955 131.141 36.2772C128.572 34.5589 126.57 32.1173 125.388 29.2611C124.206 26.4049 123.897 23.2624 124.501 20.2308C125.105 17.1993 126.594 14.4148 128.78 12.2296C130.966 10.0443 133.751 8.55631 136.783 7.95376C139.815 7.35121 142.958 7.66114 145.813 8.84436C148.669 10.0276 151.11 12.031 152.827 14.6012C154.544 17.1715 155.461 20.1932 155.461 23.2843C155.464 25.3395 155.062 27.3751 154.278 29.2747C153.493 31.1742 152.342 32.9004 150.889 34.3542C149.437 35.808 147.712 36.961 145.813 37.7471C143.914 38.5331 141.879 38.9368 139.823 38.935V38.9147Z" fill="#263238"/>
<path d="M141.213 23.3053C141.22 23.5815 141.144 23.8534 140.996 24.0863C140.847 24.3192 140.633 24.5026 140.379 24.613C140.126 24.7234 139.846 24.7558 139.574 24.706C139.302 24.6563 139.051 24.5267 138.854 24.3338C138.656 24.1409 138.52 23.8934 138.464 23.623C138.407 23.3526 138.433 23.0715 138.537 22.8156C138.641 22.5597 138.819 22.3407 139.048 22.1864C139.277 22.0322 139.547 21.9498 139.824 21.9497C140.186 21.9496 140.535 22.0913 140.794 22.3446C141.054 22.5979 141.204 22.9427 141.213 23.3053Z" fill="#263238"/>
<path d="M135.165 30.3602L139.822 23.3042L147.691 29.818" stroke="#263238" stroke-linecap="round" stroke-linejoin="round"/>
<path d="M36.5953 38.2191L34.2568 31.8273L35.504 33.2304V31.0478L38.1543 35.1011L35.8158 20.6027L38.9338 28.5535L39.2455 21.5381L39.7132 23.8765L40.3368 15.9258L41.4281 28.0858L42.9871 23.8765L42.6753 29.3329L46.8845 16.8612L44.8578 32.4509L47.8199 30.2683L46.105 33.0745L48.2876 31.5155L45.8 38.6868L36.7512 38.8427" fill="#335D82"/>
<path d="M46.6015 53.9634H36.8545L34.2246 37.0723H49.2246L46.6015 53.9634Z" fill="#263238" stroke="#263238" stroke-linecap="round" stroke-linejoin="round"/>
<path d="M73.2855 53.8491H24.083V184.742H73.2855V53.8491Z" fill="white" stroke="#263238" stroke-linecap="round" stroke-linejoin="round"/>
<path d="M69.9351 58.1465H26.9414V89.6716H69.9351V58.1465Z" stroke="#263238" stroke-linecap="round" stroke-linejoin="round"/>
<path d="M57.0409 71.0464H39.8447V76.7807H57.0409V71.0464Z" fill="#263238"/>
<path d="M69.9351 94.9321H26.9414V126.457H69.9351V94.9321Z" stroke="#263238" stroke-linecap="round" stroke-linejoin="round"/>
<path d="M57.0409 107.83H39.8447V113.564H57.0409V107.83Z" fill="#263238"/>
<path d="M69.9351 131.709H26.9414V163.235H69.9351V131.709Z" stroke="#263238" stroke-linecap="round" stroke-linejoin="round"/>
<path d="M57.0409 144.609H39.8447V150.344H57.0409V144.609Z" fill="#263238"/>
<path d="M78.5573 177.269C78.5573 177.269 103.216 166.377 116.474 165.557L126.147 186.928H53.0918L78.5573 177.269Z" fill="#263238" stroke="#263238" stroke-width="0.75" stroke-linecap="round" stroke-linejoin="round"/>
<path d="M108.572 48.499C108.572 48.499 125.931 69.1181 129.584 72.9003C133.238 76.6825 133.373 79.4277 132.194 81.1222C131.015 82.8167 122.149 85.955 113.012 91.8249C103.875 97.6948 77.9012 112.837 77.6436 113.366C77.386 113.895 74.8984 95.0648 74.8984 95.0648L118.36 77.1841L118.231 75.8759L104.133 49.7733L108.572 48.499Z" fill="white"/>
<path d="M125.279 78.9327L105.134 49.5156L104.165 49.8003L118.263 75.9029L118.392 77.2111L74.9307 95.0918C74.9307 95.0918 74.9781 95.4172 75.0459 95.9662L77.8791 102.466L125.279 78.9327Z" fill="#335D82"/>
<path opacity="0.5" d="M125.279 78.9327L105.134 49.5156L104.165 49.8003L118.263 75.9029L118.392 77.2111L74.9307 95.0918C74.9307 95.0918 74.9781 95.4172 75.0459 95.9662L77.8791 102.466L125.279 78.9327Z" fill="white"/>
<path d="M108.572 48.499C108.572 48.499 125.931 69.1181 129.584 72.9003C133.238 76.6825 133.373 79.4277 132.194 81.1222C131.015 82.8167 122.149 85.955 113.012 91.8249C103.875 97.6948 77.9012 112.837 77.6436 113.366C77.386 113.894 74.8984 95.0648 74.8984 95.0648L118.36 77.1841L118.231 75.8759L104.133 49.7733L108.572 48.499Z" stroke="#263238" stroke-width="0.75" stroke-linecap="round" stroke-linejoin="round"/>
<path d="M94.738 39.4901C94.738 39.4901 92.6503 37.66 91.6065 39.4901C90.5626 41.3202 90.4339 44.3162 91.0846 44.5805C91.7353 44.8449 94.3448 44.4517 94.738 43.6655C95.1311 42.8792 94.738 39.4901 94.738 39.4901Z" fill="white" stroke="#263238" stroke-width="0.75" stroke-linecap="round" stroke-linejoin="round"/>
<path d="M98.388 38.5752C98.388 38.5752 96.1716 36.23 94.7346 37.1383C93.2977 38.0465 93.6908 43.0149 94.2127 43.408C94.7346 43.8012 97.8661 42.7302 98.2796 42.0999C98.6931 41.4695 98.388 38.5752 98.388 38.5752Z" fill="white" stroke="#263238" stroke-width="0.75" stroke-linecap="round" stroke-linejoin="round"/>
<path d="M103.35 38.7039C103.35 38.7039 101.391 35.9927 99.5677 35.9927C97.7444 35.9927 96.4294 42.52 97.0869 43.0419C97.7444 43.5639 102.042 42.9132 102.306 42.52C102.725 41.2684 103.073 39.9944 103.35 38.7039Z" fill="white" stroke="#263238" stroke-width="0.75" stroke-linecap="round" stroke-linejoin="round"/>
<path d="M107.168 43.1442C107.168 42.3647 106.782 35.573 104.457 35.9661C102.132 36.3593 99.6309 41.8428 99.7597 42.7443C99.8884 43.6458 107.168 43.1442 107.168 43.1442Z" fill="white" stroke="#263238" stroke-width="0.75" stroke-linecap="round" stroke-linejoin="round"/>
<path d="M118.356 77.2109C118.356 77.2109 125.013 79.6917 127.493 79.5562L118.356 77.2109Z" fill="white"/>
<path d="M118.356 77.2109C118.356 77.2109 125.013 79.6917 127.493 79.5562" stroke="#263238" stroke-width="0.75" stroke-linecap="round" stroke-linejoin="round"/>
<path d="M63.6262 187.106C70.7162 185.913 79.7989 181.039 82.5034 174.905C80.4699 164.27 77.901 149.29 77.901 140.126C77.901 124.726 81.9679 115.983 80.1174 105.558C78.267 95.133 74.3764 88.3345 70.201 85.5894C70.201 85.5894 63.8092 87.2839 57.2819 93.4181C50.7546 99.5523 45.0135 110.099 42.7767 120.151C40.5399 130.203 37.5575 161.132 37.5575 169.225C37.5575 177.318 36.9746 187.363 36.9746 187.363C44.7898 187.363 52.605 187.363 60.4202 187.363C61.4944 187.373 62.5674 187.287 63.6262 187.106Z" fill="white"/>
<path d="M82.5053 174.897C78.5333 178.286 60.6458 184.868 58.0362 185.451C55.4266 186.034 56.8772 180.516 60.9373 175.006C64.9974 169.495 56.0028 177.039 54.5523 177.615C53.1017 178.191 55.1352 166.879 55.1352 161.348C55.1352 155.817 60.3611 108.831 60.3611 108.831L70.2233 90.8349L73.6124 88.8014C72.6657 87.543 71.5212 86.4465 70.2233 85.5547C70.2233 85.5547 63.8315 87.2492 57.3042 93.3834C50.7768 99.5176 45.0154 110.098 42.7786 120.15C40.5419 130.202 37.5595 161.131 37.5595 169.224C37.5595 177.317 36.9766 187.362 36.9766 187.362C44.7918 187.362 52.6069 187.362 60.4221 187.362C61.4927 187.363 62.5611 187.268 63.6146 187.078C70.7181 185.912 79.8008 181.038 82.5053 174.897Z" fill="#335D82"/>
<path opacity="0.5" d="M82.5053 174.897C78.5333 178.286 60.6458 184.868 58.0362 185.451C55.4266 186.034 56.8772 180.516 60.9373 175.006C64.9974 169.495 56.0028 177.039 54.5523 177.615C53.1017 178.191 55.1352 166.879 55.1352 161.348C55.1352 155.817 60.3611 108.831 60.3611 108.831L70.2233 90.8349L73.6124 88.8014C72.6657 87.543 71.5212 86.4465 70.2233 85.5547C70.2233 85.5547 63.8315 87.2492 57.3042 93.3834C50.7768 99.5176 45.0154 110.098 42.7786 120.15C40.5419 130.202 37.5595 161.131 37.5595 169.224C37.5595 177.317 36.9766 187.362 36.9766 187.362C44.7918 187.362 52.6069 187.362 60.4221 187.362C61.4927 187.363 62.5611 187.268 63.6146 187.078C70.7181 185.912 79.8008 181.038 82.5053 174.897Z" fill="white"/>
<path d="M63.6262 187.106C70.7162 185.913 79.7989 181.039 82.5034 174.905C80.4699 164.27 77.901 149.29 77.901 140.126C77.901 124.726 81.9679 115.983 80.1174 105.558C78.267 95.133 74.3764 88.3345 70.201 85.5894C70.201 85.5894 63.8092 87.2839 57.2819 93.4181C50.7546 99.5523 45.0135 110.099 42.7767 120.151C40.5399 130.203 37.5575 161.132 37.5575 169.225C37.5575 177.318 36.9746 187.363 36.9746 187.363C44.7898 187.363 52.605 187.363 60.4202 187.363C61.4944 187.373 62.5674 187.287 63.6262 187.106V187.106Z" stroke="#263238" stroke-width="0.75" stroke-linecap="round" stroke-linejoin="round"/>
<path d="M69.8193 87.9883L81.0304 108.404L81.6336 119.602C81.6336 119.602 84.7584 111.617 83.3688 106.404C81.9793 101.192 69.8193 87.9883 69.8193 87.9883Z" fill="#263238" stroke="#263238" stroke-width="0.75" stroke-linecap="round" stroke-linejoin="round"/>
<path d="M81.6286 119.608L78.5039 166.858L81.9811 176.585L84.4144 157.125L82.3268 118.211L81.6286 119.608Z" fill="#263238" stroke="#263238" stroke-width="0.75" stroke-linecap="round" stroke-linejoin="round"/>
<path d="M78.5506 68.8531C78.5506 68.8531 78.9438 73.9435 79.3369 76.4243C79.73 78.9051 73.5958 85.8459 73.5958 85.8459L82.4684 99.2869L92.5204 91.4582C92.5204 91.4582 106.754 90.4143 108.049 89.2349C109.344 88.0555 109.357 75.1432 109.357 75.1432L112.746 73.1843C112.746 73.1843 109.615 59.628 108.835 56.605L108.049 53.609C108.049 53.609 112.618 52.0365 111.574 47.5087C110.53 42.9809 103.874 40.7306 97.2176 41.7609C90.5615 42.7911 88.867 45.2855 88.867 45.2855C88.867 45.2855 79.4657 45.1567 74.1177 49.5964C68.7698 54.0361 72.0301 61.0785 73.7246 63.5593C75.1666 65.469 76.7821 67.2411 78.5506 68.8531Z" fill="white"/>
<path d="M94.2864 87.0868C91.6768 83.8943 94.2864 71.7072 96.3198 65.6136C98.3532 59.5201 93.4188 56.9105 93.4188 56.9105L108.236 54.3551L108.032 53.5892C109.035 53.1976 109.926 52.567 110.628 51.7523L111.428 47.0415C110.073 42.7578 103.654 40.6972 97.1942 41.7071C90.538 42.751 88.8435 45.2318 88.8435 45.2318C88.8435 45.2318 79.4422 45.103 74.0943 49.5427C68.7463 53.9824 72.0066 61.0248 73.7012 63.5056C75.1405 65.4341 76.7561 67.2245 78.5272 68.8536C78.5272 68.8536 78.9203 73.944 79.3135 76.4248C79.7066 78.9056 73.5927 85.8464 73.5927 85.8464L82.4653 99.2874L92.5173 91.4587C92.5173 91.4587 103.362 90.6588 106.995 89.676L108.046 89.2354C108.046 89.2354 96.9095 90.2793 94.2864 87.0868Z" fill="#335D82"/>
<path opacity="0.5" d="M94.2864 87.0868C91.6768 83.8943 94.2864 71.7072 96.3198 65.6136C98.3532 59.5201 93.4188 56.9105 93.4188 56.9105L108.236 54.3551L108.032 53.5892C109.035 53.1976 109.926 52.567 110.628 51.7523L111.428 47.0415C110.073 42.7578 103.654 40.6972 97.1942 41.7071C90.538 42.751 88.8435 45.2318 88.8435 45.2318C88.8435 45.2318 79.4422 45.103 74.0943 49.5427C68.7463 53.9824 72.0066 61.0248 73.7012 63.5056C75.1405 65.4341 76.7561 67.2245 78.5272 68.8536C78.5272 68.8536 78.9203 73.944 79.3135 76.4248C79.7066 78.9056 73.5927 85.8464 73.5927 85.8464L82.4653 99.2874L92.5173 91.4587C92.5173 91.4587 103.362 90.6588 106.995 89.676L108.046 89.2354C108.046 89.2354 96.9095 90.2793 94.2864 87.0868Z" fill="white"/>
<path d="M101.909 62.8548C101.909 62.8548 101.909 62.6515 101.909 62.3329C101.909 61.323 102.079 59.1404 103.766 58.5439C105.983 57.7644 107.833 59.8521 107.833 59.8521L107.962 61.9398C107.643 61.5412 107.224 61.2344 106.748 61.051C106.271 60.8676 105.755 60.8141 105.251 60.8959C103.954 61.1685 102.781 61.8562 101.909 62.8548Z" fill="#263238"/>
<path d="M105.699 67.0311C105.699 68.1089 105.401 68.99 105.022 68.99C104.642 68.99 104.344 68.1089 104.344 67.0311C104.344 65.9534 104.635 65.0723 105.022 65.0723C105.408 65.0723 105.699 65.9466 105.699 67.0311Z" fill="#263238"/>
<path d="M101.587 80.7027C100.862 81.4551 99.8926 81.6991 99.4249 81.2517C98.9573 80.8044 99.1674 79.8215 99.8926 79.0691C100.618 78.3168 101.58 78.0728 102.048 78.5201C102.516 78.9675 102.312 79.9503 101.587 80.7027Z" fill="#263238"/>
<path d="M78.5506 68.8531C78.5506 68.8531 78.9438 73.9435 79.3369 76.4243C79.73 78.9051 73.5958 85.8459 73.5958 85.8459L82.4684 99.2869L92.5204 91.4582C92.5204 91.4582 106.754 90.4143 108.049 89.2349C109.344 88.0555 109.357 75.1432 109.357 75.1432L112.746 73.1843C112.746 73.1843 109.615 59.628 108.835 56.605L108.049 53.609C108.049 53.609 112.618 52.0365 111.574 47.5087C110.53 42.9809 103.874 40.7306 97.2176 41.7609C90.5615 42.7911 88.867 45.2855 88.867 45.2855C88.867 45.2855 79.4657 45.1567 74.1177 49.5964C68.7698 54.0361 72.0301 61.0785 73.7246 63.5593C75.1666 65.469 76.7821 67.2411 78.5506 68.8531V68.8531Z" stroke="#263238" stroke-width="0.75" stroke-linecap="round" stroke-linejoin="round"/>
<path d="M91.0842 56.0635C93.4362 54.4978 108.03 53.5895 108.03 53.5895C108.03 53.5895 112.598 52.017 111.554 47.4892C110.51 42.9614 103.854 40.7111 97.1981 41.7413C90.542 42.7716 88.8474 45.266 88.8474 45.266C88.8474 45.266 79.4462 45.1372 74.0982 49.5769C68.7503 54.0165 72.0105 61.059 73.7051 63.5398C75.1444 65.4683 76.76 67.2587 78.5311 68.8878C78.5311 68.8878 78.748 71.6804 79.0191 74.1408L83.086 75.2863L87.5257 72.9343L91.9654 71.8905C91.9654 71.8905 88.6983 69.4097 90.5284 67.0644C92.3585 64.7192 95.7476 63.933 95.8763 62.1029C96.0051 60.2728 88.7322 57.6293 91.0842 56.0635Z" fill="#263238" stroke="#263238" stroke-width="0.75" stroke-linecap="round" stroke-linejoin="round"/>
<path d="M105.333 48.478C105.333 48.478 103.801 45.6719 106.607 46.1802C109.413 46.6886 109.413 51.5417 107.115 52.5585C104.818 53.5752 92.3187 51.2842 85.4253 53.3244C78.532 55.3646 73.6924 60.9769 73.6924 60.9769" stroke="white" stroke-miterlimit="10" stroke-linecap="round"/>
<path d="M77.5186 65.3154C77.5186 65.3154 82.8801 60.7266 87.2113 59.9607C91.5425 59.1947 93.8471 59.1947 89.0007 61.9941C84.1544 64.7935 87.4689 64.2851 90.5326 63.2684" stroke="white" stroke-miterlimit="10" stroke-linecap="round"/>
<path d="M88.7282 75.3822C88.7282 75.3822 87.9488 67.1603 83.9022 66.9027C79.8557 66.6452 79.9844 72.515 81.1909 76.5616C82.3975 80.6081 85.2578 81.9095 87.5827 79.8219" fill="#335D82"/>
<g opacity="0.5">
<path d="M88.7312 75.3822C88.7312 75.3822 87.9517 67.1603 83.9051 66.9027C79.8586 66.6452 79.9874 72.515 81.1939 76.5616C82.4004 80.6081 85.2608 81.9095 87.5857 79.8219" fill="white"/>
<path d="M88.7312 75.3822C88.7312 75.3822 87.9517 67.1603 83.9051 66.9027C79.8586 66.6452 79.9874 72.515 81.1939 76.5616C82.4004 80.6081 85.2608 81.9095 87.5857 79.8219" stroke="#263238" stroke-width="0.75" stroke-linecap="round" stroke-linejoin="round"/>
</g>
<path d="M88.7282 75.3822C88.7282 75.3822 87.9488 67.1603 83.9022 66.9027C79.8557 66.6452 79.9844 72.515 81.1909 76.5616C82.3975 80.6081 85.2578 81.9095 87.5827 79.8219" stroke="#263238" stroke-width="0.75" stroke-linecap="round" stroke-linejoin="round"/>
<path d="M73.9547 80.8643L87.0094 100.704L81.004 108.404C78.2994 103.186 75.2939 98.1303 72.0026 93.2615C67.5629 86.9985 67.041 85.9546 67.041 85.9546L73.9547 80.8643Z" fill="white"/>
<path d="M73.9537 80.8647L67.04 85.9551C67.04 85.9551 67.4264 86.7211 70.2732 90.8083L77.58 86.3754L73.9537 80.8647Z" fill="#335D82"/>
<path opacity="0.5" d="M73.9537 80.8647L67.04 85.9551C67.04 85.9551 67.4264 86.7211 70.2732 90.8083L77.58 86.3754L73.9537 80.8647Z" fill="white"/>
<path d="M73.9547 80.8643L87.0094 100.704L81.004 108.404C78.2994 103.186 75.2939 98.1303 72.0026 93.2615C67.5629 86.9985 67.041 85.9546 67.041 85.9546L73.9547 80.8643Z" stroke="#263238" stroke-width="0.75" stroke-linecap="round" stroke-linejoin="round"/>
<path d="M107.527 130.203C107.527 130.203 109.615 125.892 110.008 123.153C110.401 120.415 110.53 118.842 112.096 117.541C113.662 116.24 118.752 111.014 119.552 109.055C120.352 107.096 120.853 108.926 121.246 110.492C121.639 112.057 121.504 113.494 120.202 114.409C119.285 115.09 118.453 115.877 117.722 116.755L118.894 117.67C118.894 117.67 135.209 111.536 136.911 110.892C138.612 110.248 140.171 110.756 140.3 112.064C140.428 113.372 139.913 113.501 139.127 113.894C138.341 114.287 129.733 117.283 128.553 117.805L127.381 118.327L128.296 119.242C128.296 119.242 132.993 119.114 135.345 118.985C137.697 118.856 141.215 118.463 141.737 119.242C141.969 119.591 142.059 120.016 141.985 120.429C141.912 120.842 141.682 121.211 141.343 121.459C141.069 121.722 140.739 121.919 140.377 122.037C140.016 122.154 139.632 122.188 139.256 122.137C138.083 122.137 128.031 122.916 128.031 122.916L128.296 124.353C128.296 124.353 138.998 126.048 139.385 126.569C139.771 127.091 139.778 127.356 139.385 128.135C138.991 128.915 138.707 128.921 137.69 128.921C136.673 128.921 128.201 127.613 128.201 127.613C128.201 127.613 132.376 129.965 132.898 130.358C133.42 130.752 135.243 131.036 134.721 131.924C134.199 132.812 133.942 133.097 133.155 132.968C132.369 132.839 126.764 130.358 126.764 130.358C126.764 130.358 121.151 131.138 119.308 131.273C117.951 131.336 116.591 131.291 115.241 131.138L110.022 134.527L107.527 130.203Z" fill="white" stroke="#263238" stroke-width="0.75" stroke-linecap="round" stroke-linejoin="round"/>
<path d="M70.464 124.326C70.464 124.326 66.675 108.533 65.1092 105.008C63.5435 101.484 54.6709 98.2302 50.36 105.923C46.0491 113.617 49.9669 122.367 51.5394 128.63C53.1119 134.893 63.0216 163.199 64.4586 166.744C65.8955 170.289 68.5254 169.455 69.9421 169.096C71.3587 168.736 111.051 136.723 111.051 136.723L107.92 129.681L77.1201 145.494L70.464 124.326Z" fill="white"/>
<path d="M69.3542 159.05C70.3598 155.994 71.5204 152.992 72.8314 150.055C74.2819 147.154 65.8703 156.732 64.1283 151.506C62.3863 146.28 51.3651 120.17 53.3917 111.467C54.2708 107.424 56.6367 103.858 60.0207 101.476C56.7876 100.71 52.8291 101.524 50.3619 105.929C46.0578 113.629 49.9688 122.373 51.5413 128.636C53.1138 134.899 63.0235 163.205 64.4604 166.75C65.8974 170.295 68.5273 169.461 69.9439 169.102C70.9878 168.817 92.3118 151.784 103.835 142.545L69.3542 159.05Z" fill="#335D82"/>
<path opacity="0.5" d="M69.3542 159.05C70.3598 155.994 71.5204 152.992 72.8314 150.055C74.2819 147.154 65.8703 156.732 64.1283 151.506C62.3863 146.28 51.3651 120.17 53.3917 111.467C54.2708 107.424 56.6367 103.858 60.0207 101.476C56.7876 100.71 52.8291 101.524 50.3619 105.929C46.0578 113.629 49.9688 122.373 51.5413 128.636C53.1138 134.899 63.0235 163.205 64.4604 166.75C65.8974 170.295 68.5273 169.461 69.9439 169.102C70.9878 168.817 92.3118 151.784 103.835 142.545L69.3542 159.05Z" fill="white"/>
<path d="M70.464 124.326C70.464 124.326 66.675 108.533 65.1092 105.008C63.5435 101.484 54.6709 98.2302 50.36 105.923C46.0491 113.617 49.9669 122.367 51.5394 128.63C53.1119 134.893 63.0216 163.199 64.4586 166.744C65.8955 170.289 68.5254 169.455 69.9421 169.096C71.3587 168.736 111.051 136.723 111.051 136.723L107.92 129.681L77.1201 145.494L70.464 124.326Z" stroke="#263238" stroke-width="0.75" stroke-linecap="round" stroke-linejoin="round"/>
<path d="M103.352 132.291L106.876 139.469" stroke="#263238" stroke-width="0.75" stroke-linecap="round" stroke-linejoin="round"/>
<path d="M20.5562 96.2783L2.52637 108.784C2.52637 108.784 11.4125 118.178 10.4975 142.824C9.81964 161.647 12.3072 183.018 15.92 187.363H35.1156C35.1156 187.363 28.4799 150.761 28.9543 129.789C29.3271 113.854 24.5418 102.792 20.5562 96.2783Z" fill="white" stroke="#263238" stroke-width="0.75" stroke-linecap="round" stroke-linejoin="round"/>
<path d="M22.7242 96.2783L4.69434 108.784C4.69434 108.784 13.5805 118.178 12.6586 142.824C11.9808 161.647 14.4684 183.018 18.0812 187.363H37.2836C37.2836 187.363 30.6546 150.761 31.1291 129.789C31.4883 113.854 26.7029 102.792 22.7242 96.2783Z" fill="#263238" stroke="#263238" stroke-width="0.75" stroke-linecap="round" stroke-linejoin="round"/>
<path d="M20.5592 96.2783H22.7282L4.69836 108.784H2.53613L20.5592 96.2783Z" fill="white" stroke="#263238" stroke-width="0.75" stroke-linecap="round" stroke-linejoin="round"/>
</svg>
