<svg width="245" height="233" viewBox="0 0 245 233" fill="none" xmlns="http://www.w3.org/2000/svg">
<g opacity="0.8">
<path d="M101.964 208.506C129.756 208.506 152.285 205.286 152.285 201.315C152.285 197.343 129.756 194.123 101.964 194.123C74.1722 194.123 51.6426 197.343 51.6426 201.315C51.6426 205.286 74.1722 208.506 101.964 208.506Z" fill="#01498B"/>
<path opacity="0.5" d="M101.964 208.506C129.756 208.506 152.285 205.286 152.285 201.315C152.285 197.343 129.756 194.123 101.964 194.123C74.1722 194.123 51.6426 197.343 51.6426 201.315C51.6426 205.286 74.1722 208.506 101.964 208.506Z" fill="white"/>
<path d="M212.542 225.407C228.153 225.407 240.809 222.187 240.809 218.215C240.809 214.243 228.153 211.023 212.542 211.023C196.93 211.023 184.275 214.243 184.275 218.215C184.275 222.187 196.93 225.407 212.542 225.407Z" fill="#01498B"/>
<path opacity="0.5" d="M212.542 225.407C228.153 225.407 240.809 222.187 240.809 218.215C240.809 214.243 228.153 211.023 212.542 211.023C196.93 211.023 184.275 214.243 184.275 218.215C184.275 222.187 196.93 225.407 212.542 225.407Z" fill="white"/>
<path d="M204.265 206.98C201.853 208.741 199.311 210.314 196.66 211.688C193.524 213.133 192.918 213.133 193.038 213.979C193.158 214.825 196.78 216.15 203.419 214.585C210.058 213.02 213.194 213.373 214.16 210.237C215.125 207.1 213.561 207.946 211.63 207.946C209.159 207.754 206.701 207.431 204.265 206.98Z" fill="#2E353A" stroke="#2E353A" stroke-linecap="round" stroke-linejoin="round"/>
<path d="M213.801 211.068C210.971 211.814 205.87 213.066 201.609 213.732C198.81 214.239 195.934 214.111 193.192 213.359C193.118 213.44 193.065 213.539 193.038 213.646C193.011 213.753 193.011 213.865 193.039 213.972C193.158 214.817 196.781 216.142 203.42 214.578C209.4 213.173 212.529 213.312 213.801 211.068Z" fill="white" stroke="#2E353A" stroke-linecap="round" stroke-linejoin="round"/>
<path d="M236.84 149.347C236.84 149.347 237.087 153.575 234.177 159.368C231.267 165.162 222.73 165.641 220.439 165.641C218.149 165.641 218.868 163.23 218.868 163.23L219.227 161.053L215.365 160.087C215.365 160.087 205.11 173.732 205.11 174.817C205.11 175.902 215.711 200.82 216.317 203.717C216.923 206.613 217.283 207.339 215.951 208.424C214.964 209.12 213.831 209.58 212.638 209.769C211.446 209.957 210.226 209.868 209.073 209.51C207.28 208.949 205.543 208.222 203.885 207.339C203.818 206.255 203.818 205.167 203.885 204.083C204.005 202.997 205.816 203.843 204.971 202.032C204.125 200.221 203.639 199.735 203.159 198.529C202.68 197.324 191.26 178.293 191.746 173.825C192.232 169.357 202.94 153.848 202.94 153.489C203.391 152.358 203.913 151.257 204.505 150.192C204.505 150.192 204.984 148.621 206.196 148.381C207.408 148.141 225.866 148.381 230.574 147.782C235.282 147.183 237.573 147.416 236.84 149.347Z" fill="#01498B" stroke="#2E353A" stroke-linecap="round" stroke-linejoin="round"/>
<path d="M206.749 183.613L207.434 185.072" stroke="#2E353A" stroke-width="0.75" stroke-linecap="round" stroke-linejoin="round"/>
<path d="M208.907 167.055L203.7 173.86C203.7 173.86 197.041 174.666 199.038 174.799C201.036 174.932 203.034 174.932 203.034 174.932C203.034 174.932 201.296 175.465 201.702 175.731C202.17 175.918 202.67 176.008 203.174 175.998L206.017 182.044" stroke="#2E353A" stroke-width="0.75" stroke-linecap="round" stroke-linejoin="round"/>
<path d="M198.732 98.5341C198.732 98.5341 197.047 99.4663 194.51 100.911C191.973 102.356 190.515 103.082 190.168 104.294C189.822 105.506 182.438 120.622 182.438 120.622C182.438 120.622 185.334 122.313 187.991 123.518C190.01 124.348 192.113 124.956 194.264 125.33L196.681 120.262C196.681 120.262 201.342 129.065 203.34 132.208C206.896 137.822 205.75 141.264 205.271 143.195C204.791 145.126 203.46 148.749 203.819 149.228C204.179 149.708 213.595 153.936 219.634 153.577C225.674 153.217 236.022 152.658 236.748 151.812C237.473 150.966 237.593 146.092 237.593 145.726C237.593 145.36 236.528 135.95 235.442 130.277C234.357 124.604 228.444 109.395 226.513 105.293C224.582 101.191 222.77 99.8592 217.856 98.1745C212.942 96.4898 205.664 96.1236 202.647 96.4832C199.631 96.8427 198.732 98.5341 198.732 98.5341Z" fill="#2E353A" stroke="#2E353A" stroke-linecap="round" stroke-linejoin="round"/>
<path d="M219.048 114.721L226.526 117.125L220.253 117.79" stroke="white" stroke-width="0.75" stroke-linecap="round" stroke-linejoin="round"/>
<path d="M206.769 133.812C206.769 133.812 213.974 139.686 222.79 139.686" stroke="white" stroke-width="0.75" stroke-linecap="round" stroke-linejoin="round"/>
<path d="M209.172 139.152C209.172 139.152 215.165 141.956 221.318 141.023" stroke="white" stroke-width="0.75" stroke-linecap="round" stroke-linejoin="round"/>
<path d="M193.684 112.857L196.68 120.262L190.348 111.119" stroke="white" stroke-width="0.75" stroke-linecap="round" stroke-linejoin="round"/>
<path d="M198.219 99.3792C198.056 100.74 198.016 102.113 198.099 103.481C198.219 106.018 199.064 107.829 198.338 109.641C197.613 111.452 198.465 112.304 199.184 111.452C199.903 110.599 201.115 107.343 201.362 106.744C201.608 106.145 206.689 105.053 207.395 105.053C208.1 105.053 210.411 108.675 211.496 109.155C212.582 109.634 212.342 108.675 211.616 106.744C210.89 104.813 210.051 98.0874 208.36 95.9965C206.669 93.9056 199.937 94.4317 198.219 99.3792Z" fill="white" stroke="#2E353A" stroke-linecap="round" stroke-linejoin="round"/>
<path d="M199.458 101.551C198.792 101.318 202.954 107.71 204.645 110.966C206.336 114.223 207.901 113.384 208.148 110.847C208.394 108.31 207.302 99.8594 207.302 99.8594C207.302 99.8594 202.954 102.763 199.458 101.551Z" fill="white" stroke="#2E353A" stroke-linecap="round" stroke-linejoin="round"/>
<path d="M208.101 107.809C206.544 108.477 204.82 108.653 203.16 108.315C203.726 109.287 204.252 110.212 204.645 110.978C206.336 114.234 207.901 113.395 208.147 110.858C208.199 109.842 208.184 108.823 208.101 107.809Z" fill="#01498B" stroke="#2E353A" stroke-linecap="round" stroke-linejoin="round"/>
<path d="M211.643 152.77V167.692" stroke="#2E353A" stroke-width="4" stroke-linecap="round" stroke-linejoin="round"/>
<path d="M224.442 156.133C224.373 156.14 224.304 156.14 224.236 156.133L201.788 153.47C201.344 153.399 200.943 153.159 200.671 152.8C200.399 152.441 200.277 151.991 200.329 151.543C200.382 151.096 200.605 150.686 200.953 150.4C201.301 150.114 201.745 149.973 202.195 150.007L224.642 152.671C225.094 152.707 225.515 152.919 225.813 153.262C226.111 153.604 226.263 154.05 226.237 154.503C226.211 154.956 226.009 155.381 225.673 155.687C225.338 155.993 224.896 156.156 224.442 156.14V156.133Z" fill="white" stroke="#2E353A" stroke-linecap="round" stroke-linejoin="round"/>
<path d="M224.541 155.58C225.141 155.58 225.627 155.008 225.627 154.302C225.627 153.596 225.141 153.023 224.541 153.023C223.942 153.023 223.456 153.596 223.456 154.302C223.456 155.008 223.942 155.58 224.541 155.58Z" fill="white" stroke="#2E353A" stroke-width="0.75" stroke-linecap="round" stroke-linejoin="round"/>
<path d="M204.159 218.533L217.617 225.158C217.694 225.193 217.778 225.21 217.863 225.21C217.948 225.21 218.032 225.193 218.109 225.158L226.187 222.168C226.302 222.126 226.402 222.05 226.474 221.95C226.546 221.851 226.587 221.732 226.591 221.609C226.595 221.486 226.563 221.365 226.498 221.261C226.433 221.156 226.339 221.073 226.227 221.023L213.615 215.183C213.486 215.123 213.34 215.109 213.202 215.143L204.292 217.374C204.168 217.403 204.056 217.47 203.971 217.565C203.886 217.66 203.832 217.779 203.818 217.906C203.803 218.033 203.828 218.161 203.889 218.274C203.95 218.386 204.045 218.476 204.159 218.533Z" fill="white" stroke="#2E353A" stroke-linecap="round" stroke-linejoin="round"/>
<path d="M214.866 220.737H212.202C211.597 220.735 211.017 220.494 210.589 220.066C210.161 219.638 209.92 219.058 209.918 218.453L208.247 169.643C208.247 169.094 208.465 168.567 208.854 168.179C209.242 167.79 209.769 167.572 210.318 167.572H213.414C213.964 167.572 214.49 167.79 214.879 168.179C215.267 168.567 215.485 169.094 215.485 169.643L217.157 218.453C217.157 218.753 217.097 219.051 216.982 219.329C216.867 219.606 216.698 219.858 216.485 220.07C216.273 220.283 216.02 220.451 215.742 220.565C215.464 220.679 215.167 220.738 214.866 220.737Z" fill="white" stroke="#2E353A" stroke-linecap="round" stroke-linejoin="round"/>
<path d="M221.405 219.045C219.38 220.947 217.243 222.726 215.006 224.372C212.342 226.183 212.109 225.944 212.715 227.149C213.321 228.354 215.126 229.08 220.2 227.994C225.274 226.909 226.959 226.063 229.735 224.492C232.512 222.92 233.351 222.92 232.632 221.955C231.913 220.989 221.405 219.045 221.405 219.045Z" fill="#2E353A" stroke="#2E353A" stroke-linecap="round" stroke-linejoin="round"/>
<path d="M229.735 224.481C232.505 222.909 233.351 222.909 232.632 221.944C232.441 221.766 232.214 221.632 231.966 221.551C228.286 223.726 224.389 225.511 220.339 226.878C215.145 228.443 212.615 226.632 212.615 226.632L212.555 226.731C212.608 226.863 212.668 226.992 212.735 227.118C213.334 228.323 215.145 229.049 220.22 227.963C225.294 226.878 226.958 226.052 229.735 224.481Z" fill="white" stroke="#2E353A" stroke-linecap="round" stroke-linejoin="round"/>
<path d="M240.489 122.551C239.626 120.661 238.861 118.727 238.199 116.758C236.174 117.723 229.988 122.904 229.988 122.904L235.422 130.262C235.422 130.262 230.235 137.747 227.817 141.975C226.041 144.86 223.844 147.464 221.298 149.699L215.365 149.626C215.103 149.792 214.883 150.016 214.72 150.28C214.557 150.545 214.457 150.842 214.426 151.151C214.426 152.083 213.374 155.366 213.84 155.952C214.306 156.538 217.123 156.651 217.123 156.651C217.123 156.651 221.691 157.124 222.51 155.952C222.51 155.952 221.105 154.427 221.218 153.728C221.332 153.029 222.743 152.556 222.743 152.556L224.275 152.443C224.275 152.443 224.801 152.809 225.24 150.445C226.426 149.659 230.734 146.769 233.011 144.492C235.675 141.829 243.512 133.026 244.112 131.334C244.711 129.643 242.061 126.054 240.489 122.551Z" fill="white" stroke="#2E353A" stroke-linecap="round" stroke-linejoin="round"/>
<path d="M239.93 121.266C238.751 118.502 238.199 116.758 238.199 116.758C236.174 117.723 229.988 122.904 229.988 122.904L232.572 126.4C235.465 125.426 238.018 123.645 239.93 121.266Z" fill="#01498B" stroke="#2E353A" stroke-linecap="round" stroke-linejoin="round"/>
<path d="M223.23 113.863L229.629 125.183L233.371 122.646C235.485 121.08 237.356 119.211 238.925 117.099C236.326 112.982 233.421 109.067 230.235 105.386C225.161 99.5928 222.75 99.2332 220.58 99.3531" fill="#2E353A"/>
<path d="M223.23 113.863L229.629 125.183L233.371 122.646C235.485 121.08 237.356 119.211 238.925 117.099C236.326 112.982 233.421 109.067 230.235 105.386C225.161 99.5928 222.75 99.2332 220.58 99.3531" stroke="#2E353A" stroke-linecap="round" stroke-linejoin="round"/>
<path d="M207.634 153.155C207.634 152.683 205.636 147.768 205.636 147.768L199.643 144.472C197.173 139.505 193.377 131.554 192.725 130.155C192.238 129.185 191.832 128.176 191.513 127.139L192.532 124.968C190.985 124.625 189.474 124.139 188.017 123.517C186.892 123.01 185.733 122.418 184.767 121.898C184.235 123.936 183.322 127.445 183.669 129.19C184.015 130.935 191.892 140.91 195.828 145.95C195.828 145.95 197.473 152.922 198.178 153.974L198.884 155.026C198.884 155.026 200.05 156.318 200.636 156.198C201.139 156.04 201.613 155.802 202.041 155.493C202.457 155.629 202.898 155.67 203.332 155.612C203.904 155.367 204.42 155.009 204.851 154.56C204.851 154.56 205.437 155.226 206.848 154.913C208.26 154.6 207.634 153.621 207.634 153.155Z" fill="white" stroke="#2E353A" stroke-linecap="round" stroke-linejoin="round"/>
<path d="M184.036 124.797C186.294 126.327 188.894 127.278 191.607 127.567C191.52 127.307 191.487 127.174 191.487 127.174L192.506 125.003C190.959 124.661 189.448 124.175 187.991 123.552C186.866 123.046 185.707 122.453 184.741 121.934C184.528 122.706 184.235 123.731 184.036 124.797Z" fill="#01498B" stroke="#2E353A" stroke-linecap="round" stroke-linejoin="round"/>
<path d="M97.6694 156.759V152.684" stroke="#2E353A" stroke-width="6" stroke-linecap="round" stroke-linejoin="round"/>
<path d="M211.823 211.048L206.782 211.887C206.782 211.887 203.706 212.726 203.146 215.523C201.801 222.255 194.836 224.785 188.896 226.117C180.491 228.06 171.964 229.429 163.373 230.212C150.268 231.377 136.957 231.158 123.979 228.88C116.527 227.549 105.167 226.11 99.6138 220.437C99.1452 220.008 98.7925 219.467 98.5884 218.865C98.1422 217.227 99.6604 215.736 101.125 214.87C103.816 213.43 106.684 212.348 109.655 211.654C117.28 209.563 126.802 209.163 133.907 205.847C135.985 204.882 137.237 203.337 135.119 201.472C128.527 195.632 97.6694 194.6 97.6694 183.62V156.758" stroke="#2E353A" stroke-width="3" stroke-linecap="round" stroke-linejoin="round"/>
<path d="M193.344 93.2927C193.106 92.0303 192.689 90.8082 192.106 89.6636C191.28 88.2586 189.009 85.9946 188.597 83.8504C188.184 81.7063 191.367 79.1892 191.367 79.1892C191.367 79.1892 189.629 79.1892 190.035 78.4434C190.441 77.6976 192.432 78.0305 192.432 78.0305C192.297 77.6423 192.264 77.2259 192.336 76.8212C192.409 76.4166 192.584 76.0373 192.845 75.7199C193.751 74.6478 194.083 76.7121 194.083 76.7121C195.059 74.7133 196.575 73.0273 198.458 71.8444C201.428 70.1064 206.715 72.5103 207.295 73.9886C207.874 75.4669 206.476 74.9608 206.476 74.9608C206.476 74.9608 213.574 78.177 214.067 82.9515C214.56 87.7259 210.438 86.9135 210.438 86.9135C210.438 86.9135 210.684 89.7236 210.105 90.7157C209.525 91.7079 209.279 92.0475 206.389 89.7236C203.499 87.3996 197.559 88.2386 197.226 90.0565C196.894 91.8744 195.895 94.5912 194.423 94.2649C192.951 93.9387 193.344 93.2927 193.344 93.2927Z" fill="#2E353A" stroke="#2E353A" stroke-linecap="round" stroke-linejoin="round"/>
<path d="M197.427 82.418C197.427 82.418 194.57 79.9542 197.686 79.4415C200.803 78.9287 201.961 84.4956 205.204 85.6609C207.207 86.3364 209.395 86.1977 211.297 85.2747" stroke="white" stroke-width="0.5" stroke-linecap="round" stroke-linejoin="round"/>
<path d="M196.94 81.9859C196.94 81.9859 193.671 79.855 193.951 78.43C194.23 77.005 199.504 75.1538 202.347 76.8652C205.191 78.5765 205.337 82.1324 208.893 82.9847C212.449 83.837 211.883 81.846 211.457 81.2734" stroke="white" stroke-width="0.5" stroke-linecap="round" stroke-linejoin="round"/>
<path d="M190.681 84.41C190.108 83.6975 189.968 80.994 192.246 80.5678C194.523 80.1417 196.374 82.5655 196.374 82.5655C195.941 82.8452 193.384 83.5577 192.958 85.6952C192.532 87.8327 194.663 87.826 193.671 89.6905" stroke="white" stroke-width="0.5" stroke-linecap="round" stroke-linejoin="round"/>
<path d="M193.757 93.3455C193.757 93.3455 193.637 93.1923 193.458 93.0059C193.018 92.5531 191.779 92.2268 191.4 93.1324C190.867 94.4175 192.319 96.8547 193.398 97.1743C193.693 97.2728 194.007 97.297 194.314 97.2447C194.621 97.1925 194.91 97.0654 195.156 96.8747C195.156 96.8747 198.125 102.868 201.861 104.273C205.597 105.678 207.441 101.256 208.62 98.2797C209.798 95.3032 209.366 94.2244 209.366 94.2244C209.366 94.2244 211.363 94.6972 211.983 92.3466C212.602 89.996 211.61 89.0971 210.97 89.2036C210.368 89.3724 209.793 89.6234 209.259 89.9494L208.3 87.3857C208.3 87.3857 206.482 88.4578 203.386 87.2792C200.29 86.1006 198.791 83.2239 198.059 83.437C197.326 83.6501 197.393 85.5679 197.393 85.5679C197.393 85.5679 196.008 84.8221 195.475 85.4613C194.942 86.1006 196.327 86.853 195.688 89.2036C195.049 91.5542 194.29 92.2734 194.29 92.2734C194.29 92.2734 194.823 93.3388 194.396 93.3388L193.757 93.3455Z" fill="white" stroke="#2E353A" stroke-linecap="round" stroke-linejoin="round"/>
<path d="M199.937 91.7808C200.037 92.2336 199.904 92.6398 199.651 92.6931C199.398 92.7463 199.105 92.4334 198.985 91.9806C198.865 91.5278 199.018 91.1216 199.278 91.0683C199.537 91.015 199.844 91.3347 199.937 91.7808Z" fill="#2E353A"/>
<path d="M205.057 91.1953C205.057 91.6548 204.871 92.041 204.605 92.0476C204.338 92.0543 204.118 91.688 204.105 91.2286C204.092 90.7691 204.285 90.3896 204.551 90.3829C204.818 90.3762 205.037 90.7358 205.057 91.1953Z" fill="#2E353A"/>
<path d="M197.24 90.3362C197.426 89.8912 197.724 89.5024 198.106 89.2081C198.488 88.9138 198.94 88.7242 199.418 88.6582" stroke="#2E353A" stroke-linecap="round" stroke-linejoin="round"/>
<path d="M203.646 88.3517C204.125 88.2363 204.627 88.2631 205.091 88.4287C205.554 88.5943 205.96 88.8915 206.257 89.284" stroke="#2E353A" stroke-linecap="round" stroke-linejoin="round"/>
<path d="M204.512 97.8611C204.512 97.8611 200.849 99.2261 199.045 96.6758" stroke="#2E353A" stroke-linecap="round" stroke-linejoin="round"/>
<path d="M200.217 97.8008C200.217 97.8008 200.343 100.285 201.648 100.784C202.954 101.283 203.573 98.1204 203.573 98.1204C202.445 98.287 201.293 98.1774 200.217 97.8008Z" fill="#2E353A" stroke="#2E353A" stroke-linecap="round" stroke-linejoin="round"/>
<path d="M200.517 99.3129C200.59 99.6255 200.729 99.9188 200.926 100.173C201.122 100.427 201.371 100.635 201.655 100.785C202.321 101.044 202.834 100.292 203.154 99.5193C202.313 99.1973 201.397 99.1257 200.517 99.3129Z" fill="white" stroke="#2E353A" stroke-linecap="round" stroke-linejoin="round"/>
<path d="M203.46 89.2168C203.068 90.5531 203.045 91.9704 203.393 93.3187C204.019 95.2498 204.951 95.3163 204.578 95.5561C204.205 95.7958 202.581 96.1154 202.214 95.8091" fill="white"/>
<path d="M203.46 89.2168C203.068 90.5531 203.045 91.9704 203.393 93.3187C204.019 95.2498 204.951 95.3163 204.578 95.5561C204.205 95.7958 202.581 96.1154 202.214 95.8091" stroke="#2E353A" stroke-linecap="round" stroke-linejoin="round"/>
<path d="M218.629 158.53C218.629 158.53 211.763 174.938 211.537 178.56C211.31 182.183 221.658 213.133 221.898 214.465C222.138 215.797 220.213 215.55 220.213 216.876C220.238 217.794 220.442 218.699 220.813 219.539C220.933 219.899 230.468 222.795 232.04 222.915C233.611 223.035 234.33 222.676 234.33 221.583C234.33 220.491 233.611 217.115 233.611 216.756C233.611 216.396 235.542 214.092 234.816 210.843C234.091 207.593 227.338 187.01 226.493 184.833C225.647 182.655 224.682 180.371 224.682 180.371C225.053 179.828 225.301 179.21 225.407 178.56C225.481 177.999 225.481 177.43 225.407 176.869C225.407 176.869 235.868 160.108 235.882 154.895" fill="#01498B"/>
<path d="M218.629 158.53C218.629 158.53 211.763 174.938 211.537 178.56C211.31 182.183 221.658 213.133 221.898 214.465C222.138 215.797 220.213 215.55 220.213 216.876C220.238 217.794 220.442 218.699 220.813 219.539C220.933 219.899 230.468 222.795 232.04 222.915C233.611 223.035 234.33 222.676 234.33 221.583C234.33 220.491 233.611 217.115 233.611 216.756C233.611 216.396 235.542 214.092 234.816 210.843C234.091 207.593 227.338 187.01 226.493 184.833C225.647 182.655 224.682 180.371 224.682 180.371C225.053 179.828 225.301 179.21 225.407 178.56C225.481 177.999 225.481 177.43 225.407 176.869C225.407 176.869 235.868 160.108 235.882 154.895" stroke="#2E353A" stroke-linecap="round" stroke-linejoin="round"/>
<path d="M225.953 193.23C228.683 201.794 231.906 211.989 232.133 213.507C232.532 216.17 231.733 216.716 231.999 218.048C232.266 219.38 232.798 221.251 232.798 221.251" stroke="#2E353A" stroke-width="0.75" stroke-linecap="round" stroke-linejoin="round"/>
<path d="M231.993 156.865C229.915 161.933 226.093 171.282 225.334 173.206C224.262 175.87 222.391 178.014 222.797 178.28C223.203 178.547 224.262 178.547 223.463 179.479C222.664 180.411 222.131 180.684 222.131 181.084C222.131 181.223 223.356 185.046 224.941 190.02" stroke="#2E353A" stroke-width="0.75" stroke-linecap="round" stroke-linejoin="round"/>
<path d="M233.331 153.568L232.665 155.24" stroke="#2E353A" stroke-width="0.75" stroke-linecap="round" stroke-linejoin="round"/>
<path d="M215.386 156.313C215.386 156.313 215.772 152.031 216.165 151.512" stroke="#2E353A" stroke-width="0.75" stroke-linecap="round" stroke-linejoin="round"/>
<path d="M218.502 151.539C218.502 151.539 216.784 157.046 217.124 156.693" stroke="#2E353A" stroke-width="0.75" stroke-linecap="round" stroke-linejoin="round"/>
<path d="M219.8 151.898L219.021 156.054C219.021 156.054 218.888 156.446 220.06 156.573" stroke="#2E353A" stroke-width="0.75" stroke-linecap="round" stroke-linejoin="round"/>
<path d="M204.824 154.561L204.092 153.715" stroke="#2E353A" stroke-width="0.75" stroke-linecap="round" stroke-linejoin="round"/>
<path d="M202.015 155.493L201.362 155.014" stroke="#2E353A" stroke-width="0.75" stroke-linecap="round" stroke-linejoin="round"/>
<path d="M200.609 156.201L199.677 154.756" stroke="#2E353A" stroke-width="0.75" stroke-linecap="round" stroke-linejoin="round"/>
<path d="M160.263 139.332C164.439 134.806 168.1 129.83 171.177 124.496" stroke="#2E353A" stroke-linecap="round" stroke-linejoin="round"/>
<path d="M106.326 165.656C125.519 164.101 143.559 155.865 157.307 142.383" stroke="#2E353A" stroke-linecap="round" stroke-linejoin="round"/>
<path d="M87.3081 165.035C89.9788 165.436 92.6679 165.703 95.3654 165.834" stroke="#2E353A" stroke-linecap="round" stroke-linejoin="round"/>
<path d="M62.1172 155.533C63.8263 156.421 65.5598 157.249 67.3178 158.017" stroke="#2E353A" stroke-linecap="round" stroke-linejoin="round"/>
<path d="M18.1089 89.6895C19.2834 102.637 23.49 115.127 30.3882 126.147C37.2865 137.167 46.6826 146.408 57.8159 153.122" stroke="#2E353A" stroke-linecap="round" stroke-linejoin="round"/>
<path d="M146.066 15.6969C134.31 7.56617 120.648 2.6181 106.412 1.33448C92.1752 0.0508665 77.8489 2.47544 64.8276 8.37215" stroke="#2E353A" stroke-linecap="round" stroke-linejoin="round"/>
<path d="M175.206 50.0244C174.385 48.1599 173.497 46.3354 172.542 44.5508" stroke="#2E353A" stroke-linecap="round" stroke-linejoin="round"/>
<path d="M143.336 140.752C147.792 137.443 151.864 133.646 155.476 129.432" stroke="#2E353A" stroke-linecap="round" stroke-linejoin="round"/>
<path d="M91.1309 155.129C108.409 156.939 125.775 152.634 140.207 142.963" stroke="#2E353A" stroke-linecap="round" stroke-linejoin="round"/>
<path d="M74.3633 151.42C76.6451 152.206 78.9823 152.887 81.3751 153.464" stroke="#2E353A" stroke-linecap="round" stroke-linejoin="round"/>
<path d="M27.3779 102.389C27.8796 104.053 28.4367 105.696 29.0493 107.316" stroke="#2E353A" stroke-linecap="round" stroke-linejoin="round"/>
<path d="M42.1671 32.4902C34.5466 41.4062 29.1325 51.9913 26.363 63.3885C23.5935 74.7857 23.5465 86.675 26.2257 98.0938" stroke="#2E353A" stroke-linecap="round" stroke-linejoin="round"/>
<path d="M130.225 13.3658C118.523 7.94311 105.615 5.64492 92.761 6.69522C79.9065 7.74552 67.5434 12.1085 56.877 19.3588" stroke="#2E353A" stroke-linecap="round" stroke-linejoin="round"/>
<path d="M168.194 53.7333C162.081 38.2125 150.958 25.1792 136.591 16.7031" stroke="#2E353A" stroke-linecap="round" stroke-linejoin="round"/>
<path d="M171.41 64.0399C170.997 62.2487 170.511 60.4841 169.965 58.7461" stroke="#2E353A" stroke-linecap="round" stroke-linejoin="round"/>
<path d="M168.347 81.7593C168.347 80.8804 169.133 79.9881 169.1 79.0958C169.066 78.2035 168.214 77.3844 168.154 76.5188C168.094 75.6531 168.82 74.6942 168.713 73.8552C168.607 73.0162 167.701 72.2171 167.575 71.3515C167.448 70.4858 168.094 69.487 167.928 68.628C167.761 67.769 166.802 67.0698 166.596 66.2174C166.39 65.3651 166.969 64.3197 166.749 63.474C166.529 62.6283 165.504 62.009 165.244 61.17C164.985 60.331 165.477 59.2456 165.191 58.4265C164.905 57.6075 163.859 57.0548 163.52 56.2424C163.18 55.43 163.606 54.3047 163.26 53.5056C162.914 52.7065 161.808 52.2404 161.429 51.4547C161.049 50.6689 161.369 49.5169 160.963 48.7445C160.556 47.972 159.424 47.5991 158.965 46.84C158.505 46.0809 158.765 44.9156 158.299 44.1765C157.833 43.4373 156.674 43.1443 156.181 42.4252C155.689 41.706 155.835 40.5207 155.316 39.8149C154.796 39.109 153.624 38.9093 153.078 38.2234C152.532 37.5375 152.592 36.3523 152.02 35.6864C151.447 35.0205 150.262 34.9073 149.669 34.268C149.076 33.6288 149.043 32.4368 148.424 31.8175C147.805 31.1983 146.613 31.1516 145.973 30.5723C145.334 29.993 145.214 28.7944 144.555 28.2217C143.896 27.6491 142.697 27.709 142.018 27.163C141.339 26.6169 141.126 25.445 140.426 24.9256C139.727 24.4062 138.542 24.5527 137.816 24.0599C137.09 23.5672 136.804 22.4085 136.058 21.9424C135.312 21.4763 134.154 21.716 133.395 21.2765C132.636 20.837 132.263 19.7117 131.49 19.2788C130.718 18.846 129.566 19.1923 128.78 18.8127C127.994 18.4331 127.535 17.3344 126.729 16.9815C125.923 16.6286 124.811 17.0414 123.992 16.7218C123.173 16.4022 122.661 15.3434 121.808 15.0504C120.956 14.7574 119.904 15.2568 119.065 14.9971C118.226 14.7374 117.606 13.7253 116.761 13.4989C115.915 13.2725 114.876 13.8452 114.017 13.6454C113.158 13.4456 112.472 12.4867 111.607 12.3136C110.741 12.1405 109.756 12.7997 108.883 12.6665C108.011 12.5334 107.258 11.6277 106.386 11.5279C105.514 11.428 104.568 12.1538 103.723 12.0872C102.877 12.0206 102.018 11.1749 101.139 11.1416C100.26 11.1084 99.381 11.9008 98.4754 11.9008C97.5698 11.9008 96.7108 11.1084 95.8118 11.1416C94.9129 11.1749 94.1005 12.0273 93.2282 12.0872C92.3558 12.1471 91.4103 11.4213 90.5646 11.5279C89.7189 11.6344 88.9265 12.54 88.0675 12.6665C87.2085 12.793 86.203 12.1471 85.344 12.3136C84.485 12.4801 83.7858 13.439 82.9335 13.6454C82.0812 13.8518 81.0357 13.2725 80.19 13.4989C79.3443 13.7253 78.7184 14.7374 77.886 14.9971C77.0537 15.2568 75.9616 14.7641 75.1359 15.0504C74.3102 15.3368 73.8041 16.3822 72.9585 16.7218C72.1128 17.0614 71.0207 16.6352 70.2216 16.9815C69.4226 17.3278 68.9564 18.4331 68.1707 18.8127C67.3849 19.1923 66.233 18.8726 65.4605 19.2788C64.6881 19.685 64.3085 20.817 63.5561 21.2765C62.8036 21.736 61.625 21.4829 60.8925 21.9424C60.16 22.4018 59.8604 23.5605 59.1412 24.0533C58.4221 24.546 57.2368 24.3995 56.5309 24.9189C55.8251 25.4383 55.6253 26.6103 54.9395 27.163C54.2536 27.7157 53.0683 27.6424 52.4024 28.2151C51.7365 28.7877 51.6233 29.973 50.9841 30.5657C50.3448 31.1583 49.1529 31.1916 48.5336 31.8109C47.9143 32.4302 47.8677 33.6221 47.2884 34.2614C46.7091 34.9006 45.5304 35.0072 44.9578 35.673C44.3851 36.3389 44.445 37.5242 43.899 38.2101C43.353 38.896 42.181 39.0957 41.6616 39.8016C41.1422 40.5074 41.2887 41.686 40.7959 42.4052C40.3032 43.1244 39.1445 43.4174 38.6784 44.1632C38.2123 44.9089 38.452 46.0676 38.0125 46.8267C37.573 47.5858 36.441 47.9587 36.0149 48.7378C35.5887 49.5169 35.9283 50.6556 35.5487 51.4413C35.1692 52.2271 34.0705 52.6932 33.7175 53.4923C33.3646 54.2913 33.7775 55.41 33.4578 56.2291C33.1382 57.0481 32.0728 57.5609 31.7864 58.4132C31.5001 59.2655 31.9862 60.3177 31.7332 61.1567C31.4801 61.9957 30.4547 62.615 30.2283 63.4607C30.0019 64.3063 30.5745 65.3518 30.3814 66.2041C30.1883 67.0565 29.2228 67.749 29.0496 68.6147C28.8765 69.4803 29.5424 70.4725 29.4092 71.3381C29.276 72.2038 28.3704 72.9629 28.2705 73.8419C28.1707 74.7209 28.8965 75.6531 28.8299 76.5055C28.7633 77.3578 27.911 78.2035 27.8843 79.0825C27.8577 79.9614 28.6368 80.8471 28.6368 81.746C28.6368 82.645 27.851 83.5106 27.8843 84.4096C27.9176 85.3085 28.77 86.1209 28.8299 86.9932C28.8898 87.8655 28.164 88.8111 28.2705 89.6568C28.3771 90.5025 29.2827 91.2949 29.4092 92.1539C29.5357 93.0129 28.8898 94.025 29.0496 94.884C29.2095 95.743 30.1817 96.4355 30.3814 97.2879C30.5812 98.1402 30.0019 99.1923 30.2283 100.031C30.4547 100.87 31.4735 101.503 31.7332 102.335C31.9929 103.168 31.5001 104.26 31.7864 105.085C32.0728 105.911 33.1182 106.451 33.4578 107.27C33.7974 108.089 33.3713 109.201 33.7175 110C34.0638 110.799 35.1692 111.265 35.5487 112.051C35.9283 112.836 35.602 113.988 36.0149 114.761C36.4277 115.533 37.5531 115.913 38.0125 116.672C38.472 117.431 38.2123 118.596 38.6784 119.336C39.1445 120.075 40.3032 120.368 40.7959 121.087C41.2887 121.806 41.1422 122.991 41.6616 123.697C42.181 124.403 43.353 124.603 43.899 125.289C44.445 125.974 44.3851 127.166 44.9578 127.826C45.5304 128.485 46.7157 128.605 47.3084 129.251C47.901 129.897 47.9343 131.082 48.5536 131.701C49.1729 132.32 50.3648 132.367 51.004 132.94C51.6433 133.512 51.7632 134.724 52.4224 135.29C53.0816 135.856 54.2736 135.803 54.9594 136.349C55.6453 136.895 55.8517 138.067 56.5509 138.586C57.2501 139.106 58.4354 138.959 59.1612 139.452C59.887 139.945 60.1734 141.103 60.9192 141.57C61.665 142.036 62.8236 141.796 63.5827 142.235C64.3418 142.675 64.7147 143.807 65.4872 144.233C66.2596 144.659 67.4049 144.32 68.1973 144.699C68.9897 145.079 69.4426 146.178 70.2483 146.53C71.054 146.883 72.166 146.471 72.9851 146.79C73.8041 147.11 74.3169 148.175 75.1692 148.462C76.0216 148.748 77.0737 148.262 77.9127 148.515C78.7517 148.768 79.371 149.793 80.2167 150.02C81.0623 150.246 82.1011 149.673 82.9601 149.867C83.8191 150.06 84.505 151.025 85.3707 151.198C86.2363 151.372 87.2218 150.706 88.0941 150.839C88.9665 150.972 89.7189 151.878 90.5912 151.977C91.4635 152.077 92.4091 151.352 93.2548 151.418C94.1005 151.485 94.9595 152.337 95.8384 152.37C96.7174 152.404 97.5964 151.611 98.502 151.611C99.4076 151.611 100.273 152.397 101.166 152.37C102.058 152.344 102.877 151.485 103.743 151.418C104.608 151.352 105.567 152.084 106.406 151.977C107.245 151.871 108.044 150.965 108.91 150.839C109.776 150.712 110.774 151.358 111.633 151.198C112.492 151.039 113.192 150.066 114.044 149.867C114.896 149.667 115.942 150.246 116.787 150.02C117.633 149.793 118.259 148.775 119.091 148.515C119.924 148.255 121.016 148.748 121.841 148.462C122.667 148.175 123.207 147.13 124.019 146.79C124.831 146.451 125.957 146.883 126.756 146.53C127.555 146.178 128.021 145.079 128.807 144.699C129.592 144.32 130.744 144.646 131.517 144.233C132.289 143.82 132.669 142.695 133.421 142.235C134.174 141.776 135.346 142.036 136.085 141.57C136.824 141.103 137.117 139.945 137.836 139.452C138.555 138.959 139.741 139.106 140.446 138.586C141.152 138.067 141.352 136.895 142.038 136.349C142.724 135.803 143.909 135.863 144.575 135.29C145.241 134.718 145.354 133.532 145.993 132.94C146.633 132.347 147.825 132.314 148.444 131.694C149.063 131.075 149.11 129.89 149.689 129.244C150.268 128.598 151.467 128.485 152.04 127.826C152.612 127.166 152.552 125.974 153.098 125.289C153.644 124.603 154.816 124.403 155.336 123.697C155.855 122.991 155.709 121.813 156.201 121.087C156.694 120.361 157.853 120.075 158.319 119.336C158.785 118.596 158.545 117.424 158.985 116.672C159.424 115.92 160.55 115.54 160.982 114.768C161.415 113.995 161.069 112.85 161.449 112.057C161.828 111.265 162.927 110.812 163.28 110.006C163.633 109.201 163.22 108.089 163.54 107.27C163.859 106.451 164.918 105.938 165.211 105.092C165.504 104.246 165.004 103.181 165.264 102.342C165.524 101.503 166.543 100.89 166.769 100.038C166.995 99.1857 166.423 98.1535 166.616 97.2945C166.809 96.4355 167.775 95.7497 167.948 94.8907C168.121 94.0317 167.462 93.0329 167.595 92.1605C167.728 91.2882 168.634 90.5358 168.733 89.6634C168.833 88.7911 168.108 87.8456 168.174 86.9999C168.241 86.1542 169.086 85.2952 169.12 84.4162C169.153 83.5373 168.347 82.6383 168.347 81.7593Z" fill="#01498B" stroke="#2E353A" stroke-width="2" stroke-linecap="round" stroke-linejoin="round"/>
<path d="M77.5859 15.2715L78.8178 18.7208" stroke="#2E353A" stroke-width="2" stroke-linecap="round" stroke-linejoin="round"/>
<path d="M72.8984 17.123L74.0105 19.8332" stroke="#2E353A" stroke-width="2" stroke-linecap="round" stroke-linejoin="round"/>
<path d="M158.698 46.9551C156.683 48.6827 154.391 50.0582 151.919 51.0237" stroke="#2E353A" stroke-width="2" stroke-linecap="round" stroke-linejoin="round"/>
<path d="M161.162 51.5156C160.244 52.0963 159.297 52.6297 158.325 53.1138" stroke="#2E353A" stroke-width="2" stroke-linecap="round" stroke-linejoin="round"/>
<path d="M58.8477 139.553C58.8477 139.553 61.8042 136.224 62.297 133.76" stroke="#2E353A" stroke-width="2" stroke-linecap="round" stroke-linejoin="round"/>
<path d="M50.584 132.747C50.584 132.747 53.0544 129.67 53.5472 129.178" stroke="#2E353A" stroke-width="2" stroke-linecap="round" stroke-linejoin="round"/>
<path d="M113.95 149.514L112.965 144.094" stroke="#2E353A" stroke-width="2" stroke-linecap="round" stroke-linejoin="round"/>
<path d="M119.371 148.407L118.632 145.324" stroke="#2E353A" stroke-width="2" stroke-linecap="round" stroke-linejoin="round"/>
<path d="M141.932 136.202L137.743 131.514" stroke="#2E353A" stroke-width="2" stroke-linecap="round" stroke-linejoin="round"/>
<path d="M161.655 112.038L155.369 108.715" stroke="#2E353A" stroke-width="2" stroke-linecap="round" stroke-linejoin="round"/>
<path d="M29.1357 81.8398L34.4362 81.9597" stroke="#2E353A" stroke-width="2" stroke-linecap="round" stroke-linejoin="round"/>
<path d="M36.6543 82.0859L39.2446 82.2058" stroke="#2E353A" stroke-width="2" stroke-linecap="round" stroke-linejoin="round"/>
<path d="M35.915 112.412C36.5343 112.165 40.5763 111.08 40.5763 111.08" stroke="#2E353A" stroke-width="2" stroke-linecap="round" stroke-linejoin="round"/>
<path d="M113.991 13.752C113.618 14.4978 112.872 18.7927 112.872 18.7927" stroke="#2E353A" stroke-width="2" stroke-linecap="round" stroke-linejoin="round"/>
<path d="M118.838 15.4316L118.279 18.235" stroke="#2E353A" stroke-width="2" stroke-linecap="round" stroke-linejoin="round"/>
<path d="M138.056 24.5723L136.564 26.4368" stroke="#2E353A" stroke-width="2" stroke-linecap="round" stroke-linejoin="round"/>
<path d="M40.6694 42.4863L44.3984 44.5373" stroke="#2E353A" stroke-width="2" stroke-linecap="round" stroke-linejoin="round"/>
<path d="M46.6421 45.6562L49.6253 47.3343" stroke="#2E353A" stroke-width="2" stroke-linecap="round" stroke-linejoin="round"/>
<path d="M118.239 61.4025C118.239 61.4025 117.1 59.6379 111.347 56.0088C105.593 52.3797 90.7039 48.9303 84.8374 45.7607C78.971 42.4912 72.4319 36.325 70.1479 33.3618C67.8639 30.3986 68.2168 28.1612 66.379 27.9814C64.5411 27.8016 62.7033 28.6473 61.4248 32.4962C60.1462 36.345 61.7111 45.9871 62.7565 48.9503C63.802 51.9135 66.8717 53.7914 68.8228 54.5771C70.7738 55.3629 75.1354 57.4338 75.1288 59.2916C75.1221 61.1494 74.8891 61.5157 74.0833 61.6555C73.2776 61.7954 55.5649 64.419 52.8348 65.2114C50.1046 66.0038 48.926 70.978 49.7051 74.9001C50.4842 78.8222 53.5739 80.0541 52.6417 82.8375C51.7094 85.6209 50.1046 88.8838 51.6894 92.5795C53.2742 96.2752 56.2508 95.7025 55.0921 98.5725C53.9335 101.442 53.9202 104.799 55.3984 106.956C56.8767 109.114 58.8278 110.512 58.8145 113.129C58.8011 115.746 63.3691 121.506 66.2391 122.325C67.6575 122.751 80.5358 124.163 93.0745 124.289C105.607 124.609 117.799 123.623 117.779 123.623C117.93 102.87 118.083 82.1294 118.239 61.4025Z" fill="white" stroke="#2E353A" stroke-width="3" stroke-linecap="round" stroke-linejoin="round"/>
<path d="M143.263 121.679C135.805 122.806 128.32 123.637 120.809 124.169C120.323 124.191 119.839 124.11 119.386 123.932C118.934 123.754 118.524 123.483 118.183 123.136C117.842 122.79 117.578 122.375 117.407 121.92C117.237 121.465 117.164 120.979 117.193 120.494C117.269 101.755 117.344 83.0262 117.42 64.3058C117.401 63.8137 117.481 63.3228 117.656 62.8624C117.831 62.4019 118.096 61.9812 118.436 61.6253C118.777 61.2694 119.185 60.9856 119.637 60.7906C120.09 60.5956 120.576 60.4934 121.069 60.4902C128.58 60.7033 136.065 61.0074 143.523 61.4025C144.494 61.4714 145.404 61.9048 146.07 62.6161C146.735 63.3274 147.108 64.2639 147.112 65.238C147.032 82.6355 146.954 100.046 146.879 117.47C146.849 118.48 146.474 119.449 145.816 120.215C145.158 120.981 144.257 121.498 143.263 121.679Z" fill="#2E353A" stroke="#2E353A" stroke-width="3" stroke-linecap="round" stroke-linejoin="round"/>
<path d="M126.589 117.464C126.607 117.098 126.549 116.733 126.417 116.391C126.285 116.05 126.083 115.74 125.824 115.481C125.565 115.222 125.254 115.021 124.912 114.89C124.57 114.759 124.205 114.701 123.839 114.72C123.069 114.803 122.357 115.171 121.843 115.751C121.33 116.331 121.051 117.082 121.062 117.857C121.04 118.224 121.096 118.592 121.226 118.937C121.356 119.281 121.558 119.594 121.818 119.855C122.077 120.116 122.389 120.319 122.733 120.451C123.077 120.583 123.445 120.641 123.812 120.62C124.582 120.526 125.289 120.152 125.801 119.57C126.313 118.988 126.593 118.239 126.589 117.464Z" fill="white" stroke="#2E353A" stroke-width="3" stroke-linecap="round" stroke-linejoin="round"/>
<path d="M118.005 54.5449C125.39 54.5449 131.376 48.5585 131.376 41.1738C131.376 33.7892 125.39 27.8027 118.005 27.8027C110.621 27.8027 104.634 33.7892 104.634 41.1738C104.634 48.5585 110.621 54.5449 118.005 54.5449Z" fill="white"/>
<path d="M140.544 60.9696C142.484 59.0297 142.484 55.8844 140.544 53.9444C138.604 52.0045 135.458 52.0045 133.518 53.9445C131.578 55.8844 131.578 59.0297 133.518 60.9696C135.458 62.9096 138.604 62.9096 140.544 60.9696Z" fill="white"/>
<path opacity="0.2" d="M93.5012 149.308C94.3402 149.368 95.1393 150.194 95.9916 150.227C96.844 150.26 97.6963 149.494 98.542 149.494C99.3877 149.494 100.253 150.253 101.099 150.227C101.945 150.2 102.75 149.368 103.589 149.308C104.428 149.248 105.347 149.974 106.186 149.847C107.025 149.721 107.771 148.875 108.604 148.749C109.436 148.622 110.408 149.248 111.267 149.095C112.126 148.942 112.772 148.003 113.591 147.816C114.41 147.63 115.429 148.183 116.255 147.963C117.08 147.743 117.673 146.764 118.479 146.511C119.284 146.258 120.337 146.738 121.142 146.458C121.948 146.178 122.474 145.126 123.253 144.846C124.032 144.567 125.124 144.933 125.917 144.593C126.709 144.254 127.135 143.195 127.914 142.822C128.694 142.449 129.786 142.769 130.531 142.376C131.277 141.983 131.643 140.884 132.376 140.465C133.108 140.045 134.24 140.265 134.953 139.799C135.665 139.333 135.952 138.228 136.651 137.755C137.35 137.282 138.489 137.422 139.168 136.916C139.847 136.41 140.047 135.278 140.706 134.752C141.365 134.226 142.517 134.285 143.157 133.733C143.796 133.18 143.909 132.035 144.528 131.462C145.148 130.889 146.3 130.856 146.899 130.257C147.498 129.658 147.525 128.512 148.098 127.893C148.67 127.274 149.822 127.16 150.375 126.515C150.928 125.869 150.868 124.73 151.394 124.064C151.92 123.398 153.052 123.205 153.558 122.526C154.064 121.847 153.917 120.708 154.397 120.009C154.876 119.31 155.988 119.03 156.434 118.311C156.881 117.592 156.661 116.466 157.1 115.734C157.54 115.001 158.619 114.642 159.011 113.896C159.404 113.15 159.098 112.038 159.464 111.279C159.831 110.52 160.896 110.074 161.236 109.281C161.575 108.489 161.176 107.43 161.489 106.618C161.802 105.805 162.82 105.286 163.1 104.507C163.38 103.728 162.9 102.662 163.153 101.843C163.406 101.024 164.385 100.438 164.605 99.6192C164.825 98.8001 164.265 97.7946 164.458 96.9556C164.652 96.1166 165.577 95.464 165.737 94.6317C165.897 93.7993 165.264 92.8404 165.391 91.9681C165.517 91.0958 166.396 90.3899 166.489 89.5509C166.583 88.7119 165.883 87.7996 165.95 86.9473C166.017 86.0949 166.836 85.3092 166.862 84.4569C166.889 83.6045 166.13 82.7522 166.13 81.9065C166.13 81.0608 166.896 80.1952 166.862 79.3495C166.829 78.5038 166.01 77.6981 165.95 76.8591C165.89 76.02 166.583 75.1011 166.489 74.2621C166.396 73.4231 165.511 72.6773 165.391 71.8449C165.271 71.0125 165.89 70.0403 165.737 69.1813C165.584 68.3223 164.645 67.6764 164.458 66.8574C164.421 66.6758 164.409 66.4896 164.425 66.3047C117.546 106.258 59.2145 103.175 32.6521 99.0399C32.6405 99.2122 32.6563 99.3852 32.6987 99.5526C32.9185 100.372 33.8973 100.971 34.1504 101.777C34.4034 102.582 33.924 103.635 34.2037 104.44C34.4833 105.246 35.5354 105.772 35.8151 106.544C36.0948 107.317 35.7285 108.416 36.0682 109.208C36.4078 110 37.4665 110.433 37.8394 111.206C38.2123 111.978 37.8927 113.077 38.2856 113.823C38.6784 114.568 39.7772 114.935 40.1967 115.667C40.6162 116.4 40.3964 117.525 40.8626 118.237C41.3287 118.95 42.4341 119.236 42.9068 119.935C43.3796 120.635 43.2398 121.773 43.7459 122.459C44.2519 123.145 45.384 123.332 45.91 123.997C46.4361 124.663 46.3761 125.802 46.9288 126.448C47.4815 127.094 48.6268 127.2 49.1995 127.82C49.7722 128.439 49.8055 129.591 50.4048 130.19C51.0041 130.79 52.1494 130.809 52.7687 131.389C53.388 131.968 53.5012 133.107 54.1471 133.66C54.793 134.212 55.9317 134.152 56.5976 134.678C57.2634 135.204 57.4565 136.343 58.1358 136.842C58.815 137.342 59.9536 137.202 60.6528 137.681C61.352 138.161 61.6317 139.273 62.3508 139.726C63.07 140.179 64.1954 139.946 64.9278 140.392C65.6603 140.838 66.0199 141.903 66.7657 142.303C67.5115 142.702 68.6235 142.383 69.3826 142.756C70.1418 143.128 70.5879 144.181 71.3803 144.52C72.1727 144.86 73.2315 144.46 74.0439 144.773C74.8563 145.086 75.3757 146.105 76.1548 146.385C76.9338 146.664 77.9993 146.192 78.8183 146.438C79.6374 146.684 80.2233 147.67 81.0424 147.89C81.8614 148.109 82.8669 147.557 83.7059 147.743C84.545 147.93 85.2042 148.862 86.0366 149.022C86.8689 149.181 87.8278 148.549 88.6668 148.675C89.5058 148.802 90.245 149.681 91.084 149.774C91.923 149.867 92.6489 149.248 93.5012 149.308Z" fill="black"/>
</g>
</svg>
