<svg width="18" height="18" viewBox="0 0 18 18" fill="none" xmlns="http://www.w3.org/2000/svg">
<path fill-rule="evenodd" clip-rule="evenodd" d="M0.666748 8.99935C0.666748 13.6018 4.39758 17.3327 9.00008 17.3327C13.6026 17.3327 17.3334 13.6018 17.3334 8.99935C17.3334 4.39685 13.6026 0.666016 9.00008 0.666016C4.39758 0.666016 0.666748 4.39685 0.666748 8.99935ZM15.6667 8.99935C15.6667 12.6812 12.682 15.666 9.00008 15.666C5.31818 15.666 2.33341 12.6812 2.33341 8.99935C2.33341 5.31745 5.31818 2.33268 9.00008 2.33268C12.682 2.33268 15.6667 5.31745 15.6667 8.99935ZM9.83341 11.4993V13.166H8.16675V11.4993H9.83341ZM9.83341 9.83268L9.83341 4.83268L8.16675 4.83268L8.16675 9.83268H9.83341Z" fill="#DF8639"/>
</svg>
