<svg width="22" height="18" viewBox="0 0 22 18" fill="none" xmlns="http://www.w3.org/2000/svg">
<path fill-rule="evenodd" clip-rule="evenodd" d="M21.8177 9C20.8767 3.88 16.3907 0 10.9987 0C5.60669 0 1.11969 3.88 0.179688 9C1.12069 14.12 5.60669 18 10.9987 18C16.3907 18 20.8777 14.12 21.8177 9ZM19.7757 9C18.8405 13.0947 15.1988 15.9991 10.9987 16C6.79856 15.9991 3.15685 13.0947 2.22168 9C3.16026 4.9087 6.8011 2.00853 10.9987 2.00853C15.1963 2.00853 18.8371 4.9087 19.7757 9ZM11 13.5C8.51472 13.5 6.5 11.4853 6.5 9C6.5 6.51472 8.51472 4.5 11 4.5C13.4853 4.5 15.5 6.51472 15.5 9C15.5 11.4853 13.4853 13.5 11 13.5ZM13.5 9C13.5 10.3807 12.3807 11.5 11 11.5C9.61929 11.5 8.5 10.3807 8.5 9C8.5 7.61929 9.61929 6.5 11 6.5C12.3807 6.5 13.5 7.61929 13.5 9Z" fill="#02A5E2"/>
</svg>
