<svg width="500" height="255" viewBox="0 0 120 115" fill="none" xmlns="http://www.w3.org/2000/svg">
<path d="M117 87.1865H3V87.2435H117V87.1865Z" fill="#E0E0E0"/>
<path d="M89.1069 89.5996H81.2637V89.6566H89.1069V89.5996Z" fill="#E0E0E0"/>
<path d="M28.3164 89.6279H23.9023V89.685H28.3164V89.6279Z" fill="#E0E0E0"/>
<path d="M60.228 89.4941H51.2812V89.5512H60.228V89.4941Z" fill="#E0E0E0"/>
<path d="M51.0528 88.6836H47.0537V88.7406H51.0528V88.6836Z" fill="#E0E0E0"/>
<path d="M99.7995 88.7129H87.7178V88.7699H99.7995V88.7129Z" fill="#E0E0E0"/>
<path d="M57.036 77.0174H13.0115C12.6666 77.0168 12.3361 76.8794 12.0924 76.6353C11.8488 76.3913 11.7119 76.0605 11.7119 75.7156V13.8295C11.7149 13.4866 11.8531 13.1588 12.0964 12.9171C12.3398 12.6755 12.6686 12.5396 13.0115 12.5391H57.036C57.3813 12.5391 57.7125 12.6762 57.9566 12.9204C58.2008 13.1645 58.3379 13.4957 58.3379 13.8409V75.7156C58.3379 76.0608 58.2008 76.392 57.9566 76.6361C57.7125 76.8803 57.3813 77.0174 57.036 77.0174ZM13.0115 12.5847C12.6817 12.5853 12.3657 12.7167 12.1327 12.9501C11.8998 13.1835 11.7689 13.4998 11.7689 13.8295V75.7156C11.7689 76.0453 11.8998 76.3616 12.1327 76.595C12.3657 76.8284 12.6817 76.9598 13.0115 76.9604H57.036C57.366 76.9598 57.6823 76.8285 57.9156 76.5952C58.149 76.3618 58.2803 76.0455 58.2809 75.7156V13.8295C58.2803 13.4996 58.149 13.1833 57.9156 12.9499C57.6823 12.7166 57.366 12.5853 57.036 12.5847H13.0115Z" fill="#E0E0E0"/>
<path d="M106.354 77.0174H62.3273C61.9822 77.0168 61.6514 76.8795 61.4074 76.6355C61.1634 76.3915 61.026 76.0607 61.0254 75.7156V13.8295C61.029 13.4864 61.1677 13.1586 61.4114 12.917C61.6551 12.6754 61.9841 12.5396 62.3273 12.5391H106.354C106.697 12.5402 107.025 12.6764 107.268 12.9179C107.511 13.1595 107.648 13.487 107.651 13.8295V75.7156C107.651 76.0601 107.515 76.3905 107.272 76.6345C107.029 76.8785 106.699 77.0162 106.354 77.0174ZM62.3273 12.5847C61.9973 12.5853 61.681 12.7166 61.4477 12.9499C61.2143 13.1833 61.083 13.4996 61.0824 13.8295V75.7156C61.083 76.0455 61.2143 76.3618 61.4477 76.5952C61.681 76.8285 61.9973 76.9598 62.3273 76.9604H106.354C106.684 76.9598 107 76.8285 107.234 76.5952C107.467 76.3618 107.598 76.0455 107.599 75.7156V13.8295C107.598 13.4996 107.467 13.1833 107.234 12.9499C107 12.7166 106.684 12.5853 106.354 12.5847H62.3273Z" fill="#E0E0E0"/>
<path d="M93.7692 61.8867C93.9555 61.8867 94.1399 61.9234 94.3119 61.9947C94.484 62.0659 94.6403 62.1704 94.772 62.3021C94.9037 62.4338 95.0082 62.5901 95.0794 62.7622C95.1507 62.9342 95.1874 63.1186 95.1874 63.3049V87.1856H92.3511V63.3049C92.3511 63.1186 92.3878 62.9342 92.459 62.7622C92.5303 62.5901 92.6348 62.4338 92.7664 62.3021C92.8981 62.1704 93.0545 62.0659 93.2265 61.9947C93.3986 61.9234 93.583 61.8867 93.7692 61.8867Z" fill="#F0F0F0"/>
<path d="M75.9395 87.1865H72.084V63.3081C72.0852 62.7963 72.289 62.3058 72.6509 61.9439C73.0128 61.582 73.5033 61.3782 74.0151 61.377C74.527 61.3782 75.0175 61.582 75.3794 61.9439C75.7413 62.3058 75.9451 62.7963 75.9463 63.3081L75.9395 87.1865Z" fill="#E0E0E0"/>
<path d="M74.009 80.7446C80.5783 80.7446 85.9038 75.4191 85.9038 68.8498C85.9038 62.2805 80.5783 56.9551 74.009 56.9551C67.4397 56.9551 62.1143 62.2805 62.1143 68.8498C62.1143 75.4191 67.4397 80.7446 74.009 80.7446Z" fill="#F0F0F0"/>
<path d="M87.9858 65.282C88.6099 62.7695 87.079 60.2267 84.5664 59.6025C82.0539 58.9784 79.511 60.5093 78.8869 63.0219C78.2628 65.5344 79.7937 68.0772 82.3063 68.7014C84.8188 69.3255 87.3616 67.7946 87.9858 65.282Z" fill="#F0F0F0"/>
<path d="M67.125 61.8194C67.3713 60.3068 66.3449 58.881 64.8324 58.6347C63.3198 58.3883 61.894 59.4148 61.6477 60.9273C61.4014 62.4399 62.4278 63.8657 63.9403 64.112C65.4529 64.3584 66.8787 63.3319 67.125 61.8194Z" fill="#F0F0F0"/>
<path d="M67.4056 61.8864C68.481 61.8864 69.3527 61.0147 69.3527 59.9393C69.3527 58.8639 68.481 57.9922 67.4056 57.9922C66.3303 57.9922 65.4585 58.8639 65.4585 59.9393C65.4585 61.0147 66.3303 61.8864 67.4056 61.8864Z" fill="#F0F0F0"/>
<path d="M46.8356 25.5676C47.9916 22.1772 47.0636 19.7627 44.2432 19.7627C42.4694 19.7627 40.2692 20.7135 38.126 22.2593C37.8843 21.3769 37.2026 20.8503 36.1059 20.8503C34.1747 20.8503 31.514 22.4827 29.4278 24.7855C28.8404 24.2275 28.0628 23.9137 27.2527 23.9077C25.4036 23.8029 23.1669 24.7422 21.2221 26.2675C21.1246 26.1311 20.996 26.02 20.8468 25.9435C20.6977 25.8669 20.5324 25.8272 20.3648 25.8275C19.3 25.7682 17.8568 26.7167 17.1431 27.9433C17.0998 28.0186 17.0611 28.0938 17.02 28.1713H47.3965C47.4877 27.0997 47.2984 26.206 46.8356 25.5676Z" fill="#F0F0F0"/>
<path d="M46.9286 46.1524C47.494 44.4971 47.0448 43.3184 45.6632 43.3184C44.7945 43.3184 43.7206 43.7744 42.6741 44.5382C42.6177 44.3254 42.4874 44.1397 42.3065 44.0143C42.1255 43.889 41.9059 43.8322 41.6868 43.8542C40.7452 43.8542 39.4456 44.6522 38.4242 45.7785C38.1378 45.505 37.7576 45.3516 37.3617 45.3498C36.4497 45.2974 35.3667 45.7557 34.4159 46.5012C34.3698 46.4353 34.3089 46.3811 34.238 46.3431C34.1671 46.3051 34.0882 46.2843 34.0078 46.2824C33.488 46.2527 32.7834 46.7156 32.4346 47.3152L32.373 47.4246H47.2113C47.2733 46.9804 47.1729 46.5286 46.9286 46.1524Z" fill="#F0F0F0"/>
<path d="M81.1509 33.6282C81.0338 33.6118 80.9158 33.6034 80.7975 33.6032C80.907 31.9502 80.2754 30.8922 78.9234 30.8922C77.9498 30.8922 76.7528 31.444 75.5353 32.3765C75.8841 29.1663 74.7669 27.0801 72.2361 27.0801C70.1978 27.0801 67.6146 28.4481 65.0632 30.6506C64.8352 29.392 64.0874 28.635 62.8243 28.635C60.6059 28.635 57.4526 30.9698 54.9241 34.2621C54.636 33.8824 54.2665 33.5721 53.8427 33.354C53.419 33.1358 52.9518 33.0153 52.4754 33.0012C50.3641 32.853 47.7398 34.1937 45.4074 36.3779C45.3225 36.1937 45.1874 36.0372 45.0177 35.9263C44.8479 35.8154 44.6503 35.7546 44.4475 35.7509C43.2915 35.6688 41.7115 36.875 40.7744 38.4869H83.0091C84.0009 36.0428 83.212 33.9041 81.1509 33.6282Z" fill="#F0F0F0"/>
<path d="M59.9999 97.4842C84.4147 97.4842 104.207 96.3286 104.207 94.9032C104.207 93.4778 84.4147 92.3223 59.9999 92.3223C35.5851 92.3223 15.793 93.4778 15.793 94.9032C15.793 96.3286 35.5851 97.4842 59.9999 97.4842Z" fill="#F5F5F5"/>
<path d="M14.1396 34.3291L66.1168 41.8121L73.0913 48.8504L14.1396 34.3291Z" fill="#02A5E2"/>
<path d="M14.1396 34.3291L66.1168 41.8121L73.0913 48.8504L14.1396 34.3291Z" fill="#768F6F"/>
<path d="M14.1396 34.3291L66.1168 41.8121L63.7046 51.99L14.1396 34.3291Z" fill="#02A5E2"/>
<path d="M14.1396 34.3291L66.1168 41.8121L63.7046 51.99L14.1396 34.3291Z" fill="#45603E"/>
<path d="M62.6375 22.544L65.6539 36.68C65.7324 37.0491 65.6612 37.4343 65.4561 37.751C65.2509 38.0677 64.9285 38.2901 64.5595 38.3694L37.6373 44.115C37.2682 44.1929 36.8833 44.1215 36.5667 43.9164C36.2502 43.7113 36.0276 43.3893 35.9478 43.0206L32.9291 28.8847C32.8513 28.5153 32.923 28.1301 33.1285 27.8135C33.3341 27.4968 33.6567 27.2745 34.0257 27.1952L60.948 21.4496C61.3174 21.3718 61.7026 21.4435 62.0192 21.6491C62.3358 21.8546 62.5581 22.1772 62.6375 22.5463V22.544Z" fill="#02A5E2"/>
<path opacity="0.4" d="M62.6375 22.544L65.6539 36.68C65.7324 37.0491 65.6612 37.4343 65.4561 37.751C65.2509 38.0677 64.9285 38.2901 64.5595 38.3694L37.6373 44.115C37.2682 44.1929 36.8833 44.1215 36.5667 43.9164C36.2502 43.7113 36.0276 43.3893 35.9478 43.0206L32.9291 28.8847C32.8513 28.5153 32.923 28.1301 33.1285 27.8135C33.3341 27.4968 33.6567 27.2745 34.0257 27.1952L60.948 21.4496C61.3174 21.3718 61.7026 21.4435 62.0192 21.6491C62.3358 21.8546 62.5581 22.1772 62.6375 22.5463V22.544Z" fill="black"/>
<path d="M61.9746 21.6191L52.98 32.6612C52.1459 33.6849 50.9872 34.3932 49.6957 34.6689C48.4043 34.9446 47.0573 34.7712 45.8778 34.1774L33.1577 27.7706C33.3635 27.4749 33.6741 27.2687 34.0264 27.1937L60.9486 21.4481C61.3 21.3733 61.6666 21.4344 61.9746 21.6191Z" fill="#02A5E2"/>
<path d="M14.1396 34.3291L57.0105 44.5184L63.7046 51.99L14.1396 34.3291Z" fill="#02A5E2"/>
<path d="M14.1396 34.3291L57.0105 44.5184L63.7046 51.99L14.1396 34.3291Z" fill="#768F6F"/>
<path d="M29.7773 44.149L29.6621 44.3457L34.4329 47.1402L34.5481 46.9435L29.7773 44.149Z" fill="#333333"/>
<path d="M36.6549 48.1741L36.5396 48.3711L38.2561 49.3765L38.3715 49.1796L36.6549 48.1741Z" fill="#333333"/>
<path d="M14.1396 34.3291L57.0105 44.5184L48.6771 54.5618L14.1396 34.3291Z" fill="#84A07C"/>
<path d="M71.4816 58.1987C71.4238 58.1988 71.3666 58.188 71.3129 58.1668L64.3315 55.4034C64.2198 55.3584 64.1305 55.271 64.0829 55.1604C64.0354 55.0498 64.0336 54.9248 64.0778 54.8128C64.1221 54.7008 64.2088 54.6109 64.3191 54.5626C64.4295 54.5144 64.5544 54.5117 64.6667 54.5552L71.6503 57.3186C71.7491 57.3576 71.8312 57.43 71.8823 57.5231C71.9335 57.6162 71.9505 57.7242 71.9305 57.8285C71.9105 57.9329 71.8547 58.0269 71.7728 58.0945C71.6908 58.1621 71.5878 58.1989 71.4816 58.1987Z" fill="#02A5E2"/>
<path opacity="0.3" d="M71.4816 58.1987C71.4238 58.1988 71.3666 58.188 71.3129 58.1668L64.3315 55.4034C64.2198 55.3584 64.1305 55.271 64.0829 55.1604C64.0354 55.0498 64.0336 54.9248 64.0778 54.8128C64.1221 54.7008 64.2088 54.6109 64.3191 54.5626C64.4295 54.5144 64.5544 54.5117 64.6667 54.5552L71.6503 57.3186C71.7491 57.3576 71.8312 57.43 71.8823 57.5231C71.9335 57.6162 71.9505 57.7242 71.9305 57.8285C71.9105 57.9329 71.8547 58.0269 71.7728 58.0945C71.6908 58.1621 71.5878 58.1989 71.4816 58.1987Z" fill="#0279A6"/>
<path d="M71.0696 54.1949C71.0124 54.1946 70.9559 54.1829 70.9032 54.1607L67.1526 52.6673C67.0965 52.6456 67.0453 52.613 67.0018 52.5714C66.9584 52.5298 66.9237 52.48 66.8996 52.4249C66.8755 52.3698 66.8625 52.3105 66.8614 52.2504C66.8603 52.1902 66.8711 52.1305 66.8932 52.0745C66.9153 52.0186 66.9483 51.9676 66.9902 51.9245C67.0321 51.8813 67.0821 51.8469 67.1373 51.8232C67.1926 51.7994 67.252 51.7868 67.3121 51.7862C67.3723 51.7855 67.4319 51.7967 67.4877 51.8192L71.2383 53.3057C71.3507 53.35 71.441 53.437 71.4893 53.5477C71.5376 53.6584 71.54 53.7838 71.496 53.8962C71.4639 53.9836 71.4058 54.059 71.3296 54.1124C71.2534 54.1658 71.1627 54.1946 71.0696 54.1949Z" fill="#02A5E2"/>
<path opacity="0.5" d="M71.0696 54.1949C71.0124 54.1946 70.9559 54.1829 70.9032 54.1607L67.1526 52.6673C67.0965 52.6456 67.0453 52.613 67.0018 52.5714C66.9584 52.5298 66.9237 52.48 66.8996 52.4249C66.8755 52.3698 66.8625 52.3105 66.8614 52.2504C66.8603 52.1902 66.8711 52.1305 66.8932 52.0745C66.9153 52.0186 66.9483 51.9676 66.9902 51.9245C67.0321 51.8813 67.0821 51.8469 67.1373 51.8232C67.1926 51.7994 67.252 51.7868 67.3121 51.7862C67.3723 51.7855 67.4319 51.7967 67.4877 51.8192L71.2383 53.3057C71.3507 53.35 71.441 53.437 71.4893 53.5477C71.5376 53.6584 71.54 53.7838 71.496 53.8962C71.4639 53.9836 71.4058 54.059 71.3296 54.1124C71.2534 54.1658 71.1627 54.1946 71.0696 54.1949Z" fill="white"/>
<path d="M63.2275 58.1406C63.1706 58.14 63.1142 58.1292 63.0611 58.1087L56.2507 55.4046C56.1946 55.3829 56.1434 55.3503 56.1 55.3087C56.0566 55.2671 56.0218 55.2173 55.9977 55.1622C55.9736 55.1071 55.9606 55.0478 55.9595 54.9877C55.9585 54.9275 55.9693 54.8678 55.9914 54.8119C56.0135 54.7559 56.0464 54.7049 56.0883 54.6618C56.1302 54.6186 56.1802 54.5842 56.2355 54.5605C56.2907 54.5367 56.3501 54.5242 56.4103 54.5235C56.4704 54.5228 56.5301 54.534 56.5859 54.5565L63.3962 57.2514C63.495 57.2905 63.5771 57.3628 63.6283 57.4559C63.6794 57.549 63.6965 57.657 63.6765 57.7614C63.6565 57.8657 63.6007 57.9598 63.5187 58.0273C63.4367 58.0949 63.3337 58.1318 63.2275 58.1315V58.1406Z" fill="#02A5E2"/>
<path opacity="0.3" d="M63.2275 58.1406C63.1706 58.14 63.1142 58.1292 63.0611 58.1087L56.2507 55.4046C56.1946 55.3829 56.1434 55.3503 56.1 55.3087C56.0566 55.2671 56.0218 55.2173 55.9977 55.1622C55.9736 55.1071 55.9606 55.0478 55.9595 54.9877C55.9585 54.9275 55.9693 54.8678 55.9914 54.8119C56.0135 54.7559 56.0464 54.7049 56.0883 54.6618C56.1302 54.6186 56.1802 54.5842 56.2355 54.5605C56.2907 54.5367 56.3501 54.5242 56.4103 54.5235C56.4704 54.5228 56.5301 54.534 56.5859 54.5565L63.3962 57.2514C63.495 57.2905 63.5771 57.3628 63.6283 57.4559C63.6794 57.549 63.6965 57.657 63.6765 57.7614C63.6565 57.8657 63.6007 57.9598 63.5187 58.0273C63.4367 58.0949 63.3337 58.1318 63.2275 58.1315V58.1406Z" fill="#0279A6"/>
<path d="M87.8847 37.5801C88.4889 38.7588 89.0429 39.9399 89.5696 41.1483C90.0963 42.3567 90.5865 43.581 91.0151 44.8647L91.1701 45.3503C91.1975 45.437 91.2363 45.5783 91.2591 45.6786C91.2819 45.779 91.3024 45.893 91.3138 45.9887C91.366 46.3566 91.3926 46.7276 91.3936 47.0991C91.397 47.7843 91.365 48.4692 91.2978 49.1511C91.1705 50.4711 90.9634 51.7822 90.6777 53.0772L89.4259 52.9382C89.41 51.6545 89.3986 50.3572 89.353 49.0918C89.3325 48.4625 89.296 47.831 89.2321 47.2382C89.2032 46.9598 89.1575 46.6834 89.0953 46.4105C89.0839 46.3467 89.0657 46.2988 89.052 46.2464C89.0383 46.1939 89.0247 46.1757 89.0019 46.1073L88.8286 45.6764C88.3521 44.5227 87.8163 43.3599 87.2691 42.2016L85.6138 38.7269L87.8847 37.5801Z" fill="#E4897B"/>
<path d="M89.444 52.5361L88.8604 53.6283L90.7254 54.1481C90.7254 54.1481 91.0811 53.2703 90.657 52.5772L89.444 52.5361Z" fill="#E4897B"/>
<path d="M88.147 55.2021L89.8615 55.3389L90.7257 54.1487L88.8606 53.6289L88.147 55.2021Z" fill="#E4897B"/>
<path d="M80.035 29.7007C80.0099 29.8354 79.9164 29.9291 79.8297 29.9108C79.7431 29.8925 79.6952 29.7715 79.7225 29.6391C79.7499 29.5066 79.8411 29.4107 79.9278 29.429C80.0145 29.4473 80.0646 29.5683 80.035 29.7007Z" fill="#263238"/>
<path d="M79.9303 29.9268C79.6894 30.2998 79.3986 30.6381 79.0659 30.9322C79.1436 31.0148 79.2382 31.0796 79.3434 31.1221C79.4485 31.1646 79.5616 31.1839 79.6748 31.1785L79.9303 29.9268Z" fill="#DE5753"/>
<path d="M80.6685 29.0643C80.6469 29.0637 80.6265 29.0547 80.6115 29.0392C80.546 28.9641 80.4637 28.9056 80.3714 28.8683C80.2791 28.831 80.1793 28.816 80.0801 28.8245C80.0612 28.8247 80.0429 28.8182 80.0283 28.8061C80.0138 28.794 80.004 28.7771 80.0007 28.7585C79.9974 28.7399 80.0009 28.7207 80.0104 28.7043C80.0199 28.688 80.0349 28.6755 80.0528 28.6692C80.1796 28.6532 80.3084 28.6687 80.4278 28.7145C80.5471 28.7603 80.6533 28.835 80.7369 28.9318C80.7516 28.9468 80.7597 28.9669 80.7597 28.9878C80.7597 29.0087 80.7516 29.0288 80.7369 29.0437C80.7278 29.0521 80.7169 29.0583 80.7051 29.0618C80.6932 29.0654 80.6807 29.0662 80.6685 29.0643Z" fill="#263238"/>
<path d="M83.805 31.5635C83.5656 32.7901 83.3262 35.0336 84.1835 35.8522C84.1835 35.8522 83.8483 37.0948 81.5706 37.0948C79.0626 37.0948 80.3759 35.8522 80.3759 35.8522C81.7439 35.5261 81.7051 34.5115 81.468 33.5608L83.805 31.5635Z" fill="#E4897B"/>
<path d="M84.529 36.6242C84.7091 36.0246 84.9075 35.3383 84.4971 35.1217C84.0411 34.8937 81.5627 34.6429 80.7077 35.0875C79.8527 35.5321 80.0967 36.7519 80.0967 36.7519L84.529 36.6242Z" fill="#263238"/>
<path d="M89.7864 93.4822C89.7156 93.4916 89.6436 93.4868 89.5747 93.468C89.5057 93.4491 89.4413 93.4167 89.385 93.3726C89.3652 93.345 89.3545 93.3118 89.3545 93.2778C89.3545 93.2438 89.3652 93.2106 89.385 93.183C89.3981 93.1594 89.416 93.1388 89.4376 93.1226C89.4593 93.1065 89.4841 93.0952 89.5105 93.0894C89.7568 93.0346 90.2174 93.3497 90.2379 93.3634C90.2439 93.3684 90.2484 93.3747 90.2512 93.3819C90.254 93.3891 90.2549 93.3969 90.2539 93.4045C90.2526 93.4119 90.2491 93.4188 90.2438 93.4241C90.2385 93.4294 90.2317 93.4329 90.2243 93.4342C90.0804 93.4653 89.9336 93.4814 89.7864 93.4822ZM89.5766 93.1625H89.5287C89.5133 93.1657 89.4987 93.1722 89.4861 93.1817C89.4735 93.1912 89.4631 93.2033 89.4557 93.2173C89.4192 93.2812 89.442 93.3086 89.4557 93.3178C89.5264 93.4137 89.8685 93.4137 90.1194 93.3726C89.9559 93.2645 89.7705 93.1943 89.5766 93.167V93.1625Z" fill="#333333"/>
<path d="M90.2148 93.4414H90.1965C90.0232 93.3455 89.6879 92.9847 89.7222 92.7929C89.728 92.7633 89.7439 92.7366 89.7672 92.7174C89.7905 92.6983 89.8197 92.6878 89.8499 92.6878C89.8799 92.6846 89.9103 92.6874 89.9393 92.696C89.9683 92.7046 89.9952 92.7189 90.0186 92.7381C90.2125 92.8979 90.2467 93.3821 90.2467 93.4026C90.2476 93.4098 90.2464 93.4172 90.2431 93.4237C90.2399 93.4302 90.2348 93.4356 90.2284 93.4391C90.2241 93.4409 90.2194 93.4417 90.2148 93.4414ZM89.8772 92.7563H89.8681C89.8157 92.7563 89.8111 92.7883 89.8088 92.7975C89.7883 92.9093 90.0027 93.1857 90.1737 93.3158C90.1622 93.1251 90.0939 92.9421 89.9776 92.7906C89.9622 92.7786 89.9446 92.7698 89.9258 92.7647C89.907 92.7596 89.8874 92.7583 89.8681 92.7609L89.8772 92.7563Z" fill="#333333"/>
<path d="M79.729 93.482C79.5147 93.482 79.3071 93.4523 79.2364 93.3564C79.2186 93.331 79.209 93.3007 79.209 93.2696C79.209 93.2385 79.2186 93.2082 79.2364 93.1828C79.2503 93.1594 79.2687 93.139 79.2907 93.1229C79.3126 93.1068 79.3376 93.0953 79.3641 93.0892C79.6401 93.0138 80.2285 93.3472 80.2536 93.3609C80.2603 93.3653 80.2656 93.3715 80.2688 93.3788C80.272 93.3861 80.2731 93.3942 80.2718 93.402C80.2705 93.41 80.2667 93.4174 80.261 93.4232C80.2552 93.4289 80.2479 93.4327 80.2399 93.434C80.0714 93.4658 79.9004 93.4818 79.729 93.482ZM79.4622 93.1577C79.4373 93.1541 79.4119 93.1541 79.387 93.1577C79.3709 93.1609 79.3557 93.1674 79.3423 93.1768C79.329 93.1863 79.3178 93.1984 79.3094 93.2125C79.2798 93.2627 79.2912 93.2856 79.3094 93.2993C79.3847 93.4043 79.8089 93.4112 80.1236 93.3678C79.9185 93.2569 79.6939 93.1871 79.4622 93.1623V93.1577Z" fill="#333333"/>
<path d="M80.2355 93.4413H80.2195C80.0165 93.3522 79.6174 92.9846 79.6471 92.7996C79.6471 92.754 79.6858 92.6991 79.7953 92.6877C79.836 92.6815 79.8776 92.6845 79.917 92.6963C79.9565 92.7082 79.9928 92.7286 80.0234 92.7562C80.2377 92.9298 80.2811 93.3819 80.2834 93.4025C80.2842 93.4094 80.2832 93.4165 80.2804 93.4229C80.2776 93.4294 80.2731 93.4349 80.2674 93.439C80.2625 93.4416 80.2572 93.4432 80.2517 93.4436C80.2462 93.444 80.2406 93.4432 80.2355 93.4413ZM79.8272 92.7562H79.8022C79.7315 92.7562 79.7269 92.7928 79.7246 92.8019C79.7064 92.9161 79.98 93.2015 80.1807 93.3248C80.161 93.133 80.0812 92.9524 79.9527 92.8088C79.9201 92.7806 79.8793 92.7637 79.8364 92.7608L79.8272 92.7562Z" fill="#333333"/>
<path d="M82.078 93.3997H80.4018L80.2354 89.5215H81.9115L82.078 93.3997Z" fill="#E4897B"/>
<path d="M92.1348 93.3997H90.459L89.6177 89.5215H91.2912L92.1348 93.3997Z" fill="#E4897B"/>
<path d="M90.3397 93.2051H92.2207C92.2543 93.2053 92.2868 93.217 92.3129 93.2381C92.339 93.2592 92.3571 93.2886 92.3643 93.3214L92.6949 94.8102C92.7025 94.8464 92.7018 94.8839 92.6928 94.9199C92.6839 94.9558 92.667 94.9893 92.6433 95.0178C92.6196 95.0462 92.5898 95.069 92.5561 95.0844C92.5225 95.0998 92.4857 95.1074 92.4487 95.1066C91.7921 95.0952 91.4729 95.0564 90.6452 95.0564C90.1368 95.0564 89.088 95.1112 88.3835 95.1112C87.6789 95.1112 87.59 94.4272 87.8773 94.3519C89.1678 94.0692 89.6534 93.6793 90.0661 93.31C90.1411 93.2421 90.2386 93.2047 90.3397 93.2051Z" fill="#263238"/>
<path d="M80.4128 93.2051H82.2368C82.2704 93.2053 82.3029 93.217 82.329 93.2381C82.3551 93.2592 82.3732 93.2886 82.3804 93.3214L82.711 94.8102C82.719 94.8461 82.7186 94.8833 82.7101 94.9191C82.7016 94.9549 82.6851 94.9883 82.6619 95.0168C82.6386 95.0453 82.6092 95.0682 82.5759 95.0837C82.5426 95.0993 82.5061 95.1071 82.4694 95.1066C81.8104 95.0952 80.8574 95.0564 80.0275 95.0564C79.0585 95.0564 78.2195 95.1111 77.0817 95.1111C76.3977 95.1111 76.2039 94.4271 76.4912 94.3519C77.8022 94.0646 78.8715 94.035 80.0047 93.3373C80.1254 93.2553 80.267 93.2094 80.4128 93.2051Z" fill="#263238"/>
<path d="M79.6084 38.793C78.2078 38.6844 76.8142 38.4995 75.4337 38.2389C74.7497 38.1067 74.0521 37.9585 73.3589 37.7715C72.6485 37.5897 71.9508 37.3612 71.2705 37.0875C71.0949 37.0146 70.9171 36.9348 70.7415 36.8595C70.5439 36.7621 70.3534 36.6509 70.1715 36.5266C69.8432 36.31 69.5605 36.0843 69.28 35.8609C68.7214 35.4049 68.2039 34.9489 67.684 34.4815C66.6649 33.5376 65.6981 32.5617 64.7656 31.5357L65.6047 30.5986L68.9129 32.9767C69.4579 33.3688 70.0096 33.7542 70.5523 34.1167C70.8213 34.2968 71.0972 34.4655 71.3503 34.6092C71.4561 34.6695 71.5658 34.7228 71.6786 34.7688C71.8131 34.8212 71.9499 34.8736 72.0935 34.9238C73.3258 35.3032 74.586 35.5853 75.8624 35.7674C77.1643 35.9726 78.5095 36.1413 79.8091 36.2781L79.6084 38.793Z" fill="#E4897B"/>
<path d="M87.1819 36.2307C88.7528 36.5909 90.3397 41.1806 90.3397 41.1806L87.1089 43.4993C87.1089 43.4993 86.1969 41.3607 85.3168 39.4911C84.3957 37.5326 85.5768 35.8636 87.1819 36.2307Z" fill="#407BFF"/>
<path d="M87.1819 36.2307C88.7528 36.5909 90.3397 41.1806 90.3397 41.1806L87.1089 43.4993C87.1089 43.4993 86.1969 41.3607 85.3168 39.4911C84.3957 37.5326 85.5768 35.8636 87.1819 36.2307Z" fill="#02A5E2"/>
<path d="M86.2771 38.7383L85.6362 40.1724C86.2999 41.6042 86.9065 43.0224 87.0685 43.4009C87.0457 41.7068 86.7241 39.6047 86.2771 38.7383Z" fill="#407BFF"/>
<path opacity="0.6" d="M86.2771 38.7383L85.6362 40.1724C86.2999 41.6042 86.9065 43.0224 87.0685 43.4009C87.0457 41.7068 86.7241 39.6047 86.2771 38.7383Z" fill="black"/>
<path d="M77.8001 36.3158C77.8001 36.3158 76.0171 38.329 77.6997 50.7938H86.6578C86.7217 49.4258 85.8576 42.7089 87.1822 36.2291C86.192 36.0385 85.1906 35.912 84.184 35.8507C82.9159 35.7776 81.6446 35.7776 80.3765 35.8507C79.5068 35.9383 78.6454 36.0938 77.8001 36.3158Z" fill="#407BFF"/>
<path d="M77.8001 36.3158C77.8001 36.3158 76.0171 38.329 77.6997 50.7938H86.6578C86.7217 49.4258 85.8576 42.7089 87.1822 36.2291C86.192 36.0385 85.1906 35.912 84.184 35.8507C82.9159 35.7776 81.6446 35.7776 80.3765 35.8507C79.5068 35.9383 78.6454 36.0938 77.8001 36.3158Z" fill="#02A5E2"/>
<path d="M77.1365 38.7383C77.0772 39.2102 77.0316 39.7688 77.002 40.4278C77.8866 40.1622 78.7272 39.7673 79.4963 39.2558L77.1365 38.7383Z" fill="#407BFF"/>
<path opacity="0.6" d="M77.1365 38.7383C77.0772 39.2102 77.0316 39.7688 77.002 40.4278C77.8866 40.1622 78.7272 39.7673 79.4963 39.2558L77.1365 38.7383Z" fill="black"/>
<path d="M80.9759 38.9887C79.7766 40.0512 75.1983 39.944 75.1983 39.944L75.0479 35.5117C76.5939 35.7319 78.1534 35.8447 79.715 35.8492C82.2663 35.7967 82.2846 37.8168 80.9759 38.9887Z" fill="#407BFF"/>
<path d="M80.9759 38.9887C79.7766 40.0512 75.1983 39.944 75.1983 39.944L75.0479 35.5117C76.5939 35.7319 78.1534 35.8447 79.715 35.8492C82.2663 35.7967 82.2846 37.8168 80.9759 38.9887Z" fill="#02A5E2"/>
<path d="M65.6482 30.6085L64.5082 29.2656L63.2793 30.6336C63.2793 30.6336 64.0363 31.9059 65.2378 31.7052L65.6482 30.6085Z" fill="#E4897B"/>
<path d="M62.8754 27.6982L62.4331 29.4516L63.2699 30.6235L64.4988 29.2646L62.8754 27.6982Z" fill="#E4897B"/>
<path d="M80.2354 89.5225L80.322 91.5197H81.9982L81.9116 89.5225H80.2354Z" fill="#CE6F64"/>
<path d="M91.2935 89.5225H89.6177L90.0509 91.5197H91.7267L91.2935 89.5225Z" fill="#CE6F64"/>
<path d="M81.2428 28.0448C79.7403 27.3608 79.2661 24.3216 83.589 25.0808C83.589 25.0808 82.9369 25.8013 84.2593 26.2573C85.5817 26.7133 84.4759 29.5291 81.2428 28.0448Z" fill="#263238"/>
<path d="M84.5076 30.3263C84.0767 31.9223 83.908 32.8935 82.9116 33.5616C81.4205 34.5648 79.5668 33.4134 79.5076 31.7102C79.4551 30.1803 80.1688 27.8114 81.8902 27.4877C82.2701 27.4132 82.6629 27.4372 83.0309 27.5576C83.3989 27.678 83.7299 27.8907 83.9924 28.1753C84.2548 28.46 84.44 28.8071 84.5302 29.1837C84.6204 29.5602 84.6126 29.9536 84.5076 30.3263Z" fill="#E4897B"/>
<path d="M83.5298 25.879C84.5535 26.449 85.9398 26.791 85.8098 27.6027C85.6388 28.5945 86.6466 27.9743 86.4117 29.4495C86.259 30.4139 84.4806 33.3368 83.2197 33.1955C81.3365 32.9675 81.5759 30.1038 81.569 28.5945C81.5645 27.703 81.5234 24.7549 83.5298 25.879Z" fill="#263238"/>
<path d="M81.3435 27.1582C80.8875 27.2654 80.2833 29.8942 82.0502 30.1359C84.0817 30.4118 81.3435 27.1582 81.3435 27.1582Z" fill="#263238"/>
<path d="M81.3895 28.0908C80.8307 28.141 79.565 27.4684 79.7201 26.4561C79.7201 26.4492 80.5206 27.6394 81.3895 28.0908Z" fill="#263238"/>
<path d="M82.2187 30.3461C82.0472 30.722 81.7562 31.0307 81.3909 31.2239C80.9097 31.4747 80.6383 31.1099 80.7478 30.6266C80.8458 30.1934 81.2153 29.539 81.7102 29.4866C82.205 29.4341 82.4171 29.8901 82.2187 30.3461Z" fill="#E4897B"/>
<path d="M84.7266 28.5013C85.0674 28.3535 85.3662 28.1234 85.5963 27.8317C85.8263 27.5401 85.9804 27.1959 86.0448 26.8301C86.0448 26.8301 86.7974 28.9208 84.7266 28.5013Z" fill="#263238"/>
<path d="M86.6287 28.4676C86.47 28.3609 86.2874 28.2952 86.0971 28.2765C85.9069 28.2577 85.715 28.2865 85.5386 28.3603C85.5386 28.3603 86.241 27.4492 86.6287 28.4676Z" fill="#263238"/>
<path d="M80.8784 50.7953C80.8784 50.7953 82.7799 63.5952 83.8219 68.39C84.9619 73.634 89.2711 91.1353 89.2711 91.1353H92.3377C92.3377 91.1353 89.4991 74.0649 88.847 68.8574C88.1402 63.2144 86.6582 50.7861 86.6582 50.7861L80.8784 50.7953Z" fill="#407BFF"/>
<path d="M80.8784 50.7953C80.8784 50.7953 82.7799 63.5952 83.8219 68.39C84.9619 73.634 89.2711 91.1353 89.2711 91.1353H92.3377C92.3377 91.1353 89.4991 74.0649 88.847 68.8574C88.1402 63.2144 86.6582 50.7861 86.6582 50.7861L80.8784 50.7953Z" fill="#333333"/>
<path d="M88.7812 90.0039C88.7675 90.0039 89.0981 91.1827 89.0981 91.1827H92.55L92.4862 90.1316L88.7812 90.0039Z" fill="#407BFF"/>
<path d="M88.7812 90.0039C88.7675 90.0039 89.0981 91.1827 89.0981 91.1827H92.55L92.4862 90.1316L88.7812 90.0039Z" fill="#BFC6CC"/>
<path d="M82.0802 55.3559C84.2781 55.7868 84.0456 63.9834 83.7811 68.1991C83.1473 65.2192 82.2193 59.4849 81.5854 55.4151C81.7388 55.3396 81.9134 55.3187 82.0802 55.3559Z" fill="#407BFF"/>
<path d="M82.0802 55.3559C84.2781 55.7868 84.0456 63.9834 83.7811 68.1991C83.1473 65.2192 82.2193 59.4849 81.5854 55.4151C81.7388 55.3396 81.9134 55.3187 82.0802 55.3559Z" fill="#333333"/>
<path d="M77.6997 50.7949C77.6997 50.7949 77.4717 63.3167 77.6518 68.4262C77.841 73.7386 79.7038 91.135 79.7038 91.135H82.5401C82.5401 91.135 82.645 74.0486 82.7681 68.832C82.9072 63.1434 83.5935 50.7949 83.5935 50.7949H77.6997Z" fill="#407BFF"/>
<path d="M77.6997 50.7949C77.6997 50.7949 77.4717 63.3167 77.6518 68.4262C77.841 73.7386 79.7038 91.135 79.7038 91.135H82.5401C82.5401 91.135 82.645 74.0486 82.7681 68.832C82.9072 63.1434 83.5935 50.7949 83.5935 50.7949H77.6997Z" fill="#333333"/>
<path d="M80.2927 89.0974C80.2858 89.0974 80.2792 89.0948 80.2741 89.0902C80.2691 89.0856 80.2659 89.0792 80.2654 89.0723C79.7638 84.257 78.585 72.6061 78.4413 68.4269C78.2886 64.161 78.4277 54.5896 78.4733 51.7578C78.4733 51.7506 78.4761 51.7436 78.4813 51.7385C78.4864 51.7334 78.4934 51.7305 78.5006 51.7305C78.5081 51.7304 78.5153 51.7333 78.5208 51.7383C78.5263 51.7434 78.5297 51.7504 78.5303 51.7578C78.4847 54.5896 78.3456 64.161 78.4983 68.4246C78.6465 72.6039 79.8253 84.2501 80.3224 89.0655C80.3224 89.0732 80.3197 89.0807 80.3147 89.0866C80.3097 89.0924 80.3027 89.0963 80.295 89.0974H80.2927Z" fill="#407BFF"/>
<path opacity="0.4" d="M80.2927 89.0974C80.2858 89.0974 80.2792 89.0948 80.2741 89.0902C80.2691 89.0856 80.2659 89.0792 80.2654 89.0723C79.7638 84.257 78.585 72.6061 78.4413 68.4269C78.2886 64.161 78.4277 54.5896 78.4733 51.7578C78.4733 51.7506 78.4761 51.7436 78.4813 51.7385C78.4864 51.7334 78.4934 51.7305 78.5006 51.7305C78.5081 51.7304 78.5153 51.7333 78.5208 51.7383C78.5263 51.7434 78.5297 51.7504 78.5303 51.7578C78.4847 54.5896 78.3456 64.161 78.4983 68.4246C78.6465 72.6039 79.8253 84.2501 80.3224 89.0655C80.3224 89.0732 80.3197 89.0807 80.3147 89.0866C80.3097 89.0924 80.3027 89.0963 80.295 89.0974H80.2927Z" fill="white"/>
<path d="M79.1519 90.0039C79.1405 90.0039 79.3138 91.1827 79.3138 91.1827H82.7634L82.8569 90.1316L79.1519 90.0039Z" fill="#407BFF"/>
<path d="M79.1519 90.0039C79.1405 90.0039 79.3138 91.1827 79.3138 91.1827H82.7634L82.8569 90.1316L79.1519 90.0039Z" fill="#BFC6CC"/>
</svg>
