<svg width="381" height="281" viewBox="0 0 381 281" fill="none" xmlns="http://www.w3.org/2000/svg">
<g clip-path="url(#clip0_1065_6055)">
<path d="M254.08 233.06C254.08 233.06 286.86 231.01 309.4 190.72C331.94 150.43 327.84 88.9996 299.84 54.8096C271.84 20.6196 228.13 9.04958 186.47 19.9996C166.17 25.2996 152.63 39.1096 140.93 55.7496C130.74 70.2496 119.29 84.2296 103.86 93.4096C88.5902 102.5 72.8902 109.74 65.1802 127C46.4102 169 60.1202 217.93 104.51 234.42C152.32 252.18 232.23 242.62 254.08 233.06Z" fill="#EBF9FF"/>
<path opacity="0.7" d="M254.08 233.06C254.08 233.06 286.86 231.01 309.4 190.72C331.94 150.43 327.84 88.9996 299.84 54.8096C271.84 20.6196 228.13 9.04958 186.47 19.9996C166.17 25.2996 152.63 39.1096 140.93 55.7496C130.74 70.2496 119.29 84.2296 103.86 93.4096C88.5902 102.5 72.8902 109.74 65.1802 127C46.4102 169 60.1202 217.93 104.51 234.42C152.32 252.18 232.23 242.62 254.08 233.06Z" fill="#EBF9FF"/>
<path d="M194.78 264.86C259.215 264.86 311.45 260.275 311.45 254.62C311.45 248.964 259.215 244.38 194.78 244.38C130.345 244.38 78.1099 248.964 78.1099 254.62C78.1099 260.275 130.345 264.86 194.78 264.86Z" fill="#88AEBC"/>
<path opacity="0.5" d="M194.78 264.86C259.215 264.86 311.45 260.275 311.45 254.62C311.45 248.964 259.215 244.38 194.78 244.38C130.345 244.38 78.1099 248.964 78.1099 254.62C78.1099 260.275 130.345 264.86 194.78 264.86Z" fill="#88AEBC"/>
<path d="M75.8003 123.3V129.36" stroke="#263238" stroke-linecap="round" stroke-linejoin="round"/>
<path d="M78.8303 126.329H72.7803" stroke="#263238" stroke-linecap="round" stroke-linejoin="round"/>
<path d="M282.52 71.3896V77.4496" stroke="#263238" stroke-linecap="round" stroke-linejoin="round"/>
<path d="M285.55 74.4199H279.49" stroke="#263238" stroke-linecap="round" stroke-linejoin="round"/>
<path d="M196.46 24.5V30.55" stroke="#263238" stroke-linecap="round" stroke-linejoin="round"/>
<path d="M199.49 27.5195H193.43" stroke="#263238" stroke-linecap="round" stroke-linejoin="round"/>
<path d="M96.75 191.14V197.2" stroke="#263238" stroke-linecap="round" stroke-linejoin="round"/>
<path d="M99.7802 194.17H93.7202" stroke="#263238" stroke-linecap="round" stroke-linejoin="round"/>
<path d="M279.81 49.5596C279.81 50.5485 279.517 51.5152 278.967 52.3374C278.418 53.1597 277.637 53.8005 276.723 54.179C275.81 54.5574 274.805 54.6564 273.835 54.4635C272.865 54.2706 271.974 53.7944 271.275 53.0951C270.575 52.3958 270.099 51.5049 269.906 50.535C269.713 49.5651 269.812 48.5598 270.191 47.6462C270.569 46.7325 271.21 45.9516 272.032 45.4022C272.854 44.8528 273.821 44.5596 274.81 44.5596C276.136 44.5596 277.408 45.0864 278.346 46.024C279.283 46.9617 279.81 48.2335 279.81 49.5596Z" stroke="#263238" stroke-linecap="round" stroke-linejoin="round"/>
<path d="M65.4504 169.841C68.0068 168.782 69.2207 165.851 68.1618 163.295C67.103 160.739 64.1723 159.525 61.6159 160.584C59.0596 161.643 57.8457 164.573 58.9046 167.13C59.9634 169.686 62.8941 170.9 65.4504 169.841Z" stroke="#263238" stroke-linecap="round" stroke-linejoin="round"/>
<path d="M302.57 100.78C302.57 101.005 302.503 101.226 302.378 101.413C302.253 101.6 302.075 101.747 301.866 101.833C301.658 101.919 301.429 101.942 301.208 101.898C300.986 101.854 300.783 101.745 300.624 101.586C300.465 101.426 300.356 101.223 300.312 101.002C300.268 100.781 300.291 100.552 300.377 100.343C300.463 100.135 300.609 99.957 300.797 99.8318C300.984 99.7065 301.205 99.6396 301.43 99.6396C301.732 99.6396 302.022 99.7598 302.236 99.9735C302.45 100.187 302.57 100.477 302.57 100.78Z" stroke="#263238" stroke-linecap="round" stroke-linejoin="round"/>
<path d="M128.87 84.39C128.87 84.6155 128.803 84.8359 128.678 85.0234C128.552 85.2108 128.374 85.3569 128.166 85.4432C127.958 85.5295 127.729 85.5521 127.507 85.5081C127.286 85.4641 127.083 85.3555 126.924 85.1961C126.764 85.0367 126.656 84.8335 126.612 84.6124C126.568 84.3913 126.59 84.1621 126.677 83.9537C126.763 83.7454 126.909 83.5674 127.096 83.4421C127.284 83.3169 127.504 83.25 127.73 83.25C128.032 83.25 128.322 83.3701 128.536 83.5839C128.75 83.7977 128.87 84.0877 128.87 84.39Z" stroke="#263238" stroke-linecap="round" stroke-linejoin="round"/>
<path d="M320.28 151.549C319.28 151.459 309.5 150.609 300.53 155.269C304.494 150.295 306.321 143.95 305.61 137.629C303.45 115.979 283.02 103.629 281.45 102.629V102.579H281.4V102.629C279.82 103.559 259.4 115.949 257.23 137.629C256.743 141.803 257.353 146.033 259 149.899C247.5 143.019 234.08 144.179 232.85 144.299C232.24 145.699 224.57 164.159 233.79 179.849C242.04 193.849 259.34 190.169 264.03 188.849C268.03 192.999 275.18 202.429 278.36 218.539H273.87L276 249.099H286L288.16 218.589H282.88C285.302 207.674 289.664 197.282 295.76 187.909C300.47 189.079 313.2 191.059 319.47 180.389C327 167.659 320.77 152.689 320.28 151.549ZM281 151.429L270.34 136.629C270.297 136.567 270.28 136.49 270.293 136.415C270.306 136.34 270.348 136.273 270.41 136.229C270.472 136.187 270.548 136.17 270.622 136.182C270.696 136.193 270.763 136.231 270.81 136.289L281.02 150.459V135.459L270.36 120.659C270.316 120.595 270.299 120.516 270.312 120.44C270.325 120.364 270.368 120.295 270.43 120.249C270.492 120.206 270.569 120.189 270.644 120.202C270.719 120.215 270.786 120.257 270.83 120.319L281.04 134.489V112.709C281.04 112.632 281.07 112.558 281.125 112.504C281.179 112.45 281.253 112.419 281.33 112.419C281.407 112.419 281.481 112.45 281.535 112.504C281.589 112.558 281.62 112.632 281.62 112.709V133.799L292.68 119.799C292.734 119.745 292.808 119.714 292.885 119.714C292.962 119.714 293.036 119.745 293.09 119.799C293.149 119.848 293.187 119.918 293.197 119.994C293.206 120.07 293.186 120.147 293.14 120.209L281.62 134.819V149.819L292.68 135.819C292.729 135.765 292.796 135.731 292.868 135.724C292.941 135.718 293.013 135.738 293.071 135.782C293.129 135.826 293.168 135.891 293.181 135.962C293.194 136.034 293.179 136.108 293.14 136.169L281.62 150.779V163.469L292.68 149.469C292.737 149.419 292.809 149.392 292.885 149.392C292.96 149.392 293.033 149.419 293.09 149.469C293.149 149.518 293.187 149.588 293.197 149.664C293.206 149.74 293.186 149.817 293.14 149.879L281.62 164.489V164.769H280.67L270.36 150.449C270.317 150.387 270.3 150.31 270.313 150.235C270.326 150.16 270.368 150.093 270.43 150.049C270.46 150.026 270.494 150.009 270.531 150C270.567 149.99 270.605 149.988 270.643 149.994C270.68 149.999 270.716 150.012 270.748 150.032C270.78 150.052 270.808 150.078 270.83 150.109L281.04 164.279V151.409L281 151.429ZM264.1 187.559L263.1 186.119L248.1 181.939C248.038 181.922 247.985 181.881 247.953 181.824C247.921 181.768 247.913 181.701 247.93 181.639C247.947 181.577 247.988 181.524 248.045 181.492C248.101 181.46 248.168 181.452 248.23 181.469L262.63 185.469L256.37 176.899L241.37 172.719C241.339 172.712 241.31 172.699 241.285 172.68C241.259 172.662 241.238 172.638 241.222 172.611C241.206 172.584 241.196 172.554 241.192 172.522C241.188 172.491 241.191 172.459 241.2 172.429C241.208 172.398 241.222 172.369 241.242 172.343C241.261 172.318 241.286 172.296 241.314 172.281C241.342 172.265 241.373 172.255 241.405 172.251C241.437 172.247 241.469 172.25 241.5 172.259L255.9 176.259L248.49 166.129L233.49 161.949C233.428 161.93 233.377 161.889 233.345 161.833C233.313 161.777 233.304 161.711 233.32 161.649C233.339 161.588 233.38 161.536 233.436 161.504C233.492 161.472 233.558 161.463 233.62 161.479L248.02 165.479L237.61 151.229C237.581 151.204 237.558 151.173 237.543 151.138C237.528 151.102 237.522 151.064 237.525 151.025C237.528 150.987 237.541 150.95 237.561 150.918C237.582 150.885 237.609 150.858 237.643 150.839C237.676 150.819 237.713 150.808 237.751 150.806C237.789 150.804 237.828 150.811 237.863 150.826C237.898 150.842 237.928 150.866 237.952 150.896C237.976 150.926 237.993 150.961 238 150.999L248.77 165.729L248.67 151.129C248.667 151.096 248.671 151.063 248.682 151.032C248.693 151.002 248.71 150.973 248.733 150.95C248.756 150.926 248.783 150.907 248.814 150.895C248.844 150.883 248.877 150.878 248.91 150.879C248.941 150.879 248.973 150.885 249.002 150.897C249.031 150.909 249.057 150.927 249.08 150.949C249.102 150.972 249.12 150.998 249.132 151.027C249.144 151.056 249.15 151.088 249.15 151.119L249.26 166.379L256.66 176.509L256.55 161.899C256.55 161.835 256.575 161.774 256.62 161.729C256.665 161.684 256.726 161.659 256.79 161.659C256.823 161.656 256.856 161.66 256.887 161.671C256.917 161.682 256.946 161.7 256.969 161.722C256.993 161.745 257.012 161.773 257.024 161.803C257.036 161.834 257.041 161.866 257.04 161.899L257.15 177.149L263.41 185.709L263.31 171.109C263.307 171.076 263.311 171.043 263.322 171.012C263.333 170.982 263.35 170.953 263.373 170.93C263.396 170.906 263.423 170.887 263.454 170.875C263.484 170.863 263.517 170.858 263.55 170.859C263.614 170.859 263.675 170.884 263.72 170.929C263.765 170.974 263.79 171.035 263.79 171.099L263.9 186.359L264.79 187.589L264.1 187.559ZM265.81 187.559C268 184.229 274.3 173.309 270.54 162.799C273.467 164.732 276.6 166.335 279.88 167.579V214.999C276.42 200.469 269.88 191.759 265.93 187.559H265.81ZM282.2 212.079V167.799C285.324 166.662 288.32 165.2 291.14 163.439C285.14 173.089 291.86 184.219 293.64 186.849C288.586 194.64 284.73 203.144 282.2 212.079ZM319.71 165.849L307.54 169.249L301.54 177.469L313.22 174.209C313.245 174.202 313.271 174.199 313.297 174.202C313.323 174.205 313.348 174.214 313.37 174.227C313.393 174.24 313.412 174.258 313.428 174.279C313.443 174.3 313.454 174.324 313.46 174.349C313.473 174.398 313.466 174.45 313.442 174.495C313.418 174.539 313.378 174.573 313.33 174.589L301.16 177.999L296.08 184.999L307.77 181.739C307.816 181.736 307.862 181.749 307.9 181.776C307.938 181.803 307.965 181.843 307.977 181.888C307.989 181.933 307.985 181.98 307.965 182.023C307.946 182.065 307.912 182.099 307.87 182.119L295.71 185.509L295.07 186.389L294.73 186.179L295.09 185.679L295.17 173.299C295.17 173.246 295.191 173.195 295.228 173.158C295.266 173.12 295.317 173.099 295.37 173.099C295.423 173.099 295.474 173.12 295.511 173.158C295.549 173.195 295.57 173.246 295.57 173.299L295.48 185.149L300.56 178.209L300.65 165.829C300.65 165.776 300.671 165.725 300.708 165.688C300.746 165.65 300.797 165.629 300.85 165.629C300.876 165.629 300.901 165.634 300.925 165.644C300.949 165.655 300.97 165.67 300.988 165.688C301.006 165.707 301.019 165.729 301.028 165.753C301.037 165.778 301.041 165.803 301.04 165.829L300.96 177.679L306.96 169.469L307.05 157.099C307.05 157.046 307.071 156.995 307.108 156.958C307.146 156.92 307.197 156.899 307.25 156.899C307.303 156.899 307.354 156.92 307.391 156.958C307.429 156.995 307.45 157.046 307.45 157.099L307.36 168.949L316.1 156.949C316.137 156.912 316.188 156.892 316.24 156.892C316.292 156.892 316.343 156.912 316.38 156.949C316.414 156.986 316.432 157.034 316.432 157.084C316.432 157.134 316.414 157.182 316.38 157.219L307.93 168.779L319.61 165.529C319.634 165.522 319.66 165.52 319.685 165.522C319.71 165.525 319.735 165.532 319.757 165.544C319.779 165.556 319.799 165.573 319.815 165.592C319.831 165.612 319.843 165.635 319.85 165.659C319.857 165.683 319.86 165.709 319.857 165.734C319.854 165.759 319.847 165.784 319.835 165.806C319.823 165.828 319.806 165.848 319.787 165.864C319.767 165.88 319.744 165.892 319.72 165.899L319.71 165.849Z" fill="#263238"/>
<path d="M244.79 249.249L198.57 203.999C198.035 203.481 197.402 203.075 196.708 202.804C196.014 202.533 195.273 202.403 194.528 202.422C193.783 202.44 193.05 202.607 192.37 202.912C191.691 203.217 191.079 203.655 190.57 204.199L149.25 248.839C145.9 252.459 139.7 250.249 139.62 245.319V57.6391C139.62 56.0147 139.941 54.4063 140.563 52.906C141.186 51.4057 142.098 50.0429 143.248 48.8957C144.398 47.7485 145.763 46.8394 147.265 46.2206C148.767 45.6017 150.376 45.2852 152 45.2891H242C243.621 45.2891 245.227 45.6086 246.725 46.2294C248.223 46.8501 249.583 47.76 250.729 48.9069C251.875 50.0539 252.784 51.4154 253.404 52.9137C254.023 54.412 254.341 56.0177 254.34 57.6391V245.209C254.341 245.642 254.301 246.074 254.22 246.499C254.012 247.486 253.541 248.398 252.855 249.137C252.17 249.877 251.297 250.417 250.329 250.699C249.361 250.981 248.334 250.996 247.359 250.74C246.384 250.485 245.496 249.969 244.79 249.249Z" fill="#08B7F9"/>
<path d="M244.79 249.249L198.57 203.999C198.035 203.481 197.402 203.075 196.708 202.804C196.014 202.533 195.273 202.403 194.528 202.422C193.783 202.44 193.05 202.607 192.37 202.912C191.691 203.217 191.079 203.655 190.57 204.199L149.25 248.839C145.9 252.459 139.7 250.249 139.62 245.319V57.6391C139.62 56.0147 139.941 54.4063 140.563 52.906C141.186 51.4057 142.098 50.0429 143.248 48.8957C144.398 47.7485 145.763 46.8394 147.265 46.2206C148.767 45.6017 150.376 45.2852 152 45.2891H242C243.621 45.2891 245.227 45.6086 246.725 46.2294C248.223 46.8501 249.583 47.76 250.729 48.9069C251.875 50.0539 252.784 51.4154 253.404 52.9137C254.023 54.412 254.341 56.0177 254.34 57.6391V245.209C254.341 245.642 254.301 246.074 254.22 246.499C254.012 247.486 253.541 248.398 252.855 249.137C252.17 249.877 251.297 250.417 250.329 250.699C249.361 250.981 248.334 250.996 247.359 250.74C246.384 250.485 245.496 249.969 244.79 249.249V249.249Z" stroke="black" stroke-miterlimit="10"/>
<path d="M111.05 169L102.12 248.9C102.12 248.9 95.5702 254.6 96.1202 256.9C96.6702 259.2 104.26 255.55 105.3 253.63C106.041 252.04 106.569 250.359 106.87 248.63L125.7 188.61L140.17 253.06C140.17 253.06 146.35 258.11 149.76 257.93C153.17 257.75 151.96 256.42 150.02 253.93C148.08 251.44 143.66 250.05 143.66 250.05L141.49 167L111.05 169Z" fill="#263238" stroke="#263238" stroke-linecap="round" stroke-linejoin="round"/>
<path d="M140.965 165.606L110.954 167.132L111.162 171.227L141.173 169.701L140.965 165.606Z" fill="#263238" stroke="#263238" stroke-linecap="round" stroke-linejoin="round"/>
<path d="M129.57 168.2C129.62 169.2 128.33 170.11 126.68 170.2C125.03 170.29 123.68 169.53 123.6 168.52C123.52 167.51 124.85 166.61 126.49 166.52C128.13 166.43 129.52 167.19 129.57 168.2Z" fill="white"/>
<path d="M124.43 126.21L113.15 129.52L114.55 167.23L141.02 166.57L137.67 127.59L124.43 126.21Z" fill="white" stroke="#263238" stroke-linecap="round" stroke-linejoin="round"/>
<path d="M119.5 126.63L117.98 190.99L103.61 184.03L109.93 163.71L105.62 129.39L119.5 126.63Z" fill="#08B7F9" stroke="black" stroke-linecap="round" stroke-linejoin="round"/>
<path d="M130.92 126.05L138.95 189.93L152.55 181.54L144.2 161.97L145.01 127.39L130.92 126.05Z" fill="#08B7F9" stroke="black" stroke-linecap="round" stroke-linejoin="round"/>
<path d="M122.37 133.84L124.61 137.49L122.82 162.88L127.06 167.91L129.27 161.87L125.86 137.54L127.97 134.01L124.92 130.06L122.37 133.84Z" fill="#263238" stroke="#263238" stroke-linecap="round" stroke-linejoin="round"/>
<path d="M125.14 133.36L120.91 136.53L117.53 128.27L119.43 125.33L129.78 124.8L132.22 128.1L130.21 135.61L125.14 133.36Z" fill="white" stroke="#263238" stroke-linecap="round" stroke-linejoin="round"/>
<path d="M120.3 122.149L121.25 127.399L125.14 133.359L128.71 126.339L128.49 121.899L120.3 122.149Z" fill="white" stroke="#263238" stroke-linecap="round" stroke-linejoin="round"/>
<path d="M105.62 129.39L86.4502 152.59L99.1902 167.67L104.32 164.33L98.0202 151.49L107.42 144.69L105.62 129.39Z" fill="#08B7F9" stroke="black" stroke-linecap="round" stroke-linejoin="round"/>
<path d="M104.32 164.329L105.09 165.999L100.77 168.449L100.18 167.109L104.32 164.329Z" fill="white" stroke="#263238" stroke-linecap="round" stroke-linejoin="round"/>
<path d="M105.09 166L109.48 171.76L108 173.55L107 173.09L104.87 174.91C104.87 174.91 103.31 174.47 103.12 173.97C102.93 173.47 100.8 172.21 100.76 171.35C100.72 170.49 100.76 168.45 100.76 168.45L105.09 166Z" fill="white" stroke="#263238" stroke-linecap="round" stroke-linejoin="round"/>
<path d="M155.68 131.92C155.942 131.241 156.001 130.501 155.85 129.79C155.33 128.326 155.036 126.792 154.98 125.24C155.11 124.31 156.51 122.95 156.64 121.75C156.77 120.55 156.64 119.45 156.64 118.75C156.64 118.05 157.5 117.61 158.19 118.4C158.533 118.694 158.788 119.078 158.924 119.509C159.06 119.941 159.072 120.401 158.96 120.84C158.731 121.779 158.624 122.743 158.64 123.71C158.64 123.71 159.73 125.22 160.33 126.2C160.881 127.672 160.93 129.286 160.47 130.79C160.098 131.556 159.57 132.238 158.92 132.79L158.99 134.58L155.68 131.92Z" fill="white" stroke="#263238" stroke-linecap="round" stroke-linejoin="round"/>
<path d="M157.68 122.34C157.68 122.34 157.2 123.74 158.04 124.07C158.88 124.4 162.32 124.86 162.35 123.76C162.38 122.66 162.45 122.1 161.9 122.13C161.35 122.16 158.77 122.13 158.77 122.13C158.77 122.13 157.57 122.07 157.68 122.34Z" fill="white" stroke="#263238" stroke-linecap="round" stroke-linejoin="round"/>
<path d="M158.07 129.219C158.07 129.219 157.73 130.219 158.34 130.509C158.95 130.799 161.41 131.109 161.44 130.279C161.47 129.449 161.51 129.049 161.11 129.069C160.71 129.089 158.86 129.069 158.86 129.069C158.86 129.069 158 128.999 158.07 129.219Z" fill="white" stroke="#263238" stroke-linecap="round" stroke-linejoin="round"/>
<path d="M157.61 127C157.61 127 157.21 128.21 157.92 128.49C158.63 128.77 161.48 129.18 161.51 128.23C161.54 127.28 161.59 126.8 161.13 126.82C160.67 126.84 158.52 126.82 158.52 126.82C158.52 126.82 157.52 126.77 157.61 127Z" fill="white" stroke="#263238" stroke-linecap="round" stroke-linejoin="round"/>
<path d="M157.35 124.84C157.35 124.84 156.87 126.25 157.71 126.57C158.55 126.89 161.98 127.37 162.02 126.26C162.06 125.15 162.12 124.6 161.57 124.63C161.02 124.66 158.44 124.63 158.44 124.63C158.44 124.63 157.24 124.57 157.35 124.84Z" fill="white" stroke="#263238" stroke-linecap="round" stroke-linejoin="round"/>
<path d="M155.29 133.32L155.83 131.17L159.53 133.38L158.91 135.71L155.29 133.32Z" fill="white" stroke="#263238" stroke-linecap="round" stroke-linejoin="round"/>
<path d="M145 127.39L152.09 142.47L155.57 132.77L159 136L155.5 154C155.393 154.555 155.125 155.066 154.73 155.471C154.335 155.875 153.83 156.155 153.277 156.275C152.725 156.395 152.149 156.351 151.622 156.147C151.094 155.944 150.638 155.59 150.31 155.13L144.65 147.23L145 127.39Z" fill="#08B7F9" stroke="black" stroke-linecap="round" stroke-linejoin="round"/>
<path d="M117 115.999C117 115.999 115.57 114.479 115.38 115.589C115.31 116.271 115.39 116.96 115.615 117.608C115.839 118.256 116.203 118.847 116.68 119.339C117.58 120.029 118.38 118.889 118.38 118.889L117 115.999Z" fill="white" stroke="#263238" stroke-linecap="round" stroke-linejoin="round"/>
<path d="M130.55 115.32C130.55 115.32 131.82 113.66 132.12 114.75C132.257 115.421 132.246 116.113 132.089 116.78C131.932 117.446 131.632 118.071 131.21 118.61C130.39 119.39 129.47 118.33 129.47 118.33L130.55 115.32Z" fill="white" stroke="#263238" stroke-linecap="round" stroke-linejoin="round"/>
<path d="M117.57 117.579L116.19 114.699C115.103 113.146 114.357 111.381 114 109.519C113.34 106.359 114.44 103.719 115.88 102.909C116.686 102.43 117.634 102.25 118.56 102.399C118.56 102.399 118.83 100.539 123.3 98.9591C127.77 97.3791 132.71 100.209 132.64 101.199C132.57 102.189 131.36 102.609 131.36 102.609C131.36 102.609 134.87 103.909 133.6 105.609C132.803 106.625 131.774 107.434 130.6 107.969C130.852 108.807 131.059 109.659 131.22 110.519C131.4 111.619 130.41 116.339 130.41 116.339L128 109.669L120.39 110.059C120.39 110.059 119.94 113.279 119.14 114.429C118.62 115.298 118.331 116.286 118.3 117.299C118.3 117.299 118 118.549 117.57 117.579Z" fill="#263238" stroke="#263238" stroke-linecap="round" stroke-linejoin="round"/>
<path d="M118.92 105.579C118.908 107.563 118.764 109.544 118.49 111.509C118.329 112.603 117.766 113.598 116.91 114.299C117.408 116.666 118.142 118.978 119.1 121.199C120.33 123.589 122.89 125.549 125.46 125.299C128.03 125.049 130.1 122.109 130.34 119.639C130.58 117.169 129.34 107.999 129.34 107.999C129.34 107.999 121.33 109.399 118.92 105.579Z" fill="white" stroke="#263238" stroke-linecap="round" stroke-linejoin="round"/>
<path d="M119.6 114.82C120.012 114.582 120.474 114.445 120.948 114.421C121.423 114.397 121.896 114.485 122.33 114.68" stroke="#263238" stroke-linecap="round" stroke-linejoin="round"/>
<path d="M119.5 112.769C119.5 112.769 119.65 111.399 121.93 111.279" stroke="#263238" stroke-linecap="round" stroke-linejoin="round"/>
<path d="M125.57 110.999C126.085 110.788 126.655 110.747 127.195 110.884C127.735 111.021 128.217 111.328 128.57 111.759" stroke="#263238" stroke-linecap="round" stroke-linejoin="round"/>
<path d="M124.77 113.189C124.77 113.189 125.13 115.909 125.15 116.249C125.17 116.589 126.31 116.649 126 117.349C125.69 118.049 124.71 118.779 123.88 118.259" stroke="#263238" stroke-linecap="round" stroke-linejoin="round"/>
<path d="M126.05 120.54C125.672 120.81 125.224 120.966 124.759 120.989C124.295 121.012 123.834 120.901 123.43 120.67" stroke="#263238" stroke-linecap="round" stroke-linejoin="round"/>
<path d="M127.78 114.059C127.78 114.569 127.57 114.989 127.25 114.999C126.93 115.009 126.66 114.629 126.64 114.119C126.62 113.609 126.85 113.199 127.16 113.179C127.47 113.159 127.75 113.559 127.78 114.059Z" fill="#263238"/>
<path d="M199.2 68.6795L206.65 83.5295C206.831 83.8925 207.098 84.206 207.427 84.4429C207.756 84.6799 208.138 84.8331 208.54 84.8895L225.13 87.2695C225.597 87.3343 226.037 87.5295 226.398 87.8327C226.759 88.1359 227.028 88.5347 227.173 88.9836C227.318 89.4325 227.334 89.9131 227.218 90.3705C227.103 90.8279 226.861 91.2434 226.52 91.5695L214.56 102.999C214.265 103.285 214.044 103.639 213.917 104.029C213.79 104.419 213.76 104.835 213.83 105.239L216.66 121.469C216.739 121.93 216.688 122.404 216.513 122.838C216.338 123.272 216.046 123.648 215.669 123.925C215.292 124.202 214.846 124.369 214.38 124.407C213.914 124.445 213.446 124.352 213.03 124.139L198.11 116.419C197.752 116.237 197.356 116.142 196.955 116.142C196.553 116.142 196.157 116.237 195.8 116.419L180.89 124.139C180.473 124.352 180.006 124.445 179.54 124.407C179.074 124.369 178.627 124.202 178.25 123.925C177.874 123.648 177.582 123.272 177.407 122.838C177.232 122.404 177.181 121.93 177.26 121.469L180.09 105.239C180.16 104.834 180.13 104.417 180.001 104.027C179.872 103.636 179.648 103.283 179.35 102.999L167.4 91.5695C167.059 91.244 166.817 90.8293 166.701 90.3727C166.585 89.9161 166.6 89.436 166.744 88.9874C166.888 88.5388 167.155 88.1398 167.515 87.836C167.875 87.5322 168.313 87.3358 168.78 87.2695L185.37 84.8895C185.772 84.8348 186.155 84.6822 186.484 84.4451C186.814 84.2079 187.08 83.8935 187.26 83.5295L194.71 68.6795C194.918 68.2625 195.239 67.9119 195.635 67.6669C196.032 67.4218 196.489 67.292 196.955 67.292C197.421 67.292 197.878 67.4218 198.274 67.6669C198.671 67.9119 198.991 68.2625 199.2 68.6795Z" fill="#F5FDFF" stroke="black" stroke-miterlimit="10"/>
</g>
<defs>
<clipPath id="clip0_1065_6055">
<rect width="266.92" height="248.86" fill="white" transform="translate(57 16)"/>
</clipPath>
</defs>
</svg>
