<svg width="18" height="18" viewBox="0 0 18 18" fill="none" xmlns="http://www.w3.org/2000/svg">
<path fill-rule="evenodd" clip-rule="evenodd" d="M9.00008 17.3327C4.39758 17.3327 0.666748 13.6018 0.666748 8.99935C0.666748 4.39685 4.39758 0.666016 9.00008 0.666016C13.6026 0.666016 17.3334 4.39685 17.3334 8.99935C17.3334 13.6018 13.6026 17.3327 9.00008 17.3327ZM9.00008 15.666C12.682 15.666 15.6667 12.6812 15.6667 8.99935C15.6667 5.31745 12.682 2.33268 9.00008 2.33268C5.31818 2.33268 2.33341 5.31745 2.33341 8.99935C2.33341 12.6812 5.31818 15.666 9.00008 15.666ZM4.63322 8.79696L8.16905 12.3328L14.0616 6.4403L12.8824 5.26196L8.16905 9.97613L5.81155 7.61863L4.63322 8.79696Z" fill="#FFA901"/>
</svg>
