<svg width="17" height="17" viewBox="0 0 17 17" fill="none" xmlns="http://www.w3.org/2000/svg">
<path fill-rule="evenodd" clip-rule="evenodd" d="M9.44883 1.00049C9.44883 0.448204 9.00111 0.000488281 8.44883 0.000488281C7.89654 0.000488281 7.44883 0.448204 7.44883 1.00049V7.45361H1C0.447715 7.45361 0 7.90133 0 8.45361C0 9.0059 0.447715 9.45361 1 9.45361H7.44883V15.9005C7.44883 16.4528 7.89654 16.9005 8.44883 16.9005C9.00111 16.9005 9.44883 16.4528 9.44883 15.9005V9.45361H15.9C16.4523 9.45361 16.9 9.0059 16.9 8.45361C16.9 7.90133 16.4523 7.45361 15.9 7.45361H9.44883V1.00049Z" fill="#003463"/>
</svg>
