<svg width="18" height="18" viewBox="0 0 18 18" fill="none" xmlns="http://www.w3.org/2000/svg">
<path fill-rule="evenodd" clip-rule="evenodd" d="M0.666199 8.99959C0.666199 13.6021 4.39703 17.3329 8.99953 17.3329C13.602 17.3329 17.3329 13.6021 17.3329 8.99959C17.3329 4.39709 13.602 0.66626 8.99953 0.66626C4.39703 0.66626 0.666199 4.39709 0.666199 8.99959ZM15.6662 8.99959C15.6662 12.6815 12.6814 15.6663 8.99953 15.6663C5.31763 15.6663 2.33287 12.6815 2.33287 8.99959C2.33287 5.31769 5.31763 2.33293 8.99953 2.33293C12.6814 2.33293 15.6662 5.31769 15.6662 8.99959ZM9.83287 11.4996V13.1663H8.1662V11.4996H9.83287ZM9.83237 10.6672V10.1297C11.2021 9.72147 12.0743 8.38108 11.8929 6.9634C11.7115 5.54573 10.5297 4.46822 9.10135 4.41808C7.67299 4.36794 6.41861 5.35993 6.1382 6.76139L7.7732 7.08889C7.90226 6.4432 8.51008 6.00835 9.16286 6.09468C9.81563 6.18102 10.2895 6.75894 10.2463 7.41598C10.203 8.07302 9.6575 8.58385 8.99904 8.58389C8.5388 8.58389 8.1657 8.95699 8.1657 9.41722V10.6672H9.83237Z" fill="#333333"/>
</svg>
