<svg width="299" height="266" viewBox="0 0 299 266" fill="none" xmlns="http://www.w3.org/2000/svg">
<g clip-path="url(#clip0_5700_16228)">
<path d="M259.18 20.3674C259.18 20.3674 231.198 -6.58894 190.574 1.53637C149.951 9.66167 130.068 42.3933 105.091 64.0889C92.0097 75.4551 74.0286 78.6807 58.9933 87.0825C10.9192 113.901 10.9565 182.013 43.257 210.068C71.2094 234.344 108.619 239.382 159.191 226.633C209.764 213.885 245.786 206.666 280.756 162.169C315.727 117.671 293.338 56.6702 259.18 20.3674Z" fill="#B0EAFF"/>
<path opacity="0.75" d="M259.18 20.3674C259.18 20.3674 231.198 -6.58894 190.574 1.53637C149.951 9.66167 130.068 42.3933 105.091 64.0889C92.0097 75.4551 74.0286 78.6807 58.9933 87.0825C10.9192 113.901 10.9565 182.013 43.257 210.068C71.2094 234.344 108.619 239.382 159.191 226.633C209.764 213.885 245.786 206.666 280.756 162.169C315.727 117.671 293.338 56.6702 259.18 20.3674Z" fill="white"/>
<path d="M273.507 88.6712C269.658 86.5131 267.913 88.3102 266.518 86.5131C265.124 84.7161 270.359 80.0313 259.873 75.3543C259.873 75.3543 259.172 65.2783 244.846 64.9173C230.519 64.5564 234.36 74.9933 230.511 77.5123C226.663 80.0313 225.619 76.0762 221.778 78.5952C217.937 81.1142 219.675 86.1522 216.557 86.8741C213.44 87.596 209.211 83.6332 205.371 86.1522C201.53 88.6712 201.522 90.8292 199.777 90.8292C198.032 90.8292 194.556 89.3931 192.438 90.8292C190.32 92.2654 187.896 94.0701 187.896 94.0701H276.303C276.303 94.0701 277.347 90.8292 273.507 88.6712Z" fill="#02A5E2"/>
<g opacity="0.5">
<path opacity="0.5" d="M273.507 88.6712C269.658 86.5131 267.913 88.3102 266.518 86.5131C265.124 84.7161 270.359 80.0313 259.873 75.3543C259.873 75.3543 259.172 65.2783 244.846 64.9173C230.519 64.5564 234.36 74.9933 230.511 77.5123C226.663 80.0313 225.619 76.0762 221.778 78.5952C217.937 81.1142 219.675 86.1522 216.557 86.8741C213.44 87.596 209.211 83.6332 205.371 86.1522C201.53 88.6712 201.522 90.8292 199.777 90.8292C198.032 90.8292 194.556 89.3931 192.438 90.8292C190.32 92.2654 187.896 94.0701 187.896 94.0701H276.303C276.303 94.0701 277.347 90.8292 273.507 88.6712Z" fill="white"/>
</g>
<path d="M215.91 196.957C209.697 193.47 206.87 196.381 204.611 193.47C202.351 190.559 210.823 183.002 193.886 175.445C193.886 175.445 192.753 159.164 169.603 158.55C146.453 157.935 152.658 174.831 146.483 178.901C140.308 182.972 138.578 176.597 132.365 180.645C126.153 184.692 128.979 192.856 123.9 194.023C118.822 195.19 112.035 188.785 105.83 192.856C99.6248 196.926 99.58 200.443 96.7535 200.443C93.9269 200.443 88.2812 198.139 84.8953 200.443C81.5094 202.747 77.5566 205.673 77.5566 205.673H220.422C220.422 205.673 222.115 200.443 215.91 196.957Z" fill="#02A5E2"/>
<g opacity="0.5">
<path opacity="0.5" d="M215.91 196.957C209.697 193.47 206.87 196.381 204.611 193.47C202.351 190.559 210.823 183.002 193.886 175.445C193.886 175.445 192.753 159.164 169.603 158.55C146.453 157.935 152.658 174.831 146.483 178.901C140.308 182.972 138.578 176.597 132.365 180.645C126.153 184.692 128.979 192.856 123.9 194.023C118.822 195.19 112.035 188.785 105.83 192.856C99.6248 196.926 99.58 200.443 96.7535 200.443C93.9269 200.443 88.2812 198.139 84.8953 200.443C81.5094 202.747 77.5566 205.673 77.5566 205.673H220.422C220.422 205.673 222.115 200.443 215.91 196.957Z" fill="white"/>
</g>
<path d="M125.895 129.259C123.762 128.069 122.8 129.059 122.024 128.069C121.248 127.078 124.15 124.482 118.347 121.925C118.347 121.925 117.959 116.349 110.024 116.15C102.089 115.95 104.222 121.733 102.089 123.123C99.9559 124.513 99.3816 122.355 97.2561 123.722C95.1306 125.089 96.0926 127.907 94.3549 128.33C92.6172 128.752 90.2903 126.533 88.1574 127.931C86.0244 129.328 86.0318 130.519 85.0623 130.519C84.0928 130.519 82.1612 129.751 80.9977 130.519C79.8343 131.287 78.4844 132.316 78.4844 132.316H127.461C127.461 132.316 128.02 130.457 125.895 129.259Z" fill="#02A5E2"/>
<path d="M89.6604 246.407C89.6604 246.407 95.1793 234.672 91.152 226.885C87.1247 219.097 82.0756 226.37 75.0204 217.024C67.9651 207.678 67.9577 197.294 61.9093 196.288C55.8609 195.282 52.3332 197.824 47.7913 196.288C43.2494 194.752 48.8056 181.236 39.2221 178.118C29.6386 175 23.5902 182.779 17.0346 175.491C10.4791 168.203 0.903045 165.116 0.395902 168.741C-0.11124 172.365 7.95829 171.859 10.9862 177.05C14.0142 182.242 23.1203 191.588 23.1203 201.449C23.1203 211.31 31.6896 206.641 37.738 209.237C43.7864 211.832 43.2867 217.546 43.7938 225.364C44.301 233.182 57.4047 225.364 59.4556 228.997C61.5065 232.629 56.9348 233.666 58.4488 241.976C59.9627 250.285 74.7817 250.685 74.7817 250.685" fill="#0E5D85"/>
<path d="M89.6604 246.407C89.6604 246.407 95.1793 234.672 91.152 226.885C87.1247 219.097 82.0756 226.37 75.0204 217.024C67.9651 207.678 67.9577 197.294 61.9093 196.288C55.8609 195.282 52.3332 197.824 47.7913 196.288C43.2494 194.752 48.8056 181.236 39.2221 178.118C29.6386 175 23.5902 182.779 17.0346 175.491C10.4791 168.203 0.903045 165.116 0.395902 168.741C-0.11124 172.365 7.95829 171.859 10.9862 177.05C14.0142 182.242 23.1203 191.588 23.1203 201.449C23.1203 211.31 31.6896 206.641 37.738 209.237C43.7864 211.832 43.2867 217.546 43.7938 225.364C44.301 233.182 57.4047 225.364 59.4556 228.997C61.5065 232.629 56.9348 233.666 58.4488 241.976C59.9627 250.285 74.7817 250.685 74.7817 250.685" stroke="#263238" stroke-width="0.782423" stroke-linecap="round" stroke-linejoin="round"/>
<path d="M80.0535 248.173C80.0535 248.173 69.4632 222.715 53.8387 206.641C38.2142 190.567 27.5941 189.507 21.0684 183.801" stroke="white" stroke-width="0.782423" stroke-linecap="round" stroke-linejoin="round"/>
<path d="M30.1523 199.921L42.2939 197.179L37.2598 185.283" stroke="white" stroke-width="0.782423" stroke-linecap="round" stroke-linejoin="round"/>
<path d="M51.4766 217.608L62.0818 216.901L61.254 207.547" stroke="white" stroke-width="0.782423" stroke-linecap="round" stroke-linejoin="round"/>
<path d="M67.7637 238.651L76.3553 240.172L77.8319 227.369" stroke="white" stroke-width="0.782423" stroke-linecap="round" stroke-linejoin="round"/>
<path d="M47.8126 165.208C47.8126 165.208 43.7182 165.768 39.3553 155.086C35.7978 146.3 40.6679 139.227 42.51 136.992C42.581 136.904 42.6718 136.836 42.7745 136.792C42.8772 136.749 42.9887 136.732 43.0991 136.744C43.2095 136.755 43.3155 136.794 43.4078 136.857C43.5001 136.921 43.576 137.007 43.6287 137.107C45.0532 139.741 49.2669 147.859 49.7144 152.559C50.2738 158.204 47.8126 165.208 47.8126 165.208Z" fill="#5ED0FB"/>
<path d="M89.0339 202.024C89.0339 202.024 86.5727 199.774 86.0507 194.997C85.5286 190.22 89.3247 180.943 91.5099 182.348C93.6951 183.754 94.4931 194.152 93.6951 197.808C92.8971 201.464 89.0339 202.024 89.0339 202.024Z" fill="#5ED0FB"/>
<path d="M102.129 218.329C102.129 218.329 99.6752 216.079 99.1457 211.302C98.6162 206.525 102.42 197.248 104.605 198.653C106.79 200.059 107.588 210.457 106.79 214.113C105.992 217.768 102.129 218.329 102.129 218.329Z" fill="#5ED0FB"/>
<path d="M109.021 229.413C109.021 229.413 107.954 226.21 109.767 221.733C111.579 217.255 119.328 211.196 120.551 213.5C121.774 215.804 117.568 225.296 115.077 228.092C112.586 230.887 109.021 229.413 109.021 229.413Z" fill="#5ED0FB"/>
<path d="M91.0841 213.26C91.0841 213.26 88.7647 215.664 84.1034 215.956C79.4422 216.248 70.6791 211.809 72.1707 209.643C73.6623 207.477 83.7827 207.216 87.2805 208.261C90.7783 209.305 91.0841 213.26 91.0841 213.26Z" fill="#5ED0FB"/>
<path d="M102.129 230.694C102.129 230.694 99.8172 233.098 95.1485 233.389C90.4798 233.681 81.7241 229.242 83.2157 227.069C84.7073 224.896 94.8278 224.642 98.3256 225.687C101.823 226.731 102.129 230.694 102.129 230.694Z" fill="#5ED0FB"/>
<path d="M72.3803 183.194C72.3803 183.194 69.6507 183.194 68.0174 176.451C66.3841 169.708 69.6507 162.397 71.2914 163.802C72.9322 165.208 76.1988 173.916 75.6543 178.133C75.1099 182.349 72.3803 183.194 72.3803 183.194Z" fill="#5ED0FB"/>
<path d="M56.2777 181.513C55.9894 180.109 55.3589 178.805 54.4455 177.722C53.5322 176.639 52.3661 175.813 51.0571 175.323C46.4183 173.357 37.9609 175.891 37.9609 177.012C37.9609 178.133 41.5035 181.513 47.7831 182.91C54.0627 184.308 56.2777 181.513 56.2777 181.513Z" fill="#5ED0FB"/>
<path d="M75.9299 199.215C75.9299 199.215 75.654 196.965 70.1947 193.878C64.7355 190.791 58.6945 192.58 59.0078 193.793C59.321 195.007 64.7579 197.81 69.4042 199.776C74.0505 201.742 75.9299 199.215 75.9299 199.215Z" fill="#5ED0FB"/>
<path d="M55.4569 170.829C55.4569 170.829 53.0032 168.579 52.4737 163.802C51.9442 159.025 55.7552 149.748 57.933 151.153C60.1107 152.559 60.9161 162.957 60.1181 166.613C59.3201 170.268 55.4569 170.829 55.4569 170.829Z" fill="#5ED0FB"/>
<path d="M108.141 242.283C108.141 242.283 110.93 235.102 96.9536 215.956C82.9773 196.81 48.1635 177.679 44.002 154.709" stroke="#263238" stroke-width="0.782423" stroke-linecap="round" stroke-linejoin="round"/>
<path d="M62.5579 182.634L46.7246 178.979" stroke="#263238" stroke-width="0.782423" stroke-linecap="round" stroke-linejoin="round"/>
<path d="M73.2008 192.747L71.0156 174.484" stroke="#263238" stroke-width="0.782423" stroke-linecap="round" stroke-linejoin="round"/>
<path d="M84.1205 202.308L67.4668 196.402" stroke="#263238" stroke-width="0.782423" stroke-linecap="round" stroke-linejoin="round"/>
<path d="M55.1816 175.046L56.002 161.553" stroke="#263238" stroke-width="0.782423" stroke-linecap="round" stroke-linejoin="round"/>
<path d="M88.7578 206.24L89.5782 192.746" stroke="#263238" stroke-width="0.782423" stroke-linecap="round" stroke-linejoin="round"/>
<path d="M101.861 222.546L102.682 209.053" stroke="#263238" stroke-width="0.782423" stroke-linecap="round" stroke-linejoin="round"/>
<path d="M106.775 232.945L113.92 221.609" stroke="#263238" stroke-width="0.782423" stroke-linecap="round" stroke-linejoin="round"/>
<path d="M95.1576 213.783L82.1211 212.186" stroke="#263238" stroke-width="0.782423" stroke-linecap="round" stroke-linejoin="round"/>
<path d="M106.201 231.209L93.1719 229.619" stroke="#263238" stroke-width="0.782423" stroke-linecap="round" stroke-linejoin="round"/>
<path d="M251.491 247.928C251.491 247.928 259.747 241.3 259.538 234.004C259.329 226.709 252.99 230.211 251.066 220.626C249.141 211.042 252.811 203.331 248.694 200.29C244.577 197.249 241.035 197.848 238.216 194.991C235.396 192.134 244.301 184.193 238.298 178.287C232.294 172.381 225.045 175.883 222.755 168.027C220.466 160.17 214.462 154.264 212.799 156.768C211.136 159.272 217.274 161.921 217.714 166.913C218.154 171.905 221.539 182.273 218.049 189.561C214.559 196.849 222.569 196.634 226.141 200.835C229.713 205.036 227.312 209.076 224.925 215.043C222.539 221.01 235.031 220.158 235.24 223.614C235.449 227.07 231.712 226.133 229.892 232.868C228.073 239.603 238.924 245.463 238.924 245.463" fill="#0E5D85"/>
<path d="M251.491 247.928C251.491 247.928 259.747 241.3 259.538 234.004C259.329 226.709 252.99 230.211 251.066 220.626C249.141 211.042 252.811 203.331 248.694 200.29C244.577 197.249 241.035 197.848 238.216 194.991C235.396 192.134 244.301 184.193 238.298 178.287C232.294 172.381 225.045 175.883 222.755 168.027C220.466 160.17 214.462 154.264 212.799 156.768C211.136 159.272 217.274 161.921 217.714 166.913C218.154 171.905 221.539 182.273 218.049 189.561C214.559 196.849 222.569 196.634 226.141 200.835C229.713 205.036 227.312 209.076 224.925 215.043C222.539 221.01 235.031 220.158 235.24 223.614C235.449 227.07 231.712 226.133 229.892 232.868C228.073 239.603 238.924 245.463 238.924 245.463" stroke="#263238" stroke-width="0.782423" stroke-linecap="round" stroke-linejoin="round"/>
<path d="M243.742 245.63C243.742 245.63 244.898 222.775 238.998 204.965C233.099 187.156 225.619 182.402 222.777 175.705" stroke="white" stroke-width="0.782423" stroke-linecap="round" stroke-linejoin="round"/>
<path d="M223.807 191.081L233.793 193.608L234.27 182.895" stroke="white" stroke-width="0.782423" stroke-linecap="round" stroke-linejoin="round"/>
<path d="M233.361 212.216L241.483 215.672L244.183 208.422" stroke="white" stroke-width="0.782423" stroke-linecap="round" stroke-linejoin="round"/>
<path d="M238 233.95L243.832 238.304L249.463 229.357" stroke="white" stroke-width="0.782423" stroke-linecap="round" stroke-linejoin="round"/>
<path d="M262.327 176.336C259.731 173.187 260.306 169.385 261.454 164.816C262.394 161.091 266.832 155.262 271.627 154.625C272.432 154.517 272.44 154.625 272.373 155.239C272.089 159.186 271.165 165.115 269.479 168.364C267.465 172.319 265.258 173.601 262.327 176.336Z" fill="#5ED0FB"/>
<path d="M274.745 218.299C274.141 216.202 274.79 214.005 275.491 212.078C276.192 210.15 282.36 202.67 284.254 205.512C286.148 208.353 281.442 215.104 279.816 217.031C278.191 218.959 276.692 218.606 274.745 218.299Z" fill="#5ED0FB"/>
<path d="M277.296 235.548C276.752 233.421 277.423 231.132 278.154 229.212C278.885 227.292 285.052 219.996 286.91 222.869C288.767 225.741 284.053 232.499 282.383 234.434C280.712 236.37 279.198 235.924 277.296 235.548Z" fill="#5ED0FB"/>
<path d="M277.289 246.477C277.871 244.334 279.586 242.721 281.167 241.423C282.748 240.125 291.608 237.1 291.825 240.54C292.041 243.981 284.65 247.329 282.264 248.143C279.877 248.957 278.751 247.79 277.289 246.477Z" fill="#5ED0FB"/>
<path d="M271.635 227.077C269.539 227.591 267.429 226.777 265.572 225.971C263.715 225.164 257.055 218.498 259.866 216.755C262.678 215.011 268.943 220.142 270.77 221.854C272.597 223.567 272.068 225.18 271.635 227.077Z" fill="#5ED0FB"/>
<path d="M271.965 244.219C269.861 244.649 267.751 243.804 265.939 242.905C264.126 242.007 257.608 235.103 260.502 233.413C263.395 231.724 269.526 237.076 271.278 238.92C273.031 240.763 272.472 242.299 271.965 244.219Z" fill="#5ED0FB"/>
<path d="M270.724 199.061C268.875 198.37 270.336 194.053 270.679 192.64C271.022 191.227 276.646 182.71 278.264 185.728C279.883 188.747 276.683 195.205 275.281 197.125C273.879 199.045 272.589 199.744 270.724 199.061Z" fill="#5ED0FB"/>
<path d="M260.568 191.289C261.589 189.139 261.052 186.681 259.867 184.692C258.681 182.703 252.573 177.78 250.581 179.716C248.59 181.651 252.923 186.628 254.258 188.164C255.593 189.7 258.263 191.996 260.568 191.289Z" fill="#5ED0FB"/>
<path d="M266.414 211.195C267.16 209.329 265.251 206.71 264.617 205.259C263.983 203.807 258.412 198.147 257.159 200.397C255.906 202.648 260.426 207.102 261.522 208.799C262.618 210.496 264.572 211.633 266.414 211.195Z" fill="#5ED0FB"/>
<path d="M264.961 183.785C264.521 181.627 265.319 179.43 266.177 177.556C267.034 175.682 273.709 168.955 275.342 171.889C276.976 174.822 271.882 181.189 270.122 183.001C268.362 184.814 266.833 184.269 264.961 183.785Z" fill="#5ED0FB"/>
<path d="M271.024 255.739C275.619 244.987 276.193 244.818 274.381 229.788C272.568 214.759 256.302 186.044 264.76 167.996" stroke="#263238" stroke-width="0.782423" stroke-linecap="round" stroke-linejoin="round"/>
<path d="M264.274 194.729C261.149 191.611 258.218 188.316 255.279 185.014" stroke="#263238" stroke-width="0.782423" stroke-linecap="round" stroke-linejoin="round"/>
<path d="M267.189 205.734C269.278 201.364 271.515 197.071 273.648 192.725" stroke="#263238" stroke-width="0.782423" stroke-linecap="round" stroke-linejoin="round"/>
<path d="M271.121 216.425C268.018 212.8 264.707 209.39 261.619 205.75" stroke="#263238" stroke-width="0.782423" stroke-linecap="round" stroke-linejoin="round"/>
<path d="M262.834 186.48L269.591 177.764" stroke="#263238" stroke-width="0.782423" stroke-linecap="round" stroke-linejoin="round"/>
<path d="M272.836 221.117C274.865 218.045 276.915 215.011 278.929 211.939" stroke="#263238" stroke-width="0.782423" stroke-linecap="round" stroke-linejoin="round"/>
<path d="M275.297 238.38C277.43 235.308 279.503 232.236 281.569 229.164" stroke="#263238" stroke-width="0.782423" stroke-linecap="round" stroke-linejoin="round"/>
<path d="M274.186 247.905C277.502 246.369 280.816 244.797 284.127 243.189" stroke="#263238" stroke-width="0.782423" stroke-linecap="round" stroke-linejoin="round"/>
<path d="M274.298 229.212C271.449 226.939 268.577 224.707 265.684 222.516" stroke="#263238" stroke-width="0.782423" stroke-linecap="round" stroke-linejoin="round"/>
<path d="M274.551 246.431C271.766 244.071 268.972 241.723 266.168 239.389" stroke="#263238" stroke-width="0.782423" stroke-linecap="round" stroke-linejoin="round"/>
<path d="M38.543 265.615C38.543 265.615 158.534 199.161 294.657 265.615" stroke="#263238" stroke-width="0.782423" stroke-linecap="round" stroke-linejoin="round"/>
<path d="M208.762 242.622C208.762 245.655 191.967 248.113 171.248 248.113C150.53 248.113 133.742 245.655 133.742 242.622C133.742 239.588 150.53 237.123 171.248 237.123C191.967 237.123 208.762 239.611 208.762 242.622Z" fill="#115D79"/>
<path opacity="0.5" d="M208.762 242.622C208.762 245.655 191.967 248.113 171.248 248.113C150.53 248.113 133.742 245.655 133.742 242.622C133.742 239.588 150.53 237.123 171.248 237.123C191.967 237.123 208.762 239.611 208.762 242.622Z" fill="white"/>
<path d="M178.923 69.8327C182.854 68.9725 185.725 67.6593 185.337 63.9499C184.949 60.2405 180.572 57.806 180.117 55.8783C179.662 53.9507 182.675 51.1322 182.026 47.5073C181.377 43.8824 177.864 39.8274 174.344 40.4725C174.344 40.4725 173.762 41.6629 173.181 39.0901C172.599 36.5174 170.787 33.3302 167.289 34.559C163.657 35.8646 163.657 38.038 162.59 38.399C159.629 39.7041 156.737 41.1678 153.924 42.7842C151.135 44.3662 150.68 49.3581 150.262 51.1015C149.845 52.8448 148.51 53.2595 146.533 52.9139C144.557 52.5683 142.484 52.192 142.059 54.1888C141.634 56.1855 141.395 58.1055 140.03 58.0287C138.665 57.9519 137.114 55.8169 136.062 57.5833C135.011 59.3497 132.923 62.7442 130.7 61.6997C128.478 60.6552 125.89 56.3622 122.31 58.0671C118.73 59.772 118.059 64.5873 119.446 65.3553C120.833 66.1233 121.519 67.283 121.184 68.5271C120.848 69.7712 116.619 68.6269 115.299 71.2458C113.979 73.8646 117.112 76.253 117.119 77.6815C117.127 79.11 116.411 80.4155 113.89 81.1374C111.369 81.8594 109.639 83.8868 111.309 85.2308C112.98 86.5748 112.741 84.962 113.159 83.9944C113.577 83.0267 114.859 82.8731 116.373 83.6564C117.887 84.4398 118.79 82.7886 118.79 82.7886C118.79 82.7886 118.573 84.8315 120.244 85.3844C121.915 85.9374 122.235 87.8189 120.244 88.3796C118.253 88.9402 116.888 91.8125 118.372 93.502C119.856 95.1916 122.198 96.2668 126.173 95.1532C130.148 94.0396 138.695 87.4733 144.199 90.8218C149.703 94.1702 159.555 94.078 164.395 92.3577C169.235 90.6374 170.488 85.3844 174.292 84.5012C178.096 83.618 177.096 81.3602 176.455 79.1714C175.813 76.9826 174.993 70.6928 178.923 69.8327ZM181.683 66.1617C182.244 65.5754 182.608 64.8188 182.719 64.0037C182.917 64.1215 183.089 64.2789 183.226 64.4663C183.363 64.6538 183.462 64.8676 183.518 65.0952C183.573 65.3228 183.584 65.5596 183.55 65.7915C183.515 66.0235 183.436 66.246 183.316 66.4459C182.488 68.1277 180.482 67.5057 180.482 67.5057L181.683 66.1617ZM125.442 62.7826C124.585 62.629 122.787 65.8545 122.325 64.8254C121.862 63.7963 122.929 59.7336 124.853 59.557C126.777 59.3804 128.798 63.1205 128.798 63.1205C128.545 64.6334 126.3 62.9746 125.442 62.7826ZM166.886 38.399C166.56 38.3045 166.217 38.2823 165.882 38.3339C165.546 38.3856 165.225 38.5098 164.94 38.6985C164.958 38.3662 165.043 38.0415 165.19 37.7447C165.336 37.4478 165.54 37.1853 165.789 36.9733C166.038 36.7614 166.327 36.6047 166.638 36.513C166.949 36.4214 167.274 36.3967 167.595 36.4406C169.183 36.7247 169.541 39.1285 169.541 39.1285C168.676 38.8137 167.788 38.5698 166.886 38.399Z" fill="#263238"/>
<path d="M145.878 216.572C145.02 221.217 143.415 225.682 141.127 229.782C137.256 236.87 136.22 238.898 135.213 239.643C134.206 240.388 132.185 241.624 134.161 242.185C136.138 242.745 141.619 242.853 143.61 242.131C145.602 241.409 145.4 239.865 146.206 237.062C146.366 236.307 146.741 235.618 147.283 235.084C147.825 234.549 148.509 234.192 149.249 234.059L149.077 242.507H150.569L151.21 235.35C151.21 235.35 152.262 232.554 152.053 230.742C151.844 228.929 149.883 227.37 149.883 227.37L152.336 216.926L145.878 216.572Z" fill="#D9D9D9" stroke="#263238" stroke-width="0.782423" stroke-linecap="round" stroke-linejoin="round"/>
<path d="M150.568 242.553L151.21 235.395C151.21 235.395 152.261 232.6 152.052 230.787C151.888 229.397 150.68 228.138 150.136 227.639C148.517 229.72 146.548 235.15 143.707 237.523C142.688 238.318 141.502 238.858 140.245 239.098C138.988 239.338 137.693 239.272 136.465 238.905L136.062 238.721C135.825 239.07 135.539 239.381 135.212 239.642C134.198 240.41 132.184 241.624 134.161 242.184C136.137 242.745 141.619 242.853 143.61 242.131C145.601 241.409 145.4 239.865 146.205 237.062C146.366 236.307 146.741 235.618 147.283 235.083C147.825 234.549 148.509 234.192 149.248 234.059L149.077 242.507L150.568 242.553Z" fill="#263238" stroke="#263238" stroke-width="0.782423" stroke-linecap="round" stroke-linejoin="round"/>
<path d="M201.483 217.793C202.148 222.472 203.567 227.004 205.682 231.202C209.269 238.444 210.216 240.518 211.201 241.301C212.185 242.084 214.139 243.413 212.14 243.882C210.142 244.35 204.682 244.235 202.698 243.428C200.715 242.622 201.005 241.086 200.319 238.252C200.191 237.49 199.845 236.785 199.326 236.227C198.806 235.669 198.137 235.283 197.403 235.119L197.224 243.567H195.733L195.382 236.394C195.382 236.394 194.45 233.552 194.733 231.786C195.017 230.019 197.038 228.506 197.038 228.506L195.017 217.962L201.483 217.793Z" fill="#D9D9D9" stroke="#263238" stroke-width="0.782423" stroke-linecap="round" stroke-linejoin="round"/>
<path d="M195.733 243.529L195.382 236.356C195.382 236.356 194.45 233.514 194.733 231.748C194.957 230.358 196.225 229.16 196.769 228.676C198.306 230.826 200.058 236.356 202.795 238.829C203.779 239.669 204.941 240.26 206.187 240.554C207.433 240.847 208.729 240.835 209.97 240.518L210.388 240.357C210.607 240.717 210.882 241.039 211.201 241.309C212.178 242.077 214.139 243.421 212.14 243.89C210.141 244.358 204.682 244.243 202.698 243.436C200.715 242.63 201.005 241.094 200.319 238.26C200.191 237.499 199.845 236.793 199.326 236.235C198.806 235.677 198.137 235.291 197.403 235.127L197.224 243.575L195.733 243.529Z" fill="#263238" stroke="#263238" stroke-width="0.782423" stroke-linecap="round" stroke-linejoin="round"/>
<path d="M161.651 118.83C161.651 118.83 151.352 143.221 149.905 152.659C148.458 162.098 143.834 218.591 143.834 218.591L153.768 219.067L168.55 154.088L171.287 142.115L194.272 221.732L202.737 221.148C202.737 221.148 193.787 161.038 190.334 146.654C187.941 137.044 184.885 127.623 181.191 118.461L161.651 118.83Z" fill="#263238" stroke="#263238" stroke-width="0.782423" stroke-linecap="round" stroke-linejoin="round"/>
<path d="M166.065 66.3457C166.065 66.3457 166.102 77.6351 166.065 79.0098C166.027 80.3845 153.662 84.1092 153.662 84.1092L161.642 118.83C161.642 118.83 172.083 119.744 181.167 118.431L187.133 81.3906L175.947 79.0866L176.401 70.009C176.401 70.009 169.331 69.8861 166.065 66.3457Z" fill="#D9D9D9" stroke="#263238" stroke-width="0.782423" stroke-linecap="round" stroke-linejoin="round"/>
<path d="M179.832 79.8711C179.02 83.0122 176.357 90.8917 170.256 90.1007C164.976 89.4095 161.754 84.0413 160.621 81.7911C157.287 83.0045 153.67 84.095 153.67 84.095L161.65 118.816C161.65 118.816 172.091 119.73 181.175 118.416L187.141 81.3763L179.832 79.8711Z" fill="white" stroke="#263238" stroke-width="0.782423" stroke-linecap="round" stroke-linejoin="round"/>
<path d="M162.844 80.0391C162.844 80.0391 165.827 96.7581 166.573 106.151C167.319 115.543 167.319 122.002 167.162 123.231C167.005 124.459 158.854 157.314 158.854 157.314L144.684 150.947L158.981 118.362C158.981 118.362 150.777 86.6668 150.829 85.5609C150.881 84.455 162.844 80.0391 162.844 80.0391Z" fill="#688894" stroke="#263238" stroke-width="0.782423" stroke-linecap="round" stroke-linejoin="round"/>
<path d="M160.151 81.2215L158.854 93.8549L161.837 96.2587L159.599 100.344L167.057 120.312C167.057 120.312 166.99 110.536 166.453 104.054C165.916 97.5719 162.799 80.0234 162.799 80.0234L160.151 81.2215Z" fill="#688894" stroke="#263238" stroke-width="0.782423" stroke-linecap="round" stroke-linejoin="round"/>
<path d="M177.7 79.2637C177.7 79.2637 175.634 121.334 175.627 121.749C175.619 122.163 186.814 157.23 186.814 157.23L197.852 153.612L183.227 117.095C183.227 117.095 190.207 82.8348 190.088 82.1436C189.969 81.4524 177.7 79.2637 177.7 79.2637Z" fill="#688894" stroke="#263238" stroke-width="0.782423" stroke-linecap="round" stroke-linejoin="round"/>
<path d="M180.9 80.1622L182.376 94.6618L178.662 96.7968L182.145 99.8688L175.627 121.749L177.7 79.2637L180.9 80.1622Z" fill="#688894" stroke="#263238" stroke-width="0.782423" stroke-linecap="round" stroke-linejoin="round"/>
<path d="M177.708 51.0241C177.681 50.8789 177.646 50.7353 177.603 50.5941C177.342 49.7646 176.567 48.0904 174.62 49.0581C172.107 50.2869 170.682 53.0747 168.803 53.4126C168.022 53.585 167.229 53.6979 166.431 53.7505C166.431 53.7505 163.567 60.2169 162.173 61.3459C161.198 62.0692 160.084 62.5694 158.906 62.8127C158.906 62.8127 159.316 67.3055 160.547 67.9736C160.947 68.1529 161.383 68.2278 161.818 68.1916C162.252 68.1554 162.671 68.0093 163.038 67.7662C163.038 67.7662 166.558 72.1975 168.892 73.4033C171.227 74.609 173.845 74.9392 175.224 74.1713C176.604 73.4033 180.564 68.7954 180.616 66.2226C180.669 63.6498 179.55 57.2295 179.356 54.7028C179.352 54.004 179.203 53.3141 178.919 52.6795C178.635 52.045 178.222 51.4805 177.708 51.0241Z" fill="#D9D9D9" stroke="#263238" stroke-width="0.782423" stroke-linecap="round" stroke-linejoin="round"/>
<path d="M169.668 48.928C169.668 48.928 170.034 49.1891 169.519 50.08C169.09 50.7357 168.576 51.3275 167.99 51.8387C167.99 51.8387 170.481 51.6313 171.518 49.7344C172.555 47.8375 171.19 47.5533 169.668 48.928Z" fill="white"/>
<path d="M170.34 57.9672C170.451 58.6277 170.243 59.2191 169.87 59.2882C169.497 59.3573 169.124 58.8735 168.99 58.2053C168.855 57.5372 169.087 56.9535 169.46 56.8921C169.832 56.8306 170.228 57.3068 170.34 57.9672Z" fill="#263238"/>
<path d="M176.7 57.0759C176.812 57.744 176.603 58.3354 176.231 58.3968C175.858 58.4583 175.485 57.9821 175.358 57.3217C175.231 56.6612 175.455 56.0698 175.828 56.0007C176.201 55.9316 176.589 56.4154 176.7 57.0759Z" fill="#263238"/>
<path d="M167.535 55.9254L171.16 55.1113" stroke="#263238" stroke-width="0.782423" stroke-linecap="round" stroke-linejoin="round"/>
<path d="M174.293 54.0191C174.293 54.0191 175.449 51.9993 177.06 52.5446" stroke="#263238" stroke-width="0.782423" stroke-linecap="round" stroke-linejoin="round"/>
<path d="M174.187 65.1707C174.187 65.1707 170.063 65.9387 168.967 63.5195" stroke="#263238" stroke-width="0.782423" stroke-linecap="round" stroke-linejoin="round"/>
<path d="M174.821 59.373C174.821 59.373 175.484 61.7615 173.389 61.9919" stroke="#263238" stroke-width="0.782423" stroke-linecap="round" stroke-linejoin="round"/>
<path d="M192.281 124.314C192.281 124.314 186.038 129.137 186.008 130.374C185.979 131.61 187.149 133.446 187.545 133.845C187.94 134.245 189.118 135.381 189.118 135.381C189.118 135.381 192.34 134.613 192.236 133.246C192.131 131.879 191.729 131.856 191.729 131.856L194.361 127.248L192.281 124.314Z" fill="#D9D9D9" stroke="#263238" stroke-width="0.782423" stroke-linecap="round" stroke-linejoin="round"/>
<path d="M191.728 131.871L190.229 133.353" stroke="#263238" stroke-width="0.782423" stroke-linecap="round" stroke-linejoin="round"/>
<path d="M186.635 93.3566L201.946 109.246L191.356 123.884L194.749 127.947C194.749 127.947 211.694 109.868 211.723 108.355C211.753 106.842 192.847 83.7106 191.669 82.8659C190.491 82.0211 187.821 81.5449 187.821 81.5449" fill="#688894"/>
<path d="M186.635 93.3566L201.946 109.246L191.356 123.884L194.749 127.947C194.749 127.947 211.694 109.868 211.723 108.355C211.753 106.842 192.847 83.7106 191.669 82.8659C190.491 82.0211 187.821 81.5449 187.821 81.5449" stroke="#263238" stroke-width="0.782423" stroke-linecap="round" stroke-linejoin="round"/>
<path d="M151.008 123.584C151.008 123.584 157.676 127.762 157.817 128.96C157.959 130.158 156.967 132.109 156.617 132.569C156.266 133.03 155.2 134.267 155.2 134.267C155.2 134.267 151.918 133.837 151.896 132.454C151.873 131.072 152.269 131.018 152.269 131.018L149.211 126.687L151.008 123.584Z" fill="#D9D9D9" stroke="#263238" stroke-width="0.782423" stroke-linecap="round" stroke-linejoin="round"/>
<path d="M152.27 131.049L153.903 132.377" stroke="#263238" stroke-width="0.782423" stroke-linecap="round" stroke-linejoin="round"/>
<path d="M155.997 94.7616L140.596 109.292L151.888 123.062L148.905 127.447C148.905 127.447 131.005 110.882 130.797 109.384C130.588 107.887 150.187 84.8623 151.418 84.0405C152.648 83.2188 155.318 82.8809 155.318 82.8809" fill="#688894"/>
<path d="M155.997 94.7616L140.596 109.292L151.888 123.062L148.905 127.447C148.905 127.447 131.005 110.882 130.797 109.384C130.588 107.887 150.187 84.8623 151.418 84.0405C152.648 83.2188 155.318 82.8809 155.318 82.8809" stroke="#263238" stroke-width="0.782423" stroke-linecap="round" stroke-linejoin="round"/>
</g>
<defs>
<clipPath id="clip0_5700_16228">
<rect width="298.326" height="266" fill="white"/>
</clipPath>
</defs>
</svg>
