<svg width="20" height="20" viewBox="0 0 20 20" fill="none" xmlns="http://www.w3.org/2000/svg">
<path fill-rule="evenodd" clip-rule="evenodd" d="M15 1H2C1.44772 1 1 1.44772 1 2V18C1 18.5523 1.44772 19 2 19H18C18.5523 19 19 18.5523 19 18V5.414C18.9999 5.14881 18.8946 4.89449 18.707 4.707L15 1ZM3 17V3H14.172L17 5.828V17H3ZM10 16C8.34315 16 7 14.6569 7 13C7 11.3431 8.34315 10 10 10C11.6569 10 13 11.3431 13 13C13 14.6569 11.6569 16 10 16ZM13 4H4V8H13V4Z" fill="white"/>
<path d="M15 1L15.3536 0.646447L15.2071 0.5H15V1ZM19 5.414H19.5V5.41389L19 5.414ZM18.707 4.707L18.3534 5.06055L18.3535 5.06061L18.707 4.707ZM3 3V2.5H2.5V3H3ZM3 17H2.5V17.5H3V17ZM14.172 3L14.5256 2.64645L14.3791 2.5H14.172V3ZM17 5.828H17.5V5.62089L17.3536 5.47445L17 5.828ZM17 17V17.5H17.5V17H17ZM4 4V3.5H3.5V4H4ZM13 4H13.5V3.5H13V4ZM4 8H3.5V8.5H4V8ZM13 8V8.5H13.5V8H13ZM2 1.5H15V0.5H2V1.5ZM1.5 2C1.5 1.72386 1.72386 1.5 2 1.5V0.5C1.17157 0.5 0.5 1.17157 0.5 2H1.5ZM1.5 18V2H0.5V18H1.5ZM2 18.5C1.72386 18.5 1.5 18.2761 1.5 18H0.5C0.5 18.8284 1.17157 19.5 2 19.5V18.5ZM18 18.5H2V19.5H18V18.5ZM18.5 18C18.5 18.2761 18.2761 18.5 18 18.5V19.5C18.8284 19.5 19.5 18.8284 19.5 18H18.5ZM18.5 5.414V18H19.5V5.414H18.5ZM18.3535 5.06061C18.4473 5.15435 18.5 5.28151 18.5 5.41411L19.5 5.41389C19.4999 5.0161 19.3418 4.63463 19.0605 4.35339L18.3535 5.06061ZM14.6464 1.35355L18.3534 5.06055L19.0606 4.35345L15.3536 0.646447L14.6464 1.35355ZM2.5 3V17H3.5V3H2.5ZM14.172 2.5H3V3.5H14.172V2.5ZM17.3536 5.47445L14.5256 2.64645L13.8184 3.35355L16.6464 6.18155L17.3536 5.47445ZM17.5 17V5.828H16.5V17H17.5ZM3 17.5H17V16.5H3V17.5ZM6.5 13C6.5 14.933 8.067 16.5 10 16.5V15.5C8.61929 15.5 7.5 14.3807 7.5 13H6.5ZM10 9.5C8.067 9.5 6.5 11.067 6.5 13H7.5C7.5 11.6193 8.61929 10.5 10 10.5V9.5ZM13.5 13C13.5 11.067 11.933 9.5 10 9.5V10.5C11.3807 10.5 12.5 11.6193 12.5 13H13.5ZM10 16.5C11.933 16.5 13.5 14.933 13.5 13H12.5C12.5 14.3807 11.3807 15.5 10 15.5V16.5ZM4 4.5H13V3.5H4V4.5ZM4.5 8V4H3.5V8H4.5ZM13 7.5H4V8.5H13V7.5ZM12.5 4V8H13.5V4H12.5Z" fill="#003463"/>
</svg>
