<svg width="16" height="18" viewBox="0 0 16 18" fill="none" xmlns="http://www.w3.org/2000/svg">
<path fill-rule="evenodd" clip-rule="evenodd" d="M15.125 4.875L8 0.75L0.875 4.875V13.125L8 17.25L15.125 13.125V4.875ZM2.375 5.73978L8 2.48328L13.625 5.73978V12.2603L8 15.5168L2.375 12.2603V5.73978ZM8 12C6.34315 12 5 10.6569 5 9C5 7.34315 6.34315 6 8 6C9.65685 6 11 7.34315 11 9C11 10.6569 9.65685 12 8 12ZM9.5 9C9.5 9.82843 8.82843 10.5 8 10.5C7.17157 10.5 6.5 9.82843 6.5 9C6.5 8.17157 7.17157 7.5 8 7.5C8.82843 7.5 9.5 8.17157 9.5 9Z" fill="#003463"/>
<path d="M8 0.75L8.12526 0.533643L8 0.461125L7.87474 0.533643L8 0.75ZM15.125 4.875H15.375V4.73086L15.2503 4.65864L15.125 4.875ZM0.875 4.875L0.749741 4.65864L0.625 4.73086V4.875H0.875ZM0.875 13.125H0.625V13.2691L0.749741 13.3414L0.875 13.125ZM8 17.25L7.87474 17.4664L8 17.5389L8.12526 17.4664L8 17.25ZM15.125 13.125L15.2503 13.3414L15.375 13.2691V13.125H15.125ZM8 2.48328L8.12526 2.26692L8 2.1944L7.87474 2.26692L8 2.48328ZM2.375 5.73978L2.24974 5.52342L2.125 5.59564V5.73978H2.375ZM13.625 5.73978H13.875V5.59564L13.7503 5.52342L13.625 5.73978ZM13.625 12.2603L13.7503 12.4766L13.875 12.4044V12.2603H13.625ZM8 15.5168L7.87474 15.7331L8 15.8057L8.12526 15.7331L8 15.5168ZM2.375 12.2603H2.125V12.4044L2.24974 12.4766L2.375 12.2603ZM7.87474 0.966357L14.9997 5.09136L15.2503 4.65864L8.12526 0.533643L7.87474 0.966357ZM1.00026 5.09136L8.12526 0.966357L7.87474 0.533643L0.749741 4.65864L1.00026 5.09136ZM1.125 13.125V4.875H0.625V13.125H1.125ZM8.12526 17.0336L1.00026 12.9086L0.749741 13.3414L7.87474 17.4664L8.12526 17.0336ZM14.9997 12.9086L7.87474 17.0336L8.12526 17.4664L15.2503 13.3414L14.9997 12.9086ZM14.875 4.875V13.125H15.375V4.875H14.875ZM7.87474 2.26692L2.24974 5.52342L2.50026 5.95613L8.12526 2.69963L7.87474 2.26692ZM13.7503 5.52342L8.12526 2.26692L7.87474 2.69963L13.4997 5.95613L13.7503 5.52342ZM13.875 12.2603V5.73978H13.375V12.2603H13.875ZM8.12526 15.7331L13.7503 12.4766L13.4997 12.0439L7.87474 15.3004L8.12526 15.7331ZM2.24974 12.4766L7.87474 15.7331L8.12526 15.3004L2.50026 12.0439L2.24974 12.4766ZM2.125 5.73978V12.2603H2.625V5.73978H2.125ZM4.75 9C4.75 10.7949 6.20507 12.25 8 12.25V11.75C6.48122 11.75 5.25 10.5188 5.25 9H4.75ZM8 5.75C6.20507 5.75 4.75 7.20507 4.75 9H5.25C5.25 7.48122 6.48122 6.25 8 6.25V5.75ZM11.25 9C11.25 7.20507 9.79493 5.75 8 5.75V6.25C9.51878 6.25 10.75 7.48122 10.75 9H11.25ZM8 12.25C9.79493 12.25 11.25 10.7949 11.25 9H10.75C10.75 10.5188 9.51878 11.75 8 11.75V12.25ZM8 10.75C8.9665 10.75 9.75 9.9665 9.75 9H9.25C9.25 9.69036 8.69036 10.25 8 10.25V10.75ZM6.25 9C6.25 9.9665 7.0335 10.75 8 10.75V10.25C7.30964 10.25 6.75 9.69036 6.75 9H6.25ZM8 7.25C7.0335 7.25 6.25 8.0335 6.25 9H6.75C6.75 8.30964 7.30964 7.75 8 7.75V7.25ZM9.75 9C9.75 8.0335 8.9665 7.25 8 7.25V7.75C8.69036 7.75 9.25 8.30964 9.25 9H9.75Z" fill="#EDF1F7"/>
</svg>
