<svg width="252" height="255" viewBox="0 0 252 255" fill="none" xmlns="http://www.w3.org/2000/svg">
<g clip-path="url(#clip0_1671_10383)">
<path d="M250.447 127.597C247.669 151.117 236.927 178.461 215.482 191.025C183.072 210.007 185.788 239.214 122.533 251.899C113.308 253.797 103.904 254.688 94.4862 254.554C89.8791 254.473 85.2819 254.099 80.7223 253.435C40.519 247.556 13.4592 219.611 3.53046 185.877C-9.53152 141.513 16.5517 112.47 33.8456 94.9725C51.1395 77.4752 63.7946 22.9486 125.88 9.97815C135.349 7.96006 145.02 7.04181 154.699 7.24164C176.795 7.78081 200.884 15.0341 217.558 30.1713C218.806 31.3107 220.026 32.4907 221.22 33.7115C244.384 57.4957 254.231 95.5219 250.447 127.597Z" fill="#81E1AC"/>
<path d="M250.447 127.597C247.669 151.117 236.927 178.461 215.482 191.025C183.072 210.007 185.788 239.214 122.533 251.899C113.308 253.797 103.904 254.688 94.4862 254.554C89.8791 254.473 85.2819 254.099 80.7223 253.435C40.519 247.556 13.4592 219.611 3.53046 185.877C-9.53152 141.513 16.5517 112.47 33.8456 94.9725C51.1395 77.4752 63.7946 22.9486 125.88 9.97815C135.349 7.96006 145.02 7.04181 154.699 7.24164C176.795 7.78081 200.884 15.0341 217.558 30.1713C218.806 31.3107 220.026 32.4907 221.22 33.7115C244.384 57.4957 254.231 95.5219 250.447 127.597Z" fill="#EBF9FF"/>
<path d="M115.971 14.6982C115.971 14.6982 112.553 7.57719 107.721 3.32492C102.889 -0.927338 95.2185 0.191678 92.9398 3.05026C90.661 5.90884 88.9622 13.569 87.2531 12.9993C85.5441 12.4297 79.5726 7.02785 74.7405 10.7308C69.9084 14.4337 73.886 18.981 70.478 20.395C67.0701 21.809 64.2217 16.7023 60.5188 18.981C56.8159 21.2597 56.826 25.7968 56.826 25.7968L44.3643 28.8995H140.722C140.722 28.8995 137.029 17.5466 132.756 14.1285C128.484 10.7104 124.506 17.8314 121.383 18.1163C118.26 18.4011 115.971 14.6982 115.971 14.6982Z" stroke="#263238" stroke-width="1.01729" stroke-linecap="round" stroke-linejoin="round"/>
<path d="M220.182 118.451C218.658 115.969 216.697 113.784 214.394 112.002C210.996 109.58 205.605 110.221 204.008 111.839C202.41 113.456 201.21 117.8 200.01 117.485C198.809 117.169 194.618 114.097 191.22 116.193C187.822 118.288 190.62 120.862 188.219 121.676C185.818 122.49 183.825 119.58 181.23 120.862C180.491 121.217 179.86 121.764 179.404 122.446C178.948 123.127 178.683 123.919 178.636 124.738L169.888 126.498H237.578C237.578 126.498 234.994 120.038 231.942 118.126C228.89 116.213 226.154 120.221 223.957 120.384C221.759 120.547 220.182 118.451 220.182 118.451Z" stroke="#263238" stroke-width="1.01729" stroke-linecap="round" stroke-linejoin="round"/>
<path d="M57.1617 149.774C55.6293 147.295 53.6655 145.111 51.3632 143.324C47.9756 140.903 42.5738 141.554 40.9767 143.161C39.3795 144.769 38.1791 149.133 36.9787 148.807C35.7783 148.482 31.5871 145.471 28.1894 147.505C24.7916 149.54 27.5892 152.185 25.1986 152.988C22.8079 153.792 20.8039 150.893 18.1996 152.185C17.461 152.538 16.8307 153.083 16.3745 153.763C15.9182 154.443 15.6527 155.233 15.6055 156.05L6.84668 157.82H74.5472C74.5472 157.82 71.9429 151.371 68.9521 149.438C65.9613 147.505 63.1536 151.534 60.9562 151.696C58.7589 151.859 57.1617 149.774 57.1617 149.774Z" stroke="#263238" stroke-width="1.01729" stroke-linecap="round" stroke-linejoin="round"/>
<path d="M13.0929 203.212C14.4092 202.842 15.6638 202.28 16.8161 201.544C16.8161 201.544 15.3309 200.232 15.2292 200.16C14.0084 199.336 11.16 198.472 9.89859 199.479C9.68811 199.652 9.51651 199.868 9.39497 200.112C9.27342 200.357 9.20465 200.624 9.19314 200.896C9.18162 201.169 9.22762 201.441 9.32813 201.694C9.42864 201.948 9.58142 202.177 9.77652 202.368C10.2348 202.741 10.7689 203.01 11.3416 203.156C11.9143 203.302 12.5119 203.321 13.0929 203.212Z" fill="#263238"/>
<path d="M18.1589 209.905C19.3262 209.213 20.3825 208.349 21.2921 207.342C22.4 208.398 23.5795 209.377 24.8221 210.271C25.5342 210.8 26.2768 211.289 27.0296 211.807L26.2667 211.462C24.873 210.994 21.9127 210.892 20.9361 212.214C20.781 212.437 20.6744 212.69 20.6231 212.957C20.5718 213.224 20.577 213.498 20.6384 213.763C20.6997 214.027 20.8159 214.276 20.9793 214.493C21.1427 214.71 21.3498 214.89 21.5871 215.022C22.1272 215.26 22.7127 215.378 23.3029 215.368C23.8931 215.357 24.474 215.218 25.0052 214.961C26.1434 214.299 27.1727 213.465 28.0571 212.489L28.9218 213.059C30.3155 213.964 31.699 214.859 32.9909 215.775C33.4589 216.1 33.9167 216.436 34.3744 216.792L33.7132 216.487C32.3195 216.019 29.3694 215.917 28.3826 217.24C28.2275 217.463 28.1209 217.716 28.0697 217.982C28.0184 218.249 28.0236 218.524 28.0849 218.788C28.1463 219.053 28.2624 219.301 28.4258 219.518C28.5892 219.735 28.7963 219.915 29.0337 220.047C29.5737 220.286 30.1592 220.404 30.7494 220.393C31.3397 220.383 31.9206 220.244 32.4518 219.986C33.5597 219.348 34.5618 218.542 35.4222 217.596C35.88 217.952 36.3378 218.308 36.7651 218.674C37.1923 219.04 37.3347 219.152 37.6094 219.427L38.4232 220.22C38.9217 220.739 39.4405 221.238 39.9187 221.787L40.8749 222.804L39.3998 221.787C38.0977 221.116 35.1883 220.576 34.0184 221.726C33.8308 221.923 33.6868 222.158 33.5957 222.414C33.5046 222.671 33.4684 222.944 33.4895 223.215C33.5106 223.487 33.5885 223.751 33.7182 223.99C33.8478 224.229 34.0264 224.439 34.2422 224.605C34.7398 224.922 35.3006 225.128 35.8856 225.207C36.4705 225.286 37.0657 225.237 37.6298 225.063C38.8806 224.567 40.0473 223.88 41.0885 223.028C41.6074 223.608 42.1058 224.178 42.5636 224.727C43.0214 225.276 43.235 225.52 43.5809 225.897L44.4659 225.378L43.3367 224.086C42.8179 223.496 42.2482 222.875 41.6582 222.245C42.1577 221.591 42.6229 220.912 43.0519 220.21C44.3335 220.444 45.6413 220.499 46.9379 220.373C47.0499 221.146 47.1516 221.899 47.2431 222.601C47.2431 222.977 47.3245 223.333 47.3652 223.689L48.2909 223.14C48.2909 222.916 48.2909 222.703 48.1994 222.479C48.0977 221.695 47.9552 220.861 47.8128 220.007C49.1018 219.606 50.3228 219.013 51.4344 218.247C51.887 217.875 52.254 217.41 52.5104 216.883C52.7667 216.356 52.9063 215.781 52.9196 215.195C52.9012 214.923 52.8255 214.658 52.6975 214.418C52.5695 214.177 52.3921 213.966 52.1769 213.799C51.9617 213.632 51.7136 213.512 51.4489 213.448C51.1842 213.383 50.9088 213.376 50.6409 213.425C49.0336 213.761 47.884 216.477 47.7213 217.942C47.7213 218.023 47.7213 218.959 47.7213 219.559C47.6602 219.213 47.6094 218.878 47.5381 218.542C47.4161 217.83 47.2635 217.128 47.1109 216.365L46.8362 215.266C46.7548 214.9 46.6226 214.513 46.5209 214.137C46.2462 213.262 45.941 212.387 45.6053 211.523C46.8993 211.327 48.1553 210.932 49.3286 210.353C49.8358 210.051 50.2714 209.643 50.6051 209.156C50.9389 208.67 51.1628 208.117 51.2614 207.535C51.2845 207.263 51.2499 206.99 51.1599 206.733C51.0699 206.476 50.9265 206.24 50.7392 206.042C50.5519 205.845 50.3248 205.688 50.073 205.585C49.8211 205.481 49.5501 205.431 49.2777 205.439C47.6399 205.531 46.0834 208.043 45.7172 209.508C45.7172 209.59 45.5341 210.638 45.4629 211.217C45.2594 210.688 45.056 210.2 44.8322 209.651C44.1811 208.145 43.4792 206.599 42.7976 205.134C42.584 204.676 42.3805 204.218 42.1669 203.75C43.5084 203.553 44.812 203.151 46.0326 202.56C46.5386 202.26 46.9735 201.853 47.3072 201.369C47.6408 200.884 47.8654 200.332 47.9654 199.753C47.9884 199.481 47.9537 199.207 47.8638 198.949C47.7739 198.691 47.6307 198.456 47.4436 198.257C47.2564 198.058 47.0295 197.901 46.7776 197.796C46.5258 197.691 46.2546 197.64 45.9817 197.647C44.3439 197.738 42.7874 200.251 42.411 201.716C42.411 201.818 42.1669 203.323 42.1262 203.75C41.6684 202.733 41.2208 201.716 40.824 200.699C40.2685 199.277 39.813 197.819 39.4609 196.334C40.808 196.127 42.1173 195.722 43.3469 195.134C43.853 194.834 44.2878 194.427 44.6215 193.942C44.9552 193.458 45.1798 192.906 45.2798 192.326C45.3012 192.055 45.2655 191.783 45.1749 191.526C45.0843 191.27 44.9409 191.035 44.7539 190.837C44.5669 190.64 44.3405 190.484 44.0894 190.379C43.8383 190.275 43.568 190.224 43.2961 190.231C41.6582 190.322 40.1018 192.835 39.7254 194.3C39.7254 194.412 39.4609 196.029 39.4405 196.334C39.4405 196.253 39.3897 196.172 39.3693 196.08C39.0434 194.632 38.846 193.158 38.7793 191.675C38.7793 190.861 38.7793 190.078 38.7793 189.315C40.109 189.258 41.4226 189.001 42.6755 188.552C43.2136 188.31 43.6926 187.953 44.079 187.507C44.4655 187.06 44.7502 186.536 44.9135 185.968C44.966 185.701 44.9615 185.426 44.9003 185.161C44.8391 184.896 44.7225 184.646 44.5583 184.429C44.3941 184.212 44.1859 184.032 43.9473 183.901C43.7088 183.77 43.4452 183.691 43.174 183.669C41.5361 183.578 39.705 185.907 39.1862 187.27C39.1862 187.352 38.9522 188.135 38.7996 188.715C38.7996 188.369 38.7996 188.013 38.7996 187.698C38.8709 186.467 39.0133 185.338 39.1455 184.33C39.2269 183.774 39.3083 183.256 39.3897 182.774C40.5266 182.118 41.5559 181.291 42.4415 180.322C42.8073 179.859 43.0677 179.321 43.2047 178.746C43.3417 178.172 43.3521 177.575 43.235 176.996C43.1655 176.735 43.0423 176.492 42.8733 176.283C42.7044 176.073 42.4934 175.9 42.2539 175.777C42.0144 175.653 41.7517 175.581 41.4827 175.565C41.2137 175.549 40.9443 175.589 40.6918 175.684C39.1964 176.355 38.6572 179.264 38.8098 180.77C38.8098 180.902 39.2676 182.805 39.2981 182.805C39.2066 183.262 39.115 183.761 39.0336 184.3C38.8709 185.317 38.7081 186.426 38.6165 187.667C38.4968 189.003 38.456 190.345 38.4945 191.685C38.5251 193.189 38.692 194.688 38.9929 196.162C38.9919 196.178 38.9919 196.195 38.9929 196.212C38.759 195.795 38.0672 194.646 37.9756 194.564C37.0804 193.405 34.6695 191.696 33.1232 192.255C32.8692 192.354 32.6389 192.506 32.4473 192.7C32.2558 192.894 32.1072 193.126 32.0112 193.381C31.9153 193.637 31.8741 193.909 31.8904 194.181C31.9067 194.453 31.9801 194.719 32.1059 194.961C32.4246 195.457 32.8471 195.877 33.3442 196.193C33.8412 196.509 34.401 196.714 34.9848 196.792C36.354 196.864 37.7261 196.726 39.054 196.385C39.3978 197.878 39.8395 199.346 40.3764 200.78C40.6816 201.614 41.0173 202.448 41.3937 203.272L40.9563 202.56C40.0611 201.401 37.6399 199.692 36.1038 200.251C35.8498 200.35 35.6196 200.502 35.428 200.696C35.2364 200.89 35.0878 201.122 34.9919 201.377C34.8959 201.632 34.8548 201.905 34.8711 202.177C34.8874 202.449 34.9608 202.715 35.0865 202.957C35.4042 203.454 35.8262 203.877 36.3233 204.195C36.8205 204.512 37.3808 204.718 37.9655 204.798C39.2796 204.867 40.5967 204.737 41.8719 204.412C42.0143 204.727 42.1465 205.042 42.2788 205.358C42.94 206.884 43.6114 208.41 44.2218 209.905C44.4354 210.434 44.6287 210.922 44.822 211.492L44.4354 210.871C43.5402 209.712 41.1292 208.003 39.583 208.562C39.329 208.661 39.0987 208.813 38.9071 209.007C38.7155 209.201 38.5669 209.433 38.471 209.688C38.375 209.944 38.3339 210.216 38.3502 210.488C38.3665 210.761 38.4399 211.026 38.5657 211.268C38.8844 211.764 39.3069 212.184 39.8039 212.5C40.301 212.816 40.8608 213.021 41.4446 213.099C42.7236 213.179 44.0072 213.059 45.2492 212.743C45.4324 213.293 45.6155 213.842 45.7681 214.381C45.8596 214.747 45.9817 215.103 46.0529 215.48C46.1241 215.856 46.2258 216.222 46.2971 216.589C46.4293 217.291 46.5717 218.023 46.6836 218.725L46.8973 220.129C46.6836 219.6 46.2564 218.572 46.2157 218.491C45.5468 217.389 44.6086 216.475 43.4893 215.836C43.4198 215.709 43.3381 215.59 43.2452 215.48C43.0792 215.264 42.8697 215.085 42.6304 214.956C42.391 214.826 42.127 214.748 41.8555 214.727C41.5841 214.706 41.3113 214.742 41.0547 214.833C40.7981 214.924 40.5636 215.068 40.3663 215.256C39.2066 216.426 39.7457 219.325 40.4273 220.627C40.4273 220.709 40.9868 221.492 41.3327 221.98L40.6002 221.207C40.1018 220.688 39.583 220.19 39.0438 219.641L38.2096 218.867C37.9349 218.603 37.6196 218.359 37.3144 218.104C36.6125 217.525 35.8699 216.965 35.1171 216.426C36.0868 215.538 36.9168 214.51 37.5789 213.374C37.8349 212.844 37.9729 212.265 37.9834 211.677C37.994 211.088 37.8768 210.505 37.6399 209.966C37.509 209.726 37.329 209.517 37.1117 209.352C36.8943 209.186 36.6446 209.068 36.3787 209.006C36.1128 208.944 35.8367 208.938 35.5685 208.99C35.3003 209.041 35.0459 209.148 34.822 209.305C33.5097 210.322 33.6013 213.242 34.0693 214.625C34.0693 214.717 34.5474 215.643 34.8017 216.192L33.4182 215.236C32.0448 214.34 30.6308 213.476 29.2168 212.601L27.935 211.797C28.9501 210.882 29.8212 209.819 30.5189 208.644C30.7764 208.112 30.9153 207.532 30.9258 206.941C30.9363 206.351 30.8183 205.766 30.58 205.226C30.4493 204.985 30.2692 204.776 30.0516 204.611C29.8339 204.445 29.5837 204.328 29.3174 204.266C29.0511 204.205 28.7748 204.2 28.5067 204.254C28.2386 204.307 27.9848 204.416 27.7621 204.574C26.4498 205.592 26.5413 208.501 27.0093 209.895C27.0093 209.997 27.6909 211.37 27.874 211.716C26.9279 211.126 25.992 210.526 25.0968 209.895C23.8853 209.048 22.7268 208.127 21.6278 207.138C22.6418 206.226 23.5128 205.166 24.2117 203.995C24.4692 203.463 24.6081 202.883 24.6186 202.292C24.6292 201.702 24.5111 201.117 24.2728 200.577C24.1409 200.338 23.9603 200.129 23.7425 199.965C23.5248 199.8 23.2749 199.684 23.0091 199.622C22.7433 199.561 22.4675 199.556 22.1997 199.608C21.9319 199.661 21.6781 199.769 21.4549 199.925C20.1426 200.943 20.2341 203.862 20.7021 205.246C20.7021 205.358 21.4345 206.833 21.577 207.097L21.3837 206.924C20.3166 205.894 19.3398 204.775 18.4641 203.578C17.9656 202.916 17.5383 202.265 17.1314 201.624C18.2117 200.843 19.1685 199.903 19.9696 198.837C20.2837 198.338 20.4855 197.776 20.561 197.191C20.6365 196.606 20.584 196.012 20.4071 195.449C20.3022 195.198 20.1456 194.971 19.9474 194.784C19.7493 194.597 19.514 194.454 19.2569 194.364C18.9998 194.274 18.7266 194.239 18.4551 194.261C18.1836 194.283 17.9197 194.362 17.6807 194.493C16.2667 195.317 16.0327 198.267 16.3481 199.702C16.3481 199.773 16.6228 200.546 16.8161 201.106C16.6431 200.811 16.4498 200.505 16.2871 200.22C15.6563 199.203 15.1579 198.186 14.7103 197.23C14.4661 196.711 14.2525 196.212 14.0592 195.795C14.6526 194.609 15.0641 193.34 15.2799 192.031C15.3285 191.444 15.249 190.854 15.047 190.301C14.845 189.747 14.5254 189.245 14.1101 188.827C13.9018 188.651 13.6587 188.521 13.3966 188.445C13.1346 188.37 12.8595 188.351 12.5895 188.389C12.3195 188.428 12.0607 188.523 11.8301 188.668C11.5995 188.814 11.4023 189.007 11.2515 189.234C10.3766 190.617 11.5262 193.303 12.4621 194.463C12.5434 194.564 13.988 195.938 13.9982 195.907C14.1711 196.345 14.3746 196.802 14.5984 197.301C15.0155 198.216 15.5038 199.254 16.104 200.353C16.7437 201.531 17.4501 202.673 18.2199 203.771C19.0796 205.006 20.0464 206.164 21.109 207.23C20.6817 207.016 19.4712 206.436 19.3694 206.406C17.9859 205.938 15.0256 205.836 14.049 207.158C13.8922 207.382 13.7842 207.635 13.7319 207.903C13.6797 208.171 13.6845 208.447 13.7459 208.713C13.8073 208.978 13.924 209.228 14.0884 209.446C14.2528 209.664 14.4612 209.844 14.7001 209.976C15.2464 210.219 15.8396 210.339 16.4374 210.327C17.0352 210.314 17.623 210.17 18.1589 209.905Z" fill="#263238"/>
<path d="M38.5353 189.031C38.5353 189.031 38.0266 187.119 37.9757 186.997C37.4162 185.644 35.5343 183.355 33.9066 183.487C33.6351 183.516 33.3729 183.603 33.137 183.74C32.9011 183.877 32.6969 184.063 32.5375 184.285C32.3782 184.507 32.2674 184.759 32.2123 185.027C32.1572 185.294 32.1591 185.57 32.2179 185.837C32.3945 186.398 32.6905 186.914 33.0856 187.349C33.4808 187.785 33.9656 188.13 34.5068 188.36C35.8091 188.781 37.1666 189.008 38.5353 189.031Z" fill="#263238"/>
<path d="M183.448 205.694C184.845 206.061 186.288 206.222 187.731 206.172C187.731 206.172 187.08 204.138 187.019 204.056C186.357 202.663 184.242 200.364 182.532 200.587C182.247 200.631 181.973 200.735 181.731 200.893C181.488 201.051 181.282 201.258 181.126 201.502C180.97 201.745 180.868 202.019 180.826 202.305C180.785 202.592 180.805 202.883 180.884 203.161C181.101 203.745 181.442 204.274 181.885 204.712C182.328 205.15 182.862 205.485 183.448 205.694Z" fill="#263238"/>
<path d="M184.496 214.493C185.929 214.492 187.353 214.269 188.718 213.832C189.162 215.386 189.709 216.908 190.355 218.389C190.732 219.254 191.139 220.109 191.546 220.963C191.302 220.607 191.078 220.282 191.037 220.241C190.02 219.071 187.385 217.403 185.798 218.084C185.534 218.201 185.299 218.373 185.107 218.589C184.915 218.804 184.771 219.057 184.684 219.332C184.598 219.608 184.57 219.898 184.605 220.184C184.639 220.471 184.734 220.747 184.882 220.994C185.249 221.497 185.719 221.916 186.261 222.221C186.804 222.527 187.406 222.712 188.026 222.764C189.406 222.759 190.778 222.546 192.095 222.133L192.583 223.15C193.367 224.717 194.16 226.273 194.882 227.83C195.147 228.369 195.371 228.918 195.615 229.468L195.167 228.837C194.15 227.667 191.515 226.009 189.918 226.68C189.655 226.798 189.421 226.971 189.23 227.187C189.039 227.402 188.896 227.656 188.81 227.931C188.725 228.206 188.698 228.496 188.733 228.782C188.768 229.068 188.863 229.343 189.013 229.59C189.375 230.097 189.845 230.518 190.388 230.824C190.931 231.13 191.535 231.313 192.156 231.36C193.508 231.368 194.854 231.166 196.144 230.76C196.368 231.329 196.591 231.899 196.785 232.458C196.907 232.845 197.049 233.201 197.151 233.598C197.253 233.995 197.365 234.371 197.476 234.747C197.649 235.49 197.843 236.253 197.995 236.985C198.107 237.484 198.199 238.003 198.3 238.45C198.056 237.911 197.538 236.843 197.487 236.762C196.663 235.449 194.303 233.405 192.624 233.832C192.346 233.909 192.087 234.045 191.865 234.229C191.643 234.414 191.463 234.644 191.337 234.904C191.211 235.164 191.142 235.448 191.134 235.736C191.126 236.025 191.18 236.312 191.291 236.578C191.575 237.132 191.976 237.617 192.466 238C192.956 238.383 193.524 238.655 194.13 238.796C195.535 239.011 196.966 239.011 198.372 238.796C198.534 239.6 198.677 240.383 198.809 241.126C198.911 241.675 198.992 242.204 199.074 242.713H200.152C200.05 242.143 199.938 241.553 199.816 240.932C199.653 240.119 199.47 239.254 199.267 238.359C200.078 238.032 200.869 237.658 201.637 237.24C202.677 238.14 203.838 238.89 205.086 239.468C204.781 240.231 204.475 240.963 204.17 241.655L203.702 242.672H204.842C204.933 242.448 205.025 242.245 205.116 242.011C205.432 241.248 205.757 240.414 206.134 239.559C207.519 239.884 208.947 239.994 210.365 239.885C210.983 239.787 211.572 239.554 212.089 239.202C212.606 238.85 213.039 238.389 213.356 237.85C213.486 237.593 213.559 237.311 213.571 237.024C213.583 236.736 213.535 236.449 213.428 236.182C213.321 235.915 213.159 235.673 212.952 235.473C212.745 235.273 212.498 235.119 212.227 235.022C210.589 234.473 208.077 236.334 207.141 237.575C207.09 237.647 206.591 238.511 206.286 239.061C206.418 238.715 206.541 238.369 206.673 238.043C206.937 237.331 207.181 236.609 207.436 235.836C207.548 235.459 207.67 235.073 207.782 234.686C207.893 234.3 207.985 233.893 208.087 233.486C208.311 232.55 208.494 231.594 208.656 230.617C209.941 231.129 211.296 231.441 212.675 231.543C213.297 231.538 213.911 231.4 214.474 231.136C215.038 230.873 215.538 230.491 215.94 230.017C216.107 229.782 216.223 229.514 216.279 229.231C216.335 228.948 216.33 228.657 216.264 228.376C216.199 228.095 216.074 227.831 215.899 227.602C215.724 227.373 215.502 227.183 215.248 227.047C213.712 226.253 210.945 227.708 209.857 228.806C209.786 228.867 209.084 229.742 208.707 230.231C208.809 229.641 208.901 229.061 208.972 228.461C209.185 226.751 209.348 225.002 209.521 223.262C209.521 222.733 209.623 222.245 209.684 221.665C211.007 222.215 212.407 222.558 213.834 222.682C214.457 222.681 215.072 222.544 215.636 222.281C216.2 222.017 216.7 221.633 217.1 221.156C217.267 220.921 217.383 220.654 217.438 220.371C217.494 220.088 217.489 219.796 217.424 219.515C217.358 219.234 217.234 218.971 217.059 218.741C216.884 218.512 216.662 218.323 216.408 218.186C214.872 217.392 212.115 218.857 211.017 219.946C210.935 220.027 209.928 221.278 209.694 221.614C209.816 220.444 209.948 219.274 210.132 218.135C210.37 216.592 210.71 215.066 211.149 213.567C212.482 214.107 213.887 214.45 215.32 214.585C215.943 214.585 216.558 214.449 217.122 214.185C217.686 213.921 218.186 213.537 218.585 213.059C218.753 212.824 218.869 212.557 218.925 212.275C218.982 211.992 218.978 211.701 218.913 211.42C218.849 211.139 218.726 210.875 218.552 210.646C218.377 210.416 218.157 210.226 217.904 210.088C216.357 209.295 213.6 210.76 212.502 211.848C212.42 211.93 211.342 213.283 211.159 213.537C211.189 213.45 211.212 213.362 211.23 213.272C211.704 211.78 212.31 210.334 213.041 208.949C213.438 208.176 213.855 207.464 214.282 206.772C215.521 207.44 216.856 207.91 218.239 208.166C218.858 208.233 219.483 208.165 220.072 207.964C220.661 207.764 221.199 207.437 221.647 207.006C221.844 206.791 221.991 206.536 222.081 206.259C222.17 205.981 222.199 205.688 222.165 205.399C222.131 205.109 222.036 204.831 221.885 204.582C221.734 204.332 221.532 204.118 221.291 203.954C219.847 202.998 216.947 204.147 215.737 205.114C215.676 205.165 215.065 205.775 214.628 206.223C214.821 205.917 215.015 205.592 215.208 205.307C215.93 204.219 216.663 203.272 217.314 202.418C217.69 201.95 218.046 201.523 218.331 201.136C219.73 201.15 221.122 200.951 222.461 200.546C223.042 200.321 223.565 199.97 223.996 199.52C224.427 199.071 224.753 198.532 224.953 197.942C225.025 197.663 225.036 197.372 224.987 197.088C224.938 196.804 224.829 196.534 224.667 196.296C224.505 196.057 224.295 195.856 224.05 195.705C223.805 195.553 223.53 195.456 223.244 195.419C221.525 195.236 219.48 197.596 218.85 199.01C218.789 199.132 218.158 201.136 218.188 201.136C217.863 201.502 217.517 201.909 217.171 202.347C216.5 203.181 215.747 204.117 214.994 205.195C214.17 206.349 213.416 207.552 212.736 208.796C211.962 210.183 211.316 211.637 210.803 213.14C210.802 213.157 210.802 213.174 210.803 213.191C210.803 212.682 210.803 211.268 210.803 211.156C210.599 209.62 209.318 206.772 207.619 206.467C207.334 206.419 207.043 206.432 206.763 206.506C206.484 206.579 206.224 206.711 206 206.893C205.775 207.075 205.593 207.302 205.463 207.56C205.334 207.818 205.26 208.101 205.249 208.389C205.274 209.011 205.435 209.62 205.719 210.173C206.004 210.727 206.406 211.212 206.897 211.594C208.096 212.378 209.406 212.978 210.783 213.374C210.298 214.913 209.917 216.484 209.643 218.074C209.48 219.003 209.338 219.939 209.216 220.882C209.216 220.444 209.216 220.048 209.216 219.997C209.023 218.461 207.741 215.612 206.032 215.297C205.747 215.25 205.456 215.265 205.177 215.34C204.899 215.415 204.639 215.548 204.416 215.731C204.193 215.914 204.011 216.142 203.883 216.4C203.754 216.659 203.682 216.941 203.672 217.23C203.695 217.851 203.854 218.459 204.137 219.013C204.42 219.566 204.82 220.051 205.31 220.434C206.47 221.205 207.744 221.792 209.084 222.174C209.033 222.54 208.982 222.896 208.941 223.262C208.738 224.992 208.534 226.731 208.29 228.43C208.199 229.03 208.097 229.61 207.985 230.2C207.985 229.803 207.985 229.478 207.985 229.427C207.792 227.891 206.5 225.053 204.801 224.737C204.517 224.691 204.227 224.705 203.949 224.78C203.671 224.854 203.412 224.986 203.189 225.168C202.966 225.35 202.784 225.577 202.655 225.834C202.526 226.091 202.453 226.373 202.441 226.66C202.464 227.281 202.623 227.89 202.906 228.443C203.189 228.996 203.589 229.482 204.079 229.864C205.202 230.623 206.438 231.2 207.741 231.573C207.609 232.163 207.487 232.764 207.334 233.333C207.222 233.73 207.151 234.106 207.019 234.493C206.886 234.88 206.764 235.256 206.642 235.632C206.388 236.345 206.123 237.087 205.849 237.779C205.666 238.257 205.483 238.715 205.299 239.173C205.391 238.583 205.544 237.413 205.554 237.311C205.546 235.957 205.196 234.628 204.536 233.445C204.547 233.293 204.547 233.14 204.536 232.987C204.502 232.702 204.407 232.428 204.258 232.182C204.109 231.936 203.91 231.724 203.674 231.561C203.437 231.397 203.169 231.286 202.886 231.234C202.604 231.182 202.313 231.19 202.034 231.258C200.355 231.696 199.297 234.635 199.216 236.182C199.216 236.273 199.267 237.27 199.318 237.891C199.236 237.525 199.155 237.169 199.063 236.802C198.89 236.06 198.697 235.327 198.484 234.534C198.372 234.157 198.26 233.781 198.138 233.394C198.016 233.008 197.873 232.611 197.731 232.225C197.405 231.319 197.029 230.414 196.622 229.519C197.974 229.239 199.274 228.751 200.477 228.074C200.994 227.732 201.43 227.283 201.755 226.756C202.08 226.228 202.286 225.637 202.359 225.022C202.369 224.735 202.318 224.448 202.209 224.182C202.1 223.916 201.935 223.676 201.727 223.478C201.518 223.28 201.27 223.128 200.999 223.033C200.727 222.938 200.439 222.902 200.152 222.926C198.423 223.11 196.937 225.856 196.622 227.372C196.622 227.464 196.5 228.572 196.449 229.193C196.205 228.654 195.961 228.115 195.696 227.576C194.933 226.029 194.099 224.524 193.285 222.937L192.543 221.512C193.943 221.228 195.291 220.731 196.541 220.037C197.056 219.695 197.491 219.245 197.816 218.718C198.141 218.191 198.348 217.6 198.423 216.986C198.432 216.698 198.381 216.412 198.272 216.146C198.163 215.879 197.998 215.639 197.79 215.441C197.581 215.243 197.333 215.092 197.062 214.997C196.79 214.902 196.502 214.865 196.215 214.89C194.486 215.083 192.99 217.82 192.685 219.335C192.685 219.447 192.512 221.055 192.502 221.462C191.953 220.444 191.424 219.366 190.945 218.318C190.286 216.903 189.722 215.445 189.257 213.954C190.681 213.67 192.054 213.169 193.326 212.469C193.842 212.126 194.277 211.676 194.602 211.149C194.927 210.622 195.133 210.031 195.208 209.417C195.219 209.129 195.169 208.841 195.06 208.574C194.952 208.306 194.788 208.065 194.579 207.866C194.37 207.667 194.122 207.514 193.849 207.419C193.577 207.323 193.288 207.286 193 207.311C191.271 207.504 189.776 210.241 189.47 211.757C189.47 211.879 189.287 213.598 189.287 213.913C189.251 213.827 189.22 213.739 189.196 213.649C188.764 212.143 188.471 210.6 188.321 209.041C188.219 208.186 188.178 207.362 188.148 206.548C189.549 206.421 190.921 206.077 192.217 205.531C192.769 205.244 193.253 204.841 193.634 204.35C194.015 203.858 194.285 203.289 194.425 202.682C194.496 202.37 194.493 202.045 194.415 201.734C194.338 201.423 194.188 201.135 193.977 200.893C193.767 200.651 193.503 200.462 193.206 200.342C192.909 200.221 192.587 200.173 192.268 200.2C190.539 200.2 188.748 202.754 188.28 204.269C188.28 204.351 188.077 205.185 187.955 205.806C187.955 205.439 187.955 205.063 187.955 204.717C187.955 203.405 188.036 202.204 188.117 201.146C188.168 200.546 188.229 199.997 188.29 199.488C189.464 198.727 190.517 197.795 191.413 196.721C191.771 196.213 192.013 195.633 192.124 195.022C192.234 194.41 192.211 193.782 192.054 193.181C191.96 192.909 191.809 192.66 191.611 192.451C191.413 192.241 191.173 192.076 190.907 191.967C190.64 191.857 190.354 191.805 190.066 191.815C189.778 191.824 189.495 191.894 189.236 192.021C187.69 192.815 187.293 195.907 187.548 197.433C187.548 197.566 188.148 199.59 188.178 199.57C188.117 200.058 188.046 200.587 187.985 201.157C187.883 202.174 187.772 203.415 187.741 204.737C187.696 206.152 187.73 207.568 187.843 208.979C187.967 210.562 188.229 212.132 188.626 213.669C188.631 213.686 188.631 213.704 188.626 213.72C188.351 213.293 187.548 212.123 187.477 212.042C186.459 210.872 183.824 209.203 182.237 209.885C181.974 210.002 181.738 210.174 181.546 210.389C181.354 210.604 181.21 210.858 181.124 211.133C181.037 211.408 181.01 211.699 181.044 211.985C181.078 212.271 181.173 212.547 181.322 212.794C181.696 213.291 182.174 213.7 182.722 213.993C183.27 214.287 183.875 214.457 184.496 214.493Z" fill="#263238"/>
<path d="M214.19 206.366C214.19 206.366 214.74 204.331 214.76 204.209C214.974 202.683 214.485 199.59 212.929 198.838C212.666 198.718 212.381 198.655 212.093 198.653C211.804 198.652 211.519 198.712 211.255 198.829C210.991 198.947 210.756 199.119 210.564 199.334C210.372 199.55 210.228 199.803 210.141 200.079C210.001 200.686 209.995 201.316 210.123 201.926C210.251 202.535 210.511 203.11 210.884 203.609C211.846 204.684 212.96 205.612 214.19 206.366Z" fill="#263238"/>
<path d="M156.673 75.8975H52.36C45.736 75.8975 40.3662 81.2673 40.3662 87.8913V230.617C40.3662 237.241 45.736 242.611 52.36 242.611H156.673C163.297 242.611 168.667 237.241 168.667 230.617V87.8913C168.667 81.2673 163.297 75.8975 156.673 75.8975Z" fill="#263238"/>
<path d="M162.522 85.7451H46.5005V234.696H162.522V85.7451Z" fill="white" stroke="#263238" stroke-width="1.01729" stroke-linecap="round" stroke-linejoin="round"/>
<path d="M119.796 72.5315C119.229 72.5241 118.674 72.3634 118.191 72.0665C117.708 71.7695 117.314 71.3474 117.051 70.8447C116.789 70.3421 116.667 69.7777 116.699 69.2114C116.73 68.6452 116.915 68.0981 117.233 67.6281C118.128 66.1829 118.676 64.5499 118.833 62.8573C118.991 61.1646 118.754 59.4585 118.141 57.8729C117.528 56.2873 116.556 54.8653 115.301 53.7188C114.046 52.5722 112.542 51.7322 110.908 51.2647C109.273 50.7973 107.553 50.7151 105.881 51.0247C104.21 51.3343 102.633 52.0272 101.274 53.0489C99.9153 54.0707 98.8121 55.3935 98.0509 56.9135C97.2897 58.4335 96.8912 60.1093 96.8868 61.8093C96.8835 63.9388 97.5061 66.0224 98.6773 67.8011C98.9685 68.2736 99.1276 68.8157 99.138 69.3707C99.1485 69.9256 99.0098 70.4733 98.7365 70.9564C98.4633 71.4396 98.0654 71.8406 97.5844 72.1176C97.1034 72.3946 96.5569 72.5376 96.0018 72.5315H76.9175L82.0751 87.3635H133.743L138.901 72.5315H119.796ZM107.914 66.2039C107.154 66.2039 106.41 65.9784 105.778 65.5559C105.146 65.1334 104.653 64.5328 104.362 63.8301C104.071 63.1275 103.994 62.3543 104.143 61.6084C104.291 60.8625 104.657 60.1773 105.195 59.6395C105.733 59.1017 106.418 58.7355 107.164 58.5871C107.91 58.4388 108.683 58.5149 109.386 58.806C110.088 59.097 110.689 59.5899 111.112 60.2222C111.534 60.8546 111.76 61.5981 111.76 62.3586C111.757 63.3776 111.351 64.3541 110.63 65.0747C109.91 65.7953 108.933 66.2013 107.914 66.2039Z" fill="#08B7F9" stroke="black" stroke-width="1.01729" stroke-miterlimit="10"/>
<path d="M58.7288 104.393H56.3687V103.111H62.4724V104.393H60.1326V110.568H58.7288V104.393Z" fill="black"/>
<path d="M68.6373 109.154H64.7411L64.0901 110.568H62.5845L65.9212 103.111H67.4573L70.8042 110.568H69.268L68.6373 109.154ZM66.6943 104.678L65.3108 107.832H68.0778L66.6943 104.678Z" fill="black"/>
<path d="M75.9204 104.911C75.7132 104.641 75.4444 104.424 75.1365 104.279C74.8286 104.134 74.4905 104.065 74.1503 104.077C73.133 104.077 72.6142 104.514 72.6142 105.094C72.6142 105.674 73.3772 105.918 74.2724 106.03C75.8289 106.223 77.2734 106.62 77.2734 108.4C77.2734 110.18 75.7983 110.77 74.1402 110.77C72.482 110.77 71.4545 110.302 70.895 108.939L72.0649 108.339C72.2554 108.723 72.5571 109.042 72.9309 109.252C73.3046 109.463 73.7331 109.556 74.1605 109.519C75.0456 109.519 75.8797 109.214 75.8797 108.4C75.8797 107.586 75.1473 107.383 74.1503 107.301C72.6346 107.129 71.2307 106.722 71.2307 105.053C71.2307 103.385 72.7363 102.886 74.1096 102.876C74.6888 102.819 75.2723 102.928 75.7914 103.191C76.3105 103.454 76.7435 103.86 77.0394 104.362L75.9204 104.911Z" fill="black"/>
<path d="M84.3437 103.152L81.0274 106.723L84.6184 110.476V110.568H82.8788L79.7659 107.262V110.568H78.3315V103.111H79.7354V106.265L82.5635 103.111H84.3132L84.3437 103.152Z" fill="black"/>
<path d="M94.0489 109.621C93.6758 109.986 93.2332 110.272 92.7474 110.462C92.2616 110.653 91.7425 110.744 91.2209 110.73C90.7016 110.771 90.1796 110.701 89.6896 110.524C89.1996 110.347 88.7529 110.068 88.3793 109.705C88.0057 109.342 87.7139 108.904 87.5233 108.419C87.3326 107.934 87.2476 107.415 87.2738 106.894C87.2473 106.37 87.3314 105.846 87.5207 105.356C87.71 104.866 88.0001 104.422 88.3724 104.052C88.7446 103.681 89.1906 103.393 89.6813 103.207C90.1721 103.02 90.6966 102.939 91.2209 102.968C91.7298 102.967 92.2338 103.067 92.7037 103.262C93.1735 103.458 93.5997 103.745 93.9574 104.107L93.0113 105.002C92.5288 104.544 91.8864 104.292 91.2209 104.3C90.8769 104.282 90.533 104.337 90.2118 104.462C89.8906 104.586 89.5994 104.777 89.3573 105.022C89.1151 105.267 88.9276 105.561 88.807 105.884C88.6863 106.206 88.6353 106.551 88.6573 106.894C88.6376 107.234 88.6906 107.575 88.813 107.892C88.9355 108.21 89.1243 108.498 89.3671 108.737C89.6098 108.976 89.9008 109.16 90.2205 109.278C90.5402 109.395 90.8813 109.443 91.2209 109.417C91.9187 109.408 92.5873 109.136 93.0927 108.654L94.0489 109.621Z" fill="black"/>
<path d="M102.157 106.886C102.157 107.9 101.754 108.873 101.037 109.59C100.319 110.308 99.3463 110.711 98.3318 110.711C97.3174 110.711 96.3445 110.308 95.6272 109.59C94.9098 108.873 94.5068 107.9 94.5068 106.886C94.5068 105.871 94.9098 104.898 95.6272 104.181C96.3445 103.464 97.3174 103.061 98.3318 103.061C99.3463 103.061 100.319 103.464 101.037 104.181C101.754 104.898 102.157 105.871 102.157 106.886ZM95.8903 106.886C95.8903 107.533 96.1476 108.154 96.6054 108.612C97.0633 109.07 97.6843 109.327 98.3318 109.327C98.9794 109.327 99.6004 109.07 100.058 108.612C100.516 108.154 100.773 107.533 100.773 106.886C100.804 106.546 100.764 106.204 100.656 105.881C100.547 105.558 100.372 105.261 100.143 105.01C99.9129 104.758 99.6332 104.557 99.3214 104.419C99.0096 104.282 98.6726 104.211 98.3318 104.211C97.9911 104.211 97.654 104.282 97.3423 104.419C97.0305 104.557 96.7508 104.758 96.5211 105.01C96.2914 105.261 96.1166 105.558 96.008 105.881C95.8994 106.204 95.8593 106.546 95.8903 106.886Z" fill="black"/>
<path d="M109.685 105.166L107.264 108.401H106.979L104.608 105.156V110.578H103.205V103.121H104.781L107.111 106.326L109.441 103.121H111.048V110.578H109.644L109.685 105.166Z" fill="black"/>
<path d="M115.971 108.37H113.865V110.567H112.411V103.111H115.971C116.33 103.088 116.69 103.14 117.029 103.262C117.367 103.384 117.677 103.574 117.939 103.82C118.201 104.067 118.41 104.364 118.553 104.694C118.696 105.024 118.77 105.38 118.77 105.74C118.77 106.1 118.696 106.456 118.553 106.786C118.41 107.116 118.201 107.414 117.939 107.66C117.677 107.907 117.367 108.097 117.029 108.219C116.69 108.341 116.33 108.392 115.971 108.37ZM113.865 107.078H115.971C116.154 107.094 116.338 107.072 116.512 107.013C116.685 106.954 116.845 106.86 116.98 106.736C117.116 106.612 117.224 106.461 117.297 106.293C117.371 106.125 117.41 105.944 117.41 105.761C117.41 105.577 117.371 105.396 117.297 105.228C117.224 105.06 117.116 104.909 116.98 104.785C116.845 104.661 116.685 104.567 116.512 104.508C116.338 104.449 116.154 104.427 115.971 104.443H113.865V107.078Z" fill="black"/>
<path d="M121.058 103.111V109.215H124.883V110.517H119.654V103.061L121.058 103.111Z" fill="black"/>
<path d="M131.394 110.568H125.819V103.111H131.394V104.474H127.213V106.194H131.282V107.496H127.213V109.185H131.394V110.568Z" fill="black"/>
<path d="M134.842 104.393H132.482V103.111H138.586V104.393H136.226V110.568H134.822L134.842 104.393Z" fill="black"/>
<path d="M145.015 110.568H139.44V103.111H145.015V104.474H140.834V106.194H144.903V107.496H140.834V109.185H145.015V110.568Z" fill="black"/>
<path d="M152.665 106.814C152.703 107.316 152.634 107.82 152.462 108.293C152.289 108.766 152.017 109.197 151.665 109.557C151.312 109.916 150.887 110.196 150.417 110.377C149.947 110.559 149.444 110.637 148.942 110.608H146.012V103.152H148.942C149.433 103.123 149.925 103.197 150.385 103.37C150.846 103.543 151.265 103.811 151.616 104.156C151.967 104.501 152.242 104.916 152.422 105.374C152.603 105.832 152.686 106.322 152.665 106.814ZM147.405 109.255H148.942C149.547 109.216 150.115 108.947 150.53 108.504C150.945 108.061 151.176 107.477 151.176 106.87C151.176 106.263 150.945 105.678 150.53 105.235C150.115 104.792 149.547 104.524 148.942 104.484H147.405V109.255Z" fill="black"/>
<path d="M103.275 205.988C120.164 205.988 133.855 192.297 133.855 175.409C133.855 158.52 120.164 144.829 103.275 144.829C86.3868 144.829 72.6958 158.52 72.6958 175.409C72.6958 192.297 86.3868 205.988 103.275 205.988Z" stroke="#263238" stroke-width="2.03458" stroke-miterlimit="10"/>
<path d="M105.504 186.162C104.819 186.157 104.144 186.005 103.525 185.715C102.905 185.425 102.355 185.005 101.912 184.483L88.4436 168.868C88.0202 168.392 87.6958 167.836 87.4895 167.233C87.2832 166.629 87.199 165.991 87.2418 165.355C87.2847 164.719 87.4537 164.098 87.7391 163.528C88.0244 162.959 88.4204 162.451 88.9039 162.036C89.3875 161.62 89.9488 161.306 90.5553 161.11C91.1618 160.913 91.8012 160.84 92.4364 160.894C93.0715 160.947 93.6896 161.127 94.2546 161.422C94.8197 161.717 95.3203 162.121 95.7274 162.612L105.595 174.117L134.751 141.656C135.16 141.145 135.669 140.724 136.246 140.418C136.824 140.111 137.458 139.926 138.11 139.873C138.762 139.82 139.417 139.901 140.037 140.111C140.656 140.321 141.226 140.655 141.712 141.093C142.197 141.53 142.589 142.063 142.861 142.657C143.134 143.252 143.282 143.895 143.297 144.549C143.312 145.203 143.193 145.853 142.948 146.459C142.703 147.065 142.337 147.615 141.872 148.075L109.064 184.616C108.609 185.105 108.058 185.495 107.445 185.761C106.833 186.027 106.172 186.164 105.504 186.162Z" fill="#08B7F9" stroke="#263238" stroke-width="2.03458" stroke-miterlimit="10"/>
<path d="M179.714 156.568H211.016V176.528C211.016 178.416 210.266 180.227 208.93 181.563C207.595 182.898 205.784 183.649 203.895 183.649H186.815C184.926 183.649 183.115 182.898 181.78 181.563C180.444 180.227 179.694 178.416 179.694 176.528V156.568H179.714Z" fill="#08B7F9" stroke="black" stroke-width="1.01729" stroke-miterlimit="10"/>
<path d="M183.773 161.473V164.626" stroke="#263238" stroke-width="1.01729" stroke-linecap="round" stroke-linejoin="round"/>
<path d="M185.32 161.473V164.626" stroke="#263238" stroke-width="1.01729" stroke-linecap="round" stroke-linejoin="round"/>
<path d="M186.866 161.473V164.626" stroke="#263238" stroke-width="1.01729" stroke-linecap="round" stroke-linejoin="round"/>
<path d="M187.914 165.675V168.828" stroke="#263238" stroke-width="1.01729" stroke-linecap="round" stroke-linejoin="round"/>
<path d="M189.46 165.675V168.828" stroke="#263238" stroke-width="1.01729" stroke-linecap="round" stroke-linejoin="round"/>
<path d="M191.006 165.675V168.828" stroke="#263238" stroke-width="1.01729" stroke-linecap="round" stroke-linejoin="round"/>
<path d="M183.773 170.252V173.416" stroke="#263238" stroke-width="1.01729" stroke-linecap="round" stroke-linejoin="round"/>
<path d="M185.32 170.252V173.416" stroke="#263238" stroke-width="1.01729" stroke-linecap="round" stroke-linejoin="round"/>
<path d="M186.866 170.252V173.416" stroke="#263238" stroke-width="1.01729" stroke-linecap="round" stroke-linejoin="round"/>
<path d="M186.897 165.816H183.743" stroke="#263238" stroke-width="1.01729" stroke-linecap="round" stroke-linejoin="round"/>
<path d="M186.897 167.363H183.743" stroke="#263238" stroke-width="1.01729" stroke-linecap="round" stroke-linejoin="round"/>
<path d="M186.897 168.909H183.743" stroke="#263238" stroke-width="1.01729" stroke-linecap="round" stroke-linejoin="round"/>
<path d="M191.098 161.564H187.934" stroke="#263238" stroke-width="1.01729" stroke-linecap="round" stroke-linejoin="round"/>
<path d="M191.098 163.11H187.934" stroke="#263238" stroke-width="1.01729" stroke-linecap="round" stroke-linejoin="round"/>
<path d="M191.098 164.657H187.934" stroke="#263238" stroke-width="1.01729" stroke-linecap="round" stroke-linejoin="round"/>
<path d="M201.586 169.824V172.978" stroke="#263238" stroke-width="1.01729" stroke-linecap="round" stroke-linejoin="round"/>
<path d="M203.132 169.824V172.978" stroke="#263238" stroke-width="1.01729" stroke-linecap="round" stroke-linejoin="round"/>
<path d="M204.678 169.824V172.978" stroke="#263238" stroke-width="1.01729" stroke-linecap="round" stroke-linejoin="round"/>
<path d="M205.727 174.026V177.18" stroke="#263238" stroke-width="1.01729" stroke-linecap="round" stroke-linejoin="round"/>
<path d="M207.272 174.026V177.18" stroke="#263238" stroke-width="1.01729" stroke-linecap="round" stroke-linejoin="round"/>
<path d="M208.819 174.026V177.18" stroke="#263238" stroke-width="1.01729" stroke-linecap="round" stroke-linejoin="round"/>
<path d="M201.586 178.604V181.767" stroke="#263238" stroke-width="1.01729" stroke-linecap="round" stroke-linejoin="round"/>
<path d="M203.132 178.604V181.767" stroke="#263238" stroke-width="1.01729" stroke-linecap="round" stroke-linejoin="round"/>
<path d="M204.678 178.604V181.767" stroke="#263238" stroke-width="1.01729" stroke-linecap="round" stroke-linejoin="round"/>
<path d="M204.709 174.168H201.556" stroke="#263238" stroke-width="1.01729" stroke-linecap="round" stroke-linejoin="round"/>
<path d="M204.709 175.715H201.556" stroke="#263238" stroke-width="1.01729" stroke-linecap="round" stroke-linejoin="round"/>
<path d="M204.709 177.261H201.556" stroke="#263238" stroke-width="1.01729" stroke-linecap="round" stroke-linejoin="round"/>
<path d="M208.91 169.916H205.757" stroke="#263238" stroke-width="1.01729" stroke-linecap="round" stroke-linejoin="round"/>
<path d="M208.91 171.462H205.757" stroke="#263238" stroke-width="1.01729" stroke-linecap="round" stroke-linejoin="round"/>
<path d="M208.91 173.009H205.757" stroke="#263238" stroke-width="1.01729" stroke-linecap="round" stroke-linejoin="round"/>
<path d="M210.966 158.157H179.766C179.57 158.157 179.377 158.118 179.197 158.044C179.017 157.969 178.853 157.86 178.715 157.722C178.577 157.584 178.468 157.42 178.393 157.24C178.319 157.06 178.28 156.866 178.28 156.671C178.283 156.279 178.441 155.904 178.719 155.628C178.997 155.351 179.373 155.196 179.766 155.196H210.966C211.16 155.195 211.353 155.232 211.533 155.306C211.713 155.379 211.877 155.488 212.015 155.625C212.153 155.762 212.263 155.925 212.338 156.105C212.412 156.284 212.451 156.477 212.451 156.671C212.451 156.866 212.413 157.06 212.338 157.24C212.263 157.42 212.154 157.584 212.016 157.722C211.878 157.86 211.714 157.969 211.534 158.044C211.354 158.118 211.161 158.157 210.966 158.157Z" fill="#08B7F9" stroke="black" stroke-width="1.01729" stroke-miterlimit="10"/>
<path d="M183.153 131.401L179.766 155.196" stroke="#263238" stroke-width="1.01729" stroke-linecap="round" stroke-linejoin="round"/>
<path d="M207.507 131.401L210.966 155.196" stroke="#263238" stroke-width="1.01729" stroke-linecap="round" stroke-linejoin="round"/>
<path d="M244.2 56.6206C244.2 48.4338 242.141 40.3785 238.213 33.1956C234.285 26.0127 228.614 19.9326 221.722 15.5146C214.829 11.0966 206.937 8.48237 198.77 7.91243C190.603 7.34249 182.424 8.83508 174.985 12.253C167.545 15.6708 161.085 20.9043 156.197 27.472C151.31 34.0397 148.152 41.7309 147.014 49.8383C145.877 57.9456 146.796 66.2089 149.687 73.8682C152.578 81.5274 157.349 88.3368 163.56 93.6702H163.346C163.346 93.6702 171.2 101.656 173.153 103.701C175.106 105.745 179.938 111.127 181.006 113.721C181.879 116.152 182.596 118.636 183.153 121.157H207.415C207.967 118.635 208.68 116.151 209.551 113.721C210.63 111.127 215.441 105.745 217.405 103.701C219.368 101.656 227.222 93.6702 227.222 93.6702H227.161C232.507 89.0907 236.798 83.4079 239.74 77.0123C242.681 70.6168 244.203 63.6601 244.2 56.6206Z" fill="#08B7F9" stroke="black" stroke-width="1.01729" stroke-miterlimit="10"/>
<path d="M169.349 99.8145C170.956 101.452 172.401 102.978 173.153 103.721C173.55 104.128 174.069 104.738 174.649 105.318H215.92C216.49 104.687 217.009 104.128 217.405 103.721C218.117 102.978 219.603 101.452 221.21 99.8145H169.349Z" fill="white" stroke="#263238" stroke-width="1.01729" stroke-linecap="round" stroke-linejoin="round"/>
<path d="M195.371 7.78034C187.416 7.76698 179.58 9.70935 172.553 13.4365H218.178C211.154 9.71057 203.322 7.76823 195.371 7.78034Z" fill="white" stroke="#263238" stroke-width="1.01729" stroke-linecap="round" stroke-linejoin="round"/>
<path d="M146.49 56.6199C146.486 68.8639 151.099 80.659 159.409 89.6513H231.321C235.778 84.8082 239.209 79.1142 241.409 72.9114C243.609 66.7086 244.533 60.125 244.124 53.5563C243.716 46.9876 241.984 40.5692 239.032 34.6869C236.08 28.8046 231.969 23.5797 226.947 19.3262H163.784C158.358 23.9069 153.999 29.6181 151.011 36.0601C148.024 42.5021 146.481 49.5191 146.49 56.6199Z" fill="white" stroke="#263238" stroke-width="1.01729" stroke-linecap="round" stroke-linejoin="round"/>
<path d="M207.507 121.178H183.153V131.401H207.507V121.178Z" fill="white" stroke="#263238" stroke-width="1.01729" stroke-linecap="round" stroke-linejoin="round"/>
<path d="M165.645 33.1416C162.7 38.7347 160.869 44.8464 160.254 51.1374C156.856 84.067 183 102.388 183 102.388" stroke="#263238" stroke-width="1.01729" stroke-linecap="round" stroke-linejoin="round"/>
<path d="M195.371 7.78125C195.371 7.78125 178.423 13.356 167.975 29.2155" stroke="#263238" stroke-width="1.01729" stroke-linecap="round" stroke-linejoin="round"/>
<path d="M190.711 82.582C191.732 90.7416 193.236 98.8331 195.218 106.814" stroke="#263238" stroke-width="1.01729" stroke-linecap="round" stroke-linejoin="round"/>
<path d="M196.235 14.8203C196.235 14.8203 186.062 39.2352 190.355 79.4995" stroke="#263238" stroke-width="1.01729" stroke-linecap="round" stroke-linejoin="round"/>
<path d="M227.354 73.5791C223.428 95.0134 210.833 103.416 210.833 103.416" stroke="#263238" stroke-width="1.01729" stroke-linecap="round" stroke-linejoin="round"/>
<path d="M214.292 18.5742C220.131 25.2883 228.056 38.1265 228.483 58.6045C228.571 62.3703 228.384 66.1375 227.924 69.8761" stroke="#263238" stroke-width="1.01729" stroke-linecap="round" stroke-linejoin="round"/>
<path d="M208.118 12.7754C209.76 13.9831 211.283 15.3458 212.665 16.8445" stroke="#263238" stroke-width="1.01729" stroke-linecap="round" stroke-linejoin="round"/>
<path d="M185.717 104.433L185.788 104.524C188.162 107.504 189.454 111.202 189.45 115.012V117.668" stroke="#263238" stroke-width="1.01729" stroke-linecap="round" stroke-linejoin="round"/>
<path d="M195.513 111.035V117.414" stroke="#263238" stroke-width="1.01729" stroke-linecap="round" stroke-linejoin="round"/>
<path d="M209.419 105.562C207.719 106.619 206.433 108.227 205.777 110.119C204.884 112.615 204.346 115.225 204.18 117.871" stroke="#263238" stroke-width="1.01729" stroke-linecap="round" stroke-linejoin="round"/>
<path d="M205.127 144.575L210.06 147.963L206.581 155.653H196.337L196.124 144.799L202.095 143.599L205.127 144.575Z" fill="white" stroke="#263238" stroke-width="1.01729" stroke-linecap="round" stroke-linejoin="round"/>
<path d="M196.123 144.799L195.981 145.124L191.637 155.318L196.286 155.206L196.123 144.799Z" fill="white" stroke="#263238" stroke-width="1.01729" stroke-linecap="round" stroke-linejoin="round"/>
<path d="M202.308 136.945C201.881 137.289 201.508 137.693 201.2 138.146C200.976 138.624 200.945 139.265 200.711 139.631C200.477 139.997 199.989 139.977 199.969 140.282C199.948 140.587 200.304 140.842 200.304 140.842C200.304 140.842 200.121 141.859 200.06 142.429C200.033 142.647 200.083 142.869 200.202 143.055C200.321 143.24 200.501 143.379 200.711 143.446C200.993 143.526 201.283 143.578 201.576 143.598L201.352 144.616L202.369 146.599L205.126 144.372L205.431 142.958L205.33 141.849C205.666 141.539 205.936 141.166 206.125 140.75C206.314 140.334 206.417 139.884 206.428 139.428C206.333 138.857 206.097 138.319 205.742 137.863C205.387 137.406 204.924 137.045 204.394 136.813C204.071 136.631 203.702 136.546 203.331 136.569C202.961 136.593 202.606 136.723 202.308 136.945Z" fill="white" stroke="#263238" stroke-width="1.01729" stroke-linecap="round" stroke-linejoin="round"/>
<path d="M204.77 141.778C204.726 141.849 204.662 141.907 204.587 141.944C204.511 141.982 204.427 141.998 204.343 141.991C204.15 141.943 203.978 141.832 203.855 141.676C203.777 142.205 203.501 142.686 203.082 143.019" stroke="#263238" stroke-width="1.01729" stroke-linecap="round" stroke-linejoin="round"/>
<path d="M201.912 141.178C201.797 141.331 201.638 141.445 201.457 141.507C201.275 141.569 201.08 141.574 200.895 141.524" stroke="#263238" stroke-width="1.01729" stroke-linecap="round" stroke-linejoin="round"/>
<path d="M202.329 138.564C202.329 138.564 202.146 138.208 201.596 138.391" stroke="#263238" stroke-width="1.01729" stroke-linecap="round" stroke-linejoin="round"/>
<path d="M201.169 139.591C201.108 139.743 201.118 139.886 201.169 139.926C201.22 139.967 201.352 139.855 201.413 139.702C201.474 139.55 201.474 139.397 201.413 139.367C201.352 139.336 201.23 139.438 201.169 139.591Z" fill="#263238"/>
<path d="M201.576 143.558C201.728 143.587 201.883 143.587 202.034 143.558L202.461 143.456L201.353 144.555L201.576 143.558Z" fill="#263238" stroke="#263238" stroke-width="1.01729" stroke-linecap="round" stroke-linejoin="round"/>
<path d="M202.308 136.946C202.308 136.946 203.203 136.62 203.651 137.017C204.099 137.414 204.16 137.749 203.651 138.177C203.142 138.604 203.061 139.194 203.234 139.408C203.407 139.621 204.129 140.12 204.15 140.313C204.18 140.461 204.228 140.604 204.292 140.74C204.292 140.74 204.74 140.221 204.994 140.537C205.097 140.743 205.127 140.978 205.079 141.204C205.031 141.429 204.908 141.632 204.729 141.778L205.36 142.877C205.617 142.223 205.993 141.623 206.469 141.107C207.181 140.415 208.137 138.635 207.71 137.8C207.283 136.966 206.388 136.732 206.245 136.407C206.103 136.081 206.327 135.583 205.584 135.196C204.841 134.809 204.261 135.196 203.875 135.196C203.488 135.196 203.549 134.667 202.858 134.81C202.166 134.952 201.484 135.298 201.423 135.929C201.362 136.559 202.308 136.946 202.308 136.946Z" fill="#263238" stroke="#263238" stroke-width="1.01729" stroke-linecap="round" stroke-linejoin="round"/>
<path d="M196.51 154.097L195.126 153.161C194.761 153.363 194.42 153.605 194.109 153.883C193.919 154.316 193.822 154.784 193.824 155.257C194.467 155.357 195.117 155.405 195.767 155.399C195.767 155.399 195.94 154.056 196.51 154.097Z" fill="white" stroke="#263238" stroke-width="1.01729" stroke-linecap="round" stroke-linejoin="round"/>
<path d="M206.327 149.59L205.177 156.03C205.177 156.03 196.866 154.097 196.51 154.097C196.365 154.114 196.226 154.165 196.103 154.245C195.981 154.325 195.878 154.432 195.803 154.558C195.729 154.684 195.684 154.825 195.672 154.971C195.661 155.116 195.683 155.263 195.737 155.399C195.971 155.938 206.256 160.404 206.256 160.404C206.256 160.404 210.579 149.132 210.579 148.42C210.579 147.708 207.639 146.579 207.354 146.508" fill="white"/>
<path d="M206.327 149.59L205.177 156.03C205.177 156.03 196.866 154.097 196.51 154.097C196.365 154.114 196.226 154.165 196.103 154.245C195.981 154.325 195.878 154.432 195.803 154.558C195.729 154.684 195.684 154.825 195.672 154.971C195.661 155.116 195.683 155.263 195.737 155.399C195.971 155.938 206.256 160.404 206.256 160.404C206.256 160.404 210.579 149.132 210.579 148.42C210.579 147.708 207.639 146.579 207.354 146.508" stroke="#263238" stroke-width="1.01729" stroke-linecap="round" stroke-linejoin="round"/>
<path d="M208.545 80.1503H201.871C195.947 80.1091 190.217 78.0291 185.645 74.2602L184.882 73.6294C184.697 73.4738 184.551 73.2766 184.455 73.054C184.36 72.8314 184.318 72.5894 184.333 72.3477L186.164 47.3834C186.187 47.088 186.296 46.8057 186.476 46.5708C186.657 46.336 186.902 46.1588 187.182 46.0609C190.463 44.8514 193.58 43.2348 196.459 41.2492C198.056 40.0183 201.678 36.5798 200.935 31.178C200.579 28.5738 200.813 26.9054 201.658 25.939C201.895 25.665 202.189 25.4458 202.519 25.2965C202.849 25.1472 203.208 25.0714 203.57 25.0743C204.75 25.0743 206.062 25.8169 207.639 27.353C210.691 30.4049 210.915 33.9857 210.884 37.0885C210.739 39.903 210.127 42.6739 209.074 45.2878C213.834 45.4811 222.298 45.9185 223.936 46.6001C225.503 47.4813 226.661 48.9426 227.161 50.6693C227.833 52.2363 227.862 54.0045 227.242 55.5929C226.781 56.5309 226.173 57.3894 225.442 58.1362C225.937 59.5483 225.853 61.0993 225.208 62.4495C224.775 63.3224 224.268 64.1563 223.692 64.9418C224.394 66.2527 224.614 67.7684 224.313 69.2246C223.83 70.9085 222.852 72.408 221.505 73.5277C221.591 74.737 221.229 75.9356 220.488 76.8949C219.874 77.7648 219.084 78.4954 218.169 79.0389C217.254 79.5823 216.235 79.9264 215.177 80.0485C214.821 80.0587 214.282 80.1503 208.545 80.1503Z" fill="white"/>
<path d="M203.458 26.6007C204.241 26.6007 205.299 27.323 206.408 28.4318C208.941 30.975 209.236 33.9252 209.195 37.0686C209.145 41.5955 206.662 46.7328 206.662 46.7328C206.662 46.7328 221.403 47.2415 223.183 48.0044C224.963 48.7674 226.744 52.8365 225.726 54.8711C225.224 55.9866 224.434 56.9485 223.437 57.6585C223.798 58.2685 224.009 58.9552 224.054 59.6625C224.098 60.3698 223.974 61.0775 223.692 61.7276C223.166 62.8388 222.481 63.867 221.657 64.7795C222.106 65.3464 222.429 66.0026 222.605 66.7043C222.78 67.406 222.804 68.1371 222.674 68.8487C222.166 71.1376 219.623 72.9178 219.623 72.9178C219.842 73.4212 219.911 73.9774 219.821 74.5191C219.73 75.0608 219.485 75.5647 219.114 75.9697C218.617 76.6784 217.974 77.2723 217.229 77.7111C216.483 78.1498 215.651 78.4233 214.79 78.5129C214.282 78.5943 211.739 78.6248 208.514 78.6248H201.83C196.256 78.5843 190.867 76.6225 186.571 73.0704L185.818 72.4397L187.588 47.5263C191.046 46.26 194.328 44.5575 197.354 42.4602C199.145 41.1699 200.561 39.4258 201.455 37.4073C202.349 35.3888 202.689 33.1686 202.441 30.975C202.003 27.8113 202.552 26.6007 203.56 26.6007H203.458ZM203.56 23.5488C202.982 23.5496 202.411 23.6733 201.885 23.9119C201.358 24.1504 200.889 24.4983 200.508 24.9323C199.338 26.2853 199.002 28.269 199.429 31.3819C200.05 36.0004 196.907 38.9709 195.533 40.0391C192.78 41.9337 189.8 43.4751 186.662 44.627C186.102 44.8235 185.61 45.1794 185.249 45.651C184.888 46.1227 184.672 46.6896 184.628 47.2822L182.807 72.2261C182.771 72.7116 182.853 73.1985 183.044 73.6463C183.235 74.094 183.53 74.4895 183.906 74.7998L184.669 75.4305C189.51 79.4229 195.576 81.6316 201.851 81.6868H208.554C214.404 81.6868 214.963 81.5851 215.34 81.5241C216.594 81.3671 217.802 80.9504 218.886 80.3006C219.97 79.6508 220.907 78.7821 221.637 77.7499C222.419 76.7017 222.872 75.4447 222.939 74.1385C224.272 72.8878 225.228 71.2875 225.696 69.5201C226.012 68.0445 225.884 66.5084 225.33 65.105C225.747 64.4504 226.124 63.7709 226.459 63.0705C227.166 61.6505 227.363 60.0307 227.018 58.4825C227.595 57.7852 228.09 57.024 228.493 56.2139C229.303 54.2599 229.303 52.0643 228.493 50.1102C228.168 49.2252 226.927 46.2649 224.424 45.1967C223.122 44.6372 218.636 44.1794 211.077 43.8539C211.802 41.6752 212.209 39.4038 212.288 37.1093C212.288 33.447 211.922 29.5915 208.605 26.2752C206.774 24.444 205.106 23.5488 203.519 23.5488H203.56Z" fill="#263238"/>
<path d="M187.883 45.7158H166.785V77.2416H187.883V45.7158Z" fill="#263238" stroke="#263238" stroke-width="1.01729" stroke-linecap="round" stroke-linejoin="round"/>
<path d="M238.412 242.611H245.187" stroke="#263238" stroke-width="1.01729" stroke-linecap="round" stroke-linejoin="round"/>
<path d="M4.75098 242.611H232.908" stroke="#263238" stroke-width="1.01729" stroke-linecap="round" stroke-linejoin="round"/>
</g>
<defs>
<clipPath id="clip0_1671_10383">
<rect width="251.24" height="254.576" fill="white"/>
</clipPath>
</defs>
</svg>
