<svg width="24" height="24" viewBox="0 0 24 24" fill="none" xmlns="http://www.w3.org/2000/svg">
<path fill-rule="evenodd" clip-rule="evenodd" d="M15.9996 1H7.99959V3H15.9996V1ZM19.0706 4.51511L17.6176 5.96811C13.8861 2.98703 8.47592 3.4398 5.29187 6.99962C2.10781 10.5594 2.25889 15.9865 5.63606 19.3636C9.01322 22.7408 14.4403 22.8919 18.0001 19.7078C21.5599 16.5238 22.0127 11.1136 19.0316 7.38211L20.4846 5.92911L19.0706 4.51511ZM18.0618 16.5C16.8113 18.6658 14.5004 20 11.9996 20C8.13359 20 4.99959 16.866 4.99959 13C4.99959 9.13401 8.13359 6 11.9996 6C14.5004 6 16.8113 7.33419 18.0618 9.5C19.3122 11.6658 19.3122 14.3342 18.0618 16.5ZM12.9996 8V14H10.9996V8H12.9996Z" fill="#02A5E2"/>
</svg>
