<svg width="245" height="224" viewBox="0 0 245 224" fill="none" xmlns="http://www.w3.org/2000/svg">
<path d="M73.7993 130.917C73.7993 130.917 70.1342 128.024 69.1896 126.161C68.3914 124.578 67.8127 122.343 68.6375 120.653C68.8188 120.25 69.0829 119.89 69.4125 119.596C69.7421 119.301 70.1299 119.079 70.5508 118.945C70.9716 118.81 71.4161 118.765 71.8555 118.813C72.2948 118.861 72.7191 119.001 73.1009 119.223C75.3559 120.627 75.602 125.423 75.0233 127.724C74.9767 127.924 73.8393 130.951 73.7993 130.917Z" fill="#7FAED9"/>
<path d="M107.731 155.063C107.578 155.203 104.964 157.106 104.95 157.059C104.937 157.012 103.487 152.616 103.726 150.547C103.933 148.784 104.684 146.596 106.307 145.644C106.681 145.408 107.099 145.253 107.536 145.189C107.973 145.126 108.418 145.154 108.843 145.273C109.269 145.392 109.664 145.599 110.004 145.881C110.344 146.163 110.621 146.513 110.817 146.908C111.928 149.33 109.487 153.46 107.731 155.063Z" fill="#7FAED9"/>
<path d="M30.8351 135.314C30.8351 135.314 44.2719 149.177 44.1987 166.212C44.1255 183.248 30.569 197.004 30.569 197.004C30.569 197.004 17.1322 183.135 17.2054 166.099C17.2785 149.064 30.8351 135.314 30.8351 135.314Z" fill="#7FAED9"/>
<path d="M49.9926 176.416C49.8122 176.226 49.6476 176.021 49.5004 175.804C48.5292 174.327 47.691 172.166 48.323 170.396C48.4558 169.975 48.6758 169.586 48.9687 169.256C49.2616 168.925 49.6209 168.66 50.0231 168.477C50.4253 168.295 50.8615 168.199 51.3032 168.196C51.7449 168.193 52.1823 168.283 52.5868 168.46C54.4094 169.325 55.3074 172.245 55.5003 174.64C56.2254 174.474 56.8839 174.347 57.4493 174.254L58.1744 172.611C58.4405 172.046 58.6267 171.48 58.8396 170.902C59.1589 170.05 59.4516 169.159 59.7376 168.241C58.6799 167.762 55.5802 166.319 54.4161 165.041C53.252 163.764 52.0746 161.715 52.4205 159.873C52.4887 159.436 52.6478 159.019 52.8877 158.648C53.1275 158.277 53.4427 157.96 53.8127 157.719C54.1828 157.477 54.5994 157.316 55.0357 157.246C55.472 157.176 55.9181 157.198 56.3451 157.312C58.8995 158.077 60.3961 162.633 60.4493 165.008C60.4493 165.088 60.4094 165.587 60.3562 166.186C60.6156 165.307 60.8751 164.429 61.1012 163.525C61.7664 160.97 62.3518 158.356 62.9504 155.735C63.0768 155.19 63.2099 154.645 63.3363 154.099C62.4382 153.7 59.0724 152.163 57.8618 150.826C56.6511 149.489 55.5203 147.5 55.8662 145.658C55.9341 145.221 56.0934 144.803 56.3337 144.431C56.5741 144.06 56.8901 143.743 57.261 143.502C57.632 143.261 58.0497 143.101 58.4867 143.032C58.9238 142.964 59.3704 142.988 59.7975 143.104C62.3451 143.862 63.8418 148.425 63.895 150.793C63.895 150.88 63.8485 151.458 63.7886 152.123C64.1345 150.707 64.5003 149.296 64.8994 147.906C65.5808 145.519 66.4186 143.179 67.4072 140.902C67.0946 140.769 63.1101 139.046 61.7664 137.576C60.5757 136.245 59.4249 134.25 59.7708 132.407C59.8389 131.971 59.998 131.554 60.2379 131.183C60.4778 130.812 60.7932 130.496 61.1634 130.255C61.5336 130.014 61.9504 129.853 62.3866 129.784C62.8229 129.715 63.2689 129.738 63.6955 129.853C66.2498 130.611 67.7465 135.174 67.7997 137.543C67.7997 137.715 67.6068 139.884 67.507 140.656C67.5209 140.63 67.532 140.604 67.5402 140.576C68.5711 138.366 69.7954 136.251 71.1988 134.257C72.4439 132.47 73.7921 130.758 75.2365 129.128C76.5668 127.605 77.864 126.288 79.028 125.137C79.6932 124.518 80.2586 123.966 80.8174 123.454H80.7575C80.711 123.454 82.0014 120.487 82.0879 120.308C83.2852 118.252 86.7974 114.986 89.405 115.545C89.835 115.65 90.238 115.844 90.5877 116.116C90.9373 116.387 91.2258 116.729 91.4342 117.12C91.6427 117.51 91.7664 117.94 91.7972 118.382C91.8281 118.823 91.7655 119.267 91.6134 119.682C91.0347 121.465 89.0591 122.669 87.3761 123.248C85.6932 123.826 81.9017 123.554 80.9704 123.474C80.405 124.019 79.7997 124.605 79.1478 125.27C78.017 126.447 76.7398 127.784 75.456 129.334C75.1167 129.747 74.7908 130.199 74.4116 130.664C75.1566 130.053 76.181 129.221 76.2941 129.155C78.2897 127.877 82.946 126.594 84.9416 128.296C85.2694 128.588 85.5327 128.944 85.7147 129.343C85.8966 129.742 85.9932 130.174 85.9982 130.613C86.0032 131.051 85.9165 131.486 85.7437 131.889C85.5709 132.292 85.3158 132.654 84.9948 132.953C83.6644 134.283 81.3495 134.429 79.5934 134.17C77.8374 133.911 74.4848 131.855 73.7731 131.396C73.0147 132.381 72.2564 133.392 71.5314 134.516C70.1875 136.512 69.0254 138.625 68.0591 140.829C67.9992 140.955 67.9593 141.095 67.9061 141.228C68.2187 140.862 70.0879 138.973 70.2343 138.853C72.0901 137.37 76.5402 135.58 78.762 137.044C79.1248 137.297 79.4302 137.624 79.6583 138.003C79.8865 138.382 80.0323 138.805 80.0862 139.244C80.1402 139.683 80.1011 140.129 79.9715 140.552C79.8419 140.975 79.6247 141.366 79.334 141.7C78.1433 143.157 75.8684 143.562 74.0923 143.503C72.0502 143.423 68.0258 141.394 67.8728 141.314C66.9687 143.538 66.2088 145.818 65.5979 148.139C65.1389 149.862 64.7465 151.618 64.3673 153.381C64.7864 152.915 66.5225 151.159 66.6622 151.052C68.5181 149.562 72.9682 147.78 75.1966 149.243C75.5589 149.497 75.8637 149.824 76.0912 150.204C76.3188 150.583 76.4639 151.006 76.5172 151.445C76.5706 151.884 76.5309 152.33 76.4008 152.753C76.2706 153.176 76.053 153.566 75.762 153.899C74.5713 155.356 72.2963 155.769 70.5203 155.702C68.5247 155.629 64.66 153.707 64.334 153.534C64.1611 154.339 63.9881 155.137 63.8218 155.948C63.2764 158.576 62.7442 161.217 62.1389 163.804C61.9327 164.702 61.6932 165.574 61.4737 166.465C62.1389 165.8 63.3363 164.562 63.4693 164.469C65.3252 162.986 69.7819 161.197 72.0037 162.66C72.3651 162.915 72.6691 163.242 72.8961 163.621C73.123 164.001 73.2678 164.424 73.3211 164.863C73.3744 165.301 73.335 165.747 73.2054 166.169C73.0759 166.592 72.8591 166.983 72.5691 167.316C71.3784 168.766 69.1034 169.179 67.334 169.119C65.5646 169.059 62.2653 167.503 61.3473 167.05C60.9482 168.507 60.5159 169.944 60.017 171.341C59.7908 171.939 59.6046 172.565 59.3518 173.123C59.2254 173.423 59.1057 173.722 58.9793 174.015L59.4915 173.968C59.4915 173.968 59.5247 174.8 59.4449 176.15C61.4006 174.76 64.221 173.562 66.0569 174.401C66.4534 174.597 66.8042 174.874 67.0865 175.215C67.3688 175.555 67.5763 175.951 67.6955 176.377C67.8147 176.803 67.8429 177.249 67.7784 177.687C67.7138 178.125 67.5579 178.544 67.3207 178.917C67.2007 179.116 67.0626 179.303 66.9083 179.476C66.5625 181.538 65.6946 183.478 64.3873 185.11C64.2875 185.223 62.9571 186.44 62.2653 187.059C62.9305 186.7 63.5957 186.341 64.2609 185.948C65.2586 185.396 66.2963 184.778 67.3074 184.186L68.8573 183.201C69.3895 182.875 69.8551 182.496 70.3673 182.15C71.1057 181.618 71.8374 181.026 72.5757 180.447C71.9504 179.463 70.1677 176.549 69.915 174.853C69.6622 173.157 69.7952 170.789 71.1057 169.438C71.4037 169.111 71.7671 168.851 72.1723 168.674C72.5776 168.497 73.0156 168.407 73.4578 168.41C73.9001 168.413 74.3368 168.509 74.7395 168.692C75.1422 168.875 75.5019 169.141 75.7952 169.472C77.5048 171.514 76.2409 176.123 74.9704 178.119C74.9305 178.186 74.6178 178.585 74.2453 179.05C74.9438 178.458 75.6422 177.873 76.334 177.248C78.2897 175.485 80.2254 173.622 82.1677 171.766L83.3917 170.616C82.8662 169.791 80.9039 166.625 80.6378 164.875C80.3717 163.126 80.5181 160.811 81.8285 159.46C82.1234 159.136 82.4828 158.877 82.8837 158.7C83.2847 158.522 83.7182 158.431 84.1566 158.431C84.595 158.431 85.0286 158.522 85.4295 158.7C85.8305 158.877 86.1899 159.136 86.4848 159.46C88.1943 161.503 86.9305 166.112 85.6666 168.141C85.6201 168.214 85.2475 168.687 84.8218 169.212C85.8994 168.221 86.977 167.217 88.0812 166.312C89.963 164.694 91.952 163.205 94.0347 161.855C93.8484 161.562 91.4737 157.931 91.1744 155.948C90.9083 154.199 91.0546 151.884 92.3651 150.54C92.6631 150.213 93.0265 149.953 93.4317 149.776C93.837 149.599 94.275 149.509 94.7173 149.512C95.1595 149.515 95.5962 149.611 95.9989 149.794C96.4016 149.977 96.7613 150.243 97.0546 150.574C98.7642 152.616 97.5003 157.225 96.2298 159.254C96.1433 159.394 94.7797 161.097 94.2741 161.689L94.3407 161.642C96.419 160.365 98.6073 159.277 100.879 158.39C102.901 157.583 104.969 156.897 107.072 156.334C109.021 155.795 110.837 155.416 112.44 155.097C113.312 154.931 114.117 154.791 114.862 154.671L114.822 154.638C114.782 154.638 117.483 152.849 117.675 152.755C119.804 151.698 124.54 150.906 126.396 152.815C126.695 153.14 126.922 153.523 127.063 153.941C127.203 154.359 127.255 154.802 127.213 155.241C127.172 155.68 127.039 156.106 126.822 156.49C126.606 156.874 126.311 157.209 125.957 157.472C124.487 158.642 122.172 158.556 120.456 158.137C118.74 157.718 115.72 155.37 114.988 154.811C114.216 154.951 113.385 155.11 112.48 155.303C110.877 155.662 109.081 156.075 107.159 156.633C106.647 156.786 106.101 156.973 105.569 157.146C106.527 157.039 107.844 156.919 107.97 156.919C110.345 156.966 114.915 158.443 115.687 160.99C115.802 161.417 115.827 161.863 115.759 162.3C115.691 162.736 115.532 163.154 115.293 163.525C115.053 163.896 114.738 164.213 114.368 164.455C113.998 164.697 113.582 164.858 113.146 164.928C111.296 165.288 109.287 164.143 107.964 162.933C106.64 161.722 104.984 158.183 104.638 157.412C103.46 157.811 102.263 158.25 101.046 158.742C98.8236 159.661 96.6867 160.774 94.66 162.068C94.5469 162.141 94.4338 162.234 94.3207 162.314C94.7863 162.181 97.3806 161.649 97.5668 161.649C99.9349 161.429 104.638 162.394 105.682 164.842C105.843 165.254 105.917 165.694 105.897 166.136C105.877 166.578 105.765 167.011 105.567 167.406C105.37 167.802 105.092 168.152 104.75 168.433C104.409 168.714 104.013 168.921 103.587 169.039C101.797 169.598 99.6688 168.68 98.2254 167.649C96.5624 166.458 94.3207 162.547 94.2342 162.401C92.2528 163.755 90.3619 165.237 88.5735 166.837C87.2431 168.015 85.946 169.265 84.6555 170.529C85.2608 170.37 87.6755 169.864 87.8551 169.864C90.2231 169.644 94.9194 170.609 95.9704 173.057C96.1328 173.468 96.2068 173.909 96.1874 174.35C96.1681 174.792 96.056 175.225 95.8583 175.62C95.6606 176.015 95.3818 176.365 95.0401 176.645C94.6984 176.926 94.3014 177.131 93.875 177.248C92.079 177.813 89.9571 176.895 88.5136 175.864C86.8906 174.707 84.7287 170.962 84.5225 170.642L82.7597 172.372C80.8573 174.268 78.9549 176.17 77.0258 177.999C76.3606 178.631 75.6954 179.23 74.9903 179.829C75.9083 179.622 77.5912 179.276 77.7376 179.263C80.1056 179.044 84.8019 180.008 85.8462 182.456C86.0099 182.867 86.085 183.308 86.0666 183.75C86.0483 184.192 85.9369 184.625 85.7398 185.021C85.5427 185.418 85.2643 185.768 84.9227 186.049C84.5812 186.33 84.1841 186.536 83.7575 186.653C81.9615 187.212 79.8396 186.294 78.3961 185.263C76.9526 184.232 75.0702 181.119 74.538 180.234C73.4006 181.232 72.2431 182.19 71.0591 183.081C70.5402 183.46 70.0413 183.873 69.5225 184.205L67.9926 185.223C66.9283 185.888 65.9371 186.5 64.9261 187.092C64.4205 187.392 63.9349 187.664 63.436 187.95C64.334 187.605 65.7708 187.072 65.9039 187.033C68.2121 186.46 73.0014 186.707 74.405 188.968C74.6275 189.349 74.7673 189.773 74.8152 190.212C74.8632 190.651 74.8183 191.095 74.6834 191.515C74.5485 191.936 74.3267 192.323 74.0323 192.652C73.7379 192.981 73.3776 193.244 72.9748 193.425C71.2853 194.25 69.0436 193.671 67.4604 192.873C65.7176 191.988 63.0901 188.735 62.7708 188.336C61.5536 189.001 60.3562 189.7 59.2254 190.299C56.2121 191.915 53.578 193.199 51.5358 194.157C44.8839 199.897 35.5713 200.529 35.5713 200.529C35.5713 200.529 35.0791 189.341 41.6644 181.984C43.9972 179.538 46.8408 177.637 49.9926 176.416ZM61.8396 187.325C61.6334 186.866 60.0436 183.334 59.9305 181.338C59.558 181.265 59.1921 181.192 58.8329 181.106C58.1563 184.64 56.7519 187.995 54.7088 190.957C55.9194 190.385 57.2232 189.746 58.6068 189.041C59.6445 188.489 60.7287 187.957 61.8396 187.325Z" fill="#7FAED9"/>
<path d="M1.06109 174.281C1.06109 174.281 12.2495 174.62 19.101 181.738C25.9524 188.855 25.8659 200.05 25.8659 200.05C25.8659 200.05 14.6642 199.704 7.8194 192.613C0.974616 185.522 1.06109 174.281 1.06109 174.281Z" fill="#7FAED9"/>
<g opacity="0.5">
<path opacity="0.5" d="M73.7993 130.917C73.7993 130.917 70.1342 128.024 69.1896 126.161C68.3914 124.578 67.8127 122.343 68.6375 120.653C68.8188 120.25 69.0829 119.89 69.4125 119.596C69.7421 119.301 70.1299 119.079 70.5508 118.945C70.9716 118.81 71.4161 118.765 71.8555 118.813C72.2948 118.861 72.7191 119.001 73.1009 119.223C75.3559 120.627 75.602 125.423 75.0233 127.724C74.9767 127.924 73.8393 130.951 73.7993 130.917Z" fill="white"/>
<path opacity="0.5" d="M107.73 155.063C107.577 155.203 104.963 157.106 104.95 157.059C104.937 157.012 103.486 152.616 103.726 150.547C103.932 148.784 104.684 146.596 106.307 145.644C106.68 145.408 107.099 145.253 107.535 145.189C107.972 145.126 108.418 145.154 108.843 145.273C109.268 145.392 109.664 145.599 110.004 145.881C110.344 146.163 110.621 146.513 110.817 146.908C111.928 149.33 109.486 153.46 107.73 155.063Z" fill="white"/>
<path opacity="0.5" d="M30.8351 135.314C30.8351 135.314 44.2719 149.177 44.1987 166.212C44.1255 183.248 30.569 197.004 30.569 197.004C30.569 197.004 17.1322 183.135 17.2054 166.099C17.2785 149.064 30.8351 135.314 30.8351 135.314Z" fill="white"/>
<path opacity="0.5" d="M49.9921 176.416C49.8117 176.226 49.6471 176.021 49.4999 175.804C48.5287 174.327 47.6906 172.166 48.3225 170.396C48.4553 169.975 48.6753 169.586 48.9682 169.256C49.2612 168.925 49.6204 168.66 50.0226 168.477C50.4248 168.295 50.861 168.199 51.3027 168.196C51.7444 168.193 52.1818 168.283 52.5863 168.46C54.409 169.325 55.3069 172.245 55.4999 174.64C56.2249 174.474 56.8834 174.347 57.4489 174.254L58.1739 172.611C58.44 172.046 58.6262 171.48 58.8391 170.902C59.1584 170.05 59.4511 169.159 59.7371 168.241C58.6795 167.762 55.5797 166.319 54.4156 165.041C53.2515 163.764 52.0741 161.715 52.42 159.873C52.4882 159.436 52.6474 159.019 52.8872 158.648C53.127 158.277 53.4422 157.96 53.8122 157.719C54.1823 157.477 54.5989 157.316 55.0352 157.246C55.4715 157.176 55.9176 157.198 56.3446 157.312C58.899 158.077 60.3956 162.633 60.4489 165.008C60.4489 165.088 60.4089 165.587 60.3557 166.186C60.6151 165.307 60.8746 164.429 61.1007 163.525C61.7659 160.97 62.3513 158.356 62.95 155.735C63.0763 155.19 63.2094 154.645 63.3358 154.099C62.4378 153.7 59.0719 152.163 57.8613 150.826C56.6506 149.489 55.5198 147.5 55.8657 145.658C55.9336 145.221 56.0929 144.803 56.3332 144.431C56.5736 144.06 56.8896 143.743 57.2606 143.502C57.6315 143.261 58.0492 143.101 58.4862 143.032C58.9233 142.964 59.3699 142.988 59.797 143.104C62.3446 143.862 63.8413 148.425 63.8945 150.793C63.8945 150.88 63.848 151.458 63.7881 152.123C64.134 150.707 64.4998 149.296 64.899 147.906C65.5804 145.519 66.4181 143.179 67.4067 140.902C67.0941 140.769 63.1096 139.046 61.7659 137.576C60.5752 136.245 59.4245 134.25 59.7704 132.407C59.8384 131.971 59.9975 131.554 60.2374 131.183C60.4774 130.812 60.7927 130.496 61.1629 130.255C61.5331 130.014 61.9499 129.853 62.3862 129.784C62.8224 129.715 63.2684 129.738 63.695 129.853C66.2493 130.611 67.746 135.174 67.7992 137.543C67.7992 137.715 67.6063 139.884 67.5065 140.656C67.5204 140.63 67.5315 140.604 67.5398 140.576C68.5706 138.366 69.7949 136.251 71.1983 134.257C72.4434 132.47 73.7916 130.758 75.236 129.128C76.5663 127.605 77.8635 126.288 79.0276 125.137C79.6927 124.518 80.2581 123.966 80.8169 123.454H80.757C80.7105 123.454 82.0009 120.487 82.0874 120.308C83.2848 118.252 86.7969 114.986 89.4045 115.545C89.8345 115.65 90.2375 115.844 90.5872 116.116C90.9369 116.387 91.2253 116.729 91.4338 117.12C91.6422 117.51 91.7659 117.94 91.7968 118.382C91.8276 118.823 91.765 119.267 91.6129 119.682C91.0342 121.465 89.0586 122.669 87.3757 123.248C85.6927 123.826 81.9012 123.554 80.9699 123.474C80.4045 124.019 79.7992 124.605 79.1473 125.27C78.0165 126.447 76.7393 127.784 75.4555 129.334C75.1162 129.747 74.7903 130.199 74.4111 130.664C75.1562 130.053 76.1805 129.221 76.2936 129.155C78.2892 127.877 82.9455 126.594 84.9411 128.296C85.2689 128.588 85.5322 128.944 85.7142 129.343C85.8961 129.742 85.9927 130.174 85.9977 130.613C86.0027 131.051 85.9161 131.486 85.7433 131.889C85.5705 132.292 85.3153 132.654 84.9943 132.953C83.6639 134.283 81.3491 134.429 79.593 134.17C77.8369 133.911 74.4843 131.855 73.7726 131.396C73.0142 132.381 72.2559 133.392 71.5309 134.516C70.187 136.512 69.0249 138.625 68.0586 140.829C67.9987 140.955 67.9588 141.095 67.9056 141.228C68.2183 140.862 70.0874 138.973 70.2338 138.853C72.0896 137.37 76.5397 135.58 78.7615 137.044C79.1243 137.297 79.4297 137.624 79.6578 138.003C79.886 138.382 80.0318 138.805 80.0858 139.244C80.1397 139.683 80.1006 140.129 79.971 140.552C79.8414 140.975 79.6242 141.366 79.3335 141.7C78.1428 143.157 75.8679 143.562 74.0919 143.503C72.0497 143.423 68.0253 141.394 67.8723 141.314C66.9682 143.538 66.2083 145.818 65.5974 148.139C65.1384 149.862 64.746 151.618 64.3668 153.381C64.7859 152.915 66.522 151.159 66.6617 151.052C68.5176 149.562 72.9677 147.78 75.1961 149.243C75.5584 149.497 75.8632 149.824 76.0907 150.204C76.3183 150.583 76.4634 151.006 76.5167 151.445C76.5701 151.884 76.5304 152.33 76.4003 152.753C76.2701 153.176 76.0525 153.566 75.7615 153.899C74.5708 155.356 72.2958 155.769 70.5198 155.702C68.5242 155.629 64.6595 153.707 64.3335 153.534C64.1606 154.339 63.9877 155.137 63.8214 155.948C63.2759 158.576 62.7438 161.217 62.1384 163.804C61.9322 164.702 61.6928 165.574 61.4732 166.465C62.1384 165.8 63.3358 164.562 63.4688 164.469C65.3247 162.986 69.7814 161.197 72.0032 162.66C72.3646 162.915 72.6686 163.242 72.8956 163.621C73.1225 164.001 73.2673 164.424 73.3206 164.863C73.3739 165.301 73.3345 165.747 73.2049 166.169C73.0754 166.592 72.8586 166.983 72.5686 167.316C71.3779 168.766 69.103 169.179 67.3335 169.119C65.5641 169.059 62.2648 167.503 61.3469 167.05C60.9477 168.507 60.5154 169.944 60.0165 171.341C59.7903 171.939 59.6041 172.565 59.3513 173.123C59.2249 173.423 59.1052 173.722 58.9788 174.015L59.491 173.968C59.491 173.968 59.5242 174.8 59.4444 176.15C61.4001 174.76 64.2205 173.562 66.0564 174.401C66.4529 174.597 66.8037 174.874 67.086 175.215C67.3683 175.555 67.5758 175.951 67.695 176.377C67.8142 176.803 67.8425 177.249 67.7779 177.687C67.7133 178.125 67.5574 178.544 67.3202 178.917C67.2002 179.116 67.0621 179.303 66.9078 179.476C66.562 181.538 65.6941 183.478 64.3868 185.11C64.287 185.223 62.9566 186.44 62.2648 187.059C62.93 186.7 63.5952 186.341 64.2604 185.948C65.2582 185.396 66.2959 184.778 67.3069 184.186L68.8568 183.201C69.389 182.875 69.8546 182.496 70.3668 182.15C71.1052 181.618 71.8369 181.026 72.5752 180.447C71.9499 179.463 70.1672 176.549 69.9145 174.853C69.6617 173.157 69.7947 170.789 71.1052 169.438C71.4032 169.111 71.7666 168.851 72.1718 168.674C72.5771 168.497 73.0151 168.407 73.4574 168.41C73.8996 168.413 74.3363 168.509 74.739 168.692C75.1417 168.875 75.5014 169.141 75.7947 169.472C77.5043 171.514 76.2404 176.123 74.9699 178.119C74.93 178.186 74.6174 178.585 74.2449 179.05C74.9433 178.458 75.6417 177.873 76.3335 177.248C78.2892 175.485 80.2249 173.622 82.1672 171.766L83.3912 170.616C82.8657 169.791 80.9034 166.625 80.6373 164.875C80.3712 163.126 80.5176 160.811 81.828 159.46C82.1229 159.136 82.4823 158.877 82.8833 158.7C83.2842 158.522 83.7177 158.431 84.1561 158.431C84.5946 158.431 85.0281 158.522 85.429 158.7C85.83 158.877 86.1894 159.136 86.4843 159.46C88.1938 161.503 86.93 166.112 85.6661 168.141C85.6196 168.214 85.2471 168.687 84.8213 169.212C85.8989 168.221 86.9766 167.217 88.0808 166.312C89.9625 164.694 91.9515 163.205 94.0342 161.855C93.8479 161.562 91.4732 157.931 91.1739 155.948C90.9078 154.199 91.0541 151.884 92.3646 150.54C92.6626 150.213 93.026 149.953 93.4313 149.776C93.8365 149.599 94.2745 149.509 94.7168 149.512C95.159 149.515 95.5957 149.611 95.9984 149.794C96.4011 149.977 96.7608 150.243 97.0541 150.574C98.7637 152.616 97.4998 157.225 96.2293 159.254C96.1428 159.394 94.7792 161.097 94.2737 161.689L94.3402 161.642C96.4186 160.365 98.6069 159.277 100.879 158.39C102.901 157.583 104.969 156.897 107.072 156.334C109.021 155.795 110.837 155.416 112.44 155.097C113.311 154.931 114.116 154.791 114.861 154.671L114.821 154.638C114.781 154.638 117.482 152.849 117.675 152.755C119.804 151.698 124.54 150.906 126.396 152.815C126.694 153.14 126.921 153.523 127.062 153.941C127.203 154.359 127.254 154.802 127.213 155.241C127.171 155.68 127.038 156.106 126.822 156.49C126.605 156.874 126.311 157.209 125.957 157.472C124.486 158.642 122.172 158.556 120.455 158.137C118.739 157.718 115.719 155.37 114.988 154.811C114.216 154.951 113.385 155.11 112.48 155.303C110.877 155.662 109.081 156.075 107.158 156.633C106.646 156.786 106.101 156.973 105.569 157.146C106.526 157.039 107.843 156.919 107.97 156.919C110.345 156.966 114.914 158.443 115.686 160.99C115.802 161.417 115.826 161.863 115.759 162.3C115.691 162.736 115.532 163.154 115.292 163.525C115.053 163.896 114.738 164.213 114.368 164.455C113.998 164.697 113.581 164.858 113.145 164.928C111.296 165.288 109.287 164.143 107.963 162.933C106.64 161.722 104.983 158.183 104.637 157.412C103.46 157.811 102.263 158.25 101.045 158.742C98.8231 159.661 96.6862 160.774 94.6595 162.068C94.5464 162.141 94.4333 162.234 94.3202 162.314C94.7859 162.181 97.3801 161.649 97.5663 161.649C99.9344 161.429 104.637 162.394 105.682 164.842C105.843 165.254 105.916 165.694 105.896 166.136C105.877 166.578 105.764 167.011 105.567 167.406C105.369 167.802 105.091 168.152 104.75 168.433C104.409 168.714 104.012 168.921 103.586 169.039C101.797 169.598 99.6683 168.68 98.2249 167.649C96.5619 166.458 94.3202 162.547 94.2337 162.401C92.2523 163.755 90.3614 165.237 88.573 166.837C87.2426 168.015 85.9455 169.265 84.655 170.529C85.2604 170.37 87.675 169.864 87.8546 169.864C90.2227 169.644 94.9189 170.609 95.9699 173.057C96.1323 173.468 96.2063 173.909 96.187 174.35C96.1676 174.792 96.0555 175.225 95.8578 175.62C95.6601 176.015 95.3813 176.365 95.0396 176.645C94.6979 176.926 94.3009 177.131 93.8745 177.248C92.0785 177.813 89.9566 176.895 88.5131 175.864C86.8901 174.707 84.7282 170.962 84.522 170.642L82.7593 172.372C80.8568 174.268 78.9544 176.17 77.0253 177.999C76.3601 178.631 75.695 179.23 74.9899 179.829C75.9078 179.622 77.5907 179.276 77.7371 179.263C80.1052 179.044 84.8014 180.008 85.8457 182.456C86.0094 182.867 86.0845 183.308 86.0661 183.75C86.0478 184.192 85.9364 184.625 85.7393 185.021C85.5422 185.418 85.2638 185.768 84.9222 186.049C84.5807 186.33 84.1836 186.536 83.757 186.653C81.961 187.212 79.8391 186.294 78.3956 185.263C76.9522 184.232 75.0697 181.119 74.5375 180.234C73.4001 181.232 72.2426 182.19 71.0586 183.081C70.5397 183.46 70.0409 183.873 69.522 184.205L67.9921 185.223C66.9278 185.888 65.9366 186.5 64.9256 187.092C64.42 187.392 63.9344 187.664 63.4355 187.95C64.3336 187.605 65.7704 187.072 65.9034 187.033C68.2116 186.46 73.0009 186.707 74.4045 188.968C74.627 189.349 74.7668 189.773 74.8147 190.212C74.8627 190.651 74.8178 191.095 74.6829 191.515C74.548 191.936 74.3262 192.323 74.0318 192.652C73.7375 192.981 73.3772 193.244 72.9743 193.425C71.2848 194.25 69.0431 193.671 67.4599 192.873C65.7171 191.988 63.0897 188.735 62.7704 188.336C61.5531 189.001 60.3557 189.7 59.2249 190.299C56.2116 191.915 53.5775 193.199 51.5353 194.157C44.8835 199.897 35.5708 200.529 35.5708 200.529C35.5708 200.529 35.0786 189.341 41.6639 181.984C43.9967 179.538 46.8403 177.637 49.9921 176.416ZM61.8391 187.325C61.6329 186.866 60.0431 183.334 59.93 181.338C59.5575 181.265 59.1917 181.192 58.8325 181.106C58.1559 184.64 56.7514 187.995 54.7083 190.957C55.9189 190.385 57.2227 189.746 58.6063 189.041C59.644 188.489 60.7282 187.957 61.8391 187.325Z" fill="white"/>
<path opacity="0.5" d="M1.06109 174.281C1.06109 174.281 12.2495 174.62 19.101 181.738C25.9524 188.855 25.8659 200.05 25.8659 200.05C25.8659 200.05 14.6642 199.704 7.8194 192.613C0.974616 185.522 1.06109 174.281 1.06109 174.281Z" fill="white"/>
</g>
<path d="M30.2827 181.485L19.2871 171.607L19.7594 171.081L30.2893 180.547L30.3425 167.596L30.2827 167.629L20.99 154.039L21.5687 153.64L30.3492 166.472L30.4822 135.308L31.1873 135.314L31.0942 156.467L38.092 150.407L38.5509 150.94L31.0875 157.399L31.0277 172.525L41.6308 163.139L42.0964 163.671L31.021 173.469L30.9612 187.239L38.9368 180.986L39.3691 181.538L30.9612 188.137L30.9212 197.004H30.2161L30.2827 181.485Z" fill="white"/>
<path d="M40.4072 185.303L41.1056 185.223L41.997 193.046L46.7132 187.771H46.7065L47.9038 178.299L48.6023 178.392L47.5313 186.86L59.2586 173.749L59.7841 174.214L51.8285 183.115L56.8639 183.174L56.8573 183.88L51.2032 183.813L45.6223 190.053L53.5047 190.059V190.764L44.9903 190.758L39.9149 196.432L45.4759 196.764L45.436 197.469L39.3163 197.097L35.9371 200.875L35.4116 200.403L41.3651 193.751L40.4072 185.303Z" fill="white"/>
<path d="M13.8461 188.09L4.49355 186.194L4.63324 185.502L13.0013 187.199L0.801758 174.52L1.3073 174.035L9.58224 182.636L10.0213 177.613L10.7264 177.673L10.2341 183.307L16.0412 189.341L16.6399 181.485L17.3383 181.538L16.6931 190.019L21.9747 195.507L22.7197 189.986L23.4181 190.086L22.6 196.152L26.1122 199.804L25.6066 200.296L19.4137 193.864L10.9126 194.19L10.886 193.485L18.7552 193.185L13.8461 188.083V188.09Z" fill="white"/>
<path d="M106.826 216.021C106.826 220.385 90.5552 223.917 70.4865 223.917C50.4178 223.917 34.1406 220.385 34.1406 216.021C34.1406 211.658 50.4111 208.132 70.4865 208.132C90.5618 208.132 106.826 211.664 106.826 216.021Z" fill="#7FAED9"/>
<path opacity="0.5" d="M106.826 216.021C106.826 220.385 90.5552 223.917 70.4865 223.917C50.4178 223.917 34.1406 220.385 34.1406 216.021C34.1406 211.658 50.4111 208.132 70.4865 208.132C90.5618 208.132 106.826 211.664 106.826 216.021Z" fill="white"/>
<path d="M229.22 216.46C229.22 220.578 212.95 223.917 192.874 223.917C172.799 223.917 156.535 220.591 156.535 216.46C156.535 212.33 172.806 209.004 192.874 209.004C212.943 209.004 229.22 212.343 229.22 216.46Z" fill="#7FAED9"/>
<path opacity="0.5" d="M229.22 216.46C229.22 220.578 212.95 223.917 192.874 223.917C172.799 223.917 156.535 220.591 156.535 216.46C156.535 212.33 172.806 209.004 192.874 209.004C212.943 209.004 229.22 212.343 229.22 216.46Z" fill="white"/>
<path d="M72.2364 203.868C72.2364 203.868 71.6577 205.831 73.7397 208.026C75.8218 210.221 78.9415 211.844 78.3628 212.882C77.7841 213.919 74.3184 212.882 72.0036 211.844C69.6887 210.806 68.6776 208.605 67.0346 207.567C65.3916 206.529 66.2298 206.296 66.9215 204.447C67.2604 203.486 67.6857 202.558 68.1921 201.673L72.2364 203.868Z" fill="white" stroke="#263238" stroke-width="0.5" stroke-linecap="round" stroke-linejoin="round"/>
<path d="M66.9147 204.447C67.0012 204.208 67.081 204.035 67.1608 203.829C68.3182 205.039 70.3803 207.101 70.3803 207.101C70.6039 206.518 70.9157 205.973 71.3049 205.485C71.3956 205.33 71.5232 205.199 71.6763 205.105C71.8295 205.011 72.0036 204.957 72.183 204.946C72.34 206.117 72.8858 207.202 73.7329 208.026C75.8149 210.221 78.9346 211.844 78.3559 212.882C77.7772 213.92 74.3116 212.882 71.9967 211.844C69.6819 210.806 68.6708 208.605 67.0278 207.567C65.3848 206.529 66.2495 206.296 66.9147 204.447Z" fill="#7FAED9" stroke="#263238" stroke-width="0.5" stroke-linecap="round" stroke-linejoin="round"/>
<path d="M64.0475 209.642C64.8684 211.292 65.8749 212.843 67.0475 214.265C68.91 216.467 72.236 218.084 72.236 219.221C72.236 220.359 69.0031 221.07 65.6506 219.793C62.2981 218.516 60.1029 216.56 59.757 214.365C59.5399 212.871 59.4243 211.365 59.4111 209.855C59.4111 209.855 63.349 210.108 64.0475 209.642Z" fill="white" stroke="#263238" stroke-width="0.5" stroke-linecap="round" stroke-linejoin="round"/>
<path d="M84.875 120.654C84.875 120.654 88.5734 142.265 90.1965 153.361C91.8195 164.456 91.5867 164.669 90.6621 168.155C89.7375 171.64 72.6289 203.41 72.283 203.869C71.9371 204.328 68.957 203.749 68.5845 202.711L68.2386 201.673C68.2386 201.673 75.7486 174.281 77.9437 169.425C80.1388 164.569 80.1455 163.073 78.0634 157.525C75.9814 151.977 72.2364 142.059 72.2364 142.059C72.2364 142.059 70.2408 162.281 67.0346 177.421C63.8284 192.56 64.8395 209.09 64.0346 209.662C63.2298 210.234 59.9836 210.707 59.5247 209.436C59.0657 208.166 53.1655 187.359 54.9016 173.609C56.6378 159.86 58.487 155.576 56.6378 147.254C54.7885 138.933 52.5868 127.146 53.0524 120.647C53.518 114.148 79.9925 113.376 84.875 120.654Z" fill="#263238" stroke="#263238" stroke-width="0.5" stroke-linecap="round" stroke-linejoin="round"/>
<path d="M59.7707 214.385C59.6576 213.667 59.5845 212.948 59.5312 212.29C60.5822 213.035 61.9658 213.919 61.9658 213.919C62.2395 213.052 62.7135 212.261 63.3494 211.611C63.5774 211.429 63.8493 211.311 64.1379 211.267C64.4264 211.224 64.7212 211.258 64.9924 211.365C65.6032 212.382 66.2903 213.352 67.0479 214.265C68.9104 216.467 72.2363 218.084 72.2363 219.221C72.2363 220.358 69.0035 221.07 65.651 219.793C62.2984 218.516 60.1166 216.56 59.7707 214.385Z" fill="#7FAED9" stroke="#263238" stroke-width="0.5" stroke-linecap="round" stroke-linejoin="round"/>
<path d="M124.613 90.281H117.735C117.07 90.281 111.715 93.0349 111.715 93.0349L99.855 96.6468L101.232 101.463L112.58 95.7821L116.531 95.4429C117.772 95.3343 118.934 94.7844 119.804 93.893C119.804 93.893 123.755 92.8619 124.613 92.1768C125.471 91.4916 124.613 90.281 124.613 90.281Z" fill="white" stroke="#263238" stroke-width="0.5" stroke-linecap="round" stroke-linejoin="round"/>
<path d="M209.93 38.0437C209.93 38.0437 207.888 31.4384 199.074 30.1812C190.26 28.924 181.779 32.0704 178.939 38.9883C176.099 45.9063 182.531 49.4384 180.642 54.7865C178.753 60.1346 167.897 55.4118 161.923 62.8087C155.95 70.2056 156.728 76.0193 160.187 81.2144C163.646 86.4095 168.056 87.2011 163.806 92.0703C159.555 96.9395 154.999 99.6202 157.041 107.642C159.083 115.665 167.744 122.429 185.644 122.742C203.544 123.055 205.779 107.33 204.522 94.5847C203.265 81.8397 207.349 79.0127 213.835 72.4073C220.32 65.802 219.675 49.0593 209.93 38.0437Z" fill="#263238" stroke="#263238" stroke-width="0.5" stroke-linecap="round" stroke-linejoin="round"/>
<path d="M167.71 116.549C169.3 117.88 171.209 118.325 172.806 117.58" stroke="white" stroke-width="0.5" stroke-linecap="round" stroke-linejoin="round"/>
<path d="M166.533 70.219C164.97 71.4514 163.929 73.2283 163.62 75.1946C162.342 83.1037 170.764 86.423 172.267 91.0128C173.77 95.6026 165.888 99.434 164.611 106.838C164.067 109.599 164.623 112.463 166.161 114.82" stroke="white" stroke-width="0.5" stroke-linecap="round" stroke-linejoin="round"/>
<path d="M185.318 50.2168C185.318 50.2168 184.553 59.6558 180.216 63.4873C178.121 65.3365 174.476 66.2877 171.123 67.678" stroke="white" stroke-width="0.5" stroke-linecap="round" stroke-linejoin="round"/>
<path d="M197.917 48.2278C199.104 51.8032 201.279 54.9696 204.19 57.3608C211.846 63.4872 215.671 64.5049 215.671 64.5049" stroke="white" stroke-width="0.5" stroke-linecap="round" stroke-linejoin="round"/>
<path d="M196.533 41.0305C196.556 41.958 196.645 42.8828 196.799 43.7977" stroke="white" stroke-width="0.5" stroke-linecap="round" stroke-linejoin="round"/>
<path d="M206.997 36.9594C202.892 36.4701 198.734 37.1794 195.023 39.0015C188.644 42.0614 184.054 46.6578 180.988 44.6157" stroke="white" stroke-width="0.5" stroke-linecap="round" stroke-linejoin="round"/>
<path d="M212.398 59.5759C213.182 60.2574 214.021 60.8737 214.906 61.4185" stroke="white" stroke-width="0.5" stroke-linecap="round" stroke-linejoin="round"/>
<path d="M204.955 37.7112C204.955 37.7112 203.465 49.6047 210.482 57.6668" stroke="white" stroke-width="0.5" stroke-linecap="round" stroke-linejoin="round"/>
<path d="M180.968 39.2479C180.968 39.2479 182.245 41.2833 189.136 37.2057C196.028 33.1281 201.382 34.9042 204.189 35.9286" stroke="white" stroke-width="0.5" stroke-linecap="round" stroke-linejoin="round"/>
<path d="M193.773 152.316C193.773 152.316 193.141 165.534 193.141 171.826C193.141 178.119 192.037 200.769 192.828 208.319C193.62 215.868 198.15 219.494 199.593 219.174C201.037 218.855 200.378 213.853 198.649 209.735C196.919 205.618 196.919 197.622 197.544 195.766C198.17 193.911 203.837 182.709 203.837 176.416C203.837 170.123 202.74 165.56 203.524 160.365C204.309 155.17 204.782 152.975 204.782 152.975L193.773 152.316Z" fill="white" stroke="#263238" stroke-width="0.5" stroke-miterlimit="10"/>
<path d="M199.593 219.174C200.844 218.895 200.491 214.917 199.194 211.192C198.828 213.274 198.223 214.279 196.2 213.607C195.522 213.324 194.907 212.909 194.391 212.386C193.875 211.863 193.468 211.242 193.194 210.56C194.538 216.56 198.322 219.461 199.593 219.174Z" fill="#7FAED9" stroke="#263238" stroke-width="0.5" stroke-linecap="round" stroke-linejoin="round"/>
<path d="M191.119 152.316C191.119 152.316 191.744 165.534 191.744 171.826C191.744 178.119 192.848 200.769 192.063 208.319C191.278 215.868 186.742 219.494 185.298 219.174C183.855 218.855 184.513 213.853 186.243 209.735C187.972 205.618 187.972 197.622 187.34 195.766C186.708 193.911 181.048 182.709 181.048 176.416C181.048 170.123 182.152 165.56 181.367 160.365C180.582 155.17 180.103 152.975 180.103 152.975L191.119 152.316Z" fill="white" stroke="#263238" stroke-width="0.5" stroke-miterlimit="10"/>
<path d="M186.968 214.245C184.972 214.026 186.243 209.735 186.243 209.735C184.513 213.826 183.881 218.862 185.298 219.174C186.715 219.487 190.693 216.327 191.857 209.749C190.58 211.545 188.325 214.398 186.968 214.245Z" fill="#7FAED9" stroke="#263238" stroke-width="0.5" stroke-linecap="round" stroke-linejoin="round"/>
<path d="M189.908 62.496L174.808 68.1567L181.886 99.7731C181.886 99.7731 176.697 106.538 174.495 113.622C172.294 120.707 173.232 132.653 175.121 140.05C177.01 147.447 179.937 155.463 179.937 155.463H205.666C205.666 155.463 212.245 133.126 210.988 119.755C210.27 111.813 207.798 104.13 203.75 97.2587L210.203 67.5248L195.569 62.0237L189.908 62.496Z" fill="#7FAED9" stroke="#263238" stroke-width="0.5" stroke-linecap="round" stroke-linejoin="round"/>
<path d="M187.846 127.531C187.846 127.531 192.741 139.585 192.369 149.376" stroke="#263238" stroke-width="0.5" stroke-linecap="round" stroke-linejoin="round"/>
<path d="M198.396 129.793C197.24 132.732 195.721 135.514 193.873 138.075" stroke="#263238" stroke-width="0.5" stroke-linecap="round" stroke-linejoin="round"/>
<path d="M188.811 59.9951C189.12 63.2939 189.698 66.562 190.54 69.7667C191.797 74.1303 194.312 75.5871 196.041 70.392C197.771 65.1968 197.145 56.6758 197.145 56.6758C197.145 56.6758 193.054 62.4895 188.811 59.9951Z" fill="white" stroke="#263238" stroke-width="0.5" stroke-linecap="round" stroke-linejoin="round"/>
<path d="M210.203 67.5581L223.427 95.3962C224.145 96.9528 223.833 100.478 222.516 101.576C222.082 101.94 221.573 102.202 221.025 102.344C220.478 102.487 219.905 102.505 219.349 102.398C218.794 102.291 218.269 102.061 217.813 101.726C217.357 101.39 216.982 100.957 216.715 100.458L207.216 81.7199L210.203 67.5581Z" fill="#7FAED9" stroke="#263238" stroke-width="0.5" stroke-linecap="round" stroke-linejoin="round"/>
<path d="M210.987 120.61C217.284 114.313 217.284 104.104 210.987 97.807C204.69 91.5101 194.481 91.5101 188.184 97.807C181.887 104.104 181.887 114.313 188.184 120.61C194.481 126.907 204.69 126.907 210.987 120.61Z" fill="#263238" stroke="#263238" stroke-width="0.5" stroke-linecap="round" stroke-linejoin="round"/>
<path d="M209.89 106.857H201.941V98.9084H197.225V106.857H189.283V111.574H197.225V119.523H201.941V111.574H209.89V106.857Z" fill="#7FAED9"/>
<path d="M218.225 94.5846L204.07 115.505L206.731 118.338C206.731 118.338 223.872 101.981 224.504 99.7731C225.136 97.5646 223.247 95.0569 222.143 93.3274" fill="#7FAED9"/>
<path d="M218.225 94.5846L204.07 115.505L206.731 118.338C206.731 118.338 223.872 101.981 224.504 99.7731C225.136 97.5646 223.247 95.0569 222.143 93.3274" stroke="#263238" stroke-width="0.5" stroke-linecap="round" stroke-linejoin="round"/>
<path d="M204.07 115.505C204.07 115.505 199.979 117.081 199.507 117.394C198.555 118.449 197.666 119.56 196.846 120.72C196.846 120.72 196.054 122.609 196.846 122.609C197.638 122.609 198.263 121.345 198.735 121.033C199.207 120.72 199.36 122.29 198.735 122.922C198.11 123.554 196.374 126.248 197.631 126.853C198.888 127.458 199.992 125.755 200.465 125.755C200.937 125.755 203.451 126.068 204.868 124.492C206.285 122.915 206.757 118.359 206.757 118.359L204.07 115.505Z" fill="white" stroke="#263238" stroke-width="0.5" stroke-linecap="round" stroke-linejoin="round"/>
<path d="M174.808 68.1567L168.023 95.0769C167.671 96.4871 166.314 99.6999 167.504 100.538L168.296 101.33C170.072 102.58 173.518 102.281 174.469 100.339L179.231 87.9793L174.808 68.1567Z" fill="#7FAED9" stroke="#263238" stroke-width="0.5" stroke-linecap="round" stroke-linejoin="round"/>
<path d="M171.502 94.1124L152.152 91.4517L151.999 94.9106C151.999 94.9106 162.536 100.498 165.968 102.075C169.4 103.651 173.318 102.866 174.416 100.352C175.513 97.8375 176.671 92.5758 176.671 92.5758" fill="#7FAED9"/>
<path d="M171.502 94.1124L152.152 91.4517L151.999 94.9106C151.999 94.9106 162.536 100.498 165.968 102.075C169.4 103.651 173.318 102.866 174.416 100.352C175.513 97.8375 176.671 92.5758 176.671 92.5758" stroke="#263238" stroke-width="0.5" stroke-linecap="round" stroke-linejoin="round"/>
<path d="M149.584 92.7354C148.942 92.5009 148.271 92.3532 147.589 92.2964L146.352 89.0769C146.352 89.0769 143.105 88.3718 141.203 88.7044C139.301 89.037 141.649 91.8441 142.101 92.5159C142.267 92.7687 143.185 93.0082 144.256 93.1811L143.664 95.1767C143.664 95.1767 145.573 96.2942 146.917 96.2942C148.261 96.2942 152.019 94.8707 152.019 94.8707C151.431 93.9383 150.585 93.1966 149.584 92.7354Z" fill="white" stroke="#263238" stroke-width="0.5" stroke-linecap="round" stroke-linejoin="round"/>
<path d="M130.114 112.352C139.02 112.352 146.239 105.133 146.239 96.2277C146.239 87.3225 139.02 80.1035 130.114 80.1035C121.209 80.1035 113.99 87.3225 113.99 96.2277C113.99 105.133 121.209 112.352 130.114 112.352Z" fill="#263238" stroke="#263238" stroke-width="0.5" stroke-linecap="round" stroke-linejoin="round"/>
<path d="M140.418 93.8731H132.476V85.9241H127.753V93.8731H119.811V98.5892H127.753V106.532H132.476V98.5892H140.418V93.8731Z" fill="#7FAED9"/>
<path d="M152.152 91.4383C152.152 91.4383 147.276 89.0769 146.331 89.0769C145.387 89.0769 143.185 93.0148 142.4 93.4871C141.615 93.9594 140.198 94.7443 141.615 95.0569C142.825 95.2138 144.051 94.9356 145.074 94.272C145.518 93.9332 145.938 93.5642 146.331 93.1678C146.331 93.1678 147.436 93.7997 148.533 94.272C149.659 94.6206 150.822 94.8306 151.999 94.8973L152.152 91.4383Z" fill="white" stroke="#263238" stroke-width="0.5" stroke-linecap="round" stroke-linejoin="round"/>
<path d="M55.0677 37.3454C55.0677 37.3454 52.0743 34.3521 43.7595 34.3521C35.4446 34.3521 30.1231 44.6625 30.1231 51.9795C30.1231 59.2966 34.4468 69.607 36.1098 76.5915C37.7728 83.576 36.4424 89.23 30.1231 89.8952C23.8038 90.5604 20.5843 96.4141 26.9036 103.399C33.2229 110.383 50.0788 105.86 55.4003 96.2145C60.7218 86.5693 62.7173 80.5826 60.3892 63.6203C58.061 46.658 55.0677 37.3454 55.0677 37.3454Z" fill="#263238" stroke="#263238" stroke-width="0.5" stroke-linecap="round" stroke-linejoin="round"/>
<path d="M50.0323 39.7866C50.0323 39.7866 40.0545 39.4673 36.5423 50.3897C33.0301 61.3121 40.0745 68.7023 41.3583 80.9085C42.6421 93.1147 39.7552 99.2211 32.0457 98.5826C24.3361 97.944 28.1876 91.505 31.0811 91.505C33.9747 91.505 33.9681 94.3985 33.9681 94.3985" stroke="white" stroke-width="0.5" stroke-linecap="round" stroke-linejoin="round"/>
<path d="M49.0675 44.2766C45.5353 49.7045 42.9943 56.403 45.7416 62.6824C48.0364 67.9639 52.3934 71.7156 50.6905 77.9817" stroke="white" stroke-width="0.5" stroke-linecap="round" stroke-linejoin="round"/>
<path d="M72.562 39.7799C72.562 39.7799 76.5531 42.3209 75.6884 45.2544C74.8237 48.1878 71.2915 49.2455 70.7993 48.1878C70.307 47.1302 68.1385 41.8353 68.9434 40.2655C69.7483 38.6956 72.562 39.7799 72.562 39.7799Z" fill="#263238" stroke="#263238" stroke-width="0.5" stroke-linecap="round" stroke-linejoin="round"/>
<path d="M64.7397 63.567C64.8395 63.8597 64.7397 64.4451 66.7353 68.3032C68.0257 70.8442 74.0523 73.9573 74.0523 73.9573C74.0523 73.9573 65.4515 75.4007 63.2031 75.8863C60.9548 76.3719 51.7686 72.6269 51.7686 72.6269C51.7686 72.6269 56.7575 70.8043 56.7575 64.6446C56.7575 58.485 57.6023 57.3808 57.6023 57.3808C58.5086 57.3239 59.4135 57.5119 60.2222 57.925C61.0309 58.3381 61.7136 58.9612 62.1987 59.7289C63.1119 60.9632 63.9601 62.2443 64.7397 63.567Z" fill="white" stroke="#263238" stroke-width="0.5" stroke-linecap="round" stroke-linejoin="round"/>
<path d="M75.356 69.2744C75.356 69.2744 79.6798 70.6048 81.3427 73.2655C83.0057 75.9263 88.3272 98.5427 88.3272 98.5427C88.3272 98.5427 88.9924 98.5427 92.6509 97.5449C96.3094 96.5471 94.6797 97.1192 94.6797 97.1192L97.0079 97.7844L101.185 96.1014L103.121 101.629L99.6686 103.106C99.6686 103.106 98.0057 106.764 96.0101 107.762C92.9626 109.164 89.6803 109.985 86.3316 110.183C82.0079 110.516 78.682 107.855 78.682 104.529C78.682 101.203 75.0234 75.2611 75.0234 75.2611" fill="#7FAED9"/>
<path d="M75.356 69.2744C75.356 69.2744 79.6798 70.6048 81.3427 73.2655C83.0057 75.9263 88.3272 98.5427 88.3272 98.5427C88.3272 98.5427 88.9924 98.5427 92.6509 97.5449C96.3094 96.5471 94.6797 97.1192 94.6797 97.1192L97.0079 97.7844L101.185 96.1014L103.121 101.629L99.6686 103.106C99.6686 103.106 98.0057 106.764 96.0101 107.762C92.9626 109.164 89.6803 109.985 86.3316 110.183C82.0079 110.516 78.682 107.855 78.682 104.529C78.682 101.203 75.0234 75.2611 75.0234 75.2611" stroke="#263238" stroke-width="0.5" stroke-linecap="round" stroke-linejoin="round"/>
<path d="M69.0166 129.321C61.4534 130.225 56.4978 129.846 53.4645 129.274C53.0783 126.409 52.9448 123.515 53.0654 120.627C53.5244 114.154 79.9922 113.35 84.8481 120.627C84.8481 120.627 85.1142 122.21 85.5133 124.691C84.9346 125.316 81.7483 127.804 69.0166 129.321Z" fill="white" stroke="#263238" stroke-width="0.5" stroke-linecap="round" stroke-linejoin="round"/>
<path d="M83.6508 110.589C83.1186 97.425 85.8592 92.0436 75.3559 69.2742C71.2384 68.2299 70.0011 68.915 68.704 67.0791C66.7287 68.9556 64.2477 70.2134 61.5665 70.6977C56.9701 71.5758 54.4291 69.3274 54.4291 69.3274C54.4291 69.3274 41.3249 70.6977 42.6952 77.343C44.0654 83.9882 51.296 102.667 51.5887 109.319C51.8814 115.97 49.3404 123.008 51.5887 124.472C53.8371 125.935 64.8925 127.212 73.3005 125.749C81.7084 124.285 87.5355 122.103 87.0698 119.975C86.6042 117.846 83.8304 114.993 83.6508 110.589Z" fill="#7FAED9" stroke="#263238" stroke-width="0.5" stroke-linecap="round" stroke-linejoin="round"/>
<path d="M82.4135 95.9817C82.4135 95.9817 75.449 107.955 70.041 112.991" stroke="#263238" stroke-width="0.5" stroke-linecap="round" stroke-linejoin="round"/>
<path d="M71.9699 106.804C69.1666 109.655 65.8981 112.008 62.3047 113.762" stroke="#263238" stroke-width="0.5" stroke-linecap="round" stroke-linejoin="round"/>
<path d="M55.4002 66.946C55.4002 66.946 56.9567 71.6024 61.5532 70.6977C64.2343 70.2134 66.7153 68.9555 68.6906 67.0791C69.2294 67.8307 70.5132 68.4095 72.103 68.915C71.0321 75.5669 62.7904 77.6556 57.7283 76.2321C54.6352 75.3873 53.072 71.629 51.8281 69.7332C53.3248 69.4472 55.4002 66.946 55.4002 66.946Z" fill="white" stroke="#263238" stroke-width="0.5" stroke-linecap="round" stroke-linejoin="round"/>
<path d="M49.4734 118.112C49.4734 118.112 53.4645 129.188 54.9013 135.321C56.3381 141.454 55.2206 143.702 55.3204 147.055C55.4202 150.407 55.3204 154.265 54.7084 154.086C54.0965 153.906 53.8038 152.636 53.8104 151.325C53.8171 150.015 53.7373 146.423 53.7373 146.423C53.7373 146.423 52.1075 151.445 51.9146 151.877C51.7217 152.31 50.837 152.489 51.0832 151.072C51.3293 149.656 52.2738 145.119 52.2738 145.119C52.2738 145.119 49.7129 149.676 49.5 149.948C49.2872 150.221 48.2229 150.254 48.5222 149.323C48.8215 148.392 51.01 143.383 51.01 143.383C51.01 143.383 47.9036 146.935 47.5577 146.815C47.2118 146.696 47.2317 146.117 47.5577 145.485C47.8836 144.853 49.826 142.438 50.112 142.079C50.398 141.72 50.3248 141.806 50.6574 140.456C50.99 139.106 51.9878 137.849 52.1874 137.416C52.3869 136.984 42.7949 117.8 42.7949 117.8L49.4734 118.112Z" fill="white" stroke="#263238" stroke-width="0.5" stroke-linecap="round" stroke-linejoin="round"/>
<path d="M47.7242 71.3496C47.7242 71.3496 40.6266 72.6401 39.0102 76.1922C37.3938 79.7443 39.6754 86.5159 39.6754 90.7132C39.6754 94.9106 37.4204 106.525 38.385 109.432C39.3495 112.338 40.0014 116.21 40.3206 117.5C40.6399 118.791 43.5468 119.755 43.5468 119.755L44.4448 123.667L51.7619 122.29L50.9503 118.778C50.9503 118.778 52.5668 119.097 51.9215 115.225C51.2763 111.354 49.9858 109.092 49.9858 105.866C49.9858 102.64 49.6599 91.6711 51.2763 84.8928" fill="#7FAED9"/>
<path d="M47.7242 71.3496C47.7242 71.3496 40.6266 72.6401 39.0102 76.1922C37.3938 79.7443 39.6754 86.5159 39.6754 90.7132C39.6754 94.9106 37.4204 106.525 38.385 109.432C39.3495 112.338 40.0014 116.21 40.3206 117.5C40.6399 118.791 43.5468 119.755 43.5468 119.755L44.4448 123.667L51.7619 122.29L50.9503 118.778C50.9503 118.778 52.5668 119.097 51.9215 115.225C51.2763 111.354 49.9858 109.092 49.9858 105.866C49.9858 102.64 49.6599 91.6711 51.2763 84.8928" stroke="#263238" stroke-width="0.5" stroke-linecap="round" stroke-linejoin="round"/>
<path d="M111.662 93.2276L114.449 89.343L118.832 88.3917C118.832 88.3917 120.642 87.8529 120.396 88.8241C120.149 89.7953 119.817 89.8951 118.666 90.241L116.67 90.8263C116.333 91.8706 115.654 92.7705 114.741 93.3806C114.449 93.5378 114.128 93.635 113.797 93.6667" fill="white"/>
<path d="M111.662 93.2276L114.449 89.343L118.832 88.3917C118.832 88.3917 120.642 87.8529 120.396 88.8241C120.149 89.7953 119.817 89.8951 118.666 90.241L116.67 90.8263C116.333 91.8706 115.654 92.7705 114.741 93.3806C114.449 93.5378 114.128 93.635 113.797 93.6667" stroke="#263238" stroke-width="0.5" stroke-linecap="round" stroke-linejoin="round"/>
<path d="M71.7773 41.0503C71.7773 41.0503 73.54 52.4915 72.5622 56.6955C71.5844 60.8995 68.2451 64.8973 64.7396 64.4183C61.234 63.9394 58.5799 59.1367 58.5799 59.1367C58.5799 59.1367 57.5023 59.8019 57.0167 59.0436C56.5311 58.2853 56.4314 56.303 57.0167 54.2476C57.6021 52.1922 66.795 38.7022 71.7773 41.0503Z" fill="white" stroke="#263238" stroke-width="0.5" stroke-linecap="round" stroke-linejoin="round"/>
<path d="M64.8394 49.0593C65.0053 48.6303 65.295 48.2603 65.6716 47.9962C66.0482 47.7321 66.4948 47.5858 66.9546 47.5759" stroke="#263238" stroke-width="0.5" stroke-linecap="round" stroke-linejoin="round"/>
<path d="M70.0078 47.1834C70.3185 47.0538 70.6632 47.0298 70.9889 47.1151C71.3146 47.2004 71.6032 47.3904 71.8105 47.6557" stroke="#263238" stroke-width="0.5" stroke-linecap="round" stroke-linejoin="round"/>
<path d="M69.8282 50.5359C69.8282 50.5359 69.2694 52.3984 70.3869 52.9638C71.5044 53.5292 70.3869 54.4538 70.0144 55.0126" stroke="#263238" stroke-width="0.5" stroke-linecap="round" stroke-linejoin="round"/>
<path d="M68.91 57.9994C68.3735 58.0911 67.8228 58.0539 67.3035 57.8908C66.7842 57.7277 66.3111 57.4435 65.9233 57.0615" stroke="#263238" stroke-width="0.5" stroke-linecap="round" stroke-linejoin="round"/>
<path d="M67.267 51.1745C67.267 51.7399 67.0542 52.1922 66.7947 52.1922C66.5353 52.1922 66.3291 51.7399 66.3291 51.1745C66.3291 50.6091 66.5353 50.1567 66.7947 50.1567C67.0542 50.1567 67.267 50.6157 67.267 51.1745Z" fill="#263238"/>
<path d="M71.4978 50.9284C71.4978 51.4871 71.2849 51.9461 71.0255 51.9461C70.7661 51.9461 70.5532 51.4871 70.5532 50.9284C70.5532 50.3696 70.7661 49.9106 71.0255 49.9106C71.2849 49.9106 71.4978 50.3763 71.4978 50.9284Z" fill="#263238"/>
<path d="M59.0587 35.6823C59.0587 35.6823 73.2471 34.4982 73.8325 37.4317C74.4179 40.3652 62.9767 50.2632 59.5576 54.6401C56.1385 59.0171 54.8614 60.1146 53.1053 59.4295C51.3492 58.7443 46.1274 49.3585 48.0831 42.9993C50.0387 36.6402 59.0587 35.6823 59.0587 35.6823Z" fill="#263238" stroke="#263238" stroke-width="0.5" stroke-linecap="round" stroke-linejoin="round"/>
<path d="M68.3446 36.2544C68.3446 36.2544 65.777 46.8575 59.3513 51.6734C52.9255 56.4894 50.3579 54.2544 50.3579 54.2544" stroke="white" stroke-width="0.5" stroke-linecap="round" stroke-linejoin="round"/>
<path d="M59.0586 35.6824C59.0586 35.6824 60.9544 43.964 57.7282 47.8221C54.502 51.6801 48.7349 51.3542 48.7349 51.3542" stroke="white" stroke-width="0.5" stroke-linecap="round" stroke-linejoin="round"/>
<path d="M195.003 42.8996C194.811 42.8131 194.791 42.6801 194.904 42.5071C194.837 42.2011 194.791 41.9883 194.764 41.8818C193.569 42.6613 192.314 43.3463 191.012 43.9306C188.623 45.0163 186.073 45.706 183.462 45.9727C183.462 45.9727 184.72 54.6202 187.234 59.0304C189.063 62.2299 190.853 63.9062 195.575 60.9195C196.668 60.2064 197.608 59.2836 198.341 58.2045C199.074 57.1255 199.585 55.9117 199.846 54.6335C197.179 50.9883 195.582 45.2743 195.003 42.8996Z" fill="white" stroke="#263238" stroke-width="0.5" stroke-linecap="round" stroke-linejoin="round"/>
<path d="M192.835 48.1013C192.671 47.6718 192.383 47.301 192.008 47.0366C191.632 46.7723 191.185 46.6264 190.726 46.6179" stroke="#263238" stroke-width="0.5" stroke-linecap="round" stroke-linejoin="round"/>
<path d="M187.673 46.2256C187.363 46.0964 187.019 46.0719 186.693 46.156C186.368 46.24 186.079 46.428 185.87 46.6913" stroke="#263238" stroke-width="0.5" stroke-linecap="round" stroke-linejoin="round"/>
<path d="M187.846 49.5981C187.846 49.5981 188.405 51.4607 187.287 52.0194C186.17 52.5782 187.287 53.5161 187.66 54.0749" stroke="#263238" stroke-width="0.5" stroke-linecap="round" stroke-linejoin="round"/>
<path d="M188.777 57.0348C189.313 57.1268 189.863 57.0903 190.382 56.9284C190.901 56.7665 191.375 56.4838 191.764 56.1035" stroke="#263238" stroke-width="0.5" stroke-linecap="round" stroke-linejoin="round"/>
<path d="M190.407 50.2167C190.407 50.7755 190.62 51.2345 190.879 51.2345C191.138 51.2345 191.351 50.7755 191.351 50.2167C191.351 49.658 191.138 49.199 190.879 49.199C190.62 49.199 190.407 49.6513 190.407 50.2167Z" fill="#263238"/>
<path d="M186.183 49.9838C186.183 50.5426 186.389 51.0015 186.648 51.0015C186.908 51.0015 187.121 50.5426 187.121 49.9838C187.121 49.425 186.914 48.9661 186.648 48.9661C186.382 48.9661 186.183 49.4184 186.183 49.9838Z" fill="#263238"/>
</svg>
