<svg width="22" height="18" viewBox="0 0 22 18" fill="none" xmlns="http://www.w3.org/2000/svg">
<path d="M11.2102 1.00318C14.9349 0.949264 18.0361 3.83615 18.2317 7.53944C20.1667 8.26624 21.4614 10.0936 21.5 12.152C21.51 14.7359 19.4722 16.8684 16.8794 16.9871H13.624C13.4391 17.0176 13.2535 16.9365 13.1511 16.7803C13.0486 16.6241 13.0486 16.4223 13.1511 16.2661C13.2535 16.1099 13.4391 16.0287 13.624 16.0593H16.7873C18.8588 15.9214 20.4669 14.2061 20.4622 12.1393C20.4143 11.2362 20.0889 10.3696 19.5303 9.65647C18.8955 8.77617 17.8758 8.25169 16.7873 8.24572H16.0651C15.8042 8.24572 15.5927 8.03518 15.5927 7.77547C15.5927 7.51576 15.8042 7.30523 16.0651 7.30523H17.2332C16.9507 4.22112 14.3184 1.88098 11.2084 1.94912C9.50642 1.87798 7.86624 2.59045 6.76108 3.88095C5.82435 5.05851 5.3236 6.52134 5.34309 8.02331V8.75501C5.36386 8.92881 5.28239 9.09902 5.13371 9.19245C4.98504 9.28588 4.79565 9.28588 4.64697 9.19245C4.49829 9.09902 4.41682 8.92881 4.43759 8.75501V8.32379C3.72039 8.48892 3.07043 8.86689 2.57368 9.40772C1.86557 10.1464 1.47494 11.131 1.48489 12.152C1.53103 13.1255 1.92156 14.0513 2.58736 14.7656C3.23352 15.5557 4.1892 16.0318 5.21178 16.0729H8.76815C9.31883 16.1326 9.87087 15.973 10.3038 15.629C10.6541 15.1906 10.8105 14.6293 10.7369 14.0739V9.10724L9.13656 10.6887C9.05032 10.7776 8.93239 10.8291 8.80828 10.8321C8.68672 10.8287 8.57034 10.7824 8.48 10.7014C8.39101 10.6131 8.34099 10.4932 8.34099 10.3682C8.34099 10.2432 8.39101 10.1233 8.48 10.035L10.6457 7.87896C10.7773 7.69153 10.9823 7.5682 11.2102 7.53944C11.4297 7.55539 11.6334 7.65922 11.7747 7.82722L13.9404 9.98328C14.0577 10.1 14.1035 10.2702 14.0606 10.4297C14.0176 10.5892 13.8925 10.7138 13.7323 10.7565C13.5721 10.7993 13.4011 10.7537 13.2838 10.6369L11.6826 9.10724V14.0757C11.7597 14.8727 11.5142 15.6674 11.0005 16.2835C10.3903 16.8037 9.5958 17.0579 8.79551 16.9889H5.12059C3.83728 16.9518 2.63216 16.3663 1.81317 15.3821C1.00392 14.4949 0.538416 13.3498 0.500047 12.152C0.489857 9.81788 2.13926 7.80242 4.43759 7.34063C4.55268 5.73774 5.20412 4.21951 6.28781 3.02851C7.56146 1.68265 9.35374 0.945207 11.2102 1.00318Z" fill="white" stroke="white" stroke-width="0.5"/>
</svg>
