<svg width="15" height="17" viewBox="0 0 15 17" fill="none" xmlns="http://www.w3.org/2000/svg">
<path fill-rule="evenodd" clip-rule="evenodd" d="M1.5 5.25C1.5 7.73625 3.51375 9.75 6 9.75C8.48625 9.75 10.5 7.73625 10.5 5.25C10.5 2.76375 8.48625 0.75 6 0.75C3.51375 0.75 1.5 2.76375 1.5 5.25ZM7.5 12.2566V10.6891V10.6884C5.70294 10.2244 3.79231 10.6182 2.32516 11.7549C0.858015 12.8917 -0.000471353 14.6434 1.94156e-07 16.4994L1.5 16.5001C1.49972 15.0391 2.20875 13.6689 3.40157 12.8253C4.5944 11.9817 6.12255 11.7696 7.5 12.2566ZM6 8.25C7.6575 8.25 9 6.9075 9 5.25C9 3.5925 7.6575 2.25 6 2.25C4.3425 2.25 3 3.5925 3 5.25C3 6.9075 4.3425 8.25 6 8.25ZM10.5 10.5V12.75H8.25V14.25H10.5V16.5H12V14.25H14.25V12.75H12V10.5H10.5Z" fill="#003463"/>
</svg>
